<svg xmlns="http://www.w3.org/2000/svg" xmlns:xlink="http://www.w3.org/1999/xlink" contentStyleType="text/css" height="312px" preserveAspectRatio="none" style="width:451px;height:312px;background:#FFFFFF;" version="1.1" viewBox="0 0 451 312" width="451px" zoomAndPan="magnify"><defs/><g><!--cluster Upgrades--><g id="cluster_Upgrades"><path d="M8.5,6 L78.3105,6 A3.75,3.75 0 0 1 80.8105,8.5 L87.8105,28.4883 L441.5,28.4883 A2.5,2.5 0 0 1 444,30.9883 L444,302.96 A2.5,2.5 0 0 1 441.5,305.46 L8.5,305.46 A2.5,2.5 0 0 1 6,302.96 L6,8.5 A2.5,2.5 0 0 1 8.5,6 " fill="none" style="stroke:#000000;stroke-width:1.5;"/><line style="stroke:#000000;stroke-width:1.5;" x1="6" x2="87.8105" y1="28.4883" y2="28.4883"/><text fill="#000000" font-family="sans-serif" font-size="14" font-weight="bold" lengthAdjust="spacing" textLength="68.8105" x="10" y="21.5352">Upgrades</text></g><!--cluster Weapons--><g id="cluster_Weapons"><path d="M32.5,49 L97.915,49 A3.75,3.75 0 0 1 100.415,51.5 L107.415,71.4883 L157.5,71.4883 A2.5,2.5 0 0 1 160,73.9883 L160,145.5 A2.5,2.5 0 0 1 157.5,148 L32.5,148 A2.5,2.5 0 0 1 30,145.5 L30,51.5 A2.5,2.5 0 0 1 32.5,49 " fill="none" style="stroke:#000000;stroke-width:1.5;"/><line style="stroke:#000000;stroke-width:1.5;" x1="30" x2="107.415" y1="71.4883" y2="71.4883"/><text fill="#000000" font-family="sans-serif" font-size="14" font-weight="bold" lengthAdjust="spacing" textLength="64.415" x="34" y="64.5352">Weapons</text></g><!--class AddWeaponUpgrade--><g id="elem_AddWeaponUpgrade"><rect codeLine="2" fill="#F1F1F1" height="97.4648" id="AddWeaponUpgrade" rx="2.5" ry="2.5" style="stroke:#181818;stroke-width:0.5;" width="315.2148" x="68.39" y="192"/><ellipse cx="152.6463" cy="208" fill="#ADD1B2" rx="11" ry="11" style="stroke:#181818;stroke-width:1.0;"/><path d="M155.1195,214.1431 Q154.5384,214.4419 153.8993,214.5913 Q153.2601,214.7407 152.5546,214.7407 Q150.0477,214.7407 148.7279,213.0889 Q147.4081,211.437 147.4081,208.3159 Q147.4081,205.1865 148.7279,203.5347 Q150.0477,201.8828 152.5546,201.8828 Q153.2601,201.8828 153.9076,202.0322 Q154.555,202.1816 155.1195,202.4805 L155.1195,205.2031 Q154.4886,204.6221 153.8951,204.3523 Q153.3016,204.0825 152.6708,204.0825 Q151.326,204.0825 150.6412,205.1492 Q149.9564,206.2158 149.9564,208.3159 Q149.9564,210.4077 150.6412,211.4744 Q151.326,212.541 152.6708,212.541 Q153.3016,212.541 153.8951,212.2712 Q154.4886,212.0015 155.1195,211.4204 Z " fill="#000000"/><text fill="#000000" font-family="sans-serif" font-size="14" lengthAdjust="spacing" textLength="138.2021" x="173.1463" y="213.291">AddWeaponUpgrade</text><line style="stroke:#181818;stroke-width:0.5;" x1="69.39" x2="382.6048" y1="224" y2="224"/><ellipse cx="79.39" cy="237.7441" fill="none" rx="3" ry="3" style="stroke:#038048;stroke-width:1.0;"/><text fill="#000000" font-family="sans-serif" font-size="14" lengthAdjust="spacing" textLength="188.9658" x="88.39" y="241.5352">upgradeName : string &#171;get&#187;</text><ellipse cx="79.39" cy="254.2324" fill="none" rx="3" ry="3" style="stroke:#038048;stroke-width:1.0;"/><text fill="#000000" font-family="sans-serif" font-size="14" lengthAdjust="spacing" textLength="185.8691" x="88.39" y="258.0234">weaponId : WeaponId &#171;get&#187;</text><line style="stroke:#181818;stroke-width:0.5;" x1="69.39" x2="382.6048" y1="264.9766" y2="264.9766"/><ellipse cx="79.39" cy="278.7207" fill="#84BE84" rx="3" ry="3" style="stroke:#038048;stroke-width:1.0;"/><text fill="#000000" font-family="sans-serif" font-size="14" lengthAdjust="spacing" textLength="289.2148" x="88.39" y="282.5117">Initialize(upgradeData:UpgradeData) : void</text></g><!--class IUpgrade--><g id="elem_IUpgrade"><rect fill="#F1F1F1" height="48" id="IUpgrade" rx="2.5" ry="2.5" style="stroke:#181818;stroke-width:0.5;" width="93.3457" x="179.33" y="84"/><ellipse cx="194.33" cy="100" fill="#ADD1B2" rx="11" ry="11" style="stroke:#181818;stroke-width:1.0;"/><path d="M196.8031,106.1431 Q196.2221,106.4419 195.5829,106.5913 Q194.9438,106.7407 194.2382,106.7407 Q191.7314,106.7407 190.4115,105.0889 Q189.0917,103.437 189.0917,100.3159 Q189.0917,97.1865 190.4115,95.5347 Q191.7314,93.8828 194.2382,93.8828 Q194.9438,93.8828 195.5912,94.0322 Q196.2387,94.1816 196.8031,94.4805 L196.8031,97.2031 Q196.1723,96.6221 195.5788,96.3523 Q194.9853,96.0825 194.3544,96.0825 Q193.0097,96.0825 192.3249,97.1492 Q191.6401,98.2158 191.6401,100.3159 Q191.6401,102.4077 192.3249,103.4744 Q193.0097,104.541 194.3544,104.541 Q194.9853,104.541 195.5788,104.2712 Q196.1723,104.0015 196.8031,103.4204 Z " fill="#000000"/><text fill="#000000" font-family="sans-serif" font-size="14" lengthAdjust="spacing" textLength="61.3457" x="208.33" y="105.291">IUpgrade</text><line style="stroke:#181818;stroke-width:0.5;" x1="180.33" x2="271.6757" y1="116" y2="116"/><line style="stroke:#181818;stroke-width:0.5;" x1="180.33" x2="271.6757" y1="124" y2="124"/></g><!--class UpgradeData--><g id="elem_UpgradeData"><rect fill="#F1F1F1" height="48" id="UpgradeData" rx="2.5" ry="2.5" style="stroke:#181818;stroke-width:0.5;" width="120.498" x="307.75" y="84"/><ellipse cx="322.75" cy="100" fill="#ADD1B2" rx="11" ry="11" style="stroke:#181818;stroke-width:1.0;"/><path d="M325.2231,106.1431 Q324.6421,106.4419 324.0029,106.5913 Q323.3638,106.7407 322.6582,106.7407 Q320.1514,106.7407 318.8315,105.0889 Q317.5117,103.437 317.5117,100.3159 Q317.5117,97.1865 318.8315,95.5347 Q320.1514,93.8828 322.6582,93.8828 Q323.3638,93.8828 324.0112,94.0322 Q324.6587,94.1816 325.2231,94.4805 L325.2231,97.2031 Q324.5923,96.6221 323.9988,96.3523 Q323.4053,96.0825 322.7744,96.0825 Q321.4297,96.0825 320.7449,97.1492 Q320.0601,98.2158 320.0601,100.3159 Q320.0601,102.4077 320.7449,103.4744 Q321.4297,104.541 322.7744,104.541 Q323.4053,104.541 323.9988,104.2712 Q324.5923,104.0015 325.2231,103.4204 Z " fill="#000000"/><text fill="#000000" font-family="sans-serif" font-size="14" lengthAdjust="spacing" textLength="88.498" x="336.75" y="105.291">UpgradeData</text><line style="stroke:#181818;stroke-width:0.5;" x1="308.75" x2="427.248" y1="116" y2="116"/><line style="stroke:#181818;stroke-width:0.5;" x1="308.75" x2="427.248" y1="124" y2="124"/></g><!--class WeaponId--><g id="elem_WeaponId"><rect fill="#F1F1F1" height="48" id="WeaponId" rx="2.5" ry="2.5" style="stroke:#181818;stroke-width:0.5;" width="98.4521" x="45.77" y="84"/><ellipse cx="60.77" cy="100" fill="#ADD1B2" rx="11" ry="11" style="stroke:#181818;stroke-width:1.0;"/><path d="M63.2431,106.1431 Q62.6621,106.4419 62.0229,106.5913 Q61.3838,106.7407 60.6782,106.7407 Q58.1714,106.7407 56.8515,105.0889 Q55.5317,103.437 55.5317,100.3159 Q55.5317,97.1865 56.8515,95.5347 Q58.1714,93.8828 60.6782,93.8828 Q61.3838,93.8828 62.0312,94.0322 Q62.6787,94.1816 63.2431,94.4805 L63.2431,97.2031 Q62.6123,96.6221 62.0188,96.3523 Q61.4253,96.0825 60.7944,96.0825 Q59.4497,96.0825 58.7649,97.1492 Q58.0801,98.2158 58.0801,100.3159 Q58.0801,102.4077 58.7649,103.4744 Q59.4497,104.541 60.7944,104.541 Q61.4253,104.541 62.0188,104.2712 Q62.6123,104.0015 63.2431,103.4204 Z " fill="#000000"/><text fill="#000000" font-family="sans-serif" font-size="14" lengthAdjust="spacing" textLength="66.4521" x="74.77" y="105.291">WeaponId</text><line style="stroke:#181818;stroke-width:0.5;" x1="46.77" x2="143.2221" y1="116" y2="116"/><line style="stroke:#181818;stroke-width:0.5;" x1="46.77" x2="143.2221" y1="124" y2="124"/></g><!--reverse link IUpgrade to AddWeaponUpgrade--><g id="link_IUpgrade_AddWeaponUpgrade"><path codeLine="7" d="M226,150.37 C226,166.82 226,171.42 226,191.65 " fill="none" id="IUpgrade-backto-AddWeaponUpgrade" style="stroke:#181818;stroke-width:1.0;"/><polygon fill="none" points="226,132.37,220,150.37,232,150.37,226,132.37" style="stroke:#181818;stroke-width:1.0;"/></g><!--reverse link UpgradeData to AddWeaponUpgrade--><g id="link_UpgradeData_AddWeaponUpgrade"><path codeLine="8" d="M338.1956,136.4336 C320.3256,152.8836 300.19,171.42 278.22,191.65 " fill="none" id="UpgradeData-backto-AddWeaponUpgrade" style="stroke:#181818;stroke-width:1.0;stroke-dasharray:7.0,7.0;"/><polygon fill="#181818" points="342.61,132.37,333.2793,135.5225,338.9313,135.7564,338.6975,141.4084,342.61,132.37" style="stroke:#181818;stroke-width:1.0;"/></g><!--link WeaponId to AddWeaponUpgrade--><g id="link_WeaponId_AddWeaponUpgrade"><path codeLine="9" d="M118.42,132.37 C134.91,148.82 149.0684,162.941 169.3284,183.171 " fill="none" id="WeaponId-to-AddWeaponUpgrade" style="stroke:#181818;stroke-width:1.0;"/><polygon fill="#181818" points="177.82,191.65,176.4005,184.58,169.3284,183.171,170.7479,190.241,177.82,191.65" style="stroke:#181818;stroke-width:1.0;"/></g><!--SRC=[POxD2i8m48JlUOez-aFo02KK12-zU2izByqI0ZKDJLImzjqDDh5AzZJBV3ECnIjvXpr1w_I4YlpC-W6zXvDI7Q4RRJ9WPX3l2BVrlyGaLE33PAm6AJM5kax8unDiLFIxBF-9nffWS31FsgM-CmQisatlO_W-6iKMbgU99c-HBywBXHltKmDIY99SFo- -wpW_bDJo1W00]--></g></svg>