<svg xmlns="http://www.w3.org/2000/svg" xmlns:xlink="http://www.w3.org/1999/xlink" contentStyleType="text/css" height="128px" preserveAspectRatio="none" style="width:259px;height:128px;background:#FFFFFF;" version="1.1" viewBox="0 0 259 128" width="259px" zoomAndPan="magnify"><defs/><g><!--cluster Upgrades--><g id="cluster_Upgrades"><path d="M8.5,6 L78.3105,6 A3.75,3.75 0 0 1 80.8105,8.5 L87.8105,28.4883 L249.5,28.4883 A2.5,2.5 0 0 1 252,30.9883 L252,118.99 A2.5,2.5 0 0 1 249.5,121.49 L8.5,121.49 A2.5,2.5 0 0 1 6,118.99 L6,8.5 A2.5,2.5 0 0 1 8.5,6 " fill="none" style="stroke:#000000;stroke-width:1.5;"/><line style="stroke:#000000;stroke-width:1.5;" x1="6" x2="87.8105" y1="28.4883" y2="28.4883"/><text fill="#000000" font-family="sans-serif" font-size="14" font-weight="bold" lengthAdjust="spacing" textLength="68.8105" x="10" y="21.5352">Upgrades</text></g><!--class IUpgrade--><g id="elem_IUpgrade"><rect codeLine="2" fill="#F1F1F1" height="64.4883" id="IUpgrade" rx="2.5" ry="2.5" style="stroke:#181818;stroke-width:0.5;" width="214.9658" x="21.52" y="41"/><ellipse cx="94.0801" cy="57" fill="#B4A7E5" rx="11" ry="11" style="stroke:#181818;stroke-width:1.0;"/><path d="M90.5078,53.2651 L90.5078,51.1069 L97.8872,51.1069 L97.8872,53.2651 L95.4219,53.2651 L95.4219,61.3418 L97.8872,61.3418 L97.8872,63.5 L90.5078,63.5 L90.5078,61.3418 L92.9731,61.3418 L92.9731,53.2651 Z " fill="#000000"/><text fill="#000000" font-family="sans-serif" font-size="14" font-style="italic" lengthAdjust="spacing" textLength="61.3457" x="114.5801" y="62.291">IUpgrade</text><line style="stroke:#181818;stroke-width:0.5;" x1="22.52" x2="235.4858" y1="73" y2="73"/><ellipse cx="32.52" cy="86.7441" fill="none" rx="3" ry="3" style="stroke:#038048;stroke-width:1.0;"/><text fill="#000000" font-family="sans-serif" font-size="14" lengthAdjust="spacing" textLength="188.9658" x="41.52" y="90.5352">upgradeName : string &#171;get&#187;</text><line style="stroke:#181818;stroke-width:0.5;" x1="22.52" x2="235.4858" y1="97.4883" y2="97.4883"/></g><!--SRC=[oqlCJIqkI4nELGWjI2zAJ4ajhkRAp2j9BKe3YNb21HMgkHI0G5kX5CBt0-fIi58eBYdAp4jNiB59Josni-EgvQe50000]--></g></svg>