<svg xmlns="http://www.w3.org/2000/svg" xmlns:xlink="http://www.w3.org/1999/xlink" contentStyleType="text/css" height="252px" preserveAspectRatio="none" style="width:361px;height:252px;background:#FFFFFF;" version="1.1" viewBox="0 0 361 252" width="361px" zoomAndPan="magnify"><defs/><g><!--cluster Upgrades--><g id="cluster_Upgrades"><path d="M8.5,6 L78.3105,6 A3.75,3.75 0 0 1 80.8105,8.5 L87.8105,28.4883 L351.5,28.4883 A2.5,2.5 0 0 1 354,30.9883 L354,243.48 A2.5,2.5 0 0 1 351.5,245.98 L8.5,245.98 A2.5,2.5 0 0 1 6,243.48 L6,8.5 A2.5,2.5 0 0 1 8.5,6 " fill="none" style="stroke:#000000;stroke-width:1.5;"/><line style="stroke:#000000;stroke-width:1.5;" x1="6" x2="87.8105" y1="28.4883" y2="28.4883"/><text fill="#000000" font-family="sans-serif" font-size="14" font-weight="bold" lengthAdjust="spacing" textLength="68.8105" x="10" y="21.5352">Upgrades</text></g><!--class IUpgrade--><g id="elem_IUpgrade"><rect codeLine="2" fill="#F1F1F1" height="80.9766" id="IUpgrade" rx="2.5" ry="2.5" style="stroke:#181818;stroke-width:0.5;" width="315.2148" x="22.39" y="149"/><ellipse cx="145.0746" cy="165" fill="#B4A7E5" rx="11" ry="11" style="stroke:#181818;stroke-width:1.0;"/><path d="M141.5023,161.2651 L141.5023,159.1069 L148.8817,159.1069 L148.8817,161.2651 L146.4164,161.2651 L146.4164,169.3418 L148.8817,169.3418 L148.8817,171.5 L141.5023,171.5 L141.5023,169.3418 L143.9676,169.3418 L143.9676,161.2651 Z " fill="#000000"/><text fill="#000000" font-family="sans-serif" font-size="14" font-style="italic" lengthAdjust="spacing" textLength="61.3457" x="165.5746" y="170.291">IUpgrade</text><line style="stroke:#181818;stroke-width:0.5;" x1="23.39" x2="336.6048" y1="181" y2="181"/><ellipse cx="33.39" cy="194.7441" fill="none" rx="3" ry="3" style="stroke:#038048;stroke-width:1.0;"/><text fill="#000000" font-family="sans-serif" font-size="14" lengthAdjust="spacing" textLength="188.9658" x="42.39" y="198.5352">upgradeName : string &#171;get&#187;</text><line style="stroke:#181818;stroke-width:0.5;" x1="23.39" x2="336.6048" y1="205.4883" y2="205.4883"/><rect fill="#F24D5C" height="6" style="stroke:#C82930;stroke-width:1.0;" width="6" x="30.39" y="216.2324"/><text fill="#000000" font-family="sans-serif" font-size="14" lengthAdjust="spacing" textLength="289.2148" x="42.39" y="223.0234">Initialize(upgradeData:UpgradeData) : void</text></g><!--class UpgradeData--><g id="elem_UpgradeData"><rect fill="#F1F1F1" height="48" id="UpgradeData" rx="2.5" ry="2.5" style="stroke:#181818;stroke-width:0.5;" width="120.498" x="119.75" y="41"/><ellipse cx="134.75" cy="57" fill="#ADD1B2" rx="11" ry="11" style="stroke:#181818;stroke-width:1.0;"/><path d="M137.2231,63.1431 Q136.6421,63.4419 136.0029,63.5913 Q135.3638,63.7407 134.6582,63.7407 Q132.1514,63.7407 130.8315,62.0889 Q129.5117,60.437 129.5117,57.3159 Q129.5117,54.1865 130.8315,52.5347 Q132.1514,50.8828 134.6582,50.8828 Q135.3638,50.8828 136.0112,51.0322 Q136.6587,51.1816 137.2231,51.4805 L137.2231,54.2031 Q136.5923,53.6221 135.9988,53.3523 Q135.4053,53.0825 134.7744,53.0825 Q133.4297,53.0825 132.7449,54.1492 Q132.0601,55.2158 132.0601,57.3159 Q132.0601,59.4077 132.7449,60.4744 Q133.4297,61.541 134.7744,61.541 Q135.4053,61.541 135.9988,61.2712 Q136.5923,61.0015 137.2231,60.4204 Z " fill="#000000"/><text fill="#000000" font-family="sans-serif" font-size="14" lengthAdjust="spacing" textLength="88.498" x="148.75" y="62.291">UpgradeData</text><line style="stroke:#181818;stroke-width:0.5;" x1="120.75" x2="239.248" y1="73" y2="73"/><line style="stroke:#181818;stroke-width:0.5;" x1="120.75" x2="239.248" y1="81" y2="81"/></g><!--reverse link UpgradeData to IUpgrade--><g id="link_UpgradeData_IUpgrade"><path codeLine="7" d="M180,95.33 C180,112.13 180,129.2 180,148.86 " fill="none" id="UpgradeData-backto-IUpgrade" style="stroke:#181818;stroke-width:1.0;stroke-dasharray:7.0,7.0;"/><polygon fill="#181818" points="180,89.33,176,98.33,180,94.33,184,98.33,180,89.33" style="stroke:#181818;stroke-width:1.0;"/></g><!--SRC=[oqlCJIqkI4nELGWjI2zAJ4ajhkRAp2j9BKe3YNb21HMgkHI0G5kX5CBt0-fIi58eBYdAp4jNiB59JosnimChqLNmpCiioKpCoQnArO2gTaaiIRGAHR0rWLhByZDJk6g146Qj7f821HizFRZT0000]--></g></svg>