<svg xmlns="http://www.w3.org/2000/svg" xmlns:xlink="http://www.w3.org/1999/xlink" contentStyleType="text/css" height="295px" preserveAspectRatio="none" style="width:474px;height:295px;background:#FFFFFF;" version="1.1" viewBox="0 0 474 295" width="474px" zoomAndPan="magnify"><defs/><g><!--cluster Upgrades--><g id="cluster_Upgrades"><path d="M8.5,6 L78.3105,6 A3.75,3.75 0 0 1 80.8105,8.5 L87.8105,28.4883 L464.5,28.4883 A2.5,2.5 0 0 1 467,30.9883 L467,286.48 A2.5,2.5 0 0 1 464.5,288.98 L8.5,288.98 A2.5,2.5 0 0 1 6,286.48 L6,8.5 A2.5,2.5 0 0 1 8.5,6 " fill="none" style="stroke:#000000;stroke-width:1.5;"/><line style="stroke:#000000;stroke-width:1.5;" x1="6" x2="87.8105" y1="28.4883" y2="28.4883"/><text fill="#000000" font-family="sans-serif" font-size="14" font-weight="bold" lengthAdjust="spacing" textLength="68.8105" x="10" y="21.5352">Upgrades</text></g><!--cluster Players--><g id="cluster_Players"><path d="M32.5,49 L85.5146,49 A3.75,3.75 0 0 1 88.0146,51.5 L95.0146,71.4883 L181.5,71.4883 A2.5,2.5 0 0 1 184,73.9883 L184,145.5 A2.5,2.5 0 0 1 181.5,148 L32.5,148 A2.5,2.5 0 0 1 30,145.5 L30,51.5 A2.5,2.5 0 0 1 32.5,49 " fill="none" style="stroke:#000000;stroke-width:1.5;"/><line style="stroke:#000000;stroke-width:1.5;" x1="30" x2="95.0146" y1="71.4883" y2="71.4883"/><text fill="#000000" font-family="sans-serif" font-size="14" font-weight="bold" lengthAdjust="spacing" textLength="52.0146" x="34" y="64.5352">Players</text></g><!--class PlayerUpgrade--><g id="elem_PlayerUpgrade"><rect codeLine="2" fill="#F1F1F1" height="80.9766" id="PlayerUpgrade" rx="2.5" ry="2.5" style="stroke:#181818;stroke-width:0.5;" width="315.2148" x="91.39" y="192"/><ellipse cx="195.9115" cy="208" fill="#ADD1B2" rx="11" ry="11" style="stroke:#181818;stroke-width:1.0;"/><path d="M198.3846,214.1431 Q197.8036,214.4419 197.1644,214.5913 Q196.5253,214.7407 195.8197,214.7407 Q193.3129,214.7407 191.993,213.0889 Q190.6732,211.437 190.6732,208.3159 Q190.6732,205.1865 191.993,203.5347 Q193.3129,201.8828 195.8197,201.8828 Q196.5253,201.8828 197.1727,202.0322 Q197.8202,202.1816 198.3846,202.4805 L198.3846,205.2031 Q197.7538,204.6221 197.1603,204.3523 Q196.5668,204.0825 195.9359,204.0825 Q194.5912,204.0825 193.9064,205.1492 Q193.2215,206.2158 193.2215,208.3159 Q193.2215,210.4077 193.9064,211.4744 Q194.5912,212.541 195.9359,212.541 Q196.5668,212.541 197.1603,212.2712 Q197.7538,212.0015 198.3846,211.4204 Z " fill="#000000"/><text fill="#000000" font-family="sans-serif" font-size="14" lengthAdjust="spacing" textLength="97.6719" x="216.4115" y="213.291">PlayerUpgrade</text><line style="stroke:#181818;stroke-width:0.5;" x1="92.39" x2="405.6048" y1="224" y2="224"/><ellipse cx="102.39" cy="237.7441" fill="none" rx="3" ry="3" style="stroke:#038048;stroke-width:1.0;"/><text fill="#000000" font-family="sans-serif" font-size="14" lengthAdjust="spacing" textLength="188.9658" x="111.39" y="241.5352">upgradeName : string &#171;get&#187;</text><line style="stroke:#181818;stroke-width:0.5;" x1="92.39" x2="405.6048" y1="248.4883" y2="248.4883"/><ellipse cx="102.39" cy="262.2324" fill="#84BE84" rx="3" ry="3" style="stroke:#038048;stroke-width:1.0;"/><text fill="#000000" font-family="sans-serif" font-size="14" lengthAdjust="spacing" textLength="289.2148" x="111.39" y="266.0234">Initialize(upgradeData:UpgradeData) : void</text></g><!--class IUpgrade--><g id="elem_IUpgrade"><rect fill="#F1F1F1" height="48" id="IUpgrade" rx="2.5" ry="2.5" style="stroke:#181818;stroke-width:0.5;" width="93.3457" x="202.33" y="84"/><ellipse cx="217.33" cy="100" fill="#ADD1B2" rx="11" ry="11" style="stroke:#181818;stroke-width:1.0;"/><path d="M219.8031,106.1431 Q219.2221,106.4419 218.5829,106.5913 Q217.9438,106.7407 217.2382,106.7407 Q214.7314,106.7407 213.4115,105.0889 Q212.0917,103.437 212.0917,100.3159 Q212.0917,97.1865 213.4115,95.5347 Q214.7314,93.8828 217.2382,93.8828 Q217.9438,93.8828 218.5912,94.0322 Q219.2387,94.1816 219.8031,94.4805 L219.8031,97.2031 Q219.1723,96.6221 218.5788,96.3523 Q217.9853,96.0825 217.3544,96.0825 Q216.0097,96.0825 215.3249,97.1492 Q214.6401,98.2158 214.6401,100.3159 Q214.6401,102.4077 215.3249,103.4744 Q216.0097,104.541 217.3544,104.541 Q217.9853,104.541 218.5788,104.2712 Q219.1723,104.0015 219.8031,103.4204 Z " fill="#000000"/><text fill="#000000" font-family="sans-serif" font-size="14" lengthAdjust="spacing" textLength="61.3457" x="231.33" y="105.291">IUpgrade</text><line style="stroke:#181818;stroke-width:0.5;" x1="203.33" x2="294.6757" y1="116" y2="116"/><line style="stroke:#181818;stroke-width:0.5;" x1="203.33" x2="294.6757" y1="124" y2="124"/></g><!--class UpgradeData--><g id="elem_UpgradeData"><rect fill="#F1F1F1" height="48" id="UpgradeData" rx="2.5" ry="2.5" style="stroke:#181818;stroke-width:0.5;" width="120.498" x="330.75" y="84"/><ellipse cx="345.75" cy="100" fill="#ADD1B2" rx="11" ry="11" style="stroke:#181818;stroke-width:1.0;"/><path d="M348.2231,106.1431 Q347.6421,106.4419 347.0029,106.5913 Q346.3638,106.7407 345.6582,106.7407 Q343.1514,106.7407 341.8315,105.0889 Q340.5117,103.437 340.5117,100.3159 Q340.5117,97.1865 341.8315,95.5347 Q343.1514,93.8828 345.6582,93.8828 Q346.3638,93.8828 347.0112,94.0322 Q347.6587,94.1816 348.2231,94.4805 L348.2231,97.2031 Q347.5923,96.6221 346.9988,96.3523 Q346.4053,96.0825 345.7744,96.0825 Q344.4297,96.0825 343.7449,97.1492 Q343.0601,98.2158 343.0601,100.3159 Q343.0601,102.4077 343.7449,103.4744 Q344.4297,104.541 345.7744,104.541 Q346.4053,104.541 346.9988,104.2712 Q347.5923,104.0015 348.2231,103.4204 Z " fill="#000000"/><text fill="#000000" font-family="sans-serif" font-size="14" lengthAdjust="spacing" textLength="88.498" x="359.75" y="105.291">UpgradeData</text><line style="stroke:#181818;stroke-width:0.5;" x1="331.75" x2="450.248" y1="116" y2="116"/><line style="stroke:#181818;stroke-width:0.5;" x1="331.75" x2="450.248" y1="124" y2="124"/></g><!--class PlayerParams--><g id="elem_PlayerParams"><rect fill="#F1F1F1" height="48" id="PlayerParams" rx="2.5" ry="2.5" style="stroke:#181818;stroke-width:0.5;" width="121.4961" x="46.25" y="84"/><ellipse cx="61.25" cy="100" fill="#ADD1B2" rx="11" ry="11" style="stroke:#181818;stroke-width:1.0;"/><path d="M63.7231,106.1431 Q63.1421,106.4419 62.5029,106.5913 Q61.8638,106.7407 61.1582,106.7407 Q58.6514,106.7407 57.3315,105.0889 Q56.0117,103.437 56.0117,100.3159 Q56.0117,97.1865 57.3315,95.5347 Q58.6514,93.8828 61.1582,93.8828 Q61.8638,93.8828 62.5112,94.0322 Q63.1587,94.1816 63.7231,94.4805 L63.7231,97.2031 Q63.0923,96.6221 62.4988,96.3523 Q61.9053,96.0825 61.2744,96.0825 Q59.9297,96.0825 59.2449,97.1492 Q58.5601,98.2158 58.5601,100.3159 Q58.5601,102.4077 59.2449,103.4744 Q59.9297,104.541 61.2744,104.541 Q61.9053,104.541 62.4988,104.2712 Q63.0923,104.0015 63.7231,103.4204 Z " fill="#000000"/><text fill="#000000" font-family="sans-serif" font-size="14" lengthAdjust="spacing" textLength="89.4961" x="75.25" y="105.291">PlayerParams</text><line style="stroke:#181818;stroke-width:0.5;" x1="47.25" x2="166.7461" y1="116" y2="116"/><line style="stroke:#181818;stroke-width:0.5;" x1="47.25" x2="166.7461" y1="124" y2="124"/></g><!--reverse link IUpgrade to PlayerUpgrade--><g id="link_IUpgrade_PlayerUpgrade"><path codeLine="6" d="M249,150.33 C249,167.13 249,172.2 249,191.86 " fill="none" id="IUpgrade-backto-PlayerUpgrade" style="stroke:#181818;stroke-width:1.0;"/><polygon fill="none" points="249,132.33,243,150.33,255,150.33,249,132.33" style="stroke:#181818;stroke-width:1.0;"/></g><!--reverse link UpgradeData to PlayerUpgrade--><g id="link_UpgradeData_PlayerUpgrade"><path codeLine="7" d="M359.4162,136.2484 C340.0162,152.9784 317.96,172.01 295.23,191.62 " fill="none" id="UpgradeData-backto-PlayerUpgrade" style="stroke:#181818;stroke-width:1.0;stroke-dasharray:7.0,7.0;"/><polygon fill="#181818" points="363.96,132.33,354.532,135.1785,360.1735,135.5954,359.7566,141.2368,363.96,132.33" style="stroke:#181818;stroke-width:1.0;"/></g><!--link PlayerParams to PlayerUpgrade--><g id="link_PlayerParams_PlayerUpgrade"><path codeLine="8" d="M134.04,132.33 C153.44,149.06 170.9541,164.1712 193.6841,183.7812 " fill="none" id="PlayerParams-to-PlayerUpgrade" style="stroke:#181818;stroke-width:1.0;"/><polygon fill="#181818" points="202.77,191.62,200.84,184.672,193.6841,183.7812,195.6141,190.7293,202.77,191.62" style="stroke:#181818;stroke-width:1.0;"/></g><!--SRC=[NOun2iCm34Ltdq9Zqs8V89XCNRAKB3c0I8GnE6wmt4ARvkunsA5jj4XVlC__7YVY6GU2VZO1H-9530wPeNFueb2-i0X8Su57rhTaWneu1kiDQ6qeDar1Mc-ZHMVVT2hq5IFM_VUkalLvjwDOHRi7w8-K_vbYRwH-hA2LEc1PiSgxmu0JWvJd0xPk]--></g></svg>