<svg xmlns="http://www.w3.org/2000/svg" xmlns:xlink="http://www.w3.org/1999/xlink" contentStyleType="text/css" height="302px" preserveAspectRatio="none" style="width:796px;height:302px;background:#FFFFFF;" version="1.1" viewBox="0 0 796 302" width="796px" zoomAndPan="magnify"><defs/><g><!--cluster Upgrades--><g id="cluster_Upgrades"><path d="M95.55,6 L165.3605,6 A3.75,3.75 0 0 1 167.8605,8.5 L174.8605,28.4883 L600.55,28.4883 A2.5,2.5 0 0 1 603.05,30.9883 L603.05,292.94 A2.5,2.5 0 0 1 600.55,295.44 L95.55,295.44 A2.5,2.5 0 0 1 93.05,292.94 L93.05,8.5 A2.5,2.5 0 0 1 95.55,6 " fill="none" style="stroke:#000000;stroke-width:1.5;"/><line style="stroke:#000000;stroke-width:1.5;" x1="93.05" x2="174.8605" y1="28.4883" y2="28.4883"/><text fill="#000000" font-family="sans-serif" font-size="14" font-weight="bold" lengthAdjust="spacing" textLength="68.8105" x="97.05" y="21.5352">Upgrades</text></g><!--cluster Players--><g id="cluster_Players"><path d="M629.55,6 L682.5646,6 A3.75,3.75 0 0 1 685.0646,8.5 L692.0646,28.4883 L786.55,28.4883 A2.5,2.5 0 0 1 789.05,30.9883 L789.05,102.5 A2.5,2.5 0 0 1 786.55,105 L629.55,105 A2.5,2.5 0 0 1 627.05,102.5 L627.05,8.5 A2.5,2.5 0 0 1 629.55,6 " fill="none" style="stroke:#000000;stroke-width:1.5;"/><line style="stroke:#000000;stroke-width:1.5;" x1="627.05" x2="692.0646" y1="28.4883" y2="28.4883"/><text fill="#000000" font-family="sans-serif" font-size="14" font-weight="bold" lengthAdjust="spacing" textLength="52.0146" x="631.05" y="21.5352">Players</text></g><!--class UpgradeSelector--><g id="elem_UpgradeSelector"><rect codeLine="2" fill="#F1F1F1" height="130.4414" id="UpgradeSelector" rx="2.5" ry="2.5" style="stroke:#181818;stroke-width:0.5;" width="478.7236" x="108.69" y="149"/><ellipse cx="288.1846" cy="165" fill="#ADD1B2" rx="11" ry="11" style="stroke:#181818;stroke-width:1.0;"/><path d="M290.6578,171.1431 Q290.0767,171.4419 289.4376,171.5913 Q288.7984,171.7407 288.0928,171.7407 Q285.586,171.7407 284.2662,170.0889 Q282.9463,168.437 282.9463,165.3159 Q282.9463,162.1865 284.2662,160.5347 Q285.586,158.8828 288.0928,158.8828 Q288.7984,158.8828 289.4459,159.0322 Q290.0933,159.1816 290.6578,159.4805 L290.6578,162.2031 Q290.0269,161.6221 289.4334,161.3523 Q288.8399,161.0825 288.209,161.0825 Q286.8643,161.0825 286.1795,162.1492 Q285.4947,163.2158 285.4947,165.3159 Q285.4947,167.4077 286.1795,168.4744 Q286.8643,169.541 288.209,169.541 Q288.8399,169.541 289.4334,169.2712 Q290.0269,169.0015 290.6578,168.4204 Z " fill="#000000"/><text fill="#000000" font-family="sans-serif" font-size="14" lengthAdjust="spacing" textLength="111.2344" x="308.6846" y="170.291">UpgradeSelector</text><line style="stroke:#181818;stroke-width:0.5;" x1="109.69" x2="586.4136" y1="181" y2="181"/><ellipse cx="119.69" cy="194.7441" fill="none" rx="3" ry="3" style="stroke:#038048;stroke-width:1.0;"/><text fill="#000000" font-family="sans-serif" font-size="14" lengthAdjust="spacing" textLength="452.7236" x="128.69" y="198.5352">OnUpgradesUpdatedAsObservable : Observable&lt;List&lt;IUpgrade&gt;&gt;</text><ellipse cx="119.69" cy="211.2324" fill="none" rx="3" ry="3" style="stroke:#038048;stroke-width:1.0;"/><text fill="#000000" font-family="sans-serif" font-size="14" lengthAdjust="spacing" textLength="294.8955" x="128.69" y="215.0234">IsActive : ReadOnlyReactiveProperty&lt;bool&gt;</text><line style="stroke:#181818;stroke-width:0.5;" x1="109.69" x2="586.4136" y1="221.9766" y2="221.9766"/><ellipse cx="119.69" cy="235.7207" fill="#84BE84" rx="3" ry="3" style="stroke:#038048;stroke-width:1.0;"/><text fill="#000000" font-family="sans-serif" font-size="14" lengthAdjust="spacing" textLength="108.8008" x="128.69" y="239.5117">Initialize() : void</text><ellipse cx="119.69" cy="252.209" fill="#84BE84" rx="3" ry="3" style="stroke:#038048;stroke-width:1.0;"/><text fill="#000000" font-family="sans-serif" font-size="14" lengthAdjust="spacing" textLength="136.124" x="128.69" y="256">SetUpgrades() : void</text><ellipse cx="119.69" cy="268.6973" fill="#84BE84" rx="3" ry="3" style="stroke:#038048;stroke-width:1.0;"/><text fill="#000000" font-family="sans-serif" font-size="14" lengthAdjust="spacing" textLength="207.3887" x="128.69" y="272.4883">ApplyUpgrade(index:int) : void</text></g><!--class UpgradeLoader--><g id="elem_UpgradeLoader"><rect fill="#F1F1F1" height="48" id="UpgradeLoader" rx="2.5" ry="2.5" style="stroke:#181818;stroke-width:0.5;" width="135.4482" x="131.33" y="41"/><ellipse cx="146.33" cy="57" fill="#ADD1B2" rx="11" ry="11" style="stroke:#181818;stroke-width:1.0;"/><path d="M148.8031,63.1431 Q148.2221,63.4419 147.5829,63.5913 Q146.9438,63.7407 146.2382,63.7407 Q143.7314,63.7407 142.4115,62.0889 Q141.0917,60.437 141.0917,57.3159 Q141.0917,54.1865 142.4115,52.5347 Q143.7314,50.8828 146.2382,50.8828 Q146.9438,50.8828 147.5912,51.0322 Q148.2387,51.1816 148.8031,51.4805 L148.8031,54.2031 Q148.1723,53.6221 147.5788,53.3523 Q146.9853,53.0825 146.3544,53.0825 Q145.0097,53.0825 144.3249,54.1492 Q143.6401,55.2158 143.6401,57.3159 Q143.6401,59.4077 144.3249,60.4744 Q145.0097,61.541 146.3544,61.541 Q146.9853,61.541 147.5788,61.2712 Q148.1723,61.0015 148.8031,60.4204 Z " fill="#000000"/><text fill="#000000" font-family="sans-serif" font-size="14" lengthAdjust="spacing" textLength="103.4482" x="160.33" y="62.291">UpgradeLoader</text><line style="stroke:#181818;stroke-width:0.5;" x1="132.33" x2="265.7782" y1="73" y2="73"/><line style="stroke:#181818;stroke-width:0.5;" x1="132.33" x2="265.7782" y1="81" y2="81"/></g><!--class IUpgrade--><g id="elem_IUpgrade"><rect fill="#F1F1F1" height="48" id="IUpgrade" rx="2.5" ry="2.5" style="stroke:#181818;stroke-width:0.5;" width="93.3457" x="301.38" y="41"/><ellipse cx="316.38" cy="57" fill="#ADD1B2" rx="11" ry="11" style="stroke:#181818;stroke-width:1.0;"/><path d="M318.8531,63.1431 Q318.2721,63.4419 317.6329,63.5913 Q316.9938,63.7407 316.2882,63.7407 Q313.7814,63.7407 312.4615,62.0889 Q311.1417,60.437 311.1417,57.3159 Q311.1417,54.1865 312.4615,52.5347 Q313.7814,50.8828 316.2882,50.8828 Q316.9938,50.8828 317.6412,51.0322 Q318.2887,51.1816 318.8531,51.4805 L318.8531,54.2031 Q318.2223,53.6221 317.6288,53.3523 Q317.0353,53.0825 316.4044,53.0825 Q315.0597,53.0825 314.3749,54.1492 Q313.6901,55.2158 313.6901,57.3159 Q313.6901,59.4077 314.3749,60.4744 Q315.0597,61.541 316.4044,61.541 Q317.0353,61.541 317.6288,61.2712 Q318.2223,61.0015 318.8531,60.4204 Z " fill="#000000"/><text fill="#000000" font-family="sans-serif" font-size="14" lengthAdjust="spacing" textLength="61.3457" x="330.38" y="62.291">IUpgrade</text><line style="stroke:#181818;stroke-width:0.5;" x1="302.38" x2="393.7257" y1="73" y2="73"/><line style="stroke:#181818;stroke-width:0.5;" x1="302.38" x2="393.7257" y1="81" y2="81"/></g><!--class UpgradeManager--><g id="elem_UpgradeManager"><rect fill="#F1F1F1" height="48" id="UpgradeManager" rx="2.5" ry="2.5" style="stroke:#181818;stroke-width:0.5;" width="147.7803" x="430.16" y="41"/><ellipse cx="445.16" cy="57" fill="#ADD1B2" rx="11" ry="11" style="stroke:#181818;stroke-width:1.0;"/><path d="M447.6331,63.1431 Q447.0521,63.4419 446.4129,63.5913 Q445.7738,63.7407 445.0682,63.7407 Q442.5614,63.7407 441.2415,62.0889 Q439.9217,60.437 439.9217,57.3159 Q439.9217,54.1865 441.2415,52.5347 Q442.5614,50.8828 445.0682,50.8828 Q445.7738,50.8828 446.4212,51.0322 Q447.0687,51.1816 447.6331,51.4805 L447.6331,54.2031 Q447.0023,53.6221 446.4088,53.3523 Q445.8153,53.0825 445.1844,53.0825 Q443.8397,53.0825 443.1549,54.1492 Q442.4701,55.2158 442.4701,57.3159 Q442.4701,59.4077 443.1549,60.4744 Q443.8397,61.541 445.1844,61.541 Q445.8153,61.541 446.4088,61.2712 Q447.0023,61.0015 447.6331,60.4204 Z " fill="#000000"/><text fill="#000000" font-family="sans-serif" font-size="14" lengthAdjust="spacing" textLength="115.7803" x="459.16" y="62.291">UpgradeManager</text><line style="stroke:#181818;stroke-width:0.5;" x1="431.16" x2="576.9403" y1="73" y2="73"/><line style="stroke:#181818;stroke-width:0.5;" x1="431.16" x2="576.9403" y1="81" y2="81"/></g><!--class PlayerManager--><g id="elem_PlayerManager"><rect fill="#F1F1F1" height="48" id="PlayerManager" rx="2.5" ry="2.5" style="stroke:#181818;stroke-width:0.5;" width="130.8271" x="642.64" y="41"/><ellipse cx="657.64" cy="57" fill="#ADD1B2" rx="11" ry="11" style="stroke:#181818;stroke-width:1.0;"/><path d="M660.1131,63.1431 Q659.5321,63.4419 658.8929,63.5913 Q658.2538,63.7407 657.5482,63.7407 Q655.0414,63.7407 653.7215,62.0889 Q652.4017,60.437 652.4017,57.3159 Q652.4017,54.1865 653.7215,52.5347 Q655.0414,50.8828 657.5482,50.8828 Q658.2538,50.8828 658.9012,51.0322 Q659.5487,51.1816 660.1131,51.4805 L660.1131,54.2031 Q659.4823,53.6221 658.8888,53.3523 Q658.2953,53.0825 657.6644,53.0825 Q656.3197,53.0825 655.6349,54.1492 Q654.9501,55.2158 654.9501,57.3159 Q654.9501,59.4077 655.6349,60.4744 Q656.3197,61.541 657.6644,61.541 Q658.2953,61.541 658.8888,61.2712 Q659.4823,61.0015 660.1131,60.4204 Z " fill="#000000"/><text fill="#000000" font-family="sans-serif" font-size="14" lengthAdjust="spacing" textLength="98.8271" x="671.64" y="62.291">PlayerManager</text><line style="stroke:#181818;stroke-width:0.5;" x1="643.64" x2="772.4671" y1="73" y2="73"/><line style="stroke:#181818;stroke-width:0.5;" x1="643.64" x2="772.4671" y1="81" y2="81"/></g><!--class Battle--><g id="elem_Battle"><rect fill="#F1F1F1" height="48" id="Battle" rx="2.5" ry="2.5" style="stroke:#181818;stroke-width:0.5;" width="70.1035" x="7" y="41"/><ellipse cx="22" cy="57" fill="#ADD1B2" rx="11" ry="11" style="stroke:#181818;stroke-width:1.0;"/><path d="M24.4731,63.1431 Q23.8921,63.4419 23.2529,63.5913 Q22.6138,63.7407 21.9082,63.7407 Q19.4014,63.7407 18.0815,62.0889 Q16.7617,60.437 16.7617,57.3159 Q16.7617,54.1865 18.0815,52.5347 Q19.4014,50.8828 21.9082,50.8828 Q22.6138,50.8828 23.2612,51.0322 Q23.9087,51.1816 24.4731,51.4805 L24.4731,54.2031 Q23.8423,53.6221 23.2488,53.3523 Q22.6553,53.0825 22.0244,53.0825 Q20.6797,53.0825 19.9949,54.1492 Q19.3101,55.2158 19.3101,57.3159 Q19.3101,59.4077 19.9949,60.4744 Q20.6797,61.541 22.0244,61.541 Q22.6553,61.541 23.2488,61.2712 Q23.8423,61.0015 24.4731,60.4204 Z " fill="#000000"/><text fill="#000000" font-family="sans-serif" font-size="14" lengthAdjust="spacing" textLength="38.1035" x="36" y="62.291">Battle</text><line style="stroke:#181818;stroke-width:0.5;" x1="8" x2="76.1035" y1="73" y2="73"/><line style="stroke:#181818;stroke-width:0.5;" x1="8" x2="76.1035" y1="81" y2="81"/></g><!--link UpgradeLoader to UpgradeSelector--><g id="link_UpgradeLoader_UpgradeSelector"><path codeLine="10" d="M222.66,89.33 C238.91,105.38 257.0705,123.3344 278.4805,144.4744 " fill="none" id="UpgradeLoader-to-UpgradeSelector" style="stroke:#181818;stroke-width:1.0;"/><polygon fill="#181818" points="282.75,148.69,279.1562,139.5202,279.1921,145.177,273.5354,145.2129,282.75,148.69" style="stroke:#181818;stroke-width:1.0;"/></g><!--link Battle to UpgradeSelector--><g id="link_Battle_UpgradeSelector"><path codeLine="11" d="M63.91,89.48 C72.43,97.69 82.64,106.48 93.05,113 C113.91,126.06 131.307,135.437 154.487,146.077 " fill="none" id="Battle-to-UpgradeSelector" style="stroke:#181818;stroke-width:1.0;"/><polygon fill="#181818" points="159.94,148.58,153.4292,141.1902,155.3959,146.4942,150.0919,148.4608,159.94,148.58" style="stroke:#181818;stroke-width:1.0;"/></g><!--link PlayerManager to UpgradeSelector--><g id="link_PlayerManager_UpgradeSelector"><path codeLine="12" d="M656.99,89.43 C639.91,97.11 620.73,105.57 603.05,113 C574.98,124.79 550.5853,134.7329 521.4153,146.3329 " fill="none" id="PlayerManager-to-UpgradeSelector" style="stroke:#181818;stroke-width:1.0;"/><polygon fill="#181818" points="515.84,148.55,525.6811,148.9412,520.4861,146.7024,522.7249,141.5074,515.84,148.55" style="stroke:#181818;stroke-width:1.0;"/></g><!--link IUpgrade to UpgradeSelector--><g id="link_IUpgrade_UpgradeSelector"><path codeLine="13" d="M348.05,89.33 C348.05,105.38 348.05,115.55 348.05,136.69 " fill="none" id="IUpgrade-to-UpgradeSelector" style="stroke:#181818;stroke-width:1.0;"/><polygon fill="#181818" points="348.05,148.69,352.05,142.69,348.05,136.69,344.05,142.69,348.05,148.69" style="stroke:#181818;stroke-width:1.0;"/></g><!--reverse link UpgradeManager to UpgradeSelector--><g id="link_UpgradeManager_UpgradeSelector"><path codeLine="14" d="M474.966,93.4477 C457.956,109.4977 438.83,127.55 416.42,148.69 " fill="none" id="UpgradeManager-backto-UpgradeSelector" style="stroke:#181818;stroke-width:1.0;stroke-dasharray:7.0,7.0;"/><polygon fill="#181818" points="479.33,89.33,470.0389,92.5972,475.6933,92.7614,475.5291,98.4159,479.33,89.33" style="stroke:#181818;stroke-width:1.0;"/></g><!--SRC=[TP1T2i8m3CVVTue- -e4xW8p1V1EK3SK3P6kGGcrB4uPJlBjLsmb36sYI_dz9cngu83deK9pSsOD4kcUT1gAK7r5ZnzQBUoR2MehQ9FBa933AYkgMqFVGQXHhyKsAdI8kjX4lozXWIrN7gd-n1mHP6pq4_pvgl7NeUIXQQ_N86yKAjBhXR1vgUgjaL8x8wIrJgN9E3r6SAIFnkbQ6H-WHB9NcCTZPi7cnMfNJsRCDC8VXVacDXW4zvH-_1mFdFqt6-zAF16hnduf1wbZa-PHz0W00]--></g></svg>