<svg xmlns="http://www.w3.org/2000/svg" xmlns:xlink="http://www.w3.org/1999/xlink" contentStyleType="text/css" height="302px" preserveAspectRatio="none" style="width:833px;height:302px;background:#FFFFFF;" version="1.1" viewBox="0 0 833 302" width="833px" zoomAndPan="magnify"><defs/><g><!--cluster Upgrades--><g id="cluster_Upgrades"><path d="M8.5,6 L78.3105,6 A3.75,3.75 0 0 1 80.8105,8.5 L87.8105,28.4883 L513.5,28.4883 A2.5,2.5 0 0 1 516,30.9883 L516,292.94 A2.5,2.5 0 0 1 513.5,295.44 L8.5,295.44 A2.5,2.5 0 0 1 6,292.94 L6,8.5 A2.5,2.5 0 0 1 8.5,6 " fill="none" style="stroke:#000000;stroke-width:1.5;"/><line style="stroke:#000000;stroke-width:1.5;" x1="6" x2="87.8105" y1="28.4883" y2="28.4883"/><text fill="#000000" font-family="sans-serif" font-size="14" font-weight="bold" lengthAdjust="spacing" textLength="68.8105" x="10" y="21.5352">Upgrades</text></g><!--cluster Managers--><g id="cluster_Managers"><path d="M542.5,6 L613.582,6 A3.75,3.75 0 0 1 616.082,8.5 L623.082,28.4883 L639.5,28.4883 A2.5,2.5 0 0 1 642,30.9883 L642,102.5 A2.5,2.5 0 0 1 639.5,105 L542.5,105 A2.5,2.5 0 0 1 540,102.5 L540,8.5 A2.5,2.5 0 0 1 542.5,6 " fill="none" style="stroke:#000000;stroke-width:1.5;"/><line style="stroke:#000000;stroke-width:1.5;" x1="540" x2="623.082" y1="28.4883" y2="28.4883"/><text fill="#000000" font-family="sans-serif" font-size="14" font-weight="bold" lengthAdjust="spacing" textLength="70.082" x="544" y="21.5352">Managers</text></g><!--cluster Players--><g id="cluster_Players"><path d="M668.5,6 L721.5146,6 A3.75,3.75 0 0 1 724.0146,8.5 L731.0146,28.4883 L823.5,28.4883 A2.5,2.5 0 0 1 826,30.9883 L826,102.5 A2.5,2.5 0 0 1 823.5,105 L668.5,105 A2.5,2.5 0 0 1 666,102.5 L666,8.5 A2.5,2.5 0 0 1 668.5,6 " fill="none" style="stroke:#000000;stroke-width:1.5;"/><line style="stroke:#000000;stroke-width:1.5;" x1="666" x2="731.0146" y1="28.4883" y2="28.4883"/><text fill="#000000" font-family="sans-serif" font-size="14" font-weight="bold" lengthAdjust="spacing" textLength="52.0146" x="670" y="21.5352">Players</text></g><!--class UpgradeSelector--><g id="elem_UpgradeSelector"><rect codeLine="2" fill="#F1F1F1" height="130.4414" id="UpgradeSelector" rx="2.5" ry="2.5" style="stroke:#181818;stroke-width:0.5;" width="478.7236" x="21.64" y="149"/><ellipse cx="201.1346" cy="165" fill="#ADD1B2" rx="11" ry="11" style="stroke:#181818;stroke-width:1.0;"/><path d="M203.6078,171.1431 Q203.0267,171.4419 202.3876,171.5913 Q201.7484,171.7407 201.0428,171.7407 Q198.536,171.7407 197.2162,170.0889 Q195.8963,168.437 195.8963,165.3159 Q195.8963,162.1865 197.2162,160.5347 Q198.536,158.8828 201.0428,158.8828 Q201.7484,158.8828 202.3959,159.0322 Q203.0433,159.1816 203.6078,159.4805 L203.6078,162.2031 Q202.9769,161.6221 202.3834,161.3523 Q201.7899,161.0825 201.159,161.0825 Q199.8143,161.0825 199.1295,162.1492 Q198.4447,163.2158 198.4447,165.3159 Q198.4447,167.4077 199.1295,168.4744 Q199.8143,169.541 201.159,169.541 Q201.7899,169.541 202.3834,169.2712 Q202.9769,169.0015 203.6078,168.4204 Z " fill="#000000"/><text fill="#000000" font-family="sans-serif" font-size="14" lengthAdjust="spacing" textLength="111.2344" x="221.6346" y="170.291">UpgradeSelector</text><line style="stroke:#181818;stroke-width:0.5;" x1="22.64" x2="499.3636" y1="181" y2="181"/><ellipse cx="32.64" cy="194.7441" fill="none" rx="3" ry="3" style="stroke:#038048;stroke-width:1.0;"/><text fill="#000000" font-family="sans-serif" font-size="14" lengthAdjust="spacing" textLength="452.7236" x="41.64" y="198.5352">OnUpgradesUpdatedAsObservable : Observable&lt;List&lt;IUpgrade&gt;&gt;</text><ellipse cx="32.64" cy="211.2324" fill="none" rx="3" ry="3" style="stroke:#038048;stroke-width:1.0;"/><text fill="#000000" font-family="sans-serif" font-size="14" lengthAdjust="spacing" textLength="294.8955" x="41.64" y="215.0234">IsActive : ReadOnlyReactiveProperty&lt;bool&gt;</text><line style="stroke:#181818;stroke-width:0.5;" x1="22.64" x2="499.3636" y1="221.9766" y2="221.9766"/><ellipse cx="32.64" cy="235.7207" fill="#84BE84" rx="3" ry="3" style="stroke:#038048;stroke-width:1.0;"/><text fill="#000000" font-family="sans-serif" font-size="14" lengthAdjust="spacing" textLength="117.2705" x="41.64" y="239.5117">Construct() : void</text><ellipse cx="32.64" cy="252.209" fill="#84BE84" rx="3" ry="3" style="stroke:#038048;stroke-width:1.0;"/><text fill="#000000" font-family="sans-serif" font-size="14" lengthAdjust="spacing" textLength="136.124" x="41.64" y="256">SetUpgrades() : void</text><ellipse cx="32.64" cy="268.6973" fill="#84BE84" rx="3" ry="3" style="stroke:#038048;stroke-width:1.0;"/><text fill="#000000" font-family="sans-serif" font-size="14" lengthAdjust="spacing" textLength="207.3887" x="41.64" y="272.4883">ApplyUpgrade(index:int) : void</text></g><!--class UpgradeCollection--><g id="elem_UpgradeCollection"><rect fill="#F1F1F1" height="48" id="UpgradeCollection" rx="2.5" ry="2.5" style="stroke:#181818;stroke-width:0.5;" width="157.2344" x="22.38" y="41"/><ellipse cx="37.38" cy="57" fill="#ADD1B2" rx="11" ry="11" style="stroke:#181818;stroke-width:1.0;"/><path d="M39.8531,63.1431 Q39.2721,63.4419 38.6329,63.5913 Q37.9938,63.7407 37.2882,63.7407 Q34.7814,63.7407 33.4615,62.0889 Q32.1417,60.437 32.1417,57.3159 Q32.1417,54.1865 33.4615,52.5347 Q34.7814,50.8828 37.2882,50.8828 Q37.9938,50.8828 38.6412,51.0322 Q39.2887,51.1816 39.8531,51.4805 L39.8531,54.2031 Q39.2223,53.6221 38.6288,53.3523 Q38.0353,53.0825 37.4044,53.0825 Q36.0597,53.0825 35.3749,54.1492 Q34.6901,55.2158 34.6901,57.3159 Q34.6901,59.4077 35.3749,60.4744 Q36.0597,61.541 37.4044,61.541 Q38.0353,61.541 38.6288,61.2712 Q39.2223,61.0015 39.8531,60.4204 Z " fill="#000000"/><text fill="#000000" font-family="sans-serif" font-size="14" lengthAdjust="spacing" textLength="125.2344" x="51.38" y="62.291">UpgradeCollection</text><line style="stroke:#181818;stroke-width:0.5;" x1="23.38" x2="178.6144" y1="73" y2="73"/><line style="stroke:#181818;stroke-width:0.5;" x1="23.38" x2="178.6144" y1="81" y2="81"/></g><!--class IUpgrade--><g id="elem_IUpgrade"><rect fill="#F1F1F1" height="48" id="IUpgrade" rx="2.5" ry="2.5" style="stroke:#181818;stroke-width:0.5;" width="93.3457" x="214.33" y="41"/><ellipse cx="229.33" cy="57" fill="#ADD1B2" rx="11" ry="11" style="stroke:#181818;stroke-width:1.0;"/><path d="M231.8031,63.1431 Q231.2221,63.4419 230.5829,63.5913 Q229.9438,63.7407 229.2382,63.7407 Q226.7314,63.7407 225.4115,62.0889 Q224.0917,60.437 224.0917,57.3159 Q224.0917,54.1865 225.4115,52.5347 Q226.7314,50.8828 229.2382,50.8828 Q229.9438,50.8828 230.5912,51.0322 Q231.2387,51.1816 231.8031,51.4805 L231.8031,54.2031 Q231.1723,53.6221 230.5788,53.3523 Q229.9853,53.0825 229.3544,53.0825 Q228.0097,53.0825 227.3249,54.1492 Q226.6401,55.2158 226.6401,57.3159 Q226.6401,59.4077 227.3249,60.4744 Q228.0097,61.541 229.3544,61.541 Q229.9853,61.541 230.5788,61.2712 Q231.1723,61.0015 231.8031,60.4204 Z " fill="#000000"/><text fill="#000000" font-family="sans-serif" font-size="14" lengthAdjust="spacing" textLength="61.3457" x="243.33" y="62.291">IUpgrade</text><line style="stroke:#181818;stroke-width:0.5;" x1="215.33" x2="306.6757" y1="73" y2="73"/><line style="stroke:#181818;stroke-width:0.5;" x1="215.33" x2="306.6757" y1="81" y2="81"/></g><!--class UpgradeManager--><g id="elem_UpgradeManager"><rect fill="#F1F1F1" height="48" id="UpgradeManager" rx="2.5" ry="2.5" style="stroke:#181818;stroke-width:0.5;" width="147.7803" x="343.11" y="41"/><ellipse cx="358.11" cy="57" fill="#ADD1B2" rx="11" ry="11" style="stroke:#181818;stroke-width:1.0;"/><path d="M360.5831,63.1431 Q360.0021,63.4419 359.3629,63.5913 Q358.7238,63.7407 358.0182,63.7407 Q355.5114,63.7407 354.1915,62.0889 Q352.8717,60.437 352.8717,57.3159 Q352.8717,54.1865 354.1915,52.5347 Q355.5114,50.8828 358.0182,50.8828 Q358.7238,50.8828 359.3712,51.0322 Q360.0187,51.1816 360.5831,51.4805 L360.5831,54.2031 Q359.9523,53.6221 359.3588,53.3523 Q358.7653,53.0825 358.1344,53.0825 Q356.7897,53.0825 356.1049,54.1492 Q355.4201,55.2158 355.4201,57.3159 Q355.4201,59.4077 356.1049,60.4744 Q356.7897,61.541 358.1344,61.541 Q358.7653,61.541 359.3588,61.2712 Q359.9523,61.0015 360.5831,60.4204 Z " fill="#000000"/><text fill="#000000" font-family="sans-serif" font-size="14" lengthAdjust="spacing" textLength="115.7803" x="372.11" y="62.291">UpgradeManager</text><line style="stroke:#181818;stroke-width:0.5;" x1="344.11" x2="489.8903" y1="73" y2="73"/><line style="stroke:#181818;stroke-width:0.5;" x1="344.11" x2="489.8903" y1="81" y2="81"/></g><!--class Battle--><g id="elem_Battle"><rect fill="#F1F1F1" height="48" id="Battle" rx="2.5" ry="2.5" style="stroke:#181818;stroke-width:0.5;" width="70.1035" x="555.95" y="41"/><ellipse cx="570.95" cy="57" fill="#ADD1B2" rx="11" ry="11" style="stroke:#181818;stroke-width:1.0;"/><path d="M573.4231,63.1431 Q572.8421,63.4419 572.2029,63.5913 Q571.5638,63.7407 570.8582,63.7407 Q568.3514,63.7407 567.0315,62.0889 Q565.7117,60.437 565.7117,57.3159 Q565.7117,54.1865 567.0315,52.5347 Q568.3514,50.8828 570.8582,50.8828 Q571.5638,50.8828 572.2112,51.0322 Q572.8587,51.1816 573.4231,51.4805 L573.4231,54.2031 Q572.7923,53.6221 572.1988,53.3523 Q571.6053,53.0825 570.9744,53.0825 Q569.6297,53.0825 568.9449,54.1492 Q568.2601,55.2158 568.2601,57.3159 Q568.2601,59.4077 568.9449,60.4744 Q569.6297,61.541 570.9744,61.541 Q571.6053,61.541 572.1988,61.2712 Q572.7923,61.0015 573.4231,60.4204 Z " fill="#000000"/><text fill="#000000" font-family="sans-serif" font-size="14" lengthAdjust="spacing" textLength="38.1035" x="584.95" y="62.291">Battle</text><line style="stroke:#181818;stroke-width:0.5;" x1="556.95" x2="625.0535" y1="73" y2="73"/><line style="stroke:#181818;stroke-width:0.5;" x1="556.95" x2="625.0535" y1="81" y2="81"/></g><!--class PlayerProvider--><g id="elem_PlayerProvider"><rect fill="#F1F1F1" height="48" id="PlayerProvider" rx="2.5" ry="2.5" style="stroke:#181818;stroke-width:0.5;" width="128.0586" x="681.97" y="41"/><ellipse cx="696.97" cy="57" fill="#ADD1B2" rx="11" ry="11" style="stroke:#181818;stroke-width:1.0;"/><path d="M699.4431,63.1431 Q698.8621,63.4419 698.2229,63.5913 Q697.5838,63.7407 696.8782,63.7407 Q694.3714,63.7407 693.0515,62.0889 Q691.7317,60.437 691.7317,57.3159 Q691.7317,54.1865 693.0515,52.5347 Q694.3714,50.8828 696.8782,50.8828 Q697.5838,50.8828 698.2312,51.0322 Q698.8787,51.1816 699.4431,51.4805 L699.4431,54.2031 Q698.8123,53.6221 698.2188,53.3523 Q697.6253,53.0825 696.9944,53.0825 Q695.6497,53.0825 694.9649,54.1492 Q694.2801,55.2158 694.2801,57.3159 Q694.2801,59.4077 694.9649,60.4744 Q695.6497,61.541 696.9944,61.541 Q697.6253,61.541 698.2188,61.2712 Q698.8123,61.0015 699.4431,60.4204 Z " fill="#000000"/><text fill="#000000" font-family="sans-serif" font-size="14" lengthAdjust="spacing" textLength="96.0586" x="710.97" y="62.291">PlayerProvider</text><line style="stroke:#181818;stroke-width:0.5;" x1="682.97" x2="809.0286" y1="73" y2="73"/><line style="stroke:#181818;stroke-width:0.5;" x1="682.97" x2="809.0286" y1="81" y2="81"/></g><!--link UpgradeCollection to UpgradeSelector--><g id="link_UpgradeCollection_UpgradeSelector"><path codeLine="10" d="M126.35,89.33 C143.8,105.38 163.4743,123.4878 186.4543,144.6278 " fill="none" id="UpgradeCollection-to-UpgradeSelector" style="stroke:#181818;stroke-width:1.0;"/><polygon fill="#181818" points="190.87,148.69,186.9545,139.6529,187.1902,145.3049,181.5383,145.5406,190.87,148.69" style="stroke:#181818;stroke-width:1.0;"/></g><!--link Battle to UpgradeSelector--><g id="link_Battle_UpgradeSelector"><path codeLine="11" d="M556.68,89.38 C544.17,97.39 529.72,106.08 516,113 C491.26,125.48 470.1144,135.1425 443.6544,146.2225 " fill="none" id="Battle-to-UpgradeSelector" style="stroke:#181818;stroke-width:1.0;"/><polygon fill="#181818" points="438.12,148.54,447.9665,148.7533,442.732,146.6088,444.8766,141.3742,438.12,148.54" style="stroke:#181818;stroke-width:1.0;"/></g><!--link PlayerProvider to UpgradeSelector--><g id="link_PlayerProvider_UpgradeSelector"><path codeLine="12" d="M698.53,89.47 C681.03,97.58 660.86,106.31 642,113 C596.88,129 553.7259,142.1616 506.4459,155.1416 " fill="none" id="PlayerProvider-to-UpgradeSelector" style="stroke:#181818;stroke-width:1.0;"/><polygon fill="#181818" points="500.66,156.73,510.3978,158.2046,505.4816,155.4063,508.2799,150.4901,500.66,156.73" style="stroke:#181818;stroke-width:1.0;"/></g><!--link IUpgrade to UpgradeSelector--><g id="link_IUpgrade_UpgradeSelector"><path codeLine="13" d="M261,89.33 C261,105.38 261,115.55 261,136.69 " fill="none" id="IUpgrade-to-UpgradeSelector" style="stroke:#181818;stroke-width:1.0;"/><polygon fill="#181818" points="261,148.69,265,142.69,261,136.69,257,142.69,261,148.69" style="stroke:#181818;stroke-width:1.0;"/></g><!--reverse link UpgradeManager to UpgradeSelector--><g id="link_UpgradeManager_UpgradeSelector"><path codeLine="14" d="M387.916,93.4477 C370.906,109.4977 351.78,127.55 329.37,148.69 " fill="none" id="UpgradeManager-backto-UpgradeSelector" style="stroke:#181818;stroke-width:1.0;stroke-dasharray:7.0,7.0;"/><polygon fill="#181818" points="392.28,89.33,382.9889,92.5972,388.6433,92.7614,388.4791,98.4159,392.28,89.33" style="stroke:#181818;stroke-width:1.0;"/></g><!--SRC=[TP3Vgi8m3CRlznIzz0_k0MGCThmIpc6Y-01P6wHGszB4uH3VtKvRXU5fBvBq-wNDLmjd90yInT6V0YYaMo4D4ENwW0Obko1kXOXhALgRoQDNmAWQQZl2q4DdKAp5fwX-DN6rJNXTfmksr4ZM_SZk4LHhpH3ZysWNdCV0GzKvPpA_SPOuN2JFvh6bTrebuO2SHvbAZVTcIE9CMuNNjRRyXkvnvzOo9HjdHgVQMR5QrLFxnHzOE66WyWUOez5lpCx0C2Al6CtqMc7uYhvVpzyJgSN_L4hI4A8goodx0000]--></g></svg>