<svg xmlns="http://www.w3.org/2000/svg" xmlns:xlink="http://www.w3.org/1999/xlink" contentStyleType="text/css" height="368px" preserveAspectRatio="none" style="width:471px;height:368px;background:#FFFFFF;" version="1.1" viewBox="0 0 471 368" width="471px" zoomAndPan="magnify"><defs/><g><!--cluster Upgrades--><g id="cluster_Upgrades"><path d="M8.5,6 L78.3105,6 A3.75,3.75 0 0 1 80.8105,8.5 L87.8105,28.4883 L461.5,28.4883 A2.5,2.5 0 0 1 464,30.9883 L464,358.89 A2.5,2.5 0 0 1 461.5,361.39 L8.5,361.39 A2.5,2.5 0 0 1 6,358.89 L6,8.5 A2.5,2.5 0 0 1 8.5,6 " fill="none" style="stroke:#000000;stroke-width:1.5;"/><line style="stroke:#000000;stroke-width:1.5;" x1="6" x2="87.8105" y1="28.4883" y2="28.4883"/><text fill="#000000" font-family="sans-serif" font-size="14" font-weight="bold" lengthAdjust="spacing" textLength="68.8105" x="10" y="21.5352">Upgrades</text></g><!--class UpgradeSelectorView--><g id="elem_UpgradeSelectorView"><rect codeLine="2" fill="#F1F1F1" height="196.3945" id="UpgradeSelectorView" rx="2.5" ry="2.5" style="stroke:#181818;stroke-width:0.5;" width="426.2715" x="21.86" y="149"/><ellipse cx="159.235" cy="165" fill="#ADD1B2" rx="11" ry="11" style="stroke:#181818;stroke-width:1.0;"/><path d="M161.7081,171.1431 Q161.1271,171.4419 160.4879,171.5913 Q159.8488,171.7407 159.1432,171.7407 Q156.6364,171.7407 155.3165,170.0889 Q153.9967,168.437 153.9967,165.3159 Q153.9967,162.1865 155.3165,160.5347 Q156.6364,158.8828 159.1432,158.8828 Q159.8488,158.8828 160.4962,159.0322 Q161.1437,159.1816 161.7081,159.4805 L161.7081,162.2031 Q161.0773,161.6221 160.4838,161.3523 Q159.8903,161.0825 159.2594,161.0825 Q157.9147,161.0825 157.2299,162.1492 Q156.5451,163.2158 156.5451,165.3159 Q156.5451,167.4077 157.2299,168.4744 Q157.9147,169.541 159.2594,169.541 Q159.8903,169.541 160.4838,169.2712 Q161.0773,169.0015 161.7081,168.4204 Z " fill="#000000"/><text fill="#000000" font-family="sans-serif" font-size="14" lengthAdjust="spacing" textLength="143.0215" x="179.735" y="170.291">UpgradeSelectorView</text><line style="stroke:#181818;stroke-width:0.5;" x1="22.86" x2="447.1315" y1="181" y2="181"/><ellipse cx="32.86" cy="194.7441" fill="none" rx="3" ry="3" style="stroke:#038048;stroke-width:1.0;"/><text fill="#000000" font-family="sans-serif" font-size="14" lengthAdjust="spacing" textLength="223.1592" x="41.86" y="198.5352">selectedUpgradeIndex : int &#171;get&#187;</text><ellipse cx="32.86" cy="211.2324" fill="none" rx="3" ry="3" style="stroke:#038048;stroke-width:1.0;"/><text fill="#000000" font-family="sans-serif" font-size="14" lengthAdjust="spacing" textLength="400.2715" x="41.86" y="215.0234">OnUpgradeSelectedAsObservable : IObservable&lt;int&gt; &#171;get&#187;</text><line style="stroke:#181818;stroke-width:0.5;" x1="22.86" x2="447.1315" y1="221.9766" y2="221.9766"/><ellipse cx="32.86" cy="235.7207" fill="#84BE84" rx="3" ry="3" style="stroke:#038048;stroke-width:1.0;"/><text fill="#000000" font-family="sans-serif" font-size="14" lengthAdjust="spacing" textLength="95.2588" x="41.86" y="239.5117">Awake() : void</text><ellipse cx="32.86" cy="252.209" fill="#84BE84" rx="3" ry="3" style="stroke:#038048;stroke-width:1.0;"/><text fill="#000000" font-family="sans-serif" font-size="14" lengthAdjust="spacing" textLength="108.8008" x="41.86" y="256">Initialize() : void</text><ellipse cx="32.86" cy="268.6973" fill="#84BE84" rx="3" ry="3" style="stroke:#038048;stroke-width:1.0;"/><text fill="#000000" font-family="sans-serif" font-size="14" lengthAdjust="spacing" textLength="186.5527" x="41.86" y="272.4883">SetActive(active:bool) : void</text><ellipse cx="32.86" cy="285.1855" fill="#84BE84" rx="3" ry="3" style="stroke:#038048;stroke-width:1.0;"/><text fill="#000000" font-family="sans-serif" font-size="14" lengthAdjust="spacing" textLength="265.9453" x="41.86" y="288.9766">OnClickUpgradeButton(index:int) : void</text><ellipse cx="32.86" cy="301.6738" fill="#84BE84" rx="3" ry="3" style="stroke:#038048;stroke-width:1.0;"/><text fill="#000000" font-family="sans-serif" font-size="14" lengthAdjust="spacing" textLength="311.4795" x="41.86" y="305.4648">SetUpgrades(upgrades:List&lt;IUpgrade&gt;) : void</text><ellipse cx="32.86" cy="318.1621" fill="#84BE84" rx="3" ry="3" style="stroke:#038048;stroke-width:1.0;"/><text fill="#000000" font-family="sans-serif" font-size="14" lengthAdjust="spacing" textLength="201.5576" x="41.86" y="321.9531">SetPlayerId(playerId:int) : void</text><ellipse cx="32.86" cy="334.6504" fill="#84BE84" rx="3" ry="3" style="stroke:#038048;stroke-width:1.0;"/><text fill="#000000" font-family="sans-serif" font-size="14" lengthAdjust="spacing" textLength="148.8525" x="41.86" y="338.4414">ResetSelection() : void</text></g><!--class IUpgrade--><g id="elem_IUpgrade"><rect fill="#F1F1F1" height="48" id="IUpgrade" rx="2.5" ry="2.5" style="stroke:#181818;stroke-width:0.5;" width="93.3457" x="188.33" y="41"/><ellipse cx="203.33" cy="57" fill="#ADD1B2" rx="11" ry="11" style="stroke:#181818;stroke-width:1.0;"/><path d="M205.8031,63.1431 Q205.2221,63.4419 204.5829,63.5913 Q203.9438,63.7407 203.2382,63.7407 Q200.7314,63.7407 199.4115,62.0889 Q198.0917,60.437 198.0917,57.3159 Q198.0917,54.1865 199.4115,52.5347 Q200.7314,50.8828 203.2382,50.8828 Q203.9438,50.8828 204.5912,51.0322 Q205.2387,51.1816 205.8031,51.4805 L205.8031,54.2031 Q205.1723,53.6221 204.5788,53.3523 Q203.9853,53.0825 203.3544,53.0825 Q202.0097,53.0825 201.3249,54.1492 Q200.6401,55.2158 200.6401,57.3159 Q200.6401,59.4077 201.3249,60.4744 Q202.0097,61.541 203.3544,61.541 Q203.9853,61.541 204.5788,61.2712 Q205.1723,61.0015 205.8031,60.4204 Z " fill="#000000"/><text fill="#000000" font-family="sans-serif" font-size="14" lengthAdjust="spacing" textLength="61.3457" x="217.33" y="62.291">IUpgrade</text><line style="stroke:#181818;stroke-width:0.5;" x1="189.33" x2="280.6757" y1="73" y2="73"/><line style="stroke:#181818;stroke-width:0.5;" x1="189.33" x2="280.6757" y1="81" y2="81"/></g><!--reverse link IUpgrade to UpgradeSelectorView--><g id="link_IUpgrade_UpgradeSelectorView"><path codeLine="14" d="M235,95.18 C235,110.77 235,126.48 235,148.8 " fill="none" id="IUpgrade-backto-UpgradeSelectorView" style="stroke:#181818;stroke-width:1.0;stroke-dasharray:7.0,7.0;"/><polygon fill="#181818" points="235,89.18,231,98.18,235,94.18,239,98.18,235,89.18" style="stroke:#181818;stroke-width:1.0;"/></g><!--SRC=[RL5DQyCm3BttL_ZeCSWF22QGxcGOPAniTyKMHTIpGwIcsqh_UztEsLXJws1zlASdon4-a0TmgDw6xGWU-RXo0PZdU8C1dQJndV2WZYkLpwFYQn9zmTZeyLFLYg8eOxOeJLE0NVpN1dtBNSyuJj07p0px5vdCRcxexG5sg1yoS4haIz964e90tulA1gLrGXDgk5vrdrAumNJnAP3RbR7MUv4KDLqUKES1bWtdjUXzSUfdOZ6sv9ibuoN05uxMww4uTng_8gFyx8Io_c_rb6rMh6ODPQhgtdUS0G00]--></g></svg>