<svg xmlns="http://www.w3.org/2000/svg" xmlns:xlink="http://www.w3.org/1999/xlink" contentStyleType="text/css" height="476px" preserveAspectRatio="none" style="width:906px;height:476px;background:#FFFFFF;" version="1.1" viewBox="0 0 906 476" width="906px" zoomAndPan="magnify"><defs/><g><!--cluster Upgrades--><g id="cluster_Upgrades"><path d="M186.5,6 L256.3105,6 A3.75,3.75 0 0 1 258.8105,8.5 L265.8105,28.4883 L706.5,28.4883 A2.5,2.5 0 0 1 709,30.9883 L709,466.89 A2.5,2.5 0 0 1 706.5,469.39 L186.5,469.39 A2.5,2.5 0 0 1 184,466.89 L184,8.5 A2.5,2.5 0 0 1 186.5,6 " fill="none" style="stroke:#000000;stroke-width:1.5;"/><line style="stroke:#000000;stroke-width:1.5;" x1="184" x2="265.8105" y1="28.4883" y2="28.4883"/><text fill="#000000" font-family="sans-serif" font-size="14" font-weight="bold" lengthAdjust="spacing" textLength="68.8105" x="188" y="21.5352">Upgrades</text></g><!--cluster Players--><g id="cluster_Players"><path d="M8.5,138.73 L61.5146,138.73 A3.75,3.75 0 0 1 64.0146,141.23 L71.0146,161.2183 L157.5,161.2183 A2.5,2.5 0 0 1 160,163.7183 L160,235.23 A2.5,2.5 0 0 1 157.5,237.73 L8.5,237.73 A2.5,2.5 0 0 1 6,235.23 L6,141.23 A2.5,2.5 0 0 1 8.5,138.73 " fill="none" style="stroke:#000000;stroke-width:1.5;"/><line style="stroke:#000000;stroke-width:1.5;" x1="6" x2="71.0146" y1="161.2183" y2="161.2183"/><text fill="#000000" font-family="sans-serif" font-size="14" font-weight="bold" lengthAdjust="spacing" textLength="52.0146" x="10" y="154.2652">Players</text></g><!--cluster Weapons--><g id="cluster_Weapons"><path d="M735.5,138.73 L800.915,138.73 A3.75,3.75 0 0 1 803.415,141.23 L810.415,161.2183 L896.5,161.2183 A2.5,2.5 0 0 1 899,163.7183 L899,235.23 A2.5,2.5 0 0 1 896.5,237.73 L735.5,237.73 A2.5,2.5 0 0 1 733,235.23 L733,141.23 A2.5,2.5 0 0 1 735.5,138.73 " fill="none" style="stroke:#000000;stroke-width:1.5;"/><line style="stroke:#000000;stroke-width:1.5;" x1="733" x2="810.415" y1="161.2183" y2="161.2183"/><text fill="#000000" font-family="sans-serif" font-size="14" font-weight="bold" lengthAdjust="spacing" textLength="64.415" x="737" y="154.2652">Weapons</text></g><!--class UpgradeType--><g id="elem_UpgradeType"><rect codeLine="2" fill="#F1F1F1" height="97.4648" id="UpgradeType" rx="2.5" ry="2.5" style="stroke:#181818;stroke-width:0.5;" width="122.0908" x="199.95" y="149"/><ellipse cx="214.95" cy="165" fill="#EB937F" rx="11" ry="11" style="stroke:#181818;stroke-width:1.0;"/><path d="M218.5643,171.5 L210.8445,171.5 L210.8445,159.1069 L218.5643,159.1069 L218.5643,161.2651 L213.2933,161.2651 L213.2933,163.938 L218.0662,163.938 L218.0662,166.0962 L213.2933,166.0962 L213.2933,169.3418 L218.5643,169.3418 Z " fill="#000000"/><text fill="#000000" font-family="sans-serif" font-size="14" lengthAdjust="spacing" textLength="90.0908" x="228.95" y="170.291">UpgradeType</text><line style="stroke:#181818;stroke-width:0.5;" x1="200.95" x2="321.0408" y1="181" y2="181"/><text fill="#000000" font-family="sans-serif" font-size="14" lengthAdjust="spacing" textLength="44.7891" x="205.95" y="198.5352">Player,</text><text fill="#000000" font-family="sans-serif" font-size="14" lengthAdjust="spacing" textLength="85.3193" x="205.95" y="215.0234">AddWeapon,</text><text fill="#000000" font-family="sans-serif" font-size="14" lengthAdjust="spacing" textLength="58.0371" x="205.95" y="231.5117">Weapon,</text><line style="stroke:#181818;stroke-width:0.5;" x1="200.95" x2="321.0408" y1="238.4648" y2="238.4648"/></g><!--class UpgradeData--><g id="elem_UpgradeData"><rect codeLine="7" fill="#F1F1F1" height="146.9297" id="UpgradeData" rx="2.5" ry="2.5" style="stroke:#181818;stroke-width:0.5;" width="304.5508" x="285.72" y="306.46"/><ellipse cx="389.4964" cy="322.46" fill="#ADD1B2" rx="11" ry="11" style="stroke:#181818;stroke-width:1.0;"/><path d="M391.9695,328.6031 Q391.3885,328.9019 390.7493,329.0513 Q390.1101,329.2007 389.4046,329.2007 Q386.8977,329.2007 385.5779,327.5489 Q384.2581,325.897 384.2581,322.7759 Q384.2581,319.6465 385.5779,317.9947 Q386.8977,316.3428 389.4046,316.3428 Q390.1101,316.3428 390.7576,316.4922 Q391.4051,316.6416 391.9695,316.9405 L391.9695,319.6631 Q391.3387,319.0821 390.7451,318.8123 Q390.1516,318.5425 389.5208,318.5425 Q388.1761,318.5425 387.4912,319.6092 Q386.8064,320.6758 386.8064,322.7759 Q386.8064,324.8677 387.4912,325.9344 Q388.1761,327.001 389.5208,327.001 Q390.1516,327.001 390.7451,326.7312 Q391.3387,326.4615 391.9695,325.8804 Z " fill="#000000"/><text fill="#000000" font-family="sans-serif" font-size="14" lengthAdjust="spacing" textLength="88.498" x="409.9964" y="327.751">UpgradeData</text><line style="stroke:#181818;stroke-width:0.5;" x1="286.72" x2="589.2708" y1="338.46" y2="338.46"/><ellipse cx="296.72" cy="352.2041" fill="none" rx="3" ry="3" style="stroke:#038048;stroke-width:1.0;"/><text fill="#000000" font-family="sans-serif" font-size="14" lengthAdjust="spacing" textLength="65.7139" x="305.72" y="355.9952">id : string</text><ellipse cx="296.72" cy="368.6924" fill="none" rx="3" ry="3" style="stroke:#038048;stroke-width:1.0;"/><text fill="#000000" font-family="sans-serif" font-size="14" lengthAdjust="spacing" textLength="148.1006" x="305.72" y="372.4834">upgradeName : string</text><ellipse cx="296.72" cy="385.1807" fill="none" rx="3" ry="3" style="stroke:#038048;stroke-width:1.0;"/><text fill="#000000" font-family="sans-serif" font-size="14" lengthAdjust="spacing" textLength="192.459" x="305.72" y="388.9717">upgradeType : UpgradeType</text><ellipse cx="296.72" cy="401.669" fill="none" rx="3" ry="3" style="stroke:#038048;stroke-width:1.0;"/><text fill="#000000" font-family="sans-serif" font-size="14" lengthAdjust="spacing" textLength="254.3174" x="305.72" y="405.46">playerParamsVariation : PlayerParams</text><ellipse cx="296.72" cy="418.1573" fill="none" rx="3" ry="3" style="stroke:#038048;stroke-width:1.0;"/><text fill="#000000" font-family="sans-serif" font-size="14" lengthAdjust="spacing" textLength="278.5508" x="305.72" y="421.9483">weaponParamsVariation : WeaponParams</text><ellipse cx="296.72" cy="434.6455" fill="none" rx="3" ry="3" style="stroke:#038048;stroke-width:1.0;"/><text fill="#000000" font-family="sans-serif" font-size="14" lengthAdjust="spacing" textLength="145.0039" x="305.72" y="438.4366">weaponId : WeaponId</text><line style="stroke:#181818;stroke-width:0.5;" x1="286.72" x2="589.2708" y1="445.3897" y2="445.3897"/></g><!--class UpgradeSetting--><g id="elem_UpgradeSetting"><rect codeLine="15" fill="#F1F1F1" height="97.4648" id="UpgradeSetting" rx="2.5" ry="2.5" style="stroke:#181818;stroke-width:0.5;" width="335.9893" x="357.01" y="149"/><ellipse cx="468.4597" cy="165" fill="#ADD1B2" rx="11" ry="11" style="stroke:#181818;stroke-width:1.0;"/><path d="M470.9329,171.1431 Q470.3518,171.4419 469.7126,171.5913 Q469.0735,171.7407 468.3679,171.7407 Q465.8611,171.7407 464.5413,170.0889 Q463.2214,168.437 463.2214,165.3159 Q463.2214,162.1865 464.5413,160.5347 Q465.8611,158.8828 468.3679,158.8828 Q469.0735,158.8828 469.7209,159.0322 Q470.3684,159.1816 470.9329,159.4805 L470.9329,162.2031 Q470.302,161.6221 469.7085,161.3523 Q469.115,161.0825 468.4841,161.0825 Q467.1394,161.0825 466.4546,162.1492 Q465.7698,163.2158 465.7698,165.3159 Q465.7698,167.4077 466.4546,168.4744 Q467.1394,169.541 468.4841,169.541 Q469.115,169.541 469.7085,169.2712 Q470.302,169.0015 470.9329,168.4204 Z " fill="#000000"/><text fill="#000000" font-family="sans-serif" font-size="14" lengthAdjust="spacing" textLength="104.5898" x="488.9597" y="170.291">UpgradeSetting</text><line style="stroke:#181818;stroke-width:0.5;" x1="358.01" x2="691.9993" y1="181" y2="181"/><ellipse cx="368.01" cy="194.7441" fill="none" rx="3" ry="3" style="stroke:#038048;stroke-width:1.0;"/><text fill="#000000" font-family="sans-serif" font-size="14" lengthAdjust="spacing" textLength="259.3008" x="377.01" y="198.5352">upgradeDataList : List&lt;UpgradeData&gt;</text><line style="stroke:#181818;stroke-width:0.5;" x1="358.01" x2="691.9993" y1="205.4883" y2="205.4883"/><ellipse cx="368.01" cy="219.2324" fill="#84BE84" rx="3" ry="3" style="stroke:#038048;stroke-width:1.0;"/><text fill="#000000" font-family="sans-serif" font-size="14" lengthAdjust="spacing" textLength="309.9893" x="377.01" y="223.0234">GetUpgradeData(id:UpgradeId) : UpgradeData</text><ellipse cx="368.01" cy="235.7207" fill="#84BE84" rx="3" ry="3" style="stroke:#038048;stroke-width:1.0;"/><text fill="#000000" font-family="sans-serif" font-size="14" lengthAdjust="spacing" textLength="156.5156" x="377.01" y="239.5117">CreateEnumFile() : void</text></g><!--class UpgradeId--><g id="elem_UpgradeId"><rect fill="#F1F1F1" height="48" id="UpgradeId" rx="2.5" ry="2.5" style="stroke:#181818;stroke-width:0.5;" width="102.1572" x="473.92" y="41"/><ellipse cx="488.92" cy="57" fill="#ADD1B2" rx="11" ry="11" style="stroke:#181818;stroke-width:1.0;"/><path d="M491.3931,63.1431 Q490.8121,63.4419 490.1729,63.5913 Q489.5338,63.7407 488.8282,63.7407 Q486.3214,63.7407 485.0015,62.0889 Q483.6817,60.437 483.6817,57.3159 Q483.6817,54.1865 485.0015,52.5347 Q486.3214,50.8828 488.8282,50.8828 Q489.5338,50.8828 490.1812,51.0322 Q490.8287,51.1816 491.3931,51.4805 L491.3931,54.2031 Q490.7623,53.6221 490.1688,53.3523 Q489.5753,53.0825 488.9444,53.0825 Q487.5997,53.0825 486.9149,54.1492 Q486.2301,55.2158 486.2301,57.3159 Q486.2301,59.4077 486.9149,60.4744 Q487.5997,61.541 488.9444,61.541 Q489.5753,61.541 490.1688,61.2712 Q490.7623,61.0015 491.3931,60.4204 Z " fill="#000000"/><text fill="#000000" font-family="sans-serif" font-size="14" lengthAdjust="spacing" textLength="70.1572" x="502.92" y="62.291">UpgradeId</text><line style="stroke:#181818;stroke-width:0.5;" x1="474.92" x2="575.0772" y1="73" y2="73"/><line style="stroke:#181818;stroke-width:0.5;" x1="474.92" x2="575.0772" y1="81" y2="81"/></g><!--class PlayerParams--><g id="elem_PlayerParams"><rect fill="#F1F1F1" height="48" id="PlayerParams" rx="2.5" ry="2.5" style="stroke:#181818;stroke-width:0.5;" width="121.4961" x="22.25" y="173.73"/><ellipse cx="37.25" cy="189.73" fill="#ADD1B2" rx="11" ry="11" style="stroke:#181818;stroke-width:1.0;"/><path d="M39.7231,195.8731 Q39.1421,196.1719 38.5029,196.3213 Q37.8638,196.4707 37.1582,196.4707 Q34.6514,196.4707 33.3315,194.8189 Q32.0117,193.167 32.0117,190.0459 Q32.0117,186.9165 33.3315,185.2647 Q34.6514,183.6128 37.1582,183.6128 Q37.8638,183.6128 38.5112,183.7622 Q39.1587,183.9116 39.7231,184.2105 L39.7231,186.9331 Q39.0923,186.3521 38.4988,186.0823 Q37.9053,185.8125 37.2744,185.8125 Q35.9297,185.8125 35.2449,186.8792 Q34.5601,187.9458 34.5601,190.0459 Q34.5601,192.1377 35.2449,193.2044 Q35.9297,194.271 37.2744,194.271 Q37.9053,194.271 38.4988,194.0012 Q39.0923,193.7315 39.7231,193.1504 Z " fill="#000000"/><text fill="#000000" font-family="sans-serif" font-size="14" lengthAdjust="spacing" textLength="89.4961" x="51.25" y="195.021">PlayerParams</text><line style="stroke:#181818;stroke-width:0.5;" x1="23.25" x2="142.7461" y1="205.73" y2="205.73"/><line style="stroke:#181818;stroke-width:0.5;" x1="23.25" x2="142.7461" y1="213.73" y2="213.73"/></g><!--class WeaponParams--><g id="elem_WeaponParams"><rect fill="#F1F1F1" height="48" id="WeaponParams" rx="2.5" ry="2.5" style="stroke:#181818;stroke-width:0.5;" width="134.7441" x="748.63" y="173.73"/><ellipse cx="763.63" cy="189.73" fill="#ADD1B2" rx="11" ry="11" style="stroke:#181818;stroke-width:1.0;"/><path d="M766.1031,195.8731 Q765.5221,196.1719 764.8829,196.3213 Q764.2438,196.4707 763.5382,196.4707 Q761.0314,196.4707 759.7115,194.8189 Q758.3917,193.167 758.3917,190.0459 Q758.3917,186.9165 759.7115,185.2647 Q761.0314,183.6128 763.5382,183.6128 Q764.2438,183.6128 764.8912,183.7622 Q765.5387,183.9116 766.1031,184.2105 L766.1031,186.9331 Q765.4723,186.3521 764.8788,186.0823 Q764.2853,185.8125 763.6544,185.8125 Q762.3097,185.8125 761.6249,186.8792 Q760.9401,187.9458 760.9401,190.0459 Q760.9401,192.1377 761.6249,193.2044 Q762.3097,194.271 763.6544,194.271 Q764.2853,194.271 764.8788,194.0012 Q765.4723,193.7315 766.1031,193.1504 Z " fill="#000000"/><text fill="#000000" font-family="sans-serif" font-size="14" lengthAdjust="spacing" textLength="102.7441" x="777.63" y="195.021">WeaponParams</text><line style="stroke:#181818;stroke-width:0.5;" x1="749.63" x2="882.3741" y1="205.73" y2="205.73"/><line style="stroke:#181818;stroke-width:0.5;" x1="749.63" x2="882.3741" y1="213.73" y2="213.73"/></g><!--link UpgradeType to UpgradeData--><g id="link_UpgradeType_UpgradeData"><path codeLine="21" d="M307.97,246.54 C325.89,264.79 338.3398,277.4703 358.0398,297.5203 " fill="none" id="UpgradeType-to-UpgradeData" style="stroke:#181818;stroke-width:1.0;"/><polygon fill="#181818" points="366.45,306.08,365.0981,298.9968,358.0398,297.5203,359.3917,304.6036,366.45,306.08" style="stroke:#181818;stroke-width:1.0;"/></g><!--link PlayerParams to UpgradeData--><g id="link_PlayerParams_UpgradeData"><path codeLine="22" d="M129.05,222.1 C171.07,243.43 224.7596,270.6884 283.8996,300.7084 " fill="none" id="PlayerParams-to-UpgradeData" style="stroke:#181818;stroke-width:1.0;"/><polygon fill="#181818" points="294.6,306.14,291.0604,299.8574,283.8996,300.7084,287.4393,306.991,294.6,306.14" style="stroke:#181818;stroke-width:1.0;"/></g><!--link WeaponParams to UpgradeData--><g id="link_WeaponParams_UpgradeData"><path codeLine="23" d="M766.97,222.1 C722.22,243.43 664.492,270.956 601.522,300.976 " fill="none" id="WeaponParams-to-UpgradeData" style="stroke:#181818;stroke-width:1.0;"/><polygon fill="#181818" points="590.69,306.14,597.8274,307.1687,601.522,300.976,594.3847,299.9473,590.69,306.14" style="stroke:#181818;stroke-width:1.0;"/></g><!--link UpgradeSetting to UpgradeData--><g id="link_UpgradeSetting_UpgradeData"><path codeLine="24" d="M501.91,246.54 C493.1,264.79 488.0673,275.2235 478.3873,295.2735 " fill="none" id="UpgradeSetting-to-UpgradeData" style="stroke:#181818;stroke-width:1.0;"/><polygon fill="#181818" points="473.17,306.08,479.3808,302.4159,478.3873,295.2735,472.1765,298.9377,473.17,306.08" style="stroke:#181818;stroke-width:1.0;"/></g><!--reverse link UpgradeId to UpgradeSetting--><g id="link_UpgradeId_UpgradeSetting"><path codeLine="25" d="M525,95.37 C525,111.82 525,128.43 525,148.65 " fill="none" id="UpgradeId-backto-UpgradeSetting" style="stroke:#181818;stroke-width:1.0;stroke-dasharray:7.0,7.0;"/><polygon fill="#181818" points="525,89.37,521,98.37,525,94.37,529,98.37,525,89.37" style="stroke:#181818;stroke-width:1.0;"/></g><!--SRC=[TL5TYy8m47plhyYZvqT-G943qRkZS4X1JvyNiqYWJKCsFId5_sxQfZMsc9TaTsRRcLa5EPA62x8_VJKWaEe8LPdtvR7IoEg8kPDcKA5Pjk-D46S4NQYkxD_tw981KJ-y0mj-UC6aO34ZQwIw-axPiVPEmXke_NiSQl6uRhMaO22d4nW9LXRACTEWxwctLjkKUWxwBzH436WYnfOEQAsJERWgdqv_9LatsLph881Fp_n16tHdKiI-JCJ7qsE3-O6jGR3uvPRnBJESDQJ_GZQAxb6_B1wkQRMQltoc2uDu6Cg4r1ab7iOn8OtClu47DIx1DUUZo1u0]--></g></svg>