<svg xmlns="http://www.w3.org/2000/svg" xmlns:xlink="http://www.w3.org/1999/xlink" contentStyleType="text/css" height="252px" preserveAspectRatio="none" style="width:936px;height:252px;background:#FFFFFF;" version="1.1" viewBox="0 0 936 252" width="936px" zoomAndPan="magnify"><defs/><g><!--cluster Upgrades--><g id="cluster_Upgrades"><path d="M8.5,6 L78.3105,6 A3.75,3.75 0 0 1 80.8105,8.5 L87.8105,28.4883 L341.5,28.4883 A2.5,2.5 0 0 1 344,30.9883 L344,243.48 A2.5,2.5 0 0 1 341.5,245.98 L8.5,245.98 A2.5,2.5 0 0 1 6,243.48 L6,8.5 A2.5,2.5 0 0 1 8.5,6 " fill="none" style="stroke:#000000;stroke-width:1.5;"/><line style="stroke:#000000;stroke-width:1.5;" x1="6" x2="87.8105" y1="28.4883" y2="28.4883"/><text fill="#000000" font-family="sans-serif" font-size="14" font-weight="bold" lengthAdjust="spacing" textLength="68.8105" x="10" y="21.5352">Upgrades</text></g><!--cluster Players--><g id="cluster_Players"><path d="M370.5,6 L423.5146,6 A3.75,3.75 0 0 1 426.0146,8.5 L433.0146,28.4883 L726.5,28.4883 A2.5,2.5 0 0 1 729,30.9883 L729,102.5 A2.5,2.5 0 0 1 726.5,105 L370.5,105 A2.5,2.5 0 0 1 368,102.5 L368,8.5 A2.5,2.5 0 0 1 370.5,6 " fill="none" style="stroke:#000000;stroke-width:1.5;"/><line style="stroke:#000000;stroke-width:1.5;" x1="368" x2="433.0146" y1="28.4883" y2="28.4883"/><text fill="#000000" font-family="sans-serif" font-size="14" font-weight="bold" lengthAdjust="spacing" textLength="52.0146" x="372" y="21.5352">Players</text></g><!--cluster Weapons--><g id="cluster_Weapons"><path d="M755.5,6 L820.915,6 A3.75,3.75 0 0 1 823.415,8.5 L830.415,28.4883 L926.5,28.4883 A2.5,2.5 0 0 1 929,30.9883 L929,102.5 A2.5,2.5 0 0 1 926.5,105 L755.5,105 A2.5,2.5 0 0 1 753,102.5 L753,8.5 A2.5,2.5 0 0 1 755.5,6 " fill="none" style="stroke:#000000;stroke-width:1.5;"/><line style="stroke:#000000;stroke-width:1.5;" x1="753" x2="830.415" y1="28.4883" y2="28.4883"/><text fill="#000000" font-family="sans-serif" font-size="14" font-weight="bold" lengthAdjust="spacing" textLength="64.415" x="757" y="21.5352">Weapons</text></g><!--class UpgradeManager--><g id="elem_UpgradeManager"><rect codeLine="2" fill="#F1F1F1" height="80.9766" id="UpgradeManager" rx="2.5" ry="2.5" style="stroke:#181818;stroke-width:0.5;" width="305.4258" x="22.29" y="149"/><ellipse cx="112.8628" cy="165" fill="#ADD1B2" rx="11" ry="11" style="stroke:#181818;stroke-width:1.0;"/><path d="M115.3359,171.1431 Q114.7548,171.4419 114.1157,171.5913 Q113.4765,171.7407 112.771,171.7407 Q110.2641,171.7407 108.9443,170.0889 Q107.6245,168.437 107.6245,165.3159 Q107.6245,162.1865 108.9443,160.5347 Q110.2641,158.8828 112.771,158.8828 Q113.4765,158.8828 114.124,159.0322 Q114.7714,159.1816 115.3359,159.4805 L115.3359,162.2031 Q114.705,161.6221 114.1115,161.3523 Q113.518,161.0825 112.8872,161.0825 Q111.5424,161.0825 110.8576,162.1492 Q110.1728,163.2158 110.1728,165.3159 Q110.1728,167.4077 110.8576,168.4744 Q111.5424,169.541 112.8872,169.541 Q113.518,169.541 114.1115,169.2712 Q114.705,169.0015 115.3359,168.4204 Z " fill="#000000"/><text fill="#000000" font-family="sans-serif" font-size="14" lengthAdjust="spacing" textLength="115.7803" x="133.3628" y="170.291">UpgradeManager</text><line style="stroke:#181818;stroke-width:0.5;" x1="23.29" x2="326.7158" y1="181" y2="181"/><line style="stroke:#181818;stroke-width:0.5;" x1="23.29" x2="326.7158" y1="189" y2="189"/><ellipse cx="33.29" cy="202.7441" fill="#84BE84" rx="3" ry="3" style="stroke:#038048;stroke-width:1.0;"/><text fill="#000000" font-family="sans-serif" font-size="14" lengthAdjust="spacing" textLength="171.9443" x="42.29" y="206.5352">ApplyAllUpgrades() : void</text><ellipse cx="33.29" cy="219.2324" fill="#84BE84" rx="3" ry="3" style="stroke:#038048;stroke-width:1.0;"/><text fill="#000000" font-family="sans-serif" font-size="14" lengthAdjust="spacing" textLength="279.4258" x="42.29" y="223.0234">AddUpgrade(upgradeId:UpgradeId) : void</text></g><!--class UpgradeLoader--><g id="elem_UpgradeLoader"><rect fill="#F1F1F1" height="48" id="UpgradeLoader" rx="2.5" ry="2.5" style="stroke:#181818;stroke-width:0.5;" width="135.4482" x="38.28" y="41"/><ellipse cx="53.28" cy="57" fill="#ADD1B2" rx="11" ry="11" style="stroke:#181818;stroke-width:1.0;"/><path d="M55.7531,63.1431 Q55.1721,63.4419 54.5329,63.5913 Q53.8938,63.7407 53.1882,63.7407 Q50.6814,63.7407 49.3615,62.0889 Q48.0417,60.437 48.0417,57.3159 Q48.0417,54.1865 49.3615,52.5347 Q50.6814,50.8828 53.1882,50.8828 Q53.8938,50.8828 54.5412,51.0322 Q55.1887,51.1816 55.7531,51.4805 L55.7531,54.2031 Q55.1223,53.6221 54.5288,53.3523 Q53.9353,53.0825 53.3044,53.0825 Q51.9597,53.0825 51.2749,54.1492 Q50.5901,55.2158 50.5901,57.3159 Q50.5901,59.4077 51.2749,60.4744 Q51.9597,61.541 53.3044,61.541 Q53.9353,61.541 54.5288,61.2712 Q55.1223,61.0015 55.7531,60.4204 Z " fill="#000000"/><text fill="#000000" font-family="sans-serif" font-size="14" lengthAdjust="spacing" textLength="103.4482" x="67.28" y="62.291">UpgradeLoader</text><line style="stroke:#181818;stroke-width:0.5;" x1="39.28" x2="172.7282" y1="73" y2="73"/><line style="stroke:#181818;stroke-width:0.5;" x1="39.28" x2="172.7282" y1="81" y2="81"/></g><!--class UpgradeId--><g id="elem_UpgradeId"><rect fill="#F1F1F1" height="48" id="UpgradeId" rx="2.5" ry="2.5" style="stroke:#181818;stroke-width:0.5;" width="102.1572" x="208.92" y="41"/><ellipse cx="223.92" cy="57" fill="#ADD1B2" rx="11" ry="11" style="stroke:#181818;stroke-width:1.0;"/><path d="M226.3931,63.1431 Q225.8121,63.4419 225.1729,63.5913 Q224.5338,63.7407 223.8282,63.7407 Q221.3214,63.7407 220.0015,62.0889 Q218.6817,60.437 218.6817,57.3159 Q218.6817,54.1865 220.0015,52.5347 Q221.3214,50.8828 223.8282,50.8828 Q224.5338,50.8828 225.1812,51.0322 Q225.8287,51.1816 226.3931,51.4805 L226.3931,54.2031 Q225.7623,53.6221 225.1688,53.3523 Q224.5753,53.0825 223.9444,53.0825 Q222.5997,53.0825 221.9149,54.1492 Q221.2301,55.2158 221.2301,57.3159 Q221.2301,59.4077 221.9149,60.4744 Q222.5997,61.541 223.9444,61.541 Q224.5753,61.541 225.1688,61.2712 Q225.7623,61.0015 226.3931,60.4204 Z " fill="#000000"/><text fill="#000000" font-family="sans-serif" font-size="14" lengthAdjust="spacing" textLength="70.1572" x="237.92" y="62.291">UpgradeId</text><line style="stroke:#181818;stroke-width:0.5;" x1="209.92" x2="310.0772" y1="73" y2="73"/><line style="stroke:#181818;stroke-width:0.5;" x1="209.92" x2="310.0772" y1="81" y2="81"/></g><!--class PlayerStatusManager--><g id="elem_PlayerStatusManager"><rect fill="#F1F1F1" height="48" id="PlayerStatusManager" rx="2.5" ry="2.5" style="stroke:#181818;stroke-width:0.5;" width="172.3965" x="383.8" y="41"/><ellipse cx="398.8" cy="57" fill="#ADD1B2" rx="11" ry="11" style="stroke:#181818;stroke-width:1.0;"/><path d="M401.2731,63.1431 Q400.6921,63.4419 400.0529,63.5913 Q399.4138,63.7407 398.7082,63.7407 Q396.2014,63.7407 394.8815,62.0889 Q393.5617,60.437 393.5617,57.3159 Q393.5617,54.1865 394.8815,52.5347 Q396.2014,50.8828 398.7082,50.8828 Q399.4138,50.8828 400.0612,51.0322 Q400.7087,51.1816 401.2731,51.4805 L401.2731,54.2031 Q400.6423,53.6221 400.0488,53.3523 Q399.4553,53.0825 398.8244,53.0825 Q397.4797,53.0825 396.7949,54.1492 Q396.1101,55.2158 396.1101,57.3159 Q396.1101,59.4077 396.7949,60.4744 Q397.4797,61.541 398.8244,61.541 Q399.4553,61.541 400.0488,61.2712 Q400.6423,61.0015 401.2731,60.4204 Z " fill="#000000"/><text fill="#000000" font-family="sans-serif" font-size="14" lengthAdjust="spacing" textLength="140.3965" x="412.8" y="62.291">PlayerStatusManager</text><line style="stroke:#181818;stroke-width:0.5;" x1="384.8" x2="555.1965" y1="73" y2="73"/><line style="stroke:#181818;stroke-width:0.5;" x1="384.8" x2="555.1965" y1="81" y2="81"/></g><!--class PlayerParams--><g id="elem_PlayerParams"><rect fill="#F1F1F1" height="48" id="PlayerParams" rx="2.5" ry="2.5" style="stroke:#181818;stroke-width:0.5;" width="121.4961" x="591.25" y="41"/><ellipse cx="606.25" cy="57" fill="#ADD1B2" rx="11" ry="11" style="stroke:#181818;stroke-width:1.0;"/><path d="M608.7231,63.1431 Q608.1421,63.4419 607.5029,63.5913 Q606.8638,63.7407 606.1582,63.7407 Q603.6514,63.7407 602.3315,62.0889 Q601.0117,60.437 601.0117,57.3159 Q601.0117,54.1865 602.3315,52.5347 Q603.6514,50.8828 606.1582,50.8828 Q606.8638,50.8828 607.5112,51.0322 Q608.1587,51.1816 608.7231,51.4805 L608.7231,54.2031 Q608.0923,53.6221 607.4988,53.3523 Q606.9053,53.0825 606.2744,53.0825 Q604.9297,53.0825 604.2449,54.1492 Q603.5601,55.2158 603.5601,57.3159 Q603.5601,59.4077 604.2449,60.4744 Q604.9297,61.541 606.2744,61.541 Q606.9053,61.541 607.4988,61.2712 Q608.0923,61.0015 608.7231,60.4204 Z " fill="#000000"/><text fill="#000000" font-family="sans-serif" font-size="14" lengthAdjust="spacing" textLength="89.4961" x="620.25" y="62.291">PlayerParams</text><line style="stroke:#181818;stroke-width:0.5;" x1="592.25" x2="711.7461" y1="73" y2="73"/><line style="stroke:#181818;stroke-width:0.5;" x1="592.25" x2="711.7461" y1="81" y2="81"/></g><!--class WeaponManager--><g id="elem_WeaponManager"><rect fill="#F1F1F1" height="48" id="WeaponManager" rx="2.5" ry="2.5" style="stroke:#181818;stroke-width:0.5;" width="144.0752" x="768.96" y="41"/><ellipse cx="783.96" cy="57" fill="#ADD1B2" rx="11" ry="11" style="stroke:#181818;stroke-width:1.0;"/><path d="M786.4331,63.1431 Q785.8521,63.4419 785.2129,63.5913 Q784.5738,63.7407 783.8682,63.7407 Q781.3614,63.7407 780.0415,62.0889 Q778.7217,60.437 778.7217,57.3159 Q778.7217,54.1865 780.0415,52.5347 Q781.3614,50.8828 783.8682,50.8828 Q784.5738,50.8828 785.2212,51.0322 Q785.8687,51.1816 786.4331,51.4805 L786.4331,54.2031 Q785.8023,53.6221 785.2088,53.3523 Q784.6153,53.0825 783.9844,53.0825 Q782.6397,53.0825 781.9549,54.1492 Q781.2701,55.2158 781.2701,57.3159 Q781.2701,59.4077 781.9549,60.4744 Q782.6397,61.541 783.9844,61.541 Q784.6153,61.541 785.2088,61.2712 Q785.8023,61.0015 786.4331,60.4204 Z " fill="#000000"/><text fill="#000000" font-family="sans-serif" font-size="14" lengthAdjust="spacing" textLength="112.0752" x="797.96" y="62.291">WeaponManager</text><line style="stroke:#181818;stroke-width:0.5;" x1="769.96" x2="912.0352" y1="73" y2="73"/><line style="stroke:#181818;stroke-width:0.5;" x1="769.96" x2="912.0352" y1="81" y2="81"/></g><!--link UpgradeLoader to UpgradeManager--><g id="link_UpgradeLoader_UpgradeManager"><path codeLine="7" d="M119.14,89.33 C128.6,106.13 138.6541,123.973 149.7341,143.633 " fill="none" id="UpgradeLoader-to-UpgradeManager" style="stroke:#181818;stroke-width:1.0;"/><polygon fill="#181818" points="152.68,148.86,151.7459,139.0555,150.2251,144.5041,144.7765,142.9833,152.68,148.86" style="stroke:#181818;stroke-width:1.0;"/></g><!--link PlayerStatusManager to UpgradeManager--><g id="link_PlayerStatusManager_UpgradeManager"><path codeLine="8" d="M413.47,89.48 C373.23,106.18 323.7211,126.7386 276.6511,146.2886 " fill="none" id="PlayerStatusManager-to-UpgradeManager" style="stroke:#181818;stroke-width:1.0;"/><polygon fill="#181818" points="271.11,148.59,280.9559,148.8319,275.7276,146.6721,277.8873,141.4438,271.11,148.59" style="stroke:#181818;stroke-width:1.0;"/></g><!--link WeaponManager to UpgradeManager--><g id="link_WeaponManager_UpgradeManager"><path codeLine="9" d="M792.91,89.44 C773.47,98.05 750.56,107.12 729,113 C596.14,149.26 446.3666,167.9807 333.8966,177.9407 " fill="none" id="WeaponManager-to-UpgradeManager" style="stroke:#181818;stroke-width:1.0;"/><polygon fill="#181818" points="327.92,178.47,337.2378,181.6605,332.9005,178.0289,336.5321,173.6917,327.92,178.47" style="stroke:#181818;stroke-width:1.0;"/></g><!--link PlayerParams to UpgradeManager--><g id="link_PlayerParams_UpgradeManager"><path codeLine="10" d="M619.17,89.35 C605.72,97.94 589.66,107.03 574,113 C495.62,142.92 415.7622,159.5933 340.0422,170.7333 " fill="none" id="PlayerParams-to-UpgradeManager" style="stroke:#181818;stroke-width:1.0;"/><polygon fill="#181818" points="328.17,172.48,334.6883,175.5641,340.0422,170.7333,333.5239,167.6493,328.17,172.48" style="stroke:#181818;stroke-width:1.0;"/></g><!--link UpgradeId to UpgradeManager--><g id="link_UpgradeId_UpgradeManager"><path codeLine="11" d="M240.3909,94.2605 C228.7409,111.0605 222.9938,119.3429 209.3438,139.0029 " fill="none" id="UpgradeId-UpgradeManager" style="stroke:#181818;stroke-width:1.0;stroke-dasharray:7.0,7.0;"/><polygon fill="#181818" points="243.81,89.33,235.3944,94.4464,240.9608,93.4388,241.9684,99.0051,243.81,89.33" style="stroke:#181818;stroke-width:1.0;"/><polygon fill="#181818" points="202.5,148.86,209.2076,146.2127,209.3438,139.0029,202.6362,141.6502,202.5,148.86" style="stroke:#181818;stroke-width:1.0;"/></g><!--SRC=[VOx12i8m38RlVOeSfx8-m11Xnu72G8Rdi9GXT6rfji4Olhk5he95J21_GZx-nE2es66le7E3HrAyYLuZSvflQ71G7ZO18KvGEwVNMkk45mUeOB5FIdkYVLNCKHkgkjHzu5V8P27tvcf3yL2Mb-ouQ3MkohECUfzmcZazzWD_A7JMi8pw1_psRT7Zo84xvbp-QKDmbZB7tW00]--></g></svg>