<svg xmlns="http://www.w3.org/2000/svg" xmlns:xlink="http://www.w3.org/1999/xlink" contentStyleType="text/css" height="128px" preserveAspectRatio="none" style="width:523px;height:128px;background:#FFFFFF;" version="1.1" viewBox="0 0 523 128" width="523px" zoomAndPan="magnify"><defs/><g><!--cluster Upgrades--><g id="cluster_Upgrades"><path d="M8.5,6 L78.3105,6 A3.75,3.75 0 0 1 80.8105,8.5 L87.8105,28.4883 L513.5,28.4883 A2.5,2.5 0 0 1 516,30.9883 L516,118.99 A2.5,2.5 0 0 1 513.5,121.49 L8.5,121.49 A2.5,2.5 0 0 1 6,118.99 L6,8.5 A2.5,2.5 0 0 1 8.5,6 " fill="none" style="stroke:#000000;stroke-width:1.5;"/><line style="stroke:#000000;stroke-width:1.5;" x1="6" x2="87.8105" y1="28.4883" y2="28.4883"/><text fill="#000000" font-family="sans-serif" font-size="14" font-weight="bold" lengthAdjust="spacing" textLength="68.8105" x="10" y="21.5352">Upgrades</text></g><!--class UpgradeSelectorPresenter--><g id="elem_UpgradeSelectorPresenter"><rect codeLine="2" fill="#F1F1F1" height="64.4883" id="UpgradeSelectorPresenter" rx="2.5" ry="2.5" style="stroke:#181818;stroke-width:0.5;" width="478.9834" x="21.51" y="41"/><ellipse cx="169.3064" cy="57" fill="#ADD1B2" rx="11" ry="11" style="stroke:#181818;stroke-width:1.0;"/><path d="M171.7795,63.1431 Q171.1985,63.4419 170.5593,63.5913 Q169.9202,63.7407 169.2146,63.7407 Q166.7078,63.7407 165.3879,62.0889 Q164.0681,60.437 164.0681,57.3159 Q164.0681,54.1865 165.3879,52.5347 Q166.7078,50.8828 169.2146,50.8828 Q169.9202,50.8828 170.5676,51.0322 Q171.2151,51.1816 171.7795,51.4805 L171.7795,54.2031 Q171.1487,53.6221 170.5552,53.3523 Q169.9617,53.0825 169.3308,53.0825 Q167.9861,53.0825 167.3013,54.1492 Q166.6164,55.2158 166.6164,57.3159 Q166.6164,59.4077 167.3013,60.4744 Q167.9861,61.541 169.3308,61.541 Q169.9617,61.541 170.5552,61.2712 Q171.1487,61.0015 171.7795,60.4204 Z " fill="#000000"/><text fill="#000000" font-family="sans-serif" font-size="14" lengthAdjust="spacing" textLength="174.8906" x="189.8064" y="62.291">UpgradeSelectorPresenter</text><line style="stroke:#181818;stroke-width:0.5;" x1="22.51" x2="499.4934" y1="73" y2="73"/><line style="stroke:#181818;stroke-width:0.5;" x1="22.51" x2="499.4934" y1="81" y2="81"/><ellipse cx="32.51" cy="94.7441" fill="#84BE84" rx="3" ry="3" style="stroke:#038048;stroke-width:1.0;"/><text fill="#000000" font-family="sans-serif" font-size="14" lengthAdjust="spacing" textLength="452.9834" x="41.51" y="98.5352">Initialize(model:UpgradeSelector, view:UpgradeSelectorView) : void</text></g><!--SRC=[NOin2e0m40JxlE9AHL_W3-m4qVv85Zc8ISY528f_ryR6wMPW0k_Gn1Qqf2spWrx6UbRzV8Q7BJ5F6OfGaEaozDBH6AG8UpdHxD713x-Zfoeu_dLzMqi3rIZEtEP-0000]--></g></svg>