<svg xmlns="http://www.w3.org/2000/svg" xmlns:xlink="http://www.w3.org/1999/xlink" contentStyleType="text/css" height="210px" preserveAspectRatio="none" style="width:147px;height:210px;background:#FFFFFF;" version="1.1" viewBox="0 0 147 210" width="147px" zoomAndPan="magnify"><defs/><g><!--cluster Upgrades--><g id="cluster_Upgrades"><path d="M8.5,6 L78.3105,6 A3.75,3.75 0 0 1 80.8105,8.5 L87.8105,28.4883 L137.5,28.4883 A2.5,2.5 0 0 1 140,30.9883 L140,201.43 A2.5,2.5 0 0 1 137.5,203.93 L8.5,203.93 A2.5,2.5 0 0 1 6,201.43 L6,8.5 A2.5,2.5 0 0 1 8.5,6 " fill="none" style="stroke:#000000;stroke-width:1.5;"/><line style="stroke:#000000;stroke-width:1.5;" x1="6" x2="87.8105" y1="28.4883" y2="28.4883"/><text fill="#000000" font-family="sans-serif" font-size="14" font-weight="bold" lengthAdjust="spacing" textLength="68.8105" x="10" y="21.5352">Upgrades</text></g><!--class UpgradeId--><g id="elem_UpgradeId"><rect codeLine="2" fill="#F1F1F1" height="146.9297" id="UpgradeId" rx="2.5" ry="2.5" style="stroke:#181818;stroke-width:0.5;" width="102.1572" x="21.92" y="41"/><ellipse cx="36.92" cy="57" fill="#EB937F" rx="11" ry="11" style="stroke:#181818;stroke-width:1.0;"/><path d="M40.5343,63.5 L32.8145,63.5 L32.8145,51.1069 L40.5343,51.1069 L40.5343,53.2651 L35.2633,53.2651 L35.2633,55.938 L40.0362,55.938 L40.0362,58.0962 L35.2633,58.0962 L35.2633,61.3418 L40.5343,61.3418 Z " fill="#000000"/><text fill="#000000" font-family="sans-serif" font-size="14" lengthAdjust="spacing" textLength="70.1572" x="50.92" y="62.291">UpgradeId</text><line style="stroke:#181818;stroke-width:0.5;" x1="22.92" x2="123.0772" y1="73" y2="73"/><text fill="#000000" font-family="sans-serif" font-size="14" lengthAdjust="spacing" textLength="65.9258" x="27.92" y="90.5352">Health01,</text><text fill="#000000" font-family="sans-serif" font-size="14" lengthAdjust="spacing" textLength="65.9258" x="27.92" y="107.0234">Health02,</text><text fill="#000000" font-family="sans-serif" font-size="14" lengthAdjust="spacing" textLength="38.5684" x="27.92" y="123.5117">Basic,</text><text fill="#000000" font-family="sans-serif" font-size="14" lengthAdjust="spacing" textLength="43.7158" x="27.92" y="140">Triple,</text><text fill="#000000" font-family="sans-serif" font-size="14" lengthAdjust="spacing" textLength="61.4209" x="27.92" y="156.4883">Triple01,</text><text fill="#000000" font-family="sans-serif" font-size="14" lengthAdjust="spacing" textLength="57.8525" x="27.92" y="172.9766">Homing,</text><line style="stroke:#181818;stroke-width:0.5;" x1="22.92" x2="123.0772" y1="179.9297" y2="179.9297"/></g><!--SRC=[oqlCJIqkI4nELGWjI2zAJ4ajhkPApIlDXN4zKnIgkHI0m2CrCQSamy1G1vbd1E4v9HPd9aEO8KMP1Jcfo6oublpSpBnq7QvQhbe0]--></g></svg>