<svg xmlns="http://www.w3.org/2000/svg" xmlns:xlink="http://www.w3.org/1999/xlink" contentStyleType="text/css" height="633px" preserveAspectRatio="none" style="width:627px;height:633px;background:#FFFFFF;" version="1.1" viewBox="0 0 627 633" width="627px" zoomAndPan="magnify"><defs/><g><!--cluster Upgrades--><g id="cluster_Upgrades"><path d="M8.5,6 L78.3105,6 A3.75,3.75 0 0 1 80.8105,8.5 L87.8105,28.4883 L617.5,28.4883 A2.5,2.5 0 0 1 620,30.9883 L620,624.36 A2.5,2.5 0 0 1 617.5,626.86 L8.5,626.86 A2.5,2.5 0 0 1 6,624.36 L6,8.5 A2.5,2.5 0 0 1 8.5,6 " fill="none" style="stroke:#000000;stroke-width:1.5;"/><line style="stroke:#000000;stroke-width:1.5;" x1="6" x2="87.8105" y1="28.4883" y2="28.4883"/><text fill="#000000" font-family="sans-serif" font-size="14" font-weight="bold" lengthAdjust="spacing" textLength="68.8105" x="10" y="21.5352">Upgrades</text></g><!--class UpgradeType--><g id="elem_UpgradeType"><rect codeLine="2" fill="#F1F1F1" height="97.4648" id="UpgradeType" rx="2.5" ry="2.5" style="stroke:#181818;stroke-width:0.5;" width="122.0908" x="21.95" y="513.4"/><ellipse cx="36.95" cy="529.4" fill="#EB937F" rx="11" ry="11" style="stroke:#181818;stroke-width:1.0;"/><path d="M40.5643,535.9 L32.8445,535.9 L32.8445,523.5069 L40.5643,523.5069 L40.5643,525.6651 L35.2933,525.6651 L35.2933,528.338 L40.0662,528.338 L40.0662,530.4962 L35.2933,530.4962 L35.2933,533.7418 L40.5643,533.7418 Z " fill="#000000"/><text fill="#000000" font-family="sans-serif" font-size="14" lengthAdjust="spacing" textLength="90.0908" x="50.95" y="534.691">UpgradeType</text><line style="stroke:#181818;stroke-width:0.5;" x1="22.95" x2="143.0408" y1="545.4" y2="545.4"/><text fill="#000000" font-family="sans-serif" font-size="14" lengthAdjust="spacing" textLength="44.7891" x="27.95" y="562.9352">Player,</text><text fill="#000000" font-family="sans-serif" font-size="14" lengthAdjust="spacing" textLength="85.3193" x="27.95" y="579.4234">AddWeapon,</text><text fill="#000000" font-family="sans-serif" font-size="14" lengthAdjust="spacing" textLength="58.0371" x="27.95" y="595.9117">Weapon,</text><line style="stroke:#181818;stroke-width:0.5;" x1="22.95" x2="143.0408" y1="602.8648" y2="602.8648"/></g><!--class UpgradeData--><g id="elem_UpgradeData"><rect codeLine="7" fill="#F1F1F1" height="146.9297" id="UpgradeData" rx="2.5" ry="2.5" style="stroke:#181818;stroke-width:0.5;" width="304.5508" x="168.72" y="306.47"/><ellipse cx="272.4964" cy="322.47" fill="#ADD1B2" rx="11" ry="11" style="stroke:#181818;stroke-width:1.0;"/><path d="M274.9695,328.6131 Q274.3885,328.9119 273.7493,329.0613 Q273.1101,329.2107 272.4046,329.2107 Q269.8977,329.2107 268.5779,327.5589 Q267.2581,325.907 267.2581,322.7859 Q267.2581,319.6565 268.5779,318.0047 Q269.8977,316.3528 272.4046,316.3528 Q273.1101,316.3528 273.7576,316.5022 Q274.4051,316.6516 274.9695,316.9505 L274.9695,319.6731 Q274.3387,319.0921 273.7451,318.8223 Q273.1516,318.5525 272.5208,318.5525 Q271.1761,318.5525 270.4912,319.6192 Q269.8064,320.6858 269.8064,322.7859 Q269.8064,324.8777 270.4912,325.9444 Q271.1761,327.011 272.5208,327.011 Q273.1516,327.011 273.7451,326.7412 Q274.3387,326.4715 274.9695,325.8904 Z " fill="#000000"/><text fill="#000000" font-family="sans-serif" font-size="14" lengthAdjust="spacing" textLength="88.498" x="292.9964" y="327.761">UpgradeData</text><line style="stroke:#181818;stroke-width:0.5;" x1="169.72" x2="472.2708" y1="338.47" y2="338.47"/><ellipse cx="179.72" cy="352.2141" fill="none" rx="3" ry="3" style="stroke:#038048;stroke-width:1.0;"/><text fill="#000000" font-family="sans-serif" font-size="14" lengthAdjust="spacing" textLength="65.7139" x="188.72" y="356.0052">id : string</text><ellipse cx="179.72" cy="368.7024" fill="none" rx="3" ry="3" style="stroke:#038048;stroke-width:1.0;"/><text fill="#000000" font-family="sans-serif" font-size="14" lengthAdjust="spacing" textLength="148.1006" x="188.72" y="372.4934">upgradeName : string</text><ellipse cx="179.72" cy="385.1907" fill="none" rx="3" ry="3" style="stroke:#038048;stroke-width:1.0;"/><text fill="#000000" font-family="sans-serif" font-size="14" lengthAdjust="spacing" textLength="192.459" x="188.72" y="388.9817">upgradeType : UpgradeType</text><ellipse cx="179.72" cy="401.679" fill="none" rx="3" ry="3" style="stroke:#038048;stroke-width:1.0;"/><text fill="#000000" font-family="sans-serif" font-size="14" lengthAdjust="spacing" textLength="254.3174" x="188.72" y="405.47">playerParamsVariation : PlayerParams</text><ellipse cx="179.72" cy="418.1673" fill="none" rx="3" ry="3" style="stroke:#038048;stroke-width:1.0;"/><text fill="#000000" font-family="sans-serif" font-size="14" lengthAdjust="spacing" textLength="278.5508" x="188.72" y="421.9583">weaponParamsVariation : WeaponParams</text><ellipse cx="179.72" cy="434.6555" fill="none" rx="3" ry="3" style="stroke:#038048;stroke-width:1.0;"/><text fill="#000000" font-family="sans-serif" font-size="14" lengthAdjust="spacing" textLength="145.0039" x="188.72" y="438.4466">weaponId : WeaponId</text><line style="stroke:#181818;stroke-width:0.5;" x1="169.72" x2="472.2708" y1="445.3997" y2="445.3997"/></g><!--class UpgradeSetting--><g id="elem_UpgradeSetting"><rect codeLine="15" fill="#F1F1F1" height="97.4648" id="UpgradeSetting" rx="2.5" ry="2.5" style="stroke:#181818;stroke-width:0.5;" width="335.9893" x="153.01" y="149"/><ellipse cx="264.4597" cy="165" fill="#ADD1B2" rx="11" ry="11" style="stroke:#181818;stroke-width:1.0;"/><path d="M266.9329,171.1431 Q266.3518,171.4419 265.7126,171.5913 Q265.0735,171.7407 264.3679,171.7407 Q261.8611,171.7407 260.5413,170.0889 Q259.2214,168.437 259.2214,165.3159 Q259.2214,162.1865 260.5413,160.5347 Q261.8611,158.8828 264.3679,158.8828 Q265.0735,158.8828 265.7209,159.0322 Q266.3684,159.1816 266.9329,159.4805 L266.9329,162.2031 Q266.302,161.6221 265.7085,161.3523 Q265.115,161.0825 264.4841,161.0825 Q263.1394,161.0825 262.4546,162.1492 Q261.7698,163.2158 261.7698,165.3159 Q261.7698,167.4077 262.4546,168.4744 Q263.1394,169.541 264.4841,169.541 Q265.115,169.541 265.7085,169.2712 Q266.302,169.0015 266.9329,168.4204 Z " fill="#000000"/><text fill="#000000" font-family="sans-serif" font-size="14" lengthAdjust="spacing" textLength="104.5898" x="284.9597" y="170.291">UpgradeSetting</text><line style="stroke:#181818;stroke-width:0.5;" x1="154.01" x2="487.9993" y1="181" y2="181"/><ellipse cx="164.01" cy="194.7441" fill="none" rx="3" ry="3" style="stroke:#038048;stroke-width:1.0;"/><text fill="#000000" font-family="sans-serif" font-size="14" lengthAdjust="spacing" textLength="259.3008" x="173.01" y="198.5352">upgradeDataList : List&lt;UpgradeData&gt;</text><line style="stroke:#181818;stroke-width:0.5;" x1="154.01" x2="487.9993" y1="205.4883" y2="205.4883"/><ellipse cx="164.01" cy="219.2324" fill="#84BE84" rx="3" ry="3" style="stroke:#038048;stroke-width:1.0;"/><text fill="#000000" font-family="sans-serif" font-size="14" lengthAdjust="spacing" textLength="309.9893" x="173.01" y="223.0234">GetUpgradeData(id:UpgradeId) : UpgradeData</text><ellipse cx="164.01" cy="235.7207" fill="#84BE84" rx="3" ry="3" style="stroke:#038048;stroke-width:1.0;"/><text fill="#000000" font-family="sans-serif" font-size="14" lengthAdjust="spacing" textLength="156.5156" x="173.01" y="239.5117">CreateEnumFile() : void</text></g><!--class PlayerParams--><g id="elem_PlayerParams"><rect fill="#F1F1F1" height="48" id="PlayerParams" rx="2.5" ry="2.5" style="stroke:#181818;stroke-width:0.5;" width="121.4961" x="179.25" y="538.13"/><ellipse cx="194.25" cy="554.13" fill="#ADD1B2" rx="11" ry="11" style="stroke:#181818;stroke-width:1.0;"/><path d="M196.7231,560.2731 Q196.1421,560.5719 195.5029,560.7213 Q194.8638,560.8707 194.1582,560.8707 Q191.6514,560.8707 190.3315,559.2189 Q189.0117,557.567 189.0117,554.4459 Q189.0117,551.3165 190.3315,549.6647 Q191.6514,548.0128 194.1582,548.0128 Q194.8638,548.0128 195.5112,548.1622 Q196.1587,548.3116 196.7231,548.6105 L196.7231,551.3331 Q196.0923,550.7521 195.4988,550.4823 Q194.9053,550.2125 194.2744,550.2125 Q192.9297,550.2125 192.2449,551.2792 Q191.5601,552.3458 191.5601,554.4459 Q191.5601,556.5377 192.2449,557.6044 Q192.9297,558.671 194.2744,558.671 Q194.9053,558.671 195.4988,558.4012 Q196.0923,558.1315 196.7231,557.5504 Z " fill="#000000"/><text fill="#000000" font-family="sans-serif" font-size="14" lengthAdjust="spacing" textLength="89.4961" x="208.25" y="559.421">PlayerParams</text><line style="stroke:#181818;stroke-width:0.5;" x1="180.25" x2="299.7461" y1="570.13" y2="570.13"/><line style="stroke:#181818;stroke-width:0.5;" x1="180.25" x2="299.7461" y1="578.13" y2="578.13"/></g><!--class WeaponParams--><g id="elem_WeaponParams"><rect fill="#F1F1F1" height="48" id="WeaponParams" rx="2.5" ry="2.5" style="stroke:#181818;stroke-width:0.5;" width="134.7441" x="335.63" y="538.13"/><ellipse cx="350.63" cy="554.13" fill="#ADD1B2" rx="11" ry="11" style="stroke:#181818;stroke-width:1.0;"/><path d="M353.1031,560.2731 Q352.5221,560.5719 351.8829,560.7213 Q351.2438,560.8707 350.5382,560.8707 Q348.0314,560.8707 346.7115,559.2189 Q345.3917,557.567 345.3917,554.4459 Q345.3917,551.3165 346.7115,549.6647 Q348.0314,548.0128 350.5382,548.0128 Q351.2438,548.0128 351.8912,548.1622 Q352.5387,548.3116 353.1031,548.6105 L353.1031,551.3331 Q352.4723,550.7521 351.8788,550.4823 Q351.2853,550.2125 350.6544,550.2125 Q349.3097,550.2125 348.6249,551.2792 Q347.9401,552.3458 347.9401,554.4459 Q347.9401,556.5377 348.6249,557.6044 Q349.3097,558.671 350.6544,558.671 Q351.2853,558.671 351.8788,558.4012 Q352.4723,558.1315 353.1031,557.5504 Z " fill="#000000"/><text fill="#000000" font-family="sans-serif" font-size="14" lengthAdjust="spacing" textLength="102.7441" x="364.63" y="559.421">WeaponParams</text><line style="stroke:#181818;stroke-width:0.5;" x1="336.63" x2="469.3741" y1="570.13" y2="570.13"/><line style="stroke:#181818;stroke-width:0.5;" x1="336.63" x2="469.3741" y1="578.13" y2="578.13"/></g><!--class WeaponId--><g id="elem_WeaponId"><rect fill="#F1F1F1" height="48" id="WeaponId" rx="2.5" ry="2.5" style="stroke:#181818;stroke-width:0.5;" width="98.4521" x="505.77" y="538.13"/><ellipse cx="520.77" cy="554.13" fill="#ADD1B2" rx="11" ry="11" style="stroke:#181818;stroke-width:1.0;"/><path d="M523.2431,560.2731 Q522.6621,560.5719 522.0229,560.7213 Q521.3838,560.8707 520.6782,560.8707 Q518.1714,560.8707 516.8515,559.2189 Q515.5317,557.567 515.5317,554.4459 Q515.5317,551.3165 516.8515,549.6647 Q518.1714,548.0128 520.6782,548.0128 Q521.3838,548.0128 522.0312,548.1622 Q522.6787,548.3116 523.2431,548.6105 L523.2431,551.3331 Q522.6123,550.7521 522.0188,550.4823 Q521.4253,550.2125 520.7944,550.2125 Q519.4497,550.2125 518.7649,551.2792 Q518.0801,552.3458 518.0801,554.4459 Q518.0801,556.5377 518.7649,557.6044 Q519.4497,558.671 520.7944,558.671 Q521.4253,558.671 522.0188,558.4012 Q522.6123,558.1315 523.2431,557.5504 Z " fill="#000000"/><text fill="#000000" font-family="sans-serif" font-size="14" lengthAdjust="spacing" textLength="66.4521" x="534.77" y="559.421">WeaponId</text><line style="stroke:#181818;stroke-width:0.5;" x1="506.77" x2="603.2221" y1="570.13" y2="570.13"/><line style="stroke:#181818;stroke-width:0.5;" x1="506.77" x2="603.2221" y1="578.13" y2="578.13"/></g><!--class ScriptableObject--><g id="elem_ScriptableObject"><rect fill="#F1F1F1" height="48" id="ScriptableObject" rx="2.5" ry="2.5" style="stroke:#181818;stroke-width:0.5;" width="143.0771" x="249.46" y="41"/><ellipse cx="264.46" cy="57" fill="#ADD1B2" rx="11" ry="11" style="stroke:#181818;stroke-width:1.0;"/><path d="M266.9331,63.1431 Q266.3521,63.4419 265.7129,63.5913 Q265.0738,63.7407 264.3682,63.7407 Q261.8614,63.7407 260.5415,62.0889 Q259.2217,60.437 259.2217,57.3159 Q259.2217,54.1865 260.5415,52.5347 Q261.8614,50.8828 264.3682,50.8828 Q265.0738,50.8828 265.7212,51.0322 Q266.3687,51.1816 266.9331,51.4805 L266.9331,54.2031 Q266.3023,53.6221 265.7088,53.3523 Q265.1153,53.0825 264.4844,53.0825 Q263.1397,53.0825 262.4549,54.1492 Q261.7701,55.2158 261.7701,57.3159 Q261.7701,59.4077 262.4549,60.4744 Q263.1397,61.541 264.4844,61.541 Q265.1153,61.541 265.7088,61.2712 Q266.3023,61.0015 266.9331,60.4204 Z " fill="#000000"/><text fill="#000000" font-family="sans-serif" font-size="14" lengthAdjust="spacing" textLength="111.0771" x="278.46" y="62.291">ScriptableObject</text><line style="stroke:#181818;stroke-width:0.5;" x1="250.46" x2="391.5371" y1="73" y2="73"/><line style="stroke:#181818;stroke-width:0.5;" x1="250.46" x2="391.5371" y1="81" y2="81"/></g><!--link UpgradeData to UpgradeType--><g id="link_UpgradeData_UpgradeType"><path codeLine="20" d="M224.88,453.7 C197.66,474.31 173.5633,492.5579 149.0133,511.1479 " fill="none" id="UpgradeData-to-UpgradeType" style="stroke:#181818;stroke-width:1.0;"/><polygon fill="#181818" points="144.23,514.77,153.8198,512.5258,148.2161,511.7516,148.9903,506.148,144.23,514.77" style="stroke:#181818;stroke-width:1.0;"/></g><!--link UpgradeData to PlayerParams--><g id="link_UpgradeData_PlayerParams"><path codeLine="21" d="M288.29,453.7 C274.76,483.79 262.5004,511.0777 252.9104,532.4077 " fill="none" id="UpgradeData-to-PlayerParams" style="stroke:#181818;stroke-width:1.0;"/><polygon fill="#181818" points="250.45,537.88,257.7888,531.3117,252.5003,533.3197,250.4923,528.0312,250.45,537.88" style="stroke:#181818;stroke-width:1.0;"/></g><!--link UpgradeData to WeaponParams--><g id="link_UpgradeData_WeaponParams"><path codeLine="22" d="M354.12,453.7 C367.81,483.79 380.2362,511.0882 389.9362,532.4182 " fill="none" id="UpgradeData-to-WeaponParams" style="stroke:#181818;stroke-width:1.0;"/><polygon fill="#181818" points="392.42,537.88,392.3355,528.0315,390.3502,533.3285,385.0532,531.3432,392.42,537.88" style="stroke:#181818;stroke-width:1.0;"/></g><!--link UpgradeData to WeaponId--><g id="link_UpgradeData_WeaponId"><path codeLine="23" d="M415.5,453.7 C454.44,483.69 492.0863,512.6791 519.7963,534.0191 " fill="none" id="UpgradeData-to-WeaponId" style="stroke:#181818;stroke-width:1.0;"/><polygon fill="#181818" points="524.55,537.68,519.8601,529.0195,520.5886,534.6292,514.9788,535.3578,524.55,537.68" style="stroke:#181818;stroke-width:1.0;"/></g><!--reverse link ScriptableObject to UpgradeSetting--><g id="link_ScriptableObject_UpgradeSetting"><path codeLine="24" d="M321,107.37 C321,123.82 321,128.43 321,148.66 " fill="none" id="ScriptableObject-backto-UpgradeSetting" style="stroke:#181818;stroke-width:1.0;"/><polygon fill="none" points="321,89.37,315,107.37,327,107.37,321,89.37" style="stroke:#181818;stroke-width:1.0;"/></g><!--link UpgradeSetting to UpgradeData--><g id="link_UpgradeSetting_UpgradeData"><path codeLine="25" d="M321,246.55 C321,264.8 321,280.03 321,300.09 " fill="none" id="UpgradeSetting-to-UpgradeData" style="stroke:#181818;stroke-width:1.0;"/><polygon fill="#181818" points="321,306.09,325,297.09,321,301.09,317,297.09,321,306.09" style="stroke:#181818;stroke-width:1.0;"/></g><!--SRC=[TL7BQiCm4BpxAtHCQFq39WHANnXAOqZRd3VM4hROif3MBI7DlrTMv4HM6rsqkpEBPaOAMhGQQXJlUcT0eZragFfsRD_s6iKX4-vK3UpHtFhwJieDWkxKgHthOrOtOEsu_00COVb6a1I5i6n8xSAaFx5UdOGha7-zYBK4N7ij5HXexGSO0gPEEMOLpGFrsslxIzr4ymcrb6UqbAcbDJ8xcMTN_SNf2rbscyErY09O1kOpSZITaIn2MyhvnUE0XOLxWy3uw3xZYHgS3QIlZWP5SRnvlfpaasAJH59mai7_e8jWNHlI3Di6LzjFh5aiVl8y2IHByebaUKl7Nm00]--></g></svg>