<svg xmlns="http://www.w3.org/2000/svg" xmlns:xlink="http://www.w3.org/1999/xlink" contentStyleType="text/css" height="236px" preserveAspectRatio="none" style="width:523px;height:236px;background:#FFFFFF;" version="1.1" viewBox="0 0 523 236" width="523px" zoomAndPan="magnify"><defs/><g><!--cluster Upgrades--><g id="cluster_Upgrades"><path d="M8.5,6 L78.3105,6 A3.75,3.75 0 0 1 80.8105,8.5 L87.8105,28.4883 L513.5,28.4883 A2.5,2.5 0 0 1 516,30.9883 L516,226.99 A2.5,2.5 0 0 1 513.5,229.49 L8.5,229.49 A2.5,2.5 0 0 1 6,226.99 L6,8.5 A2.5,2.5 0 0 1 8.5,6 " fill="none" style="stroke:#000000;stroke-width:1.5;"/><line style="stroke:#000000;stroke-width:1.5;" x1="6" x2="87.8105" y1="28.4883" y2="28.4883"/><text fill="#000000" font-family="sans-serif" font-size="14" font-weight="bold" lengthAdjust="spacing" textLength="68.8105" x="10" y="21.5352">Upgrades</text></g><!--class UpgradeSelectorPresenter--><g id="elem_UpgradeSelectorPresenter"><rect codeLine="2" fill="#F1F1F1" height="64.4883" id="UpgradeSelectorPresenter" rx="2.5" ry="2.5" style="stroke:#181818;stroke-width:0.5;" width="478.9834" x="21.51" y="149"/><ellipse cx="169.3064" cy="165" fill="#ADD1B2" rx="11" ry="11" style="stroke:#181818;stroke-width:1.0;"/><path d="M171.7795,171.1431 Q171.1985,171.4419 170.5593,171.5913 Q169.9202,171.7407 169.2146,171.7407 Q166.7078,171.7407 165.3879,170.0889 Q164.0681,168.437 164.0681,165.3159 Q164.0681,162.1865 165.3879,160.5347 Q166.7078,158.8828 169.2146,158.8828 Q169.9202,158.8828 170.5676,159.0322 Q171.2151,159.1816 171.7795,159.4805 L171.7795,162.2031 Q171.1487,161.6221 170.5552,161.3523 Q169.9617,161.0825 169.3308,161.0825 Q167.9861,161.0825 167.3013,162.1492 Q166.6164,163.2158 166.6164,165.3159 Q166.6164,167.4077 167.3013,168.4744 Q167.9861,169.541 169.3308,169.541 Q169.9617,169.541 170.5552,169.2712 Q171.1487,169.0015 171.7795,168.4204 Z " fill="#000000"/><text fill="#000000" font-family="sans-serif" font-size="14" lengthAdjust="spacing" textLength="174.8906" x="189.8064" y="170.291">UpgradeSelectorPresenter</text><line style="stroke:#181818;stroke-width:0.5;" x1="22.51" x2="499.4934" y1="181" y2="181"/><line style="stroke:#181818;stroke-width:0.5;" x1="22.51" x2="499.4934" y1="189" y2="189"/><ellipse cx="32.51" cy="202.7441" fill="#84BE84" rx="3" ry="3" style="stroke:#038048;stroke-width:1.0;"/><text fill="#000000" font-family="sans-serif" font-size="14" lengthAdjust="spacing" textLength="452.9834" x="41.51" y="206.5352">Initialize(model:UpgradeSelector, view:UpgradeSelectorView) : void</text></g><!--class UpgradeSelector--><g id="elem_UpgradeSelector"><rect fill="#F1F1F1" height="48" id="UpgradeSelector" rx="2.5" ry="2.5" style="stroke:#181818;stroke-width:0.5;" width="143.2344" x="84.38" y="41"/><ellipse cx="99.38" cy="57" fill="#ADD1B2" rx="11" ry="11" style="stroke:#181818;stroke-width:1.0;"/><path d="M101.8531,63.1431 Q101.2721,63.4419 100.6329,63.5913 Q99.9938,63.7407 99.2882,63.7407 Q96.7814,63.7407 95.4615,62.0889 Q94.1417,60.437 94.1417,57.3159 Q94.1417,54.1865 95.4615,52.5347 Q96.7814,50.8828 99.2882,50.8828 Q99.9938,50.8828 100.6412,51.0322 Q101.2887,51.1816 101.8531,51.4805 L101.8531,54.2031 Q101.2223,53.6221 100.6288,53.3523 Q100.0353,53.0825 99.4044,53.0825 Q98.0597,53.0825 97.3749,54.1492 Q96.6901,55.2158 96.6901,57.3159 Q96.6901,59.4077 97.3749,60.4744 Q98.0597,61.541 99.4044,61.541 Q100.0353,61.541 100.6288,61.2712 Q101.2223,61.0015 101.8531,60.4204 Z " fill="#000000"/><text fill="#000000" font-family="sans-serif" font-size="14" lengthAdjust="spacing" textLength="111.2344" x="113.38" y="62.291">UpgradeSelector</text><line style="stroke:#181818;stroke-width:0.5;" x1="85.38" x2="226.6144" y1="73" y2="73"/><line style="stroke:#181818;stroke-width:0.5;" x1="85.38" x2="226.6144" y1="81" y2="81"/></g><!--class UpgradeSelectorView--><g id="elem_UpgradeSelectorView"><rect fill="#F1F1F1" height="48" id="UpgradeSelectorView" rx="2.5" ry="2.5" style="stroke:#181818;stroke-width:0.5;" width="175.0215" x="262.49" y="41"/><ellipse cx="277.49" cy="57" fill="#ADD1B2" rx="11" ry="11" style="stroke:#181818;stroke-width:1.0;"/><path d="M279.9631,63.1431 Q279.3821,63.4419 278.7429,63.5913 Q278.1038,63.7407 277.3982,63.7407 Q274.8914,63.7407 273.5715,62.0889 Q272.2517,60.437 272.2517,57.3159 Q272.2517,54.1865 273.5715,52.5347 Q274.8914,50.8828 277.3982,50.8828 Q278.1038,50.8828 278.7512,51.0322 Q279.3987,51.1816 279.9631,51.4805 L279.9631,54.2031 Q279.3323,53.6221 278.7388,53.3523 Q278.1453,53.0825 277.5144,53.0825 Q276.1697,53.0825 275.4849,54.1492 Q274.8001,55.2158 274.8001,57.3159 Q274.8001,59.4077 275.4849,60.4744 Q276.1697,61.541 277.5144,61.541 Q278.1453,61.541 278.7388,61.2712 Q279.3323,61.0015 279.9631,60.4204 Z " fill="#000000"/><text fill="#000000" font-family="sans-serif" font-size="14" lengthAdjust="spacing" textLength="143.0215" x="291.49" y="62.291">UpgradeSelectorView</text><line style="stroke:#181818;stroke-width:0.5;" x1="263.49" x2="436.5115" y1="73" y2="73"/><line style="stroke:#181818;stroke-width:0.5;" x1="263.49" x2="436.5115" y1="81" y2="81"/></g><!--reverse link UpgradeSelector to UpgradeSelectorPresenter--><g id="link_UpgradeSelector_UpgradeSelectorPresenter"><path codeLine="6" d="M181.5607,93.8171 C197.2807,110.9171 214.72,129.89 231.96,148.65 " fill="none" id="UpgradeSelector-backto-UpgradeSelectorPresenter" style="stroke:#181818;stroke-width:1.0;stroke-dasharray:7.0,7.0;"/><polygon fill="#181818" points="177.5,89.4,180.6462,98.7328,180.8839,93.0809,186.5357,93.3186,177.5,89.4" style="stroke:#181818;stroke-width:1.0;"/></g><!--reverse link UpgradeSelectorView to UpgradeSelectorPresenter--><g id="link_UpgradeSelectorView_UpgradeSelectorPresenter"><path codeLine="7" d="M328.0829,94.1334 C314.7629,111.2334 300.23,129.89 285.61,148.65 " fill="none" id="UpgradeSelectorView-backto-UpgradeSelectorPresenter" style="stroke:#181818;stroke-width:1.0;stroke-dasharray:7.0,7.0;"/><polygon fill="#181818" points="331.77,89.4,323.0837,94.0421,328.6974,93.3445,329.395,98.9582,331.77,89.4" style="stroke:#181818;stroke-width:1.0;"/></g><!--SRC=[oqlCJIqkI4nELGWjI2zAJ4ajhkPApaaiBeRnWrDpKfDByei2YbABK_DAKeiKghaKW41RmJClioGpCIUpAbKZDpybDSSAJOUEGbbcQZcwQ1XGJ5F1Ig4iFpE5gnO8OVRgeIbKiD7Jm-a8dBf0nkFL2G00]--></g></svg>