<svg xmlns="http://www.w3.org/2000/svg" xmlns:xlink="http://www.w3.org/1999/xlink" contentStyleType="text/css" height="144px" preserveAspectRatio="none" style="width:379px;height:144px;background:#FFFFFF;" version="1.1" viewBox="0 0 379 144" width="379px" zoomAndPan="magnify"><defs/><g><!--cluster Upgrades--><g id="cluster_Upgrades"><path d="M8.5,6 L78.3105,6 A3.75,3.75 0 0 1 80.8105,8.5 L87.8105,28.4883 L369.5,28.4883 A2.5,2.5 0 0 1 372,30.9883 L372,135.48 A2.5,2.5 0 0 1 369.5,137.98 L8.5,137.98 A2.5,2.5 0 0 1 6,135.48 L6,8.5 A2.5,2.5 0 0 1 8.5,6 " fill="none" style="stroke:#000000;stroke-width:1.5;"/><line style="stroke:#000000;stroke-width:1.5;" x1="6" x2="87.8105" y1="28.4883" y2="28.4883"/><text fill="#000000" font-family="sans-serif" font-size="14" font-weight="bold" lengthAdjust="spacing" textLength="68.8105" x="10" y="21.5352">Upgrades</text></g><!--class UpgradeLoader--><g id="elem_UpgradeLoader"><rect codeLine="2" fill="#F1F1F1" height="80.9766" id="UpgradeLoader" rx="2.5" ry="2.5" style="stroke:#181818;stroke-width:0.5;" width="333.9385" x="22.03" y="41"/><ellipse cx="133.0251" cy="57" fill="#ADD1B2" rx="11" ry="11" style="stroke:#181818;stroke-width:1.0;"/><path d="M135.4983,63.1431 Q134.9172,63.4419 134.278,63.5913 Q133.6389,63.7407 132.9333,63.7407 Q130.4265,63.7407 129.1067,62.0889 Q127.7868,60.437 127.7868,57.3159 Q127.7868,54.1865 129.1067,52.5347 Q130.4265,50.8828 132.9333,50.8828 Q133.6389,50.8828 134.2863,51.0322 Q134.9338,51.1816 135.4983,51.4805 L135.4983,54.2031 Q134.8674,53.6221 134.2739,53.3523 Q133.6804,53.0825 133.0495,53.0825 Q131.7048,53.0825 131.02,54.1492 Q130.3352,55.2158 130.3352,57.3159 Q130.3352,59.4077 131.02,60.4744 Q131.7048,61.541 133.0495,61.541 Q133.6804,61.541 134.2739,61.2712 Q134.8674,61.0015 135.4983,60.4204 Z " fill="#000000"/><text fill="#000000" font-family="sans-serif" font-size="14" lengthAdjust="spacing" textLength="103.4482" x="153.5251" y="62.291">UpgradeLoader</text><line style="stroke:#181818;stroke-width:0.5;" x1="23.03" x2="354.9685" y1="73" y2="73"/><line style="stroke:#181818;stroke-width:0.5;" x1="23.03" x2="354.9685" y1="81" y2="81"/><ellipse cx="33.03" cy="94.7441" fill="#84BE84" rx="3" ry="3" style="stroke:#038048;stroke-width:1.0;"/><text fill="#000000" font-family="sans-serif" font-size="14" lengthAdjust="spacing" textLength="307.9385" x="42.03" y="98.5352">GetUpgrade(upgradeId:UpgradeId) : IUpgrade</text><ellipse cx="33.03" cy="111.2324" fill="#84BE84" rx="3" ry="3" style="stroke:#038048;stroke-width:1.0;"/><text fill="#000000" font-family="sans-serif" font-size="14" lengthAdjust="spacing" textLength="161.7314" x="42.03" y="115.0234">GetUpgradeCount() : int</text></g><!--SRC=[oqlCJIqkI4nELGWjI2zAJ4ajhkPApaaiBeRnVVA1H952DPS246WhkAUMG2KqIY6qPufLA8obgM2bu0dbOMXmpY_DAz40ASdCA-6gvQe50000]--></g></svg>