<svg xmlns="http://www.w3.org/2000/svg" xmlns:xlink="http://www.w3.org/1999/xlink" contentStyleType="text/css" height="252px" preserveAspectRatio="none" style="width:431px;height:252px;background:#FFFFFF;" version="1.1" viewBox="0 0 431 252" width="431px" zoomAndPan="magnify"><defs/><g><!--cluster Upgrades--><g id="cluster_Upgrades"><path d="M8.5,6 L78.3105,6 A3.75,3.75 0 0 1 80.8105,8.5 L87.8105,28.4883 L421.5,28.4883 A2.5,2.5 0 0 1 424,30.9883 L424,243.48 A2.5,2.5 0 0 1 421.5,245.98 L8.5,245.98 A2.5,2.5 0 0 1 6,243.48 L6,8.5 A2.5,2.5 0 0 1 8.5,6 " fill="none" style="stroke:#000000;stroke-width:1.5;"/><line style="stroke:#000000;stroke-width:1.5;" x1="6" x2="87.8105" y1="28.4883" y2="28.4883"/><text fill="#000000" font-family="sans-serif" font-size="14" font-weight="bold" lengthAdjust="spacing" textLength="68.8105" x="10" y="21.5352">Upgrades</text></g><!--class UpgradeLoader--><g id="elem_UpgradeLoader"><rect codeLine="2" fill="#F1F1F1" height="80.9766" id="UpgradeLoader" rx="2.5" ry="2.5" style="stroke:#181818;stroke-width:0.5;" width="333.9385" x="35.03" y="149"/><ellipse cx="146.0251" cy="165" fill="#ADD1B2" rx="11" ry="11" style="stroke:#181818;stroke-width:1.0;"/><path d="M148.4983,171.1431 Q147.9172,171.4419 147.278,171.5913 Q146.6389,171.7407 145.9333,171.7407 Q143.4265,171.7407 142.1067,170.0889 Q140.7868,168.437 140.7868,165.3159 Q140.7868,162.1865 142.1067,160.5347 Q143.4265,158.8828 145.9333,158.8828 Q146.6389,158.8828 147.2863,159.0322 Q147.9338,159.1816 148.4983,159.4805 L148.4983,162.2031 Q147.8674,161.6221 147.2739,161.3523 Q146.6804,161.0825 146.0495,161.0825 Q144.7048,161.0825 144.02,162.1492 Q143.3352,163.2158 143.3352,165.3159 Q143.3352,167.4077 144.02,168.4744 Q144.7048,169.541 146.0495,169.541 Q146.6804,169.541 147.2739,169.2712 Q147.8674,169.0015 148.4983,168.4204 Z " fill="#000000"/><text fill="#000000" font-family="sans-serif" font-size="14" lengthAdjust="spacing" textLength="103.4482" x="166.5251" y="170.291">UpgradeLoader</text><line style="stroke:#181818;stroke-width:0.5;" x1="36.03" x2="367.9685" y1="181" y2="181"/><line style="stroke:#181818;stroke-width:0.5;" x1="36.03" x2="367.9685" y1="189" y2="189"/><ellipse cx="46.03" cy="202.7441" fill="#84BE84" rx="3" ry="3" style="stroke:#038048;stroke-width:1.0;"/><text fill="#000000" font-family="sans-serif" font-size="14" lengthAdjust="spacing" textLength="307.9385" x="55.03" y="206.5352">GetUpgrade(upgradeId:UpgradeId) : IUpgrade</text><ellipse cx="46.03" cy="219.2324" fill="#84BE84" rx="3" ry="3" style="stroke:#038048;stroke-width:1.0;"/><text fill="#000000" font-family="sans-serif" font-size="14" lengthAdjust="spacing" textLength="161.7314" x="55.03" y="223.0234">GetUpgradeCount() : int</text></g><!--class IUpgrade--><g id="elem_IUpgrade"><rect fill="#F1F1F1" height="48" id="IUpgrade" rx="2.5" ry="2.5" style="stroke:#181818;stroke-width:0.5;" width="93.3457" x="22.33" y="41"/><ellipse cx="37.33" cy="57" fill="#ADD1B2" rx="11" ry="11" style="stroke:#181818;stroke-width:1.0;"/><path d="M39.8031,63.1431 Q39.2221,63.4419 38.5829,63.5913 Q37.9438,63.7407 37.2382,63.7407 Q34.7314,63.7407 33.4115,62.0889 Q32.0917,60.437 32.0917,57.3159 Q32.0917,54.1865 33.4115,52.5347 Q34.7314,50.8828 37.2382,50.8828 Q37.9438,50.8828 38.5912,51.0322 Q39.2387,51.1816 39.8031,51.4805 L39.8031,54.2031 Q39.1723,53.6221 38.5788,53.3523 Q37.9853,53.0825 37.3544,53.0825 Q36.0097,53.0825 35.3249,54.1492 Q34.6401,55.2158 34.6401,57.3159 Q34.6401,59.4077 35.3249,60.4744 Q36.0097,61.541 37.3544,61.541 Q37.9853,61.541 38.5788,61.2712 Q39.1723,61.0015 39.8031,60.4204 Z " fill="#000000"/><text fill="#000000" font-family="sans-serif" font-size="14" lengthAdjust="spacing" textLength="61.3457" x="51.33" y="62.291">IUpgrade</text><line style="stroke:#181818;stroke-width:0.5;" x1="23.33" x2="114.6757" y1="73" y2="73"/><line style="stroke:#181818;stroke-width:0.5;" x1="23.33" x2="114.6757" y1="81" y2="81"/></g><!--class UpgradeId--><g id="elem_UpgradeId"><rect fill="#F1F1F1" height="48" id="UpgradeId" rx="2.5" ry="2.5" style="stroke:#181818;stroke-width:0.5;" width="102.1572" x="150.92" y="41"/><ellipse cx="165.92" cy="57" fill="#ADD1B2" rx="11" ry="11" style="stroke:#181818;stroke-width:1.0;"/><path d="M168.3931,63.1431 Q167.8121,63.4419 167.1729,63.5913 Q166.5338,63.7407 165.8282,63.7407 Q163.3214,63.7407 162.0015,62.0889 Q160.6817,60.437 160.6817,57.3159 Q160.6817,54.1865 162.0015,52.5347 Q163.3214,50.8828 165.8282,50.8828 Q166.5338,50.8828 167.1812,51.0322 Q167.8287,51.1816 168.3931,51.4805 L168.3931,54.2031 Q167.7623,53.6221 167.1688,53.3523 Q166.5753,53.0825 165.9444,53.0825 Q164.5997,53.0825 163.9149,54.1492 Q163.2301,55.2158 163.2301,57.3159 Q163.2301,59.4077 163.9149,60.4744 Q164.5997,61.541 165.9444,61.541 Q166.5753,61.541 167.1688,61.2712 Q167.7623,61.0015 168.3931,60.4204 Z " fill="#000000"/><text fill="#000000" font-family="sans-serif" font-size="14" lengthAdjust="spacing" textLength="70.1572" x="179.92" y="62.291">UpgradeId</text><line style="stroke:#181818;stroke-width:0.5;" x1="151.92" x2="252.0772" y1="73" y2="73"/><line style="stroke:#181818;stroke-width:0.5;" x1="151.92" x2="252.0772" y1="81" y2="81"/></g><!--class UpgradeData--><g id="elem_UpgradeData"><rect fill="#F1F1F1" height="48" id="UpgradeData" rx="2.5" ry="2.5" style="stroke:#181818;stroke-width:0.5;" width="120.498" x="287.75" y="41"/><ellipse cx="302.75" cy="57" fill="#ADD1B2" rx="11" ry="11" style="stroke:#181818;stroke-width:1.0;"/><path d="M305.2231,63.1431 Q304.6421,63.4419 304.0029,63.5913 Q303.3638,63.7407 302.6582,63.7407 Q300.1514,63.7407 298.8315,62.0889 Q297.5117,60.437 297.5117,57.3159 Q297.5117,54.1865 298.8315,52.5347 Q300.1514,50.8828 302.6582,50.8828 Q303.3638,50.8828 304.0112,51.0322 Q304.6587,51.1816 305.2231,51.4805 L305.2231,54.2031 Q304.5923,53.6221 303.9988,53.3523 Q303.4053,53.0825 302.7744,53.0825 Q301.4297,53.0825 300.7449,54.1492 Q300.0601,55.2158 300.0601,57.3159 Q300.0601,59.4077 300.7449,60.4744 Q301.4297,61.541 302.7744,61.541 Q303.4053,61.541 303.9988,61.2712 Q304.5923,61.0015 305.2231,60.4204 Z " fill="#000000"/><text fill="#000000" font-family="sans-serif" font-size="14" lengthAdjust="spacing" textLength="88.498" x="316.75" y="62.291">UpgradeData</text><line style="stroke:#181818;stroke-width:0.5;" x1="288.75" x2="407.248" y1="73" y2="73"/><line style="stroke:#181818;stroke-width:0.5;" x1="288.75" x2="407.248" y1="81" y2="81"/></g><!--link IUpgrade to UpgradeLoader--><g id="link_IUpgrade_UpgradeLoader"><path codeLine="7" d="M94.33,89.33 C112.49,106.06 128.5836,120.8801 149.8736,140.4901 " fill="none" id="IUpgrade-to-UpgradeLoader" style="stroke:#181818;stroke-width:1.0;"/><polygon fill="#181818" points="158.7,148.62,156.9968,141.6129,149.8736,140.4901,151.5768,147.4972,158.7,148.62" style="stroke:#181818;stroke-width:1.0;"/></g><!--reverse link UpgradeId to UpgradeLoader--><g id="link_UpgradeId_UpgradeLoader"><path codeLine="8" d="M202,95.33 C202,112.13 202,129.2 202,148.86 " fill="none" id="UpgradeId-backto-UpgradeLoader" style="stroke:#181818;stroke-width:1.0;stroke-dasharray:7.0,7.0;"/><polygon fill="#181818" points="202,89.33,198,98.33,202,94.33,206,98.33,202,89.33" style="stroke:#181818;stroke-width:1.0;"/></g><!--reverse link UpgradeData to UpgradeLoader--><g id="link_UpgradeData_UpgradeLoader"><path codeLine="9" d="M315.5945,93.1876 C295.6645,109.9176 272.9,129.01 249.53,148.62 " fill="none" id="UpgradeData-backto-UpgradeLoader" style="stroke:#181818;stroke-width:1.0;stroke-dasharray:7.0,7.0;"/><polygon fill="#181818" points="320.19,89.33,310.725,92.0528,316.3604,92.5447,315.8685,98.1801,320.19,89.33" style="stroke:#181818;stroke-width:1.0;"/></g><!--SRC=[oqlCJIqkI4nELGWjI2zAJ4ajhkPApaaiBeRnVVA1H952DPS246WhkAUMG2KqIY6qPufLA8obgM2bu0dbOMXmpY_DAz40ASdCA-6g1KAObNemFGgwkbfmX-YXk80BNTWpHS56JuzOrIw99Obur0C0]--></g></svg>