<svg xmlns="http://www.w3.org/2000/svg" xmlns:xlink="http://www.w3.org/1999/xlink" contentStyleType="text/css" height="144px" preserveAspectRatio="none" style="width:351px;height:144px;background:#FFFFFF;" version="1.1" viewBox="0 0 351 144" width="351px" zoomAndPan="magnify"><defs/><g><!--cluster Upgrades--><g id="cluster_Upgrades"><path d="M8.5,6 L78.3105,6 A3.75,3.75 0 0 1 80.8105,8.5 L87.8105,28.4883 L341.5,28.4883 A2.5,2.5 0 0 1 344,30.9883 L344,135.48 A2.5,2.5 0 0 1 341.5,137.98 L8.5,137.98 A2.5,2.5 0 0 1 6,135.48 L6,8.5 A2.5,2.5 0 0 1 8.5,6 " fill="none" style="stroke:#000000;stroke-width:1.5;"/><line style="stroke:#000000;stroke-width:1.5;" x1="6" x2="87.8105" y1="28.4883" y2="28.4883"/><text fill="#000000" font-family="sans-serif" font-size="14" font-weight="bold" lengthAdjust="spacing" textLength="68.8105" x="10" y="21.5352">Upgrades</text></g><!--class UpgradeManager--><g id="elem_UpgradeManager"><rect codeLine="2" fill="#F1F1F1" height="80.9766" id="UpgradeManager" rx="2.5" ry="2.5" style="stroke:#181818;stroke-width:0.5;" width="305.4258" x="22.29" y="41"/><ellipse cx="112.8628" cy="57" fill="#ADD1B2" rx="11" ry="11" style="stroke:#181818;stroke-width:1.0;"/><path d="M115.3359,63.1431 Q114.7548,63.4419 114.1157,63.5913 Q113.4765,63.7407 112.771,63.7407 Q110.2641,63.7407 108.9443,62.0889 Q107.6245,60.437 107.6245,57.3159 Q107.6245,54.1865 108.9443,52.5347 Q110.2641,50.8828 112.771,50.8828 Q113.4765,50.8828 114.124,51.0322 Q114.7714,51.1816 115.3359,51.4805 L115.3359,54.2031 Q114.705,53.6221 114.1115,53.3523 Q113.518,53.0825 112.8872,53.0825 Q111.5424,53.0825 110.8576,54.1492 Q110.1728,55.2158 110.1728,57.3159 Q110.1728,59.4077 110.8576,60.4744 Q111.5424,61.541 112.8872,61.541 Q113.518,61.541 114.1115,61.2712 Q114.705,61.0015 115.3359,60.4204 Z " fill="#000000"/><text fill="#000000" font-family="sans-serif" font-size="14" lengthAdjust="spacing" textLength="115.7803" x="133.3628" y="62.291">UpgradeManager</text><line style="stroke:#181818;stroke-width:0.5;" x1="23.29" x2="326.7158" y1="73" y2="73"/><line style="stroke:#181818;stroke-width:0.5;" x1="23.29" x2="326.7158" y1="81" y2="81"/><ellipse cx="33.29" cy="94.7441" fill="#84BE84" rx="3" ry="3" style="stroke:#038048;stroke-width:1.0;"/><text fill="#000000" font-family="sans-serif" font-size="14" lengthAdjust="spacing" textLength="171.9443" x="42.29" y="98.5352">ApplyAllUpgrades() : void</text><ellipse cx="33.29" cy="111.2324" fill="#84BE84" rx="3" ry="3" style="stroke:#038048;stroke-width:1.0;"/><text fill="#000000" font-family="sans-serif" font-size="14" lengthAdjust="spacing" textLength="279.4258" x="42.29" y="115.0234">AddUpgrade(upgradeId:UpgradeId) : void</text></g><!--SRC=[oqlCJIqkI4nELGWjI2zAJ4ajhkPApaaiBeRnVHFp4jDJYnIgkHI0G5l1iQ0Wfz8n9mUcN4DJmKgXB3yp1IQVaWALqYY5q9ufLg4m5bnnBLSj0000]--></g></svg>