<svg xmlns="http://www.w3.org/2000/svg" xmlns:xlink="http://www.w3.org/1999/xlink" contentStyleType="text/css" height="118px" preserveAspectRatio="none" style="width:354px;height:118px;background:#FFFFFF;" version="1.1" viewBox="0 0 354 118" width="354px" zoomAndPan="magnify"><defs/><g><!--class UpgradeCollection--><g id="elem_UpgradeCollection"><rect codeLine="1" fill="#F1F1F1" height="97.4648" id="UpgradeCollection" rx="2.5" ry="2.5" style="stroke:#181818;stroke-width:0.5;" width="333.9385" x="7" y="7"/><ellipse cx="107.1021" cy="23" fill="#ADD1B2" rx="11" ry="11" style="stroke:#181818;stroke-width:1.0;"/><path d="M109.5752,29.1431 Q108.9941,29.4419 108.355,29.5913 Q107.7158,29.7407 107.0103,29.7407 Q104.5034,29.7407 103.1836,28.0889 Q101.8638,26.437 101.8638,23.3159 Q101.8638,20.1865 103.1836,18.5347 Q104.5034,16.8828 107.0103,16.8828 Q107.7158,16.8828 108.3633,17.0322 Q109.0107,17.1816 109.5752,17.4805 L109.5752,20.2031 Q108.9443,19.6221 108.3508,19.3523 Q107.7573,19.0825 107.1265,19.0825 Q105.7817,19.0825 105.0969,20.1492 Q104.4121,21.2158 104.4121,23.3159 Q104.4121,25.4077 105.0969,26.4744 Q105.7817,27.541 107.1265,27.541 Q107.7573,27.541 108.3508,27.2712 Q108.9443,27.0015 109.5752,26.4204 Z " fill="#000000"/><text fill="#000000" font-family="sans-serif" font-size="14" lengthAdjust="spacing" textLength="125.2344" x="127.6021" y="28.291">UpgradeCollection</text><line style="stroke:#181818;stroke-width:0.5;" x1="8" x2="339.9385" y1="39" y2="39"/><line style="stroke:#181818;stroke-width:0.5;" x1="8" x2="339.9385" y1="47" y2="47"/><ellipse cx="18" cy="60.7441" fill="#84BE84" rx="3" ry="3" style="stroke:#038048;stroke-width:1.0;"/><text fill="#000000" font-family="sans-serif" font-size="14" lengthAdjust="spacing" textLength="134.3398" x="27" y="64.5352">UpgradeCollection()</text><ellipse cx="18" cy="77.2324" fill="#84BE84" rx="3" ry="3" style="stroke:#038048;stroke-width:1.0;"/><text fill="#000000" font-family="sans-serif" font-size="14" lengthAdjust="spacing" textLength="307.9385" x="27" y="81.0234">GetUpgrade(upgradeId:UpgradeId) : IUpgrade</text><ellipse cx="18" cy="93.7207" fill="#84BE84" rx="3" ry="3" style="stroke:#038048;stroke-width:1.0;"/><text fill="#000000" font-family="sans-serif" font-size="14" lengthAdjust="spacing" textLength="161.7314" x="27" y="97.5117">GetUpgradeCount() : int</text></g><!--SRC=[Iyv9B2vM22r8BqfCINNEpyb9JIx9pCzJgEPI009jJ1aDJQYCUse9L5AZ549xfbY5mbYQ2bOAdb0UXWRd_DAy4WsGaioy4gvQ0000]--></g></svg>