<svg xmlns="http://www.w3.org/2000/svg" xmlns:xlink="http://www.w3.org/1999/xlink" contentStyleType="text/css" height="252px" preserveAspectRatio="none" style="width:361px;height:252px;background:#FFFFFF;" version="1.1" viewBox="0 0 361 252" width="361px" zoomAndPan="magnify"><defs/><g><!--cluster Upgrades--><g id="cluster_Upgrades"><path d="M8.5,6 L78.3105,6 A3.75,3.75 0 0 1 80.8105,8.5 L87.8105,28.4883 L351.5,28.4883 A2.5,2.5 0 0 1 354,30.9883 L354,243.48 A2.5,2.5 0 0 1 351.5,245.98 L8.5,245.98 A2.5,2.5 0 0 1 6,243.48 L6,8.5 A2.5,2.5 0 0 1 8.5,6 " fill="none" style="stroke:#000000;stroke-width:1.5;"/><line style="stroke:#000000;stroke-width:1.5;" x1="6" x2="87.8105" y1="28.4883" y2="28.4883"/><text fill="#000000" font-family="sans-serif" font-size="14" font-weight="bold" lengthAdjust="spacing" textLength="68.8105" x="10" y="21.5352">Upgrades</text></g><!--class WeaponUpgrade--><g id="elem_WeaponUpgrade"><rect codeLine="2" fill="#F1F1F1" height="80.9766" id="WeaponUpgrade" rx="2.5" ry="2.5" style="stroke:#181818;stroke-width:0.5;" width="315.2148" x="22.39" y="149"/><ellipse cx="120.2875" cy="165" fill="#ADD1B2" rx="11" ry="11" style="stroke:#181818;stroke-width:1.0;"/><path d="M122.7606,171.1431 Q122.1796,171.4419 121.5404,171.5913 Q120.9012,171.7407 120.1957,171.7407 Q117.6888,171.7407 116.369,170.0889 Q115.0492,168.437 115.0492,165.3159 Q115.0492,162.1865 116.369,160.5347 Q117.6888,158.8828 120.1957,158.8828 Q120.9012,158.8828 121.5487,159.0322 Q122.1962,159.1816 122.7606,159.4805 L122.7606,162.2031 Q122.1297,161.6221 121.5362,161.3523 Q120.9427,161.0825 120.3119,161.0825 Q118.9671,161.0825 118.2823,162.1492 Q117.5975,163.2158 117.5975,165.3159 Q117.5975,167.4077 118.2823,168.4744 Q118.9671,169.541 120.3119,169.541 Q120.9427,169.541 121.5362,169.2712 Q122.1297,169.0015 122.7606,168.4204 Z " fill="#000000"/><text fill="#000000" font-family="sans-serif" font-size="14" lengthAdjust="spacing" textLength="110.9199" x="140.7875" y="170.291">WeaponUpgrade</text><line style="stroke:#181818;stroke-width:0.5;" x1="23.39" x2="336.6048" y1="181" y2="181"/><ellipse cx="33.39" cy="194.7441" fill="none" rx="3" ry="3" style="stroke:#038048;stroke-width:1.0;"/><text fill="#000000" font-family="sans-serif" font-size="14" lengthAdjust="spacing" textLength="188.9658" x="42.39" y="198.5352">upgradeName : string &#171;get&#187;</text><line style="stroke:#181818;stroke-width:0.5;" x1="23.39" x2="336.6048" y1="205.4883" y2="205.4883"/><ellipse cx="33.39" cy="219.2324" fill="#84BE84" rx="3" ry="3" style="stroke:#038048;stroke-width:1.0;"/><text fill="#000000" font-family="sans-serif" font-size="14" lengthAdjust="spacing" textLength="289.2148" x="42.39" y="223.0234">Initialize(upgradeData:UpgradeData) : void</text></g><!--class IUpgrade--><g id="elem_IUpgrade"><rect fill="#F1F1F1" height="48" id="IUpgrade" rx="2.5" ry="2.5" style="stroke:#181818;stroke-width:0.5;" width="93.3457" x="133.33" y="41"/><ellipse cx="148.33" cy="57" fill="#ADD1B2" rx="11" ry="11" style="stroke:#181818;stroke-width:1.0;"/><path d="M150.8031,63.1431 Q150.2221,63.4419 149.5829,63.5913 Q148.9438,63.7407 148.2382,63.7407 Q145.7314,63.7407 144.4115,62.0889 Q143.0917,60.437 143.0917,57.3159 Q143.0917,54.1865 144.4115,52.5347 Q145.7314,50.8828 148.2382,50.8828 Q148.9438,50.8828 149.5912,51.0322 Q150.2387,51.1816 150.8031,51.4805 L150.8031,54.2031 Q150.1723,53.6221 149.5788,53.3523 Q148.9853,53.0825 148.3544,53.0825 Q147.0097,53.0825 146.3249,54.1492 Q145.6401,55.2158 145.6401,57.3159 Q145.6401,59.4077 146.3249,60.4744 Q147.0097,61.541 148.3544,61.541 Q148.9853,61.541 149.5788,61.2712 Q150.1723,61.0015 150.8031,60.4204 Z " fill="#000000"/><text fill="#000000" font-family="sans-serif" font-size="14" lengthAdjust="spacing" textLength="61.3457" x="162.33" y="62.291">IUpgrade</text><line style="stroke:#181818;stroke-width:0.5;" x1="134.33" x2="225.6757" y1="73" y2="73"/><line style="stroke:#181818;stroke-width:0.5;" x1="134.33" x2="225.6757" y1="81" y2="81"/></g><!--reverse link IUpgrade to WeaponUpgrade--><g id="link_IUpgrade_WeaponUpgrade"><path codeLine="6" d="M180,107.33 C180,124.13 180,129.2 180,148.86 " fill="none" id="IUpgrade-backto-WeaponUpgrade" style="stroke:#181818;stroke-width:1.0;"/><polygon fill="none" points="180,89.33,174,107.33,186,107.33,180,89.33" style="stroke:#181818;stroke-width:1.0;"/></g><!--SRC=[oqlCJIqkI4nELGWjI2zAJ4ajhkPApaaiBbO8JqqioC-3YYfKSoa0WRP2AOJl1zIcOALGN5AKcPUkO6EJdbfYPmTLufcNMPAPc9DPbQe1LUsIM99e5OfWQmArbkLdfd3LSdd2BB2fqTL5jPEh5W00]--></g></svg>