<svg xmlns="http://www.w3.org/2000/svg" xmlns:xlink="http://www.w3.org/1999/xlink" contentStyleType="text/css" height="252px" preserveAspectRatio="none" style="width:685px;height:252px;background:#FFFFFF;" version="1.1" viewBox="0 0 685 252" width="685px" zoomAndPan="magnify"><defs/><g><!--cluster Upgrades--><g id="cluster_Upgrades"><path d="M8.5,6 L78.3105,6 A3.75,3.75 0 0 1 80.8105,8.5 L87.8105,28.4883 L351.5,28.4883 A2.5,2.5 0 0 1 354,30.9883 L354,243.48 A2.5,2.5 0 0 1 351.5,245.98 L8.5,245.98 A2.5,2.5 0 0 1 6,243.48 L6,8.5 A2.5,2.5 0 0 1 8.5,6 " fill="none" style="stroke:#000000;stroke-width:1.5;"/><line style="stroke:#000000;stroke-width:1.5;" x1="6" x2="87.8105" y1="28.4883" y2="28.4883"/><text fill="#000000" font-family="sans-serif" font-size="14" font-weight="bold" lengthAdjust="spacing" textLength="68.8105" x="10" y="21.5352">Upgrades</text></g><!--cluster Weapons--><g id="cluster_Weapons"><path d="M380.5,6 L445.915,6 A3.75,3.75 0 0 1 448.415,8.5 L455.415,28.4883 L675.5,28.4883 A2.5,2.5 0 0 1 678,30.9883 L678,102.5 A2.5,2.5 0 0 1 675.5,105 L380.5,105 A2.5,2.5 0 0 1 378,102.5 L378,8.5 A2.5,2.5 0 0 1 380.5,6 " fill="none" style="stroke:#000000;stroke-width:1.5;"/><line style="stroke:#000000;stroke-width:1.5;" x1="378" x2="455.415" y1="28.4883" y2="28.4883"/><text fill="#000000" font-family="sans-serif" font-size="14" font-weight="bold" lengthAdjust="spacing" textLength="64.415" x="382" y="21.5352">Weapons</text></g><!--class WeaponUpgrade--><g id="elem_WeaponUpgrade"><rect codeLine="2" fill="#F1F1F1" height="80.9766" id="WeaponUpgrade" rx="2.5" ry="2.5" style="stroke:#181818;stroke-width:0.5;" width="315.2148" x="22.39" y="149"/><ellipse cx="120.2875" cy="165" fill="#ADD1B2" rx="11" ry="11" style="stroke:#181818;stroke-width:1.0;"/><path d="M122.7606,171.1431 Q122.1796,171.4419 121.5404,171.5913 Q120.9012,171.7407 120.1957,171.7407 Q117.6888,171.7407 116.369,170.0889 Q115.0492,168.437 115.0492,165.3159 Q115.0492,162.1865 116.369,160.5347 Q117.6888,158.8828 120.1957,158.8828 Q120.9012,158.8828 121.5487,159.0322 Q122.1962,159.1816 122.7606,159.4805 L122.7606,162.2031 Q122.1297,161.6221 121.5362,161.3523 Q120.9427,161.0825 120.3119,161.0825 Q118.9671,161.0825 118.2823,162.1492 Q117.5975,163.2158 117.5975,165.3159 Q117.5975,167.4077 118.2823,168.4744 Q118.9671,169.541 120.3119,169.541 Q120.9427,169.541 121.5362,169.2712 Q122.1297,169.0015 122.7606,168.4204 Z " fill="#000000"/><text fill="#000000" font-family="sans-serif" font-size="14" lengthAdjust="spacing" textLength="110.9199" x="140.7875" y="170.291">WeaponUpgrade</text><line style="stroke:#181818;stroke-width:0.5;" x1="23.39" x2="336.6048" y1="181" y2="181"/><ellipse cx="33.39" cy="194.7441" fill="none" rx="3" ry="3" style="stroke:#038048;stroke-width:1.0;"/><text fill="#000000" font-family="sans-serif" font-size="14" lengthAdjust="spacing" textLength="188.9658" x="42.39" y="198.5352">upgradeName : string &#171;get&#187;</text><line style="stroke:#181818;stroke-width:0.5;" x1="23.39" x2="336.6048" y1="205.4883" y2="205.4883"/><ellipse cx="33.39" cy="219.2324" fill="#84BE84" rx="3" ry="3" style="stroke:#038048;stroke-width:1.0;"/><text fill="#000000" font-family="sans-serif" font-size="14" lengthAdjust="spacing" textLength="289.2148" x="42.39" y="223.0234">Initialize(upgradeData:UpgradeData) : void</text></g><!--class IUpgrade--><g id="elem_IUpgrade"><rect fill="#F1F1F1" height="48" id="IUpgrade" rx="2.5" ry="2.5" style="stroke:#181818;stroke-width:0.5;" width="93.3457" x="55.33" y="41"/><ellipse cx="70.33" cy="57" fill="#ADD1B2" rx="11" ry="11" style="stroke:#181818;stroke-width:1.0;"/><path d="M72.8031,63.1431 Q72.2221,63.4419 71.5829,63.5913 Q70.9438,63.7407 70.2382,63.7407 Q67.7314,63.7407 66.4115,62.0889 Q65.0917,60.437 65.0917,57.3159 Q65.0917,54.1865 66.4115,52.5347 Q67.7314,50.8828 70.2382,50.8828 Q70.9438,50.8828 71.5912,51.0322 Q72.2387,51.1816 72.8031,51.4805 L72.8031,54.2031 Q72.1723,53.6221 71.5788,53.3523 Q70.9853,53.0825 70.3544,53.0825 Q69.0097,53.0825 68.3249,54.1492 Q67.6401,55.2158 67.6401,57.3159 Q67.6401,59.4077 68.3249,60.4744 Q69.0097,61.541 70.3544,61.541 Q70.9853,61.541 71.5788,61.2712 Q72.1723,61.0015 72.8031,60.4204 Z " fill="#000000"/><text fill="#000000" font-family="sans-serif" font-size="14" lengthAdjust="spacing" textLength="61.3457" x="84.33" y="62.291">IUpgrade</text><line style="stroke:#181818;stroke-width:0.5;" x1="56.33" x2="147.6757" y1="73" y2="73"/><line style="stroke:#181818;stroke-width:0.5;" x1="56.33" x2="147.6757" y1="81" y2="81"/></g><!--class UpgradeData--><g id="elem_UpgradeData"><rect fill="#F1F1F1" height="48" id="UpgradeData" rx="2.5" ry="2.5" style="stroke:#181818;stroke-width:0.5;" width="120.498" x="183.75" y="41"/><ellipse cx="198.75" cy="57" fill="#ADD1B2" rx="11" ry="11" style="stroke:#181818;stroke-width:1.0;"/><path d="M201.2231,63.1431 Q200.6421,63.4419 200.0029,63.5913 Q199.3638,63.7407 198.6582,63.7407 Q196.1514,63.7407 194.8315,62.0889 Q193.5117,60.437 193.5117,57.3159 Q193.5117,54.1865 194.8315,52.5347 Q196.1514,50.8828 198.6582,50.8828 Q199.3638,50.8828 200.0112,51.0322 Q200.6587,51.1816 201.2231,51.4805 L201.2231,54.2031 Q200.5923,53.6221 199.9988,53.3523 Q199.4053,53.0825 198.7744,53.0825 Q197.4297,53.0825 196.7449,54.1492 Q196.0601,55.2158 196.0601,57.3159 Q196.0601,59.4077 196.7449,60.4744 Q197.4297,61.541 198.7744,61.541 Q199.4053,61.541 199.9988,61.2712 Q200.5923,61.0015 201.2231,60.4204 Z " fill="#000000"/><text fill="#000000" font-family="sans-serif" font-size="14" lengthAdjust="spacing" textLength="88.498" x="212.75" y="62.291">UpgradeData</text><line style="stroke:#181818;stroke-width:0.5;" x1="184.75" x2="303.248" y1="73" y2="73"/><line style="stroke:#181818;stroke-width:0.5;" x1="184.75" x2="303.248" y1="81" y2="81"/></g><!--class WeaponId--><g id="elem_WeaponId"><rect fill="#F1F1F1" height="48" id="WeaponId" rx="2.5" ry="2.5" style="stroke:#181818;stroke-width:0.5;" width="98.4521" x="393.77" y="41"/><ellipse cx="408.77" cy="57" fill="#ADD1B2" rx="11" ry="11" style="stroke:#181818;stroke-width:1.0;"/><path d="M411.2431,63.1431 Q410.6621,63.4419 410.0229,63.5913 Q409.3838,63.7407 408.6782,63.7407 Q406.1714,63.7407 404.8515,62.0889 Q403.5317,60.437 403.5317,57.3159 Q403.5317,54.1865 404.8515,52.5347 Q406.1714,50.8828 408.6782,50.8828 Q409.3838,50.8828 410.0312,51.0322 Q410.6787,51.1816 411.2431,51.4805 L411.2431,54.2031 Q410.6123,53.6221 410.0188,53.3523 Q409.4253,53.0825 408.7944,53.0825 Q407.4497,53.0825 406.7649,54.1492 Q406.0801,55.2158 406.0801,57.3159 Q406.0801,59.4077 406.7649,60.4744 Q407.4497,61.541 408.7944,61.541 Q409.4253,61.541 410.0188,61.2712 Q410.6123,61.0015 411.2431,60.4204 Z " fill="#000000"/><text fill="#000000" font-family="sans-serif" font-size="14" lengthAdjust="spacing" textLength="66.4521" x="422.77" y="62.291">WeaponId</text><line style="stroke:#181818;stroke-width:0.5;" x1="394.77" x2="491.2221" y1="73" y2="73"/><line style="stroke:#181818;stroke-width:0.5;" x1="394.77" x2="491.2221" y1="81" y2="81"/></g><!--class WeaponParams--><g id="elem_WeaponParams"><rect fill="#F1F1F1" height="48" id="WeaponParams" rx="2.5" ry="2.5" style="stroke:#181818;stroke-width:0.5;" width="134.7441" x="527.63" y="41"/><ellipse cx="542.63" cy="57" fill="#ADD1B2" rx="11" ry="11" style="stroke:#181818;stroke-width:1.0;"/><path d="M545.1031,63.1431 Q544.5221,63.4419 543.8829,63.5913 Q543.2438,63.7407 542.5382,63.7407 Q540.0314,63.7407 538.7115,62.0889 Q537.3917,60.437 537.3917,57.3159 Q537.3917,54.1865 538.7115,52.5347 Q540.0314,50.8828 542.5382,50.8828 Q543.2438,50.8828 543.8912,51.0322 Q544.5387,51.1816 545.1031,51.4805 L545.1031,54.2031 Q544.4723,53.6221 543.8788,53.3523 Q543.2853,53.0825 542.6544,53.0825 Q541.3097,53.0825 540.6249,54.1492 Q539.9401,55.2158 539.9401,57.3159 Q539.9401,59.4077 540.6249,60.4744 Q541.3097,61.541 542.6544,61.541 Q543.2853,61.541 543.8788,61.2712 Q544.4723,61.0015 545.1031,60.4204 Z " fill="#000000"/><text fill="#000000" font-family="sans-serif" font-size="14" lengthAdjust="spacing" textLength="102.7441" x="556.63" y="62.291">WeaponParams</text><line style="stroke:#181818;stroke-width:0.5;" x1="528.63" x2="661.3741" y1="73" y2="73"/><line style="stroke:#181818;stroke-width:0.5;" x1="528.63" x2="661.3741" y1="81" y2="81"/></g><!--reverse link IUpgrade to WeaponUpgrade--><g id="link_IUpgrade_WeaponUpgrade"><path codeLine="7" d="M126.5196,104.5122 C137.2196,121.3122 142.24,129.2 154.76,148.86 " fill="none" id="IUpgrade-backto-WeaponUpgrade" style="stroke:#181818;stroke-width:1.0;"/><polygon fill="none" points="116.85,89.33,121.4589,107.7354,131.5803,101.289,116.85,89.33" style="stroke:#181818;stroke-width:1.0;"/></g><!--link WeaponId to WeaponUpgrade--><g id="link_WeaponId_WeaponUpgrade"><path codeLine="8" d="M400.33,89.38 C385.76,97.14 369.28,105.67 354,113 C328.77,125.12 312.1179,132.7323 286.4279,143.8823 " fill="none" id="WeaponId-to-WeaponUpgrade" style="stroke:#181818;stroke-width:1.0;"/><polygon fill="#181818" points="275.42,148.66,282.5165,149.9405,286.4279,143.8823,279.3314,142.6019,275.42,148.66" style="stroke:#181818;stroke-width:1.0;"/></g><!--link WeaponParams to WeaponUpgrade--><g id="link_WeaponParams_WeaponUpgrade"><path codeLine="9" d="M558.01,89.42 C543.48,97.81 526.38,106.74 510,113 C455.37,133.88 405.0959,147.4265 349.6859,159.2465 " fill="none" id="WeaponParams-to-WeaponUpgrade" style="stroke:#181818;stroke-width:1.0;"/><polygon fill="#181818" points="337.95,161.75,344.6525,164.4102,349.6859,159.2465,342.9835,156.5863,337.95,161.75" style="stroke:#181818;stroke-width:1.0;"/></g><!--reverse link UpgradeData to WeaponUpgrade--><g id="link_UpgradeData_WeaponUpgrade"><path codeLine="10" d="M229.0309,94.6476 C220.2509,111.4476 210.98,129.2 200.71,148.86 " fill="none" id="UpgradeData-backto-WeaponUpgrade" style="stroke:#181818;stroke-width:1.0;stroke-dasharray:7.0,7.0;"/><polygon fill="#181818" points="231.81,89.33,224.0963,95.4537,229.4941,93.7613,231.1864,99.1591,231.81,89.33" style="stroke:#181818;stroke-width:1.0;"/></g><!--SRC=[oqlCJIqkI4nELGWjI2zAJ4ajhkPApaaiBbO8JqqioC-3YYfKSoa0WRP2AOJl1zIcOALGN5AKcPUkO6EJdbfYPmTLufcNMPAPc9DPbQe1LUsIM99e5OfWQmArbkLdfd3L0Y7CNZrFc5qsDRgwgDPpGNZ5UX3QCqL1LrSBhvA0nAB4t68iok3M8Rb7mKPF3qqP0000]--></g></svg>