<svg xmlns="http://www.w3.org/2000/svg" xmlns:xlink="http://www.w3.org/1999/xlink" contentStyleType="text/css" height="118px" preserveAspectRatio="none" style="width:355px;height:118px;background:#FFFFFF;" version="1.1" viewBox="0 0 355 118" width="355px" zoomAndPan="magnify"><defs/><g><!--class HealthView--><g id="elem_HealthView"><rect codeLine="1" fill="#F1F1F1" height="97.4648" id="HealthView" rx="2.5" ry="2.5" style="stroke:#181818;stroke-width:0.5;" width="334.4102" x="7" y="7"/><ellipse cx="132.166" cy="23" fill="#ADD1B2" rx="11" ry="11" style="stroke:#181818;stroke-width:1.0;"/><path d="M134.6392,29.1431 Q134.0581,29.4419 133.4189,29.5913 Q132.7798,29.7407 132.0742,29.7407 Q129.5674,29.7407 128.2476,28.0889 Q126.9277,26.437 126.9277,23.3159 Q126.9277,20.1865 128.2476,18.5347 Q129.5674,16.8828 132.0742,16.8828 Q132.7798,16.8828 133.4272,17.0322 Q134.0747,17.1816 134.6392,17.4805 L134.6392,20.2031 Q134.0083,19.6221 133.4148,19.3523 Q132.8213,19.0825 132.1904,19.0825 Q130.8457,19.0825 130.1609,20.1492 Q129.4761,21.2158 129.4761,23.3159 Q129.4761,25.4077 130.1609,26.4744 Q130.8457,27.541 132.1904,27.541 Q132.8213,27.541 133.4148,27.2712 Q134.0083,27.0015 134.6392,26.4204 Z " fill="#000000"/><text fill="#000000" font-family="sans-serif" font-size="14" lengthAdjust="spacing" textLength="75.5781" x="152.666" y="28.291">HealthView</text><line style="stroke:#181818;stroke-width:0.5;" x1="8" x2="340.4102" y1="39" y2="39"/><line style="stroke:#181818;stroke-width:0.5;" x1="8" x2="340.4102" y1="47" y2="47"/><ellipse cx="18" cy="60.7441" fill="#84BE84" rx="3" ry="3" style="stroke:#038048;stroke-width:1.0;"/><text fill="#000000" font-family="sans-serif" font-size="14" lengthAdjust="spacing" textLength="186.1699" x="27" y="64.5352">SetHealth(value:float) : void</text><ellipse cx="18" cy="77.2324" fill="#84BE84" rx="3" ry="3" style="stroke:#038048;stroke-width:1.0;"/><text fill="#000000" font-family="sans-serif" font-size="14" lengthAdjust="spacing" textLength="308.4102" x="27" y="81.0234">SetHealthWithoutAnimation(value:float) : void</text><ellipse cx="18" cy="93.7207" fill="#84BE84" rx="3" ry="3" style="stroke:#038048;stroke-width:1.0;"/><text fill="#000000" font-family="sans-serif" font-size="14" lengthAdjust="spacing" textLength="179.5049" x="27" y="97.5117">Initialize(value:float) : void</text></g><!--SRC=[Iyv9B2vMy4XDp2d92CjCBLUevb800cs5uDGIYAX6MM9EQQfLMav-OeccWfL2MNvc2hgQyCoIZFpI4iUypDp4aipyF3nwFFCoIp8JSpAhKh4ggWK0]--></g></svg>