<svg xmlns="http://www.w3.org/2000/svg" xmlns:xlink="http://www.w3.org/1999/xlink" contentStyleType="text/css" height="151px" preserveAspectRatio="none" style="width:426px;height:151px;background:#FFFFFF;" version="1.1" viewBox="0 0 426 151" width="426px" zoomAndPan="magnify"><defs/><g><!--class Health--><g id="elem_Health"><rect codeLine="1" fill="#F1F1F1" height="130.4414" id="Health" rx="2.5" ry="2.5" style="stroke:#181818;stroke-width:0.5;" width="405.4834" x="7" y="7"/><ellipse cx="183.5962" cy="23" fill="#ADD1B2" rx="11" ry="11" style="stroke:#181818;stroke-width:1.0;"/><path d="M186.0693,29.1431 Q185.4883,29.4419 184.8491,29.5913 Q184.21,29.7407 183.5044,29.7407 Q180.9976,29.7407 179.6777,28.0889 Q178.3579,26.437 178.3579,23.3159 Q178.3579,20.1865 179.6777,18.5347 Q180.9976,16.8828 183.5044,16.8828 Q184.21,16.8828 184.8574,17.0322 Q185.5049,17.1816 186.0693,17.4805 L186.0693,20.2031 Q185.4385,19.6221 184.845,19.3523 Q184.2515,19.0825 183.6206,19.0825 Q182.2759,19.0825 181.5911,20.1492 Q180.9063,21.2158 180.9063,23.3159 Q180.9063,25.4077 181.5911,26.4744 Q182.2759,27.541 183.6206,27.541 Q184.2515,27.541 184.845,27.2712 Q185.4385,27.0015 186.0693,26.4204 Z " fill="#000000"/><text fill="#000000" font-family="sans-serif" font-size="14" lengthAdjust="spacing" textLength="43.791" x="204.0962" y="28.291">Health</text><line style="stroke:#181818;stroke-width:0.5;" x1="8" x2="411.4834" y1="39" y2="39"/><ellipse cx="18" cy="52.7441" fill="none" rx="3" ry="3" style="stroke:#038048;stroke-width:1.0;"/><text fill="#000000" font-family="sans-serif" font-size="14" lengthAdjust="spacing" textLength="157.083" x="27" y="56.5352">MaxHealth : float &#171;get&#187;</text><ellipse cx="18" cy="69.2324" fill="none" rx="3" ry="3" style="stroke:#038048;stroke-width:1.0;"/><text fill="#000000" font-family="sans-serif" font-size="14" lengthAdjust="spacing" textLength="379.4834" x="27" y="73.0234">CurrentHealth : ReadOnlyReactiveProperty&lt;float&gt; &#171;get&#187;</text><ellipse cx="18" cy="85.7207" fill="none" rx="3" ry="3" style="stroke:#038048;stroke-width:1.0;"/><text fill="#000000" font-family="sans-serif" font-size="14" lengthAdjust="spacing" textLength="214.9766" x="27" y="89.5117">InitializedAsync : UniTask &#171;get&#187;</text><line style="stroke:#181818;stroke-width:0.5;" x1="8" x2="411.4834" y1="96.4648" y2="96.4648"/><ellipse cx="18" cy="110.209" fill="#84BE84" rx="3" ry="3" style="stroke:#038048;stroke-width:1.0;"/><text fill="#000000" font-family="sans-serif" font-size="14" lengthAdjust="spacing" textLength="217.1709" x="27" y="114">Initialize(maxHealth:float) : void</text><ellipse cx="18" cy="126.6973" fill="#84BE84" rx="3" ry="3" style="stroke:#038048;stroke-width:1.0;"/><text fill="#000000" font-family="sans-serif" font-size="14" lengthAdjust="spacing" textLength="240.085" x="27" y="130.4883">ResetHealth(maxHealth:float) : void</text></g><!--SRC=[Iyv9B2vMy4XDp2d9KAZcKW02RGNVn0geY9L2Mav-Oec2ZKrwQecT7LJUkRIeA3Ml1AucA3KnnJylfn989vTabgK65EKNf1QLLDg0DTkXwVRCoop9JCp9h4fDSIokp4i66X2QbncIM9oDKw56Bin5Lc0ZDO5wol8pKw0AWrABKw6kmQco5W00]--></g></svg>