<svg xmlns="http://www.w3.org/2000/svg" xmlns:xlink="http://www.w3.org/1999/xlink" contentStyleType="text/css" height="236px" preserveAspectRatio="none" style="width:255px;height:236px;background:#FFFFFF;" version="1.1" viewBox="0 0 255 236" width="255px" zoomAndPan="magnify"><defs/><g><!--cluster Players--><g id="cluster_Players"><path d="M8.5,6 L61.5146,6 A3.75,3.75 0 0 1 64.0146,8.5 L71.0146,28.4883 L245.5,28.4883 A2.5,2.5 0 0 1 248,30.9883 L248,226.99 A2.5,2.5 0 0 1 245.5,229.49 L8.5,229.49 A2.5,2.5 0 0 1 6,226.99 L6,8.5 A2.5,2.5 0 0 1 8.5,6 " fill="none" style="stroke:#000000;stroke-width:1.5;"/><line style="stroke:#000000;stroke-width:1.5;" x1="6" x2="71.0146" y1="28.4883" y2="28.4883"/><text fill="#000000" font-family="sans-serif" font-size="14" font-weight="bold" lengthAdjust="spacing" textLength="52.0146" x="10" y="21.5352">Players</text></g><!--class PlayerMove--><g id="elem_PlayerMove"><rect codeLine="2" fill="#F1F1F1" height="64.4883" id="PlayerMove" rx="2.5" ry="2.5" style="stroke:#181818;stroke-width:0.5;" width="210.3516" x="21.82" y="149"/><ellipse cx="84.714" cy="165" fill="#ADD1B2" rx="11" ry="11" style="stroke:#181818;stroke-width:1.0;"/><path d="M87.1872,171.1431 Q86.6061,171.4419 85.967,171.5913 Q85.3278,171.7407 84.6222,171.7407 Q82.1154,171.7407 80.7956,170.0889 Q79.4758,168.437 79.4758,165.3159 Q79.4758,162.1865 80.7956,160.5347 Q82.1154,158.8828 84.6222,158.8828 Q85.3278,158.8828 85.9753,159.0322 Q86.6227,159.1816 87.1872,159.4805 L87.1872,162.2031 Q86.5563,161.6221 85.9628,161.3523 Q85.3693,161.0825 84.7385,161.0825 Q83.3937,161.0825 82.7089,162.1492 Q82.0241,163.2158 82.0241,165.3159 Q82.0241,167.4077 82.7089,168.4744 Q83.3937,169.541 84.7385,169.541 Q85.3693,169.541 85.9628,169.2712 Q86.5563,169.0015 87.1872,168.4204 Z " fill="#000000"/><text fill="#000000" font-family="sans-serif" font-size="14" lengthAdjust="spacing" textLength="76.0635" x="105.214" y="170.291">PlayerMove</text><line style="stroke:#181818;stroke-width:0.5;" x1="22.82" x2="231.1716" y1="181" y2="181"/><line style="stroke:#181818;stroke-width:0.5;" x1="22.82" x2="231.1716" y1="189" y2="189"/><ellipse cx="32.82" cy="202.7441" fill="#84BE84" rx="3" ry="3" style="stroke:#038048;stroke-width:1.0;"/><text fill="#000000" font-family="sans-serif" font-size="14" lengthAdjust="spacing" textLength="184.3516" x="41.82" y="206.5352">Initialize(speed:float) : void</text></g><!--class PlayerInput--><g id="elem_PlayerInput"><rect fill="#F1F1F1" height="48" id="PlayerInput" rx="2.5" ry="2.5" style="stroke:#181818;stroke-width:0.5;" width="107.8174" x="73.09" y="41"/><ellipse cx="88.09" cy="57" fill="#ADD1B2" rx="11" ry="11" style="stroke:#181818;stroke-width:1.0;"/><path d="M90.5631,63.1431 Q89.9821,63.4419 89.3429,63.5913 Q88.7038,63.7407 87.9982,63.7407 Q85.4914,63.7407 84.1715,62.0889 Q82.8517,60.437 82.8517,57.3159 Q82.8517,54.1865 84.1715,52.5347 Q85.4914,50.8828 87.9982,50.8828 Q88.7038,50.8828 89.3512,51.0322 Q89.9987,51.1816 90.5631,51.4805 L90.5631,54.2031 Q89.9323,53.6221 89.3388,53.3523 Q88.7453,53.0825 88.1144,53.0825 Q86.7697,53.0825 86.0849,54.1492 Q85.4001,55.2158 85.4001,57.3159 Q85.4001,59.4077 86.0849,60.4744 Q86.7697,61.541 88.1144,61.541 Q88.7453,61.541 89.3388,61.2712 Q89.9323,61.0015 90.5631,60.4204 Z " fill="#000000"/><text fill="#000000" font-family="sans-serif" font-size="14" lengthAdjust="spacing" textLength="75.8174" x="102.09" y="62.291">PlayerInput</text><line style="stroke:#181818;stroke-width:0.5;" x1="74.09" x2="179.9074" y1="73" y2="73"/><line style="stroke:#181818;stroke-width:0.5;" x1="74.09" x2="179.9074" y1="81" y2="81"/></g><!--link PlayerInput to PlayerMove--><g id="link_PlayerInput_PlayerMove"><path codeLine="6" d="M127,89.4 C127,106.5 127,123.89 127,142.65 " fill="none" id="PlayerInput-to-PlayerMove" style="stroke:#181818;stroke-width:1.0;"/><polygon fill="#181818" points="127,148.65,131,139.65,127,143.65,123,139.65,127,148.65" style="stroke:#181818;stroke-width:1.0;"/></g><!--SRC=[oqlCJIqkI4nELGZ8IQnCBIgkvahEIImkXd9zyyjI5Qgv5810My4pBxCaCp4diofLexWWDJN5AYqdFx54Ky5AeIm_CuMh5WYXXkX1QC-yWj8I1LrTEoJJ0000]--></g></svg>