<svg xmlns="http://www.w3.org/2000/svg" xmlns:xlink="http://www.w3.org/1999/xlink" contentStyleType="text/css" height="128px" preserveAspectRatio="none" style="width:557px;height:128px;background:#FFFFFF;" version="1.1" viewBox="0 0 557 128" width="557px" zoomAndPan="magnify"><defs/><g><!--cluster Players--><g id="cluster_Players"><path d="M8.5,6 L61.5146,6 A3.75,3.75 0 0 1 64.0146,8.5 L71.0146,28.4883 L547.5,28.4883 A2.5,2.5 0 0 1 550,30.9883 L550,118.99 A2.5,2.5 0 0 1 547.5,121.49 L8.5,121.49 A2.5,2.5 0 0 1 6,118.99 L6,8.5 A2.5,2.5 0 0 1 8.5,6 " fill="none" style="stroke:#000000;stroke-width:1.5;"/><line style="stroke:#000000;stroke-width:1.5;" x1="6" x2="71.0146" y1="28.4883" y2="28.4883"/><text fill="#000000" font-family="sans-serif" font-size="14" font-weight="bold" lengthAdjust="spacing" textLength="52.0146" x="10" y="21.5352">Players</text></g><!--class PlayerStatusManager--><g id="elem_PlayerStatusManager"><rect codeLine="2" fill="#F1F1F1" height="64.4883" id="PlayerStatusManager" rx="2.5" ry="2.5" style="stroke:#181818;stroke-width:0.5;" width="511.6592" x="22.17" y="41"/><ellipse cx="203.5513" cy="57" fill="#ADD1B2" rx="11" ry="11" style="stroke:#181818;stroke-width:1.0;"/><path d="M206.0245,63.1431 Q205.4434,63.4419 204.8043,63.5913 Q204.1651,63.7407 203.4596,63.7407 Q200.9527,63.7407 199.6329,62.0889 Q198.3131,60.437 198.3131,57.3159 Q198.3131,54.1865 199.6329,52.5347 Q200.9527,50.8828 203.4596,50.8828 Q204.1651,50.8828 204.8126,51.0322 Q205.46,51.1816 206.0245,51.4805 L206.0245,54.2031 Q205.3936,53.6221 204.8001,53.3523 Q204.2066,53.0825 203.5758,53.0825 Q202.231,53.0825 201.5462,54.1492 Q200.8614,55.2158 200.8614,57.3159 Q200.8614,59.4077 201.5462,60.4744 Q202.231,61.541 203.5758,61.541 Q204.2066,61.541 204.8001,61.2712 Q205.3936,61.0015 206.0245,60.4204 Z " fill="#000000"/><text fill="#000000" font-family="sans-serif" font-size="14" lengthAdjust="spacing" textLength="140.3965" x="224.0513" y="62.291">PlayerStatusManager</text><line style="stroke:#181818;stroke-width:0.5;" x1="23.17" x2="532.8292" y1="73" y2="73"/><line style="stroke:#181818;stroke-width:0.5;" x1="23.17" x2="532.8292" y1="81" y2="81"/><ellipse cx="33.17" cy="94.7441" fill="#84BE84" rx="3" ry="3" style="stroke:#038048;stroke-width:1.0;"/><text fill="#000000" font-family="sans-serif" font-size="14" lengthAdjust="spacing" textLength="485.6592" x="42.17" y="98.5352">ApplyPlayerParamsVariation(playerParamsVariation:PlayerParams) : void</text></g><!--SRC=[oqlCJIqkI4nELGZ8IQnCBIgkvahEIImkXdA3In9BIejz4_CIqrEB5Agv5810My6ne22d4g8W8B4eCRSuBB4eCx4aCpzFem2Rg1MoMaq5AuMo_CmKhbgkMW00]--></g></svg>