<svg xmlns="http://www.w3.org/2000/svg" xmlns:xlink="http://www.w3.org/1999/xlink" contentStyleType="text/css" height="204px" preserveAspectRatio="none" style="width:471px;height:204px;background:#FFFFFF;" version="1.1" viewBox="0 0 471 204" width="471px" zoomAndPan="magnify"><defs/><g><!--cluster Players--><g id="cluster_Players"><path d="M164.51,6 L217.5246,6 A3.75,3.75 0 0 1 220.0246,8.5 L227.0246,28.4883 L461.51,28.4883 A2.5,2.5 0 0 1 464.01,30.9883 L464.01,102.5 A2.5,2.5 0 0 1 461.51,105 L164.51,105 A2.5,2.5 0 0 1 162.01,102.5 L162.01,8.5 A2.5,2.5 0 0 1 164.51,6 " fill="none" style="stroke:#000000;stroke-width:1.5;"/><line style="stroke:#000000;stroke-width:1.5;" x1="162.01" x2="227.0246" y1="28.4883" y2="28.4883"/><text fill="#000000" font-family="sans-serif" font-size="14" font-weight="bold" lengthAdjust="spacing" textLength="52.0146" x="166.01" y="21.5352">Players</text></g><!--class PlayerManager--><g id="elem_PlayerManager"><rect fill="#F1F1F1" height="48" id="PlayerManager" rx="2.5" ry="2.5" style="stroke:#181818;stroke-width:0.5;" width="130.8271" x="177.59" y="41"/><ellipse cx="192.59" cy="57" fill="#ADD1B2" rx="11" ry="11" style="stroke:#181818;stroke-width:1.0;"/><path d="M195.0631,63.1431 Q194.4821,63.4419 193.8429,63.5913 Q193.2038,63.7407 192.4982,63.7407 Q189.9914,63.7407 188.6715,62.0889 Q187.3517,60.437 187.3517,57.3159 Q187.3517,54.1865 188.6715,52.5347 Q189.9914,50.8828 192.4982,50.8828 Q193.2038,50.8828 193.8512,51.0322 Q194.4987,51.1816 195.0631,51.4805 L195.0631,54.2031 Q194.4323,53.6221 193.8388,53.3523 Q193.2453,53.0825 192.6144,53.0825 Q191.2697,53.0825 190.5849,54.1492 Q189.9001,55.2158 189.9001,57.3159 Q189.9001,59.4077 190.5849,60.4744 Q191.2697,61.541 192.6144,61.541 Q193.2453,61.541 193.8388,61.2712 Q194.4323,61.0015 195.0631,60.4204 Z " fill="#000000"/><text fill="#000000" font-family="sans-serif" font-size="14" lengthAdjust="spacing" textLength="98.8271" x="206.59" y="62.291">PlayerManager</text><line style="stroke:#181818;stroke-width:0.5;" x1="178.59" x2="307.4171" y1="73" y2="73"/><line style="stroke:#181818;stroke-width:0.5;" x1="178.59" x2="307.4171" y1="81" y2="81"/></g><!--class PlayerCore--><g id="elem_PlayerCore"><rect fill="#F1F1F1" height="48" id="PlayerCore" rx="2.5" ry="2.5" style="stroke:#181818;stroke-width:0.5;" width="104.1738" x="343.92" y="41"/><ellipse cx="358.92" cy="57" fill="#ADD1B2" rx="11" ry="11" style="stroke:#181818;stroke-width:1.0;"/><path d="M361.3931,63.1431 Q360.8121,63.4419 360.1729,63.5913 Q359.5338,63.7407 358.8282,63.7407 Q356.3214,63.7407 355.0015,62.0889 Q353.6817,60.437 353.6817,57.3159 Q353.6817,54.1865 355.0015,52.5347 Q356.3214,50.8828 358.8282,50.8828 Q359.5338,50.8828 360.1812,51.0322 Q360.8287,51.1816 361.3931,51.4805 L361.3931,54.2031 Q360.7623,53.6221 360.1688,53.3523 Q359.5753,53.0825 358.9444,53.0825 Q357.5997,53.0825 356.9149,54.1492 Q356.2301,55.2158 356.2301,57.3159 Q356.2301,59.4077 356.9149,60.4744 Q357.5997,61.541 358.9444,61.541 Q359.5753,61.541 360.1688,61.2712 Q360.7623,61.0015 361.3931,60.4204 Z " fill="#000000"/><text fill="#000000" font-family="sans-serif" font-size="14" lengthAdjust="spacing" textLength="72.1738" x="372.92" y="62.291">PlayerCore</text><line style="stroke:#181818;stroke-width:0.5;" x1="344.92" x2="447.0938" y1="73" y2="73"/><line style="stroke:#181818;stroke-width:0.5;" x1="344.92" x2="447.0938" y1="81" y2="81"/></g><!--class PlayerDispatcher--><g id="elem_PlayerDispatcher"><rect codeLine="1" fill="#F1F1F1" height="48" id="PlayerDispatcher" rx="2.5" ry="2.5" style="stroke:#181818;stroke-width:0.5;" width="145.1963" x="170.41" y="149"/><ellipse cx="185.41" cy="165" fill="#ADD1B2" rx="11" ry="11" style="stroke:#181818;stroke-width:1.0;"/><path d="M187.8831,171.1431 Q187.3021,171.4419 186.6629,171.5913 Q186.0238,171.7407 185.3182,171.7407 Q182.8114,171.7407 181.4915,170.0889 Q180.1717,168.437 180.1717,165.3159 Q180.1717,162.1865 181.4915,160.5347 Q182.8114,158.8828 185.3182,158.8828 Q186.0238,158.8828 186.6712,159.0322 Q187.3187,159.1816 187.8831,159.4805 L187.8831,162.2031 Q187.2523,161.6221 186.6588,161.3523 Q186.0653,161.0825 185.4344,161.0825 Q184.0897,161.0825 183.4049,162.1492 Q182.7201,163.2158 182.7201,165.3159 Q182.7201,167.4077 183.4049,168.4744 Q184.0897,169.541 185.4344,169.541 Q186.0653,169.541 186.6588,169.2712 Q187.2523,169.0015 187.8831,168.4204 Z " fill="#000000"/><text fill="#000000" font-family="sans-serif" font-size="14" lengthAdjust="spacing" textLength="113.1963" x="199.41" y="170.291">PlayerDispatcher</text><line style="stroke:#181818;stroke-width:0.5;" x1="171.41" x2="314.6063" y1="181" y2="181"/><line style="stroke:#181818;stroke-width:0.5;" x1="171.41" x2="314.6063" y1="189" y2="189"/></g><!--class PlayerPresenter--><g id="elem_PlayerPresenter"><rect fill="#F1F1F1" height="48" id="PlayerPresenter" rx="2.5" ry="2.5" style="stroke:#181818;stroke-width:0.5;" width="136.0156" x="7" y="41"/><ellipse cx="22" cy="57" fill="#ADD1B2" rx="11" ry="11" style="stroke:#181818;stroke-width:1.0;"/><path d="M24.4731,63.1431 Q23.8921,63.4419 23.2529,63.5913 Q22.6138,63.7407 21.9082,63.7407 Q19.4014,63.7407 18.0815,62.0889 Q16.7617,60.437 16.7617,57.3159 Q16.7617,54.1865 18.0815,52.5347 Q19.4014,50.8828 21.9082,50.8828 Q22.6138,50.8828 23.2612,51.0322 Q23.9087,51.1816 24.4731,51.4805 L24.4731,54.2031 Q23.8423,53.6221 23.2488,53.3523 Q22.6553,53.0825 22.0244,53.0825 Q20.6797,53.0825 19.9949,54.1492 Q19.3101,55.2158 19.3101,57.3159 Q19.3101,59.4077 19.9949,60.4744 Q20.6797,61.541 22.0244,61.541 Q22.6553,61.541 23.2488,61.2712 Q23.8423,61.0015 24.4731,60.4204 Z " fill="#000000"/><text fill="#000000" font-family="sans-serif" font-size="14" lengthAdjust="spacing" textLength="104.0156" x="36" y="62.291">PlayerPresenter</text><line style="stroke:#181818;stroke-width:0.5;" x1="8" x2="142.0156" y1="73" y2="73"/><line style="stroke:#181818;stroke-width:0.5;" x1="8" x2="142.0156" y1="81" y2="81"/></g><!--link PlayerManager to PlayerDispatcher--><g id="link_PlayerManager_PlayerDispatcher"><path codeLine="3" d="M243.01,89.26 C243.01,106.94 243.01,125.13 243.01,142.79 " fill="none" id="PlayerManager-to-PlayerDispatcher" style="stroke:#181818;stroke-width:1.0;"/><polygon fill="#181818" points="243.01,148.79,247.01,139.79,243.01,143.79,239.01,139.79,243.01,148.79" style="stroke:#181818;stroke-width:1.0;"/></g><!--link PlayerPresenter to PlayerDispatcher--><g id="link_PlayerPresenter_PlayerDispatcher"><path codeLine="4" d="M111.88,89.26 C139.79,106.87 172.895,127.7693 200.865,145.4093 " fill="none" id="PlayerPresenter-to-PlayerDispatcher" style="stroke:#181818;stroke-width:1.0;"/><polygon fill="#181818" points="205.94,148.61,200.4613,140.4256,201.7108,145.9428,196.1937,147.1923,205.94,148.61" style="stroke:#181818;stroke-width:1.0;"/></g><!--reverse link PlayerCore to PlayerDispatcher--><g id="link_PlayerCore_PlayerDispatcher"><path codeLine="5" d="M357.4979,92.6768 C332.0779,110.2868 302.24,130.97 276.77,148.61 " fill="none" id="PlayerCore-backto-PlayerDispatcher" style="stroke:#181818;stroke-width:1.0;stroke-dasharray:7.0,7.0;"/><polygon fill="#181818" points="362.43,89.26,352.754,91.0971,358.3199,92.1073,357.3097,97.6732,362.43,89.26" style="stroke:#181818;stroke-width:1.0;"/></g><!--SRC=[Iyv9B2vM2CX9h4mjSiaiBaWiISv8BLAevghbWWWMwq5etyIyn7IWZAwk7OPogDA0ejJYrBmI_8fWvZdd5wKgsEZfOQW30000]--></g></svg>