<svg xmlns="http://www.w3.org/2000/svg" xmlns:xlink="http://www.w3.org/1999/xlink" contentStyleType="text/css" height="236px" preserveAspectRatio="none" style="width:761px;height:236px;background:#FFFFFF;" version="1.1" viewBox="0 0 761 236" width="761px" zoomAndPan="magnify"><defs/><g><!--cluster Players--><g id="cluster_Players"><path d="M8.5,6 L61.5146,6 A3.75,3.75 0 0 1 64.0146,8.5 L71.0146,28.4883 L547.5,28.4883 A2.5,2.5 0 0 1 550,30.9883 L550,226.99 A2.5,2.5 0 0 1 547.5,229.49 L8.5,229.49 A2.5,2.5 0 0 1 6,226.99 L6,8.5 A2.5,2.5 0 0 1 8.5,6 " fill="none" style="stroke:#000000;stroke-width:1.5;"/><line style="stroke:#000000;stroke-width:1.5;" x1="6" x2="71.0146" y1="28.4883" y2="28.4883"/><text fill="#000000" font-family="sans-serif" font-size="14" font-weight="bold" lengthAdjust="spacing" textLength="52.0146" x="10" y="21.5352">Players</text></g><!--cluster Upgrades--><g id="cluster_Upgrades"><path d="M576.5,6 L646.3105,6 A3.75,3.75 0 0 1 648.8105,8.5 L655.8105,28.4883 L751.5,28.4883 A2.5,2.5 0 0 1 754,30.9883 L754,102.5 A2.5,2.5 0 0 1 751.5,105 L576.5,105 A2.5,2.5 0 0 1 574,102.5 L574,8.5 A2.5,2.5 0 0 1 576.5,6 " fill="none" style="stroke:#000000;stroke-width:1.5;"/><line style="stroke:#000000;stroke-width:1.5;" x1="574" x2="655.8105" y1="28.4883" y2="28.4883"/><text fill="#000000" font-family="sans-serif" font-size="14" font-weight="bold" lengthAdjust="spacing" textLength="68.8105" x="578" y="21.5352">Upgrades</text></g><!--class PlayerStatusManager--><g id="elem_PlayerStatusManager"><rect codeLine="2" fill="#F1F1F1" height="64.4883" id="PlayerStatusManager" rx="2.5" ry="2.5" style="stroke:#181818;stroke-width:0.5;" width="511.6592" x="22.17" y="149"/><ellipse cx="203.5513" cy="165" fill="#ADD1B2" rx="11" ry="11" style="stroke:#181818;stroke-width:1.0;"/><path d="M206.0245,171.1431 Q205.4434,171.4419 204.8043,171.5913 Q204.1651,171.7407 203.4596,171.7407 Q200.9527,171.7407 199.6329,170.0889 Q198.3131,168.437 198.3131,165.3159 Q198.3131,162.1865 199.6329,160.5347 Q200.9527,158.8828 203.4596,158.8828 Q204.1651,158.8828 204.8126,159.0322 Q205.46,159.1816 206.0245,159.4805 L206.0245,162.2031 Q205.3936,161.6221 204.8001,161.3523 Q204.2066,161.0825 203.5758,161.0825 Q202.231,161.0825 201.5462,162.1492 Q200.8614,163.2158 200.8614,165.3159 Q200.8614,167.4077 201.5462,168.4744 Q202.231,169.541 203.5758,169.541 Q204.2066,169.541 204.8001,169.2712 Q205.3936,169.0015 206.0245,168.4204 Z " fill="#000000"/><text fill="#000000" font-family="sans-serif" font-size="14" lengthAdjust="spacing" textLength="140.3965" x="224.0513" y="170.291">PlayerStatusManager</text><line style="stroke:#181818;stroke-width:0.5;" x1="23.17" x2="532.8292" y1="181" y2="181"/><line style="stroke:#181818;stroke-width:0.5;" x1="23.17" x2="532.8292" y1="189" y2="189"/><ellipse cx="33.17" cy="202.7441" fill="#84BE84" rx="3" ry="3" style="stroke:#038048;stroke-width:1.0;"/><text fill="#000000" font-family="sans-serif" font-size="14" lengthAdjust="spacing" textLength="485.6592" x="42.17" y="206.5352">ApplyPlayerParamsVariation(playerParamsVariation:PlayerParams) : void</text></g><!--class PlayerCore--><g id="elem_PlayerCore"><rect fill="#F1F1F1" height="48" id="PlayerCore" rx="2.5" ry="2.5" style="stroke:#181818;stroke-width:0.5;" width="104.1738" x="151.91" y="41"/><ellipse cx="166.91" cy="57" fill="#ADD1B2" rx="11" ry="11" style="stroke:#181818;stroke-width:1.0;"/><path d="M169.3831,63.1431 Q168.8021,63.4419 168.1629,63.5913 Q167.5238,63.7407 166.8182,63.7407 Q164.3114,63.7407 162.9915,62.0889 Q161.6717,60.437 161.6717,57.3159 Q161.6717,54.1865 162.9915,52.5347 Q164.3114,50.8828 166.8182,50.8828 Q167.5238,50.8828 168.1712,51.0322 Q168.8187,51.1816 169.3831,51.4805 L169.3831,54.2031 Q168.7523,53.6221 168.1588,53.3523 Q167.5653,53.0825 166.9344,53.0825 Q165.5897,53.0825 164.9049,54.1492 Q164.2201,55.2158 164.2201,57.3159 Q164.2201,59.4077 164.9049,60.4744 Q165.5897,61.541 166.9344,61.541 Q167.5653,61.541 168.1588,61.2712 Q168.7523,61.0015 169.3831,60.4204 Z " fill="#000000"/><text fill="#000000" font-family="sans-serif" font-size="14" lengthAdjust="spacing" textLength="72.1738" x="180.91" y="62.291">PlayerCore</text><line style="stroke:#181818;stroke-width:0.5;" x1="152.91" x2="255.0838" y1="73" y2="73"/><line style="stroke:#181818;stroke-width:0.5;" x1="152.91" x2="255.0838" y1="81" y2="81"/></g><!--class PlayerParams--><g id="elem_PlayerParams"><rect fill="#F1F1F1" height="48" id="PlayerParams" rx="2.5" ry="2.5" style="stroke:#181818;stroke-width:0.5;" width="121.4961" x="291.25" y="41"/><ellipse cx="306.25" cy="57" fill="#ADD1B2" rx="11" ry="11" style="stroke:#181818;stroke-width:1.0;"/><path d="M308.7231,63.1431 Q308.1421,63.4419 307.5029,63.5913 Q306.8638,63.7407 306.1582,63.7407 Q303.6514,63.7407 302.3315,62.0889 Q301.0117,60.437 301.0117,57.3159 Q301.0117,54.1865 302.3315,52.5347 Q303.6514,50.8828 306.1582,50.8828 Q306.8638,50.8828 307.5112,51.0322 Q308.1587,51.1816 308.7231,51.4805 L308.7231,54.2031 Q308.0923,53.6221 307.4988,53.3523 Q306.9053,53.0825 306.2744,53.0825 Q304.9297,53.0825 304.2449,54.1492 Q303.5601,55.2158 303.5601,57.3159 Q303.5601,59.4077 304.2449,60.4744 Q304.9297,61.541 306.2744,61.541 Q306.9053,61.541 307.4988,61.2712 Q308.0923,61.0015 308.7231,60.4204 Z " fill="#000000"/><text fill="#000000" font-family="sans-serif" font-size="14" lengthAdjust="spacing" textLength="89.4961" x="320.25" y="62.291">PlayerParams</text><line style="stroke:#181818;stroke-width:0.5;" x1="292.25" x2="411.7461" y1="73" y2="73"/><line style="stroke:#181818;stroke-width:0.5;" x1="292.25" x2="411.7461" y1="81" y2="81"/></g><!--class UpgradeManager--><g id="elem_UpgradeManager"><rect fill="#F1F1F1" height="48" id="UpgradeManager" rx="2.5" ry="2.5" style="stroke:#181818;stroke-width:0.5;" width="147.7803" x="590.11" y="41"/><ellipse cx="605.11" cy="57" fill="#ADD1B2" rx="11" ry="11" style="stroke:#181818;stroke-width:1.0;"/><path d="M607.5831,63.1431 Q607.0021,63.4419 606.3629,63.5913 Q605.7238,63.7407 605.0182,63.7407 Q602.5114,63.7407 601.1915,62.0889 Q599.8717,60.437 599.8717,57.3159 Q599.8717,54.1865 601.1915,52.5347 Q602.5114,50.8828 605.0182,50.8828 Q605.7238,50.8828 606.3712,51.0322 Q607.0187,51.1816 607.5831,51.4805 L607.5831,54.2031 Q606.9523,53.6221 606.3588,53.3523 Q605.7653,53.0825 605.1344,53.0825 Q603.7897,53.0825 603.1049,54.1492 Q602.4201,55.2158 602.4201,57.3159 Q602.4201,59.4077 603.1049,60.4744 Q603.7897,61.541 605.1344,61.541 Q605.7653,61.541 606.3588,61.2712 Q606.9523,61.0015 607.5831,60.4204 Z " fill="#000000"/><text fill="#000000" font-family="sans-serif" font-size="14" lengthAdjust="spacing" textLength="115.7803" x="619.11" y="62.291">UpgradeManager</text><line style="stroke:#181818;stroke-width:0.5;" x1="591.11" x2="736.8903" y1="73" y2="73"/><line style="stroke:#181818;stroke-width:0.5;" x1="591.11" x2="736.8903" y1="81" y2="81"/></g><!--link PlayerCore to PlayerStatusManager--><g id="link_PlayerCore_PlayerStatusManager"><path codeLine="6" d="M219.15,89.4 C230.23,106.5 242.1184,124.8539 254.2684,143.6139 " fill="none" id="PlayerCore-to-PlayerStatusManager" style="stroke:#181818;stroke-width:1.0;"/><polygon fill="#181818" points="257.53,148.65,255.9949,138.9215,254.812,144.4533,249.2802,143.2703,257.53,148.65" style="stroke:#181818;stroke-width:1.0;"/></g><!--link UpgradeManager to PlayerStatusManager--><g id="link_UpgradeManager_PlayerStatusManager"><path codeLine="7" d="M611.83,89.42 C592.63,97.53 570.55,106.27 550,113 C509.44,126.3 470.5469,136.9491 429.2969,147.0791 " fill="none" id="UpgradeManager-to-PlayerStatusManager" style="stroke:#181818;stroke-width:1.0;"/><polygon fill="#181818" points="423.47,148.51,433.1643,150.2482,428.3257,147.3176,431.2563,142.479,423.47,148.51" style="stroke:#181818;stroke-width:1.0;"/></g><!--link PlayerParams to PlayerStatusManager--><g id="link_PlayerParams_PlayerStatusManager"><path codeLine="8" d="M336.85,89.4 C325.77,106.5 317.1432,119.8179 304.9932,138.5779 " fill="none" id="PlayerParams-to-PlayerStatusManager" style="stroke:#181818;stroke-width:1.0;"/><polygon fill="#181818" points="298.47,148.65,305.089,145.7884,304.9932,138.5779,298.3743,141.4395,298.47,148.65" style="stroke:#181818;stroke-width:1.0;"/></g><!--SRC=[oqlCJIqkI4nELGZ8IQnCBIgkvahEIImkXdA3In9BIejz4_CIqrEB5Agv5810My6ne22d4g8W8B4eCRSuBB4eCx4aCpzFem2Rg1MoMaq5AuMo_CmKhbeWX5gg1w6TyujI5NHrxR1PpXLQa5wKc99Qh0Tbm1o5IpsgqH2xWOgri2a60000]--></g></svg>