<svg xmlns="http://www.w3.org/2000/svg" xmlns:xlink="http://www.w3.org/1999/xlink" contentStyleType="text/css" height="128px" preserveAspectRatio="none" style="width:255px;height:128px;background:#FFFFFF;" version="1.1" viewBox="0 0 255 128" width="255px" zoomAndPan="magnify"><defs/><g><!--cluster Players--><g id="cluster_Players"><path d="M8.5,6 L61.5146,6 A3.75,3.75 0 0 1 64.0146,8.5 L71.0146,28.4883 L245.5,28.4883 A2.5,2.5 0 0 1 248,30.9883 L248,118.99 A2.5,2.5 0 0 1 245.5,121.49 L8.5,121.49 A2.5,2.5 0 0 1 6,118.99 L6,8.5 A2.5,2.5 0 0 1 8.5,6 " fill="none" style="stroke:#000000;stroke-width:1.5;"/><line style="stroke:#000000;stroke-width:1.5;" x1="6" x2="71.0146" y1="28.4883" y2="28.4883"/><text fill="#000000" font-family="sans-serif" font-size="14" font-weight="bold" lengthAdjust="spacing" textLength="52.0146" x="10" y="21.5352">Players</text></g><!--class PlayerMove--><g id="elem_PlayerMove"><rect codeLine="2" fill="#F1F1F1" height="64.4883" id="PlayerMove" rx="2.5" ry="2.5" style="stroke:#181818;stroke-width:0.5;" width="210.3516" x="21.82" y="41"/><ellipse cx="84.714" cy="57" fill="#ADD1B2" rx="11" ry="11" style="stroke:#181818;stroke-width:1.0;"/><path d="M87.1872,63.1431 Q86.6061,63.4419 85.967,63.5913 Q85.3278,63.7407 84.6222,63.7407 Q82.1154,63.7407 80.7956,62.0889 Q79.4758,60.437 79.4758,57.3159 Q79.4758,54.1865 80.7956,52.5347 Q82.1154,50.8828 84.6222,50.8828 Q85.3278,50.8828 85.9753,51.0322 Q86.6227,51.1816 87.1872,51.4805 L87.1872,54.2031 Q86.5563,53.6221 85.9628,53.3523 Q85.3693,53.0825 84.7385,53.0825 Q83.3937,53.0825 82.7089,54.1492 Q82.0241,55.2158 82.0241,57.3159 Q82.0241,59.4077 82.7089,60.4744 Q83.3937,61.541 84.7385,61.541 Q85.3693,61.541 85.9628,61.2712 Q86.5563,61.0015 87.1872,60.4204 Z " fill="#000000"/><text fill="#000000" font-family="sans-serif" font-size="14" lengthAdjust="spacing" textLength="76.0635" x="105.214" y="62.291">PlayerMove</text><line style="stroke:#181818;stroke-width:0.5;" x1="22.82" x2="231.1716" y1="73" y2="73"/><line style="stroke:#181818;stroke-width:0.5;" x1="22.82" x2="231.1716" y1="81" y2="81"/><ellipse cx="32.82" cy="94.7441" fill="#84BE84" rx="3" ry="3" style="stroke:#038048;stroke-width:1.0;"/><text fill="#000000" font-family="sans-serif" font-size="14" lengthAdjust="spacing" textLength="184.3516" x="41.82" y="98.5352">Initialize(speed:float) : void</text></g><!--SRC=[oqlCJIqkI4nELGZ8IQnCBIgkvahEIImkXd9zyyjI5Qgv5810My4pBxCaCp4diofLexWWDJN5AYqdFx54Ky5AeIm_CuMhbgiM0000]--></g></svg>