<svg xmlns="http://www.w3.org/2000/svg" xmlns:xlink="http://www.w3.org/1999/xlink" contentStyleType="text/css" height="236px" preserveAspectRatio="none" style="width:582px;height:236px;background:#FFFFFF;" version="1.1" viewBox="0 0 582 236" width="582px" zoomAndPan="magnify"><defs/><g><!--cluster Players--><g id="cluster_Players"><path d="M213.66,6 L266.6746,6 A3.75,3.75 0 0 1 269.1746,8.5 L276.1746,28.4883 L507.66,28.4883 A2.5,2.5 0 0 1 510.16,30.9883 L510.16,102.5 A2.5,2.5 0 0 1 507.66,105 L213.66,105 A2.5,2.5 0 0 1 211.16,102.5 L211.16,8.5 A2.5,2.5 0 0 1 213.66,6 " fill="none" style="stroke:#000000;stroke-width:1.5;"/><line style="stroke:#000000;stroke-width:1.5;" x1="211.16" x2="276.1746" y1="28.4883" y2="28.4883"/><text fill="#000000" font-family="sans-serif" font-size="14" font-weight="bold" lengthAdjust="spacing" textLength="52.0146" x="215.16" y="21.5352">Players</text></g><!--class PlayerProvider--><g id="elem_PlayerProvider"><rect fill="#F1F1F1" height="48" id="PlayerProvider" rx="2.5" ry="2.5" style="stroke:#181818;stroke-width:0.5;" width="128.0586" x="227.13" y="41"/><ellipse cx="242.13" cy="57" fill="#ADD1B2" rx="11" ry="11" style="stroke:#181818;stroke-width:1.0;"/><path d="M244.6031,63.1431 Q244.0221,63.4419 243.3829,63.5913 Q242.7438,63.7407 242.0382,63.7407 Q239.5314,63.7407 238.2115,62.0889 Q236.8917,60.437 236.8917,57.3159 Q236.8917,54.1865 238.2115,52.5347 Q239.5314,50.8828 242.0382,50.8828 Q242.7438,50.8828 243.3912,51.0322 Q244.0387,51.1816 244.6031,51.4805 L244.6031,54.2031 Q243.9723,53.6221 243.3788,53.3523 Q242.7853,53.0825 242.1544,53.0825 Q240.8097,53.0825 240.1249,54.1492 Q239.4401,55.2158 239.4401,57.3159 Q239.4401,59.4077 240.1249,60.4744 Q240.8097,61.541 242.1544,61.541 Q242.7853,61.541 243.3788,61.2712 Q243.9723,61.0015 244.6031,60.4204 Z " fill="#000000"/><text fill="#000000" font-family="sans-serif" font-size="14" lengthAdjust="spacing" textLength="96.0586" x="256.13" y="62.291">PlayerProvider</text><line style="stroke:#181818;stroke-width:0.5;" x1="228.13" x2="354.1886" y1="73" y2="73"/><line style="stroke:#181818;stroke-width:0.5;" x1="228.13" x2="354.1886" y1="81" y2="81"/></g><!--class PlayerCore--><g id="elem_PlayerCore"><rect fill="#F1F1F1" height="48" id="PlayerCore" rx="2.5" ry="2.5" style="stroke:#181818;stroke-width:0.5;" width="104.1738" x="390.07" y="41"/><ellipse cx="405.07" cy="57" fill="#ADD1B2" rx="11" ry="11" style="stroke:#181818;stroke-width:1.0;"/><path d="M407.5431,63.1431 Q406.9621,63.4419 406.3229,63.5913 Q405.6838,63.7407 404.9782,63.7407 Q402.4714,63.7407 401.1515,62.0889 Q399.8317,60.437 399.8317,57.3159 Q399.8317,54.1865 401.1515,52.5347 Q402.4714,50.8828 404.9782,50.8828 Q405.6838,50.8828 406.3312,51.0322 Q406.9787,51.1816 407.5431,51.4805 L407.5431,54.2031 Q406.9123,53.6221 406.3188,53.3523 Q405.7253,53.0825 405.0944,53.0825 Q403.7497,53.0825 403.0649,54.1492 Q402.3801,55.2158 402.3801,57.3159 Q402.3801,59.4077 403.0649,60.4744 Q403.7497,61.541 405.0944,61.541 Q405.7253,61.541 406.3188,61.2712 Q406.9123,61.0015 407.5431,60.4204 Z " fill="#000000"/><text fill="#000000" font-family="sans-serif" font-size="14" lengthAdjust="spacing" textLength="72.1738" x="419.07" y="62.291">PlayerCore</text><line style="stroke:#181818;stroke-width:0.5;" x1="391.07" x2="493.2438" y1="73" y2="73"/><line style="stroke:#181818;stroke-width:0.5;" x1="391.07" x2="493.2438" y1="81" y2="81"/></g><!--class PlayerDispatcher--><g id="elem_PlayerDispatcher"><rect codeLine="1" fill="#F1F1F1" height="80.9766" id="PlayerDispatcher" rx="2.5" ry="2.5" style="stroke:#181818;stroke-width:0.5;" width="568.3154" x="7" y="149"/><ellipse cx="230.3096" cy="165" fill="#ADD1B2" rx="11" ry="11" style="stroke:#181818;stroke-width:1.0;"/><path d="M232.7827,171.1431 Q232.2017,171.4419 231.5625,171.5913 Q230.9233,171.7407 230.2178,171.7407 Q227.7109,171.7407 226.3911,170.0889 Q225.0713,168.437 225.0713,165.3159 Q225.0713,162.1865 226.3911,160.5347 Q227.7109,158.8828 230.2178,158.8828 Q230.9233,158.8828 231.5708,159.0322 Q232.2183,159.1816 232.7827,159.4805 L232.7827,162.2031 Q232.1519,161.6221 231.5583,161.3523 Q230.9648,161.0825 230.334,161.0825 Q228.9893,161.0825 228.3044,162.1492 Q227.6196,163.2158 227.6196,165.3159 Q227.6196,167.4077 228.3044,168.4744 Q228.9893,169.541 230.334,169.541 Q230.9648,169.541 231.5583,169.2712 Q232.1519,169.0015 232.7827,168.4204 Z " fill="#000000"/><text fill="#000000" font-family="sans-serif" font-size="14" lengthAdjust="spacing" textLength="113.1963" x="250.8096" y="170.291">PlayerDispatcher</text><line style="stroke:#181818;stroke-width:0.5;" x1="8" x2="574.3154" y1="181" y2="181"/><line style="stroke:#181818;stroke-width:0.5;" x1="8" x2="574.3154" y1="189" y2="189"/><ellipse cx="18" cy="202.7441" fill="#84BE84" rx="3" ry="3" style="stroke:#038048;stroke-width:1.0;"/><text fill="#000000" font-family="sans-serif" font-size="14" lengthAdjust="spacing" textLength="542.3154" x="27" y="206.5352">PlayerDispatcher(playerProvider:PlayerProvider, playerPresenter:PlayerPresenter)</text><ellipse cx="18" cy="219.2324" fill="#84BE84" rx="3" ry="3" style="stroke:#038048;stroke-width:1.0;"/><text fill="#000000" font-family="sans-serif" font-size="14" lengthAdjust="spacing" textLength="137.5117" x="27" y="223.0234">PostInitialize() : void</text></g><!--class PlayerPresenter--><g id="elem_PlayerPresenter"><rect fill="#F1F1F1" height="48" id="PlayerPresenter" rx="2.5" ry="2.5" style="stroke:#181818;stroke-width:0.5;" width="136.0156" x="56.15" y="41"/><ellipse cx="71.15" cy="57" fill="#ADD1B2" rx="11" ry="11" style="stroke:#181818;stroke-width:1.0;"/><path d="M73.6231,63.1431 Q73.0421,63.4419 72.4029,63.5913 Q71.7638,63.7407 71.0582,63.7407 Q68.5514,63.7407 67.2315,62.0889 Q65.9117,60.437 65.9117,57.3159 Q65.9117,54.1865 67.2315,52.5347 Q68.5514,50.8828 71.0582,50.8828 Q71.7638,50.8828 72.4112,51.0322 Q73.0587,51.1816 73.6231,51.4805 L73.6231,54.2031 Q72.9923,53.6221 72.3988,53.3523 Q71.8053,53.0825 71.1744,53.0825 Q69.8297,53.0825 69.1449,54.1492 Q68.4601,55.2158 68.4601,57.3159 Q68.4601,59.4077 69.1449,60.4744 Q69.8297,61.541 71.1744,61.541 Q71.8053,61.541 72.3988,61.2712 Q72.9923,61.0015 73.6231,60.4204 Z " fill="#000000"/><text fill="#000000" font-family="sans-serif" font-size="14" lengthAdjust="spacing" textLength="104.0156" x="85.15" y="62.291">PlayerPresenter</text><line style="stroke:#181818;stroke-width:0.5;" x1="57.15" x2="191.1656" y1="73" y2="73"/><line style="stroke:#181818;stroke-width:0.5;" x1="57.15" x2="191.1656" y1="81" y2="81"/></g><!--link PlayerProvider to PlayerDispatcher--><g id="link_PlayerProvider_PlayerDispatcher"><path codeLine="5" d="M291.16,89.33 C291.16,106.13 291.16,123.2 291.16,142.86 " fill="none" id="PlayerProvider-to-PlayerDispatcher" style="stroke:#181818;stroke-width:1.0;"/><polygon fill="#181818" points="291.16,148.86,295.16,139.86,291.16,143.86,287.16,139.86,291.16,148.86" style="stroke:#181818;stroke-width:1.0;"/></g><!--link PlayerPresenter to PlayerDispatcher--><g id="link_PlayerPresenter_PlayerDispatcher"><path codeLine="6" d="M155.96,89.33 C178.77,106.06 205.2223,125.4609 231.9523,145.0709 " fill="none" id="PlayerPresenter-to-PlayerDispatcher" style="stroke:#181818;stroke-width:1.0;"/><polygon fill="#181818" points="236.79,148.62,231.8995,140.0712,232.7586,145.6624,227.1673,146.5215,236.79,148.62" style="stroke:#181818;stroke-width:1.0;"/></g><!--reverse link PlayerCore to PlayerDispatcher--><g id="link_PlayerCore_PlayerDispatcher"><path codeLine="7" d="M408.7407,93.1103 C388.1207,109.8403 364.49,129.01 340.31,148.62 " fill="none" id="PlayerCore-backto-PlayerDispatcher" style="stroke:#181818;stroke-width:1.0;stroke-dasharray:7.0,7.0;"/><polygon fill="#181818" points="413.4,89.33,403.8908,91.8943,409.5172,92.4803,408.9313,98.1067,413.4,89.33" style="stroke:#181818;stroke-width:1.0;"/></g><!--SRC=[Iyv9B2vM2CX9h4mjSiaiBaWiISv8BLAevb800cqC2Oq2i410KNvPPafgaLK02bT70IQTMfoQLu8a3-LhmepDBoxnpCiioKpCoQnArT1Ki58eoyzCuQhbWcWeraCrM45Nrmx3BLneXkDJ13FGERyeLS56Jmz37G00]--></g></svg>