<svg xmlns="http://www.w3.org/2000/svg" xmlns:xlink="http://www.w3.org/1999/xlink" contentStyleType="text/css" height="384px" preserveAspectRatio="none" style="width:483px;height:384px;background:#FFFFFF;" version="1.1" viewBox="0 0 483 384" width="483px" zoomAndPan="magnify"><defs/><g><!--cluster Players--><g id="cluster_Players"><path d="M8.5,6 L61.5146,6 A3.75,3.75 0 0 1 64.0146,8.5 L71.0146,28.4883 L473.5,28.4883 A2.5,2.5 0 0 1 476,30.9883 L476,375.38 A2.5,2.5 0 0 1 473.5,377.88 L8.5,377.88 A2.5,2.5 0 0 1 6,375.38 L6,8.5 A2.5,2.5 0 0 1 8.5,6 " fill="none" style="stroke:#000000;stroke-width:1.5;"/><line style="stroke:#000000;stroke-width:1.5;" x1="6" x2="71.0146" y1="28.4883" y2="28.4883"/><text fill="#000000" font-family="sans-serif" font-size="14" font-weight="bold" lengthAdjust="spacing" textLength="52.0146" x="10" y="21.5352">Players</text></g><!--class PlayerCore--><g id="elem_PlayerCore"><rect codeLine="2" fill="#F1F1F1" height="212.8828" id="PlayerCore" rx="2.5" ry="2.5" style="stroke:#181818;stroke-width:0.5;" width="438.8906" x="21.55" y="149"/><ellipse cx="200.6584" cy="165" fill="#ADD1B2" rx="11" ry="11" style="stroke:#181818;stroke-width:1.0;"/><path d="M203.1315,171.1431 Q202.5505,171.4419 201.9113,171.5913 Q201.2722,171.7407 200.5666,171.7407 Q198.0598,171.7407 196.7399,170.0889 Q195.4201,168.437 195.4201,165.3159 Q195.4201,162.1865 196.7399,160.5347 Q198.0598,158.8828 200.5666,158.8828 Q201.2722,158.8828 201.9196,159.0322 Q202.5671,159.1816 203.1315,159.4805 L203.1315,162.2031 Q202.5007,161.6221 201.9072,161.3523 Q201.3137,161.0825 200.6828,161.0825 Q199.3381,161.0825 198.6533,162.1492 Q197.9685,163.2158 197.9685,165.3159 Q197.9685,167.4077 198.6533,168.4744 Q199.3381,169.541 200.6828,169.541 Q201.3137,169.541 201.9072,169.2712 Q202.5007,169.0015 203.1315,168.4204 Z " fill="#000000"/><text fill="#000000" font-family="sans-serif" font-size="14" lengthAdjust="spacing" textLength="72.1738" x="221.1584" y="170.291">PlayerCore</text><line style="stroke:#181818;stroke-width:0.5;" x1="22.55" x2="459.4406" y1="181" y2="181"/><ellipse cx="32.55" cy="194.7441" fill="none" rx="3" ry="3" style="stroke:#038048;stroke-width:1.0;"/><text fill="#000000" font-family="sans-serif" font-size="14" lengthAdjust="spacing" textLength="125.3301" x="41.55" y="198.5352">PlayerId : int &#171;get&#187;</text><ellipse cx="32.55" cy="211.2324" fill="none" rx="3" ry="3" style="stroke:#038048;stroke-width:1.0;"/><text fill="#000000" font-family="sans-serif" font-size="14" lengthAdjust="spacing" textLength="233.1465" x="41.55" y="215.0234">PlayerParams : PlayerParams &#171;get&#187;</text><ellipse cx="32.55" cy="227.7207" fill="none" rx="3" ry="3" style="stroke:#038048;stroke-width:1.0;"/><text fill="#000000" font-family="sans-serif" font-size="14" lengthAdjust="spacing" textLength="412.8906" x="41.55" y="231.5117">OnDamagedAsObservable&lt;float&gt; : Observable&lt;float&gt; &#171;get&#187;</text><ellipse cx="32.55" cy="244.209" fill="none" rx="3" ry="3" style="stroke:#038048;stroke-width:1.0;"/><text fill="#000000" font-family="sans-serif" font-size="14" lengthAdjust="spacing" textLength="345.1602" x="41.55" y="248">PlayerDeadAsync&lt;Unit&gt; : Observable&lt;Unit&gt; &#171;get&#187;</text><ellipse cx="32.55" cy="260.6973" fill="none" rx="3" ry="3" style="stroke:#038048;stroke-width:1.0;"/><text fill="#000000" font-family="sans-serif" font-size="14" lengthAdjust="spacing" textLength="379.1758" x="41.55" y="264.4883">OnResetAsObservable&lt;Unit&gt; : Observable&lt;Unit&gt; &#171;get&#187;</text><line style="stroke:#181818;stroke-width:0.5;" x1="22.55" x2="459.4406" y1="271.4414" y2="271.4414"/><ellipse cx="32.55" cy="285.1855" fill="#84BE84" rx="3" ry="3" style="stroke:#038048;stroke-width:1.0;"/><text fill="#000000" font-family="sans-serif" font-size="14" lengthAdjust="spacing" textLength="185.4795" x="41.55" y="288.9766">Initialize(playerId:int) : void</text><ellipse cx="32.55" cy="301.6738" fill="#84BE84" rx="3" ry="3" style="stroke:#038048;stroke-width:1.0;"/><text fill="#000000" font-family="sans-serif" font-size="14" lengthAdjust="spacing" textLength="345.666" x="41.55" y="305.4648">SetPlayerParams(playerParams:PlayerParams) : void</text><ellipse cx="32.55" cy="318.1621" fill="#84BE84" rx="3" ry="3" style="stroke:#038048;stroke-width:1.0;"/><text fill="#000000" font-family="sans-serif" font-size="14" lengthAdjust="spacing" textLength="228.2793" x="41.55" y="321.9531">TakeDamage(damage:float) : void</text><ellipse cx="32.55" cy="334.6504" fill="#84BE84" rx="3" ry="3" style="stroke:#038048;stroke-width:1.0;"/><text fill="#000000" font-family="sans-serif" font-size="14" lengthAdjust="spacing" textLength="105.4922" x="41.55" y="338.4414">OnDead() : void</text><ellipse cx="32.55" cy="351.1387" fill="#84BE84" rx="3" ry="3" style="stroke:#038048;stroke-width:1.0;"/><text fill="#000000" font-family="sans-serif" font-size="14" lengthAdjust="spacing" textLength="87.9238" x="41.55" y="354.9297">Reset() : void</text></g><!--class IDamageable--><g id="elem_IDamageable"><rect fill="#F1F1F1" height="48" id="IDamageable" rx="2.5" ry="2.5" style="stroke:#181818;stroke-width:0.5;" width="119.9717" x="103.01" y="41"/><ellipse cx="118.01" cy="57" fill="#ADD1B2" rx="11" ry="11" style="stroke:#181818;stroke-width:1.0;"/><path d="M120.4831,63.1431 Q119.9021,63.4419 119.2629,63.5913 Q118.6238,63.7407 117.9182,63.7407 Q115.4114,63.7407 114.0915,62.0889 Q112.7717,60.437 112.7717,57.3159 Q112.7717,54.1865 114.0915,52.5347 Q115.4114,50.8828 117.9182,50.8828 Q118.6238,50.8828 119.2712,51.0322 Q119.9187,51.1816 120.4831,51.4805 L120.4831,54.2031 Q119.8523,53.6221 119.2588,53.3523 Q118.6653,53.0825 118.0344,53.0825 Q116.6897,53.0825 116.0049,54.1492 Q115.3201,55.2158 115.3201,57.3159 Q115.3201,59.4077 116.0049,60.4744 Q116.6897,61.541 118.0344,61.541 Q118.6653,61.541 119.2588,61.2712 Q119.8523,61.0015 120.4831,60.4204 Z " fill="#000000"/><text fill="#000000" font-family="sans-serif" font-size="14" lengthAdjust="spacing" textLength="87.9717" x="132.01" y="62.291">IDamageable</text><line style="stroke:#181818;stroke-width:0.5;" x1="104.01" x2="221.9817" y1="73" y2="73"/><line style="stroke:#181818;stroke-width:0.5;" x1="104.01" x2="221.9817" y1="81" y2="81"/></g><!--class PlayerParams--><g id="elem_PlayerParams"><rect fill="#F1F1F1" height="48" id="PlayerParams" rx="2.5" ry="2.5" style="stroke:#181818;stroke-width:0.5;" width="121.4961" x="258.25" y="41"/><ellipse cx="273.25" cy="57" fill="#ADD1B2" rx="11" ry="11" style="stroke:#181818;stroke-width:1.0;"/><path d="M275.7231,63.1431 Q275.1421,63.4419 274.5029,63.5913 Q273.8638,63.7407 273.1582,63.7407 Q270.6514,63.7407 269.3315,62.0889 Q268.0117,60.437 268.0117,57.3159 Q268.0117,54.1865 269.3315,52.5347 Q270.6514,50.8828 273.1582,50.8828 Q273.8638,50.8828 274.5112,51.0322 Q275.1587,51.1816 275.7231,51.4805 L275.7231,54.2031 Q275.0923,53.6221 274.4988,53.3523 Q273.9053,53.0825 273.2744,53.0825 Q271.9297,53.0825 271.2449,54.1492 Q270.5601,55.2158 270.5601,57.3159 Q270.5601,59.4077 271.2449,60.4744 Q271.9297,61.541 273.2744,61.541 Q273.9053,61.541 274.4988,61.2712 Q275.0923,61.0015 275.7231,60.4204 Z " fill="#000000"/><text fill="#000000" font-family="sans-serif" font-size="14" lengthAdjust="spacing" textLength="89.4961" x="287.25" y="62.291">PlayerParams</text><line style="stroke:#181818;stroke-width:0.5;" x1="259.25" x2="378.7461" y1="73" y2="73"/><line style="stroke:#181818;stroke-width:0.5;" x1="259.25" x2="378.7461" y1="81" y2="81"/></g><!--reverse link IDamageable to PlayerCore--><g id="link_IDamageable_PlayerCore"><path codeLine="14" d="M179.6026,106.1122 C186.0126,121.6022 188.03,126.47 197.29,148.84 " fill="none" id="IDamageable-backto-PlayerCore" style="stroke:#181818;stroke-width:1.0;"/><polygon fill="none" points="172.72,89.48,174.0586,108.4064,185.1467,103.818,172.72,89.48" style="stroke:#181818;stroke-width:1.0;"/></g><!--link PlayerParams to PlayerCore--><g id="link_PlayerParams_PlayerCore"><path codeLine="15" d="M309.28,89.48 C302.87,104.97 296.2648,120.9262 287.0048,143.2962 " fill="none" id="PlayerParams-to-PlayerCore" style="stroke:#181818;stroke-width:1.0;"/><polygon fill="#181818" points="284.71,148.84,291.8481,142.0542,286.6224,144.2202,284.4564,138.9944,284.71,148.84" style="stroke:#181818;stroke-width:1.0;"/></g><!--SRC=[ZL7B3e8m4Bpp5JrY37v0qv0OlN2I-FY01LRJM8gXZGaY_-uAJQJLWxqqEpkpcvdLKAEvGOaiLz1XQ_geL62CApTDYwoF6BsbWxAASIQrPK9SqAQfryoXXTeGmIjzvavleOOBLckpAmosToWKYhDgmAQa_CP-BTeYaBxJfJXf6UecADowHuFMs_cdD2DCWf8FZ6yk0au1B4XvRsJbM0UqSzEEEXLytWbqHxZY54XSZHyVRGSi2eqSnm4wMlg0GvHDazvMc7WcoUoCaJlmoZjDagHppl02]--></g></svg>