<svg xmlns="http://www.w3.org/2000/svg" xmlns:xlink="http://www.w3.org/1999/xlink" contentStyleType="text/css" height="302px" preserveAspectRatio="none" style="width:516px;height:302px;background:#FFFFFF;" version="1.1" viewBox="0 0 516 302" width="516px" zoomAndPan="magnify"><defs/><g><!--cluster Players--><g id="cluster_Players"><path d="M95.55,6 L148.5646,6 A3.75,3.75 0 0 1 151.0646,8.5 L158.0646,28.4883 L506.55,28.4883 A2.5,2.5 0 0 1 509.05,30.9883 L509.05,292.94 A2.5,2.5 0 0 1 506.55,295.44 L95.55,295.44 A2.5,2.5 0 0 1 93.05,292.94 L93.05,8.5 A2.5,2.5 0 0 1 95.55,6 " fill="none" style="stroke:#000000;stroke-width:1.5;"/><line style="stroke:#000000;stroke-width:1.5;" x1="93.05" x2="158.0646" y1="28.4883" y2="28.4883"/><text fill="#000000" font-family="sans-serif" font-size="14" font-weight="bold" lengthAdjust="spacing" textLength="52.0146" x="97.05" y="21.5352">Players</text></g><!--class PlayerProvider--><g id="elem_PlayerProvider"><rect codeLine="2" fill="#F1F1F1" height="130.4414" id="PlayerProvider" rx="2.5" ry="2.5" style="stroke:#181818;stroke-width:0.5;" width="383.9092" x="109.1" y="149"/><ellipse cx="248.7753" cy="165" fill="#ADD1B2" rx="11" ry="11" style="stroke:#181818;stroke-width:1.0;"/><path d="M251.2484,171.1431 Q250.6674,171.4419 250.0282,171.5913 Q249.3891,171.7407 248.6835,171.7407 Q246.1767,171.7407 244.8568,170.0889 Q243.537,168.437 243.537,165.3159 Q243.537,162.1865 244.8568,160.5347 Q246.1767,158.8828 248.6835,158.8828 Q249.3891,158.8828 250.0365,159.0322 Q250.684,159.1816 251.2484,159.4805 L251.2484,162.2031 Q250.6176,161.6221 250.0241,161.3523 Q249.4306,161.0825 248.7997,161.0825 Q247.455,161.0825 246.7702,162.1492 Q246.0854,163.2158 246.0854,165.3159 Q246.0854,167.4077 246.7702,168.4744 Q247.455,169.541 248.7997,169.541 Q249.4306,169.541 250.0241,169.2712 Q250.6176,169.0015 251.2484,168.4204 Z " fill="#000000"/><text fill="#000000" font-family="sans-serif" font-size="14" lengthAdjust="spacing" textLength="96.0586" x="269.2753" y="170.291">PlayerProvider</text><line style="stroke:#181818;stroke-width:0.5;" x1="110.1" x2="492.0092" y1="181" y2="181"/><ellipse cx="120.1" cy="194.7441" fill="none" rx="3" ry="3" style="stroke:#038048;stroke-width:1.0;"/><text fill="#000000" font-family="sans-serif" font-size="14" lengthAdjust="spacing" textLength="264.1406" x="129.1" y="198.5352">Players : ObservableList&lt;Player&gt; &#171;get&#187;</text><ellipse cx="120.1" cy="211.2324" fill="none" rx="3" ry="3" style="stroke:#038048;stroke-width:1.0;"/><text fill="#000000" font-family="sans-serif" font-size="14" lengthAdjust="spacing" textLength="357.9092" x="129.1" y="215.0234">OnPlayerDeadAsObservable : Observable&lt;int&gt; &#171;get&#187;</text><line style="stroke:#181818;stroke-width:0.5;" x1="110.1" x2="492.0092" y1="221.9766" y2="221.9766"/><ellipse cx="120.1" cy="235.7207" fill="#84BE84" rx="3" ry="3" style="stroke:#038048;stroke-width:1.0;"/><text fill="#000000" font-family="sans-serif" font-size="14" lengthAdjust="spacing" textLength="117.2705" x="129.1" y="239.5117">Construct() : void</text><ellipse cx="120.1" cy="252.209" fill="#84BE84" rx="3" ry="3" style="stroke:#038048;stroke-width:1.0;"/><text fill="#000000" font-family="sans-serif" font-size="14" lengthAdjust="spacing" textLength="137.5117" x="129.1" y="256">PostInitialize() : void</text><ellipse cx="120.1" cy="268.6973" fill="#84BE84" rx="3" ry="3" style="stroke:#038048;stroke-width:1.0;"/><text fill="#000000" font-family="sans-serif" font-size="14" lengthAdjust="spacing" textLength="135.4199" x="129.1" y="272.4883">ResetPlayers() : void</text></g><!--class PlayerCore--><g id="elem_PlayerCore"><rect fill="#F1F1F1" height="48" id="PlayerCore" rx="2.5" ry="2.5" style="stroke:#181818;stroke-width:0.5;" width="104.1738" x="248.96" y="41"/><ellipse cx="263.96" cy="57" fill="#ADD1B2" rx="11" ry="11" style="stroke:#181818;stroke-width:1.0;"/><path d="M266.4331,63.1431 Q265.8521,63.4419 265.2129,63.5913 Q264.5738,63.7407 263.8682,63.7407 Q261.3614,63.7407 260.0415,62.0889 Q258.7217,60.437 258.7217,57.3159 Q258.7217,54.1865 260.0415,52.5347 Q261.3614,50.8828 263.8682,50.8828 Q264.5738,50.8828 265.2212,51.0322 Q265.8687,51.1816 266.4331,51.4805 L266.4331,54.2031 Q265.8023,53.6221 265.2088,53.3523 Q264.6153,53.0825 263.9844,53.0825 Q262.6397,53.0825 261.9549,54.1492 Q261.2701,55.2158 261.2701,57.3159 Q261.2701,59.4077 261.9549,60.4744 Q262.6397,61.541 263.9844,61.541 Q264.6153,61.541 265.2088,61.2712 Q265.8023,61.0015 266.4331,60.4204 Z " fill="#000000"/><text fill="#000000" font-family="sans-serif" font-size="14" lengthAdjust="spacing" textLength="72.1738" x="277.96" y="62.291">PlayerCore</text><line style="stroke:#181818;stroke-width:0.5;" x1="249.96" x2="352.1338" y1="73" y2="73"/><line style="stroke:#181818;stroke-width:0.5;" x1="249.96" x2="352.1338" y1="81" y2="81"/></g><!--class Battle--><g id="elem_Battle"><rect fill="#F1F1F1" height="48" id="Battle" rx="2.5" ry="2.5" style="stroke:#181818;stroke-width:0.5;" width="70.1035" x="7" y="41"/><ellipse cx="22" cy="57" fill="#ADD1B2" rx="11" ry="11" style="stroke:#181818;stroke-width:1.0;"/><path d="M24.4731,63.1431 Q23.8921,63.4419 23.2529,63.5913 Q22.6138,63.7407 21.9082,63.7407 Q19.4014,63.7407 18.0815,62.0889 Q16.7617,60.437 16.7617,57.3159 Q16.7617,54.1865 18.0815,52.5347 Q19.4014,50.8828 21.9082,50.8828 Q22.6138,50.8828 23.2612,51.0322 Q23.9087,51.1816 24.4731,51.4805 L24.4731,54.2031 Q23.8423,53.6221 23.2488,53.3523 Q22.6553,53.0825 22.0244,53.0825 Q20.6797,53.0825 19.9949,54.1492 Q19.3101,55.2158 19.3101,57.3159 Q19.3101,59.4077 19.9949,60.4744 Q20.6797,61.541 22.0244,61.541 Q22.6553,61.541 23.2488,61.2712 Q23.8423,61.0015 24.4731,60.4204 Z " fill="#000000"/><text fill="#000000" font-family="sans-serif" font-size="14" lengthAdjust="spacing" textLength="38.1035" x="36" y="62.291">Battle</text><line style="stroke:#181818;stroke-width:0.5;" x1="8" x2="76.1035" y1="73" y2="73"/><line style="stroke:#181818;stroke-width:0.5;" x1="8" x2="76.1035" y1="81" y2="81"/></g><!--link PlayerCore to PlayerProvider--><g id="link_PlayerCore_PlayerProvider"><path codeLine="10" d="M301.05,89.33 C301.05,105.38 301.05,115.55 301.05,136.69 " fill="none" id="PlayerCore-to-PlayerProvider" style="stroke:#181818;stroke-width:1.0;"/><polygon fill="#181818" points="301.05,148.69,305.05,142.69,301.05,136.69,297.05,142.69,301.05,148.69" style="stroke:#181818;stroke-width:1.0;"/></g><!--link Battle to PlayerProvider--><g id="link_Battle_PlayerProvider"><path codeLine="11" d="M77.52,86.16 C105.99,102.34 142.404,123.0347 182.034,145.5647 " fill="none" id="Battle-to-PlayerProvider" style="stroke:#181818;stroke-width:1.0;"/><polygon fill="#181818" points="187.25,148.53,181.4029,140.6046,182.9033,146.0589,177.4491,147.5593,187.25,148.53" style="stroke:#181818;stroke-width:1.0;"/></g><!--SRC=[NO_T2i8m38NlznIzz8Vv058AEcy4OSCtoBOWWTfA4miwV7SdwnWskGZ9TmwSEBWZFw13rLXuOU2Xw2mmfxK9FbAFGGs56cixgzHUrIrZYD1Ql12Bde1HMjzGZ4dosatt4q9_uCNovzVa93TMth64PoUhzQYDdlevW6SvEn82Is_CwHKP9MLSs6ViTDnDi_81LLbkiZUB8uZO7p4P-G80]--></g></svg>