<svg xmlns="http://www.w3.org/2000/svg" xmlns:xlink="http://www.w3.org/1999/xlink" contentStyleType="text/css" height="144px" preserveAspectRatio="none" style="width:413px;height:144px;background:#FFFFFF;" version="1.1" viewBox="0 0 413 144" width="413px" zoomAndPan="magnify"><defs/><g><!--cluster Players--><g id="cluster_Players"><path d="M8.5,6 L61.5146,6 A3.75,3.75 0 0 1 64.0146,8.5 L71.0146,28.4883 L403.5,28.4883 A2.5,2.5 0 0 1 406,30.9883 L406,135.48 A2.5,2.5 0 0 1 403.5,137.98 L8.5,137.98 A2.5,2.5 0 0 1 6,135.48 L6,8.5 A2.5,2.5 0 0 1 8.5,6 " fill="none" style="stroke:#000000;stroke-width:1.5;"/><line style="stroke:#000000;stroke-width:1.5;" x1="6" x2="71.0146" y1="28.4883" y2="28.4883"/><text fill="#000000" font-family="sans-serif" font-size="14" font-weight="bold" lengthAdjust="spacing" textLength="52.0146" x="10" y="21.5352">Players</text></g><!--class PlayerInput--><g id="elem_PlayerInput"><rect codeLine="2" fill="#F1F1F1" height="80.9766" id="PlayerInput" rx="2.5" ry="2.5" style="stroke:#181818;stroke-width:0.5;" width="367.6191" x="22.19" y="41"/><ellipse cx="163.8409" cy="57" fill="#ADD1B2" rx="11" ry="11" style="stroke:#181818;stroke-width:1.0;"/><path d="M166.314,63.1431 Q165.733,63.4419 165.0938,63.5913 Q164.4546,63.7407 163.7491,63.7407 Q161.2422,63.7407 159.9224,62.0889 Q158.6026,60.437 158.6026,57.3159 Q158.6026,54.1865 159.9224,52.5347 Q161.2422,50.8828 163.7491,50.8828 Q164.4546,50.8828 165.1021,51.0322 Q165.7496,51.1816 166.314,51.4805 L166.314,54.2031 Q165.6832,53.6221 165.0897,53.3523 Q164.4962,53.0825 163.8653,53.0825 Q162.5206,53.0825 161.8358,54.1492 Q161.1509,55.2158 161.1509,57.3159 Q161.1509,59.4077 161.8358,60.4744 Q162.5206,61.541 163.8653,61.541 Q164.4962,61.541 165.0897,61.2712 Q165.6832,61.0015 166.314,60.4204 Z " fill="#000000"/><text fill="#000000" font-family="sans-serif" font-size="14" lengthAdjust="spacing" textLength="75.8174" x="184.3409" y="62.291">PlayerInput</text><line style="stroke:#181818;stroke-width:0.5;" x1="23.19" x2="388.8091" y1="73" y2="73"/><ellipse cx="33.19" cy="86.7441" fill="none" rx="3" ry="3" style="stroke:#038048;stroke-width:1.0;"/><text fill="#000000" font-family="sans-serif" font-size="14" lengthAdjust="spacing" textLength="341.6191" x="42.19" y="90.5352">Move : ReadOnlyReactiveProperty&lt;Vector2&gt; &#171;get&#187;</text><ellipse cx="33.19" cy="103.2324" fill="none" rx="3" ry="3" style="stroke:#038048;stroke-width:1.0;"/><text fill="#000000" font-family="sans-serif" font-size="14" lengthAdjust="spacing" textLength="326.6484" x="42.19" y="107.0234">Attack : ReadOnlyReactiveProperty&lt;bool&gt; &#171;get&#187;</text><line style="stroke:#181818;stroke-width:0.5;" x1="23.19" x2="388.8091" y1="113.9766" y2="113.9766"/></g><!--SRC=[oqlCJIqkI4nELGZ8IQnCBIgkvahEIImkXd8zymfAInIgkHI0G5l1DxyiLS5A8IWrCSK_BwSII2UNP9Qb1XJb5wGMbLJQXAKcb-GN6TafsDYafvROsK6rEPQK92PduzEOb9-VWz1LorKB0000]--></g></svg>