<svg xmlns="http://www.w3.org/2000/svg" xmlns:xlink="http://www.w3.org/1999/xlink" contentStyleType="text/css" height="236px" preserveAspectRatio="none" style="width:265px;height:236px;background:#FFFFFF;" version="1.1" viewBox="0 0 265 236" width="265px" zoomAndPan="magnify"><defs/><g><!--cluster Players--><g id="cluster_Players"><path d="M8.5,6 L61.5146,6 A3.75,3.75 0 0 1 64.0146,8.5 L71.0146,28.4883 L255.5,28.4883 A2.5,2.5 0 0 1 258,30.9883 L258,226.99 A2.5,2.5 0 0 1 255.5,229.49 L8.5,229.49 A2.5,2.5 0 0 1 6,226.99 L6,8.5 A2.5,2.5 0 0 1 8.5,6 " fill="none" style="stroke:#000000;stroke-width:1.5;"/><line style="stroke:#000000;stroke-width:1.5;" x1="6" x2="71.0146" y1="28.4883" y2="28.4883"/><text fill="#000000" font-family="sans-serif" font-size="14" font-weight="bold" lengthAdjust="spacing" textLength="52.0146" x="10" y="21.5352">Players</text></g><!--class PlayerSetting--><g id="elem_PlayerSetting"><rect codeLine="2" fill="#F1F1F1" height="64.4883" id="PlayerSetting" rx="2.5" ry="2.5" style="stroke:#181818;stroke-width:0.5;" width="219.3545" x="22.32" y="41"/><ellipse cx="83.9289" cy="57" fill="#ADD1B2" rx="11" ry="11" style="stroke:#181818;stroke-width:1.0;"/><path d="M86.402,63.1431 Q85.821,63.4419 85.1818,63.5913 Q84.5427,63.7407 83.8371,63.7407 Q81.3303,63.7407 80.0104,62.0889 Q78.6906,60.437 78.6906,57.3159 Q78.6906,54.1865 80.0104,52.5347 Q81.3303,50.8828 83.8371,50.8828 Q84.5427,50.8828 85.1901,51.0322 Q85.8376,51.1816 86.402,51.4805 L86.402,54.2031 Q85.7712,53.6221 85.1777,53.3523 Q84.5842,53.0825 83.9533,53.0825 Q82.6086,53.0825 81.9238,54.1492 Q81.2389,55.2158 81.2389,57.3159 Q81.2389,59.4077 81.9238,60.4744 Q82.6086,61.541 83.9533,61.541 Q84.5842,61.541 85.1777,61.2712 Q85.7712,61.0015 86.402,60.4204 Z " fill="#000000"/><text fill="#000000" font-family="sans-serif" font-size="14" lengthAdjust="spacing" textLength="87.6367" x="104.4289" y="62.291">PlayerSetting</text><line style="stroke:#181818;stroke-width:0.5;" x1="23.32" x2="240.6745" y1="73" y2="73"/><ellipse cx="33.32" cy="86.7441" fill="none" rx="3" ry="3" style="stroke:#038048;stroke-width:1.0;"/><text fill="#000000" font-family="sans-serif" font-size="14" lengthAdjust="spacing" textLength="193.3545" x="42.32" y="90.5352">playerParams : PlayerParams</text><line style="stroke:#181818;stroke-width:0.5;" x1="23.32" x2="240.6745" y1="97.4883" y2="97.4883"/></g><!--class PlayerParams--><g id="elem_PlayerParams"><rect fill="#F1F1F1" height="48" id="PlayerParams" rx="2.5" ry="2.5" style="stroke:#181818;stroke-width:0.5;" width="121.4961" x="71.25" y="165.49"/><ellipse cx="86.25" cy="181.49" fill="#ADD1B2" rx="11" ry="11" style="stroke:#181818;stroke-width:1.0;"/><path d="M88.7231,187.6331 Q88.1421,187.9319 87.5029,188.0813 Q86.8638,188.2307 86.1582,188.2307 Q83.6514,188.2307 82.3315,186.5789 Q81.0117,184.927 81.0117,181.8059 Q81.0117,178.6765 82.3315,177.0247 Q83.6514,175.3728 86.1582,175.3728 Q86.8638,175.3728 87.5112,175.5222 Q88.1587,175.6716 88.7231,175.9705 L88.7231,178.6931 Q88.0923,178.1121 87.4988,177.8423 Q86.9053,177.5725 86.2744,177.5725 Q84.9297,177.5725 84.2449,178.6392 Q83.5601,179.7058 83.5601,181.8059 Q83.5601,183.8977 84.2449,184.9644 Q84.9297,186.031 86.2744,186.031 Q86.9053,186.031 87.4988,185.7612 Q88.0923,185.4915 88.7231,184.9104 Z " fill="#000000"/><text fill="#000000" font-family="sans-serif" font-size="14" lengthAdjust="spacing" textLength="89.4961" x="100.25" y="186.781">PlayerParams</text><line style="stroke:#181818;stroke-width:0.5;" x1="72.25" x2="191.7461" y1="197.49" y2="197.49"/><line style="stroke:#181818;stroke-width:0.5;" x1="72.25" x2="191.7461" y1="205.49" y2="205.49"/></g><!--link PlayerSetting to PlayerParams--><g id="link_PlayerSetting_PlayerParams"><path codeLine="5" d="M132,105.77 C132,124.52 132,141.92 132,159.05 " fill="none" id="PlayerSetting-to-PlayerParams" style="stroke:#181818;stroke-width:1.0;"/><polygon fill="#181818" points="132,165.05,136,156.05,132,160.05,128,156.05,132,165.05" style="stroke:#181818;stroke-width:1.0;"/></g><!--SRC=[oqlCJIqkI4nELGZ8IQnCBIgkvahEIImkXdA3KqjAClFI5Qgv5810Mw40B1gGM9IOMwnW1LK4uNBLSg7gqTMrGrC00000]--></g></svg>