<svg xmlns="http://www.w3.org/2000/svg" xmlns:xlink="http://www.w3.org/1999/xlink" contentStyleType="text/css" height="236px" preserveAspectRatio="none" style="width:265px;height:236px;background:#FFFFFF;" version="1.1" viewBox="0 0 265 236" width="265px" zoomAndPan="magnify"><defs/><g><!--cluster Players--><g id="cluster_Players"><path d="M8.5,6 L61.5146,6 A3.75,3.75 0 0 1 64.0146,8.5 L71.0146,28.4883 L255.5,28.4883 A2.5,2.5 0 0 1 258,30.9883 L258,226.99 A2.5,2.5 0 0 1 255.5,229.49 L8.5,229.49 A2.5,2.5 0 0 1 6,226.99 L6,8.5 A2.5,2.5 0 0 1 8.5,6 " fill="none" style="stroke:#000000;stroke-width:1.5;"/><line style="stroke:#000000;stroke-width:1.5;" x1="6" x2="71.0146" y1="28.4883" y2="28.4883"/><text fill="#000000" font-family="sans-serif" font-size="14" font-weight="bold" lengthAdjust="spacing" textLength="52.0146" x="10" y="21.5352">Players</text></g><!--class PlayerSetting--><g id="elem_PlayerSetting"><rect codeLine="2" fill="#F1F1F1" height="64.4883" id="PlayerSetting" rx="2.5" ry="2.5" style="stroke:#181818;stroke-width:0.5;" width="219.3545" x="22.32" y="149"/><ellipse cx="83.9289" cy="165" fill="#ADD1B2" rx="11" ry="11" style="stroke:#181818;stroke-width:1.0;"/><path d="M86.402,171.1431 Q85.821,171.4419 85.1818,171.5913 Q84.5427,171.7407 83.8371,171.7407 Q81.3303,171.7407 80.0104,170.0889 Q78.6906,168.437 78.6906,165.3159 Q78.6906,162.1865 80.0104,160.5347 Q81.3303,158.8828 83.8371,158.8828 Q84.5427,158.8828 85.1901,159.0322 Q85.8376,159.1816 86.402,159.4805 L86.402,162.2031 Q85.7712,161.6221 85.1777,161.3523 Q84.5842,161.0825 83.9533,161.0825 Q82.6086,161.0825 81.9238,162.1492 Q81.2389,163.2158 81.2389,165.3159 Q81.2389,167.4077 81.9238,168.4744 Q82.6086,169.541 83.9533,169.541 Q84.5842,169.541 85.1777,169.2712 Q85.7712,169.0015 86.402,168.4204 Z " fill="#000000"/><text fill="#000000" font-family="sans-serif" font-size="14" lengthAdjust="spacing" textLength="87.6367" x="104.4289" y="170.291">PlayerSetting</text><line style="stroke:#181818;stroke-width:0.5;" x1="23.32" x2="240.6745" y1="181" y2="181"/><ellipse cx="33.32" cy="194.7441" fill="none" rx="3" ry="3" style="stroke:#038048;stroke-width:1.0;"/><text fill="#000000" font-family="sans-serif" font-size="14" lengthAdjust="spacing" textLength="193.3545" x="42.32" y="198.5352">playerParams : PlayerParams</text><line style="stroke:#181818;stroke-width:0.5;" x1="23.32" x2="240.6745" y1="205.4883" y2="205.4883"/></g><!--class PlayerParams--><g id="elem_PlayerParams"><rect fill="#F1F1F1" height="48" id="PlayerParams" rx="2.5" ry="2.5" style="stroke:#181818;stroke-width:0.5;" width="121.4961" x="71.25" y="41"/><ellipse cx="86.25" cy="57" fill="#ADD1B2" rx="11" ry="11" style="stroke:#181818;stroke-width:1.0;"/><path d="M88.7231,63.1431 Q88.1421,63.4419 87.5029,63.5913 Q86.8638,63.7407 86.1582,63.7407 Q83.6514,63.7407 82.3315,62.0889 Q81.0117,60.437 81.0117,57.3159 Q81.0117,54.1865 82.3315,52.5347 Q83.6514,50.8828 86.1582,50.8828 Q86.8638,50.8828 87.5112,51.0322 Q88.1587,51.1816 88.7231,51.4805 L88.7231,54.2031 Q88.0923,53.6221 87.4988,53.3523 Q86.9053,53.0825 86.2744,53.0825 Q84.9297,53.0825 84.2449,54.1492 Q83.5601,55.2158 83.5601,57.3159 Q83.5601,59.4077 84.2449,60.4744 Q84.9297,61.541 86.2744,61.541 Q86.9053,61.541 87.4988,61.2712 Q88.0923,61.0015 88.7231,60.4204 Z " fill="#000000"/><text fill="#000000" font-family="sans-serif" font-size="14" lengthAdjust="spacing" textLength="89.4961" x="100.25" y="62.291">PlayerParams</text><line style="stroke:#181818;stroke-width:0.5;" x1="72.25" x2="191.7461" y1="73" y2="73"/><line style="stroke:#181818;stroke-width:0.5;" x1="72.25" x2="191.7461" y1="81" y2="81"/></g><!--link PlayerParams to PlayerSetting--><g id="link_PlayerParams_PlayerSetting"><path codeLine="5" d="M132,89.4 C132,106.5 132,117.89 132,136.65 " fill="none" id="PlayerParams-to-PlayerSetting" style="stroke:#181818;stroke-width:1.0;"/><polygon fill="#181818" points="132,148.65,136,142.65,132,136.65,128,142.65,132,148.65" style="stroke:#181818;stroke-width:1.0;"/></g><!--SRC=[oqlCJIqkI4nELGZ8IQnCBIgkvahEIImkXdA3KqjAClFI5Qgv5810Mw40B1gGM9IOMwnW1LK4uNBLSa6Dq4CMLj3LrK8rZAiM0000]--></g></svg>