<svg xmlns="http://www.w3.org/2000/svg" xmlns:xlink="http://www.w3.org/1999/xlink" contentStyleType="text/css" height="492px" preserveAspectRatio="none" style="width:483px;height:492px;background:#FFFFFF;" version="1.1" viewBox="0 0 483 492" width="483px" zoomAndPan="magnify"><defs/><g><!--cluster Players--><g id="cluster_Players"><path d="M8.5,6 L61.5146,6 A3.75,3.75 0 0 1 64.0146,8.5 L71.0146,28.4883 L473.5,28.4883 A2.5,2.5 0 0 1 476,30.9883 L476,483.38 A2.5,2.5 0 0 1 473.5,485.88 L8.5,485.88 A2.5,2.5 0 0 1 6,483.38 L6,8.5 A2.5,2.5 0 0 1 8.5,6 " fill="none" style="stroke:#000000;stroke-width:1.5;"/><line style="stroke:#000000;stroke-width:1.5;" x1="6" x2="71.0146" y1="28.4883" y2="28.4883"/><text fill="#000000" font-family="sans-serif" font-size="14" font-weight="bold" lengthAdjust="spacing" textLength="52.0146" x="10" y="21.5352">Players</text></g><!--class PlayerCore--><g id="elem_PlayerCore"><rect codeLine="2" fill="#F1F1F1" height="212.8828" id="PlayerCore" rx="2.5" ry="2.5" style="stroke:#181818;stroke-width:0.5;" width="438.8906" x="21.55" y="149"/><ellipse cx="200.6584" cy="165" fill="#ADD1B2" rx="11" ry="11" style="stroke:#181818;stroke-width:1.0;"/><path d="M203.1315,171.1431 Q202.5505,171.4419 201.9113,171.5913 Q201.2722,171.7407 200.5666,171.7407 Q198.0598,171.7407 196.7399,170.0889 Q195.4201,168.437 195.4201,165.3159 Q195.4201,162.1865 196.7399,160.5347 Q198.0598,158.8828 200.5666,158.8828 Q201.2722,158.8828 201.9196,159.0322 Q202.5671,159.1816 203.1315,159.4805 L203.1315,162.2031 Q202.5007,161.6221 201.9072,161.3523 Q201.3137,161.0825 200.6828,161.0825 Q199.3381,161.0825 198.6533,162.1492 Q197.9685,163.2158 197.9685,165.3159 Q197.9685,167.4077 198.6533,168.4744 Q199.3381,169.541 200.6828,169.541 Q201.3137,169.541 201.9072,169.2712 Q202.5007,169.0015 203.1315,168.4204 Z " fill="#000000"/><text fill="#000000" font-family="sans-serif" font-size="14" lengthAdjust="spacing" textLength="72.1738" x="221.1584" y="170.291">PlayerCore</text><line style="stroke:#181818;stroke-width:0.5;" x1="22.55" x2="459.4406" y1="181" y2="181"/><ellipse cx="32.55" cy="194.7441" fill="none" rx="3" ry="3" style="stroke:#038048;stroke-width:1.0;"/><text fill="#000000" font-family="sans-serif" font-size="14" lengthAdjust="spacing" textLength="125.3301" x="41.55" y="198.5352">PlayerId : int &#171;get&#187;</text><ellipse cx="32.55" cy="211.2324" fill="none" rx="3" ry="3" style="stroke:#038048;stroke-width:1.0;"/><text fill="#000000" font-family="sans-serif" font-size="14" lengthAdjust="spacing" textLength="233.1465" x="41.55" y="215.0234">PlayerParams : PlayerParams &#171;get&#187;</text><ellipse cx="32.55" cy="227.7207" fill="none" rx="3" ry="3" style="stroke:#038048;stroke-width:1.0;"/><text fill="#000000" font-family="sans-serif" font-size="14" lengthAdjust="spacing" textLength="412.8906" x="41.55" y="231.5117">OnDamagedAsObservable&lt;float&gt; : Observable&lt;float&gt; &#171;get&#187;</text><ellipse cx="32.55" cy="244.209" fill="none" rx="3" ry="3" style="stroke:#038048;stroke-width:1.0;"/><text fill="#000000" font-family="sans-serif" font-size="14" lengthAdjust="spacing" textLength="345.1602" x="41.55" y="248">PlayerDeadAsync&lt;Unit&gt; : Observable&lt;Unit&gt; &#171;get&#187;</text><ellipse cx="32.55" cy="260.6973" fill="none" rx="3" ry="3" style="stroke:#038048;stroke-width:1.0;"/><text fill="#000000" font-family="sans-serif" font-size="14" lengthAdjust="spacing" textLength="379.1758" x="41.55" y="264.4883">OnResetAsObservable&lt;Unit&gt; : Observable&lt;Unit&gt; &#171;get&#187;</text><line style="stroke:#181818;stroke-width:0.5;" x1="22.55" x2="459.4406" y1="271.4414" y2="271.4414"/><ellipse cx="32.55" cy="285.1855" fill="#84BE84" rx="3" ry="3" style="stroke:#038048;stroke-width:1.0;"/><text fill="#000000" font-family="sans-serif" font-size="14" lengthAdjust="spacing" textLength="185.4795" x="41.55" y="288.9766">Initialize(playerId:int) : void</text><ellipse cx="32.55" cy="301.6738" fill="#84BE84" rx="3" ry="3" style="stroke:#038048;stroke-width:1.0;"/><text fill="#000000" font-family="sans-serif" font-size="14" lengthAdjust="spacing" textLength="345.666" x="41.55" y="305.4648">SetPlayerParams(playerParams:PlayerParams) : void</text><ellipse cx="32.55" cy="318.1621" fill="#84BE84" rx="3" ry="3" style="stroke:#038048;stroke-width:1.0;"/><text fill="#000000" font-family="sans-serif" font-size="14" lengthAdjust="spacing" textLength="228.2793" x="41.55" y="321.9531">TakeDamage(damage:float) : void</text><ellipse cx="32.55" cy="334.6504" fill="#84BE84" rx="3" ry="3" style="stroke:#038048;stroke-width:1.0;"/><text fill="#000000" font-family="sans-serif" font-size="14" lengthAdjust="spacing" textLength="105.4922" x="41.55" y="338.4414">OnDead() : void</text><ellipse cx="32.55" cy="351.1387" fill="#84BE84" rx="3" ry="3" style="stroke:#038048;stroke-width:1.0;"/><text fill="#000000" font-family="sans-serif" font-size="14" lengthAdjust="spacing" textLength="87.9238" x="41.55" y="354.9297">Reset() : void</text></g><!--class IDamageable--><g id="elem_IDamageable"><rect fill="#F1F1F1" height="48" id="IDamageable" rx="2.5" ry="2.5" style="stroke:#181818;stroke-width:0.5;" width="119.9717" x="181.01" y="41"/><ellipse cx="196.01" cy="57" fill="#ADD1B2" rx="11" ry="11" style="stroke:#181818;stroke-width:1.0;"/><path d="M198.4831,63.1431 Q197.9021,63.4419 197.2629,63.5913 Q196.6238,63.7407 195.9182,63.7407 Q193.4114,63.7407 192.0915,62.0889 Q190.7717,60.437 190.7717,57.3159 Q190.7717,54.1865 192.0915,52.5347 Q193.4114,50.8828 195.9182,50.8828 Q196.6238,50.8828 197.2712,51.0322 Q197.9187,51.1816 198.4831,51.4805 L198.4831,54.2031 Q197.8523,53.6221 197.2588,53.3523 Q196.6653,53.0825 196.0344,53.0825 Q194.6897,53.0825 194.0049,54.1492 Q193.3201,55.2158 193.3201,57.3159 Q193.3201,59.4077 194.0049,60.4744 Q194.6897,61.541 196.0344,61.541 Q196.6653,61.541 197.2588,61.2712 Q197.8523,61.0015 198.4831,60.4204 Z " fill="#000000"/><text fill="#000000" font-family="sans-serif" font-size="14" lengthAdjust="spacing" textLength="87.9717" x="210.01" y="62.291">IDamageable</text><line style="stroke:#181818;stroke-width:0.5;" x1="182.01" x2="299.9817" y1="73" y2="73"/><line style="stroke:#181818;stroke-width:0.5;" x1="182.01" x2="299.9817" y1="81" y2="81"/></g><!--class PlayerParams--><g id="elem_PlayerParams"><rect fill="#F1F1F1" height="48" id="PlayerParams" rx="2.5" ry="2.5" style="stroke:#181818;stroke-width:0.5;" width="121.4961" x="180.25" y="421.88"/><ellipse cx="195.25" cy="437.88" fill="#ADD1B2" rx="11" ry="11" style="stroke:#181818;stroke-width:1.0;"/><path d="M197.7231,444.0231 Q197.1421,444.3219 196.5029,444.4713 Q195.8638,444.6207 195.1582,444.6207 Q192.6514,444.6207 191.3315,442.9689 Q190.0117,441.317 190.0117,438.1959 Q190.0117,435.0665 191.3315,433.4147 Q192.6514,431.7628 195.1582,431.7628 Q195.8638,431.7628 196.5112,431.9122 Q197.1587,432.0616 197.7231,432.3605 L197.7231,435.0831 Q197.0923,434.5021 196.4988,434.2323 Q195.9053,433.9625 195.2744,433.9625 Q193.9297,433.9625 193.2449,435.0292 Q192.5601,436.0958 192.5601,438.1959 Q192.5601,440.2877 193.2449,441.3544 Q193.9297,442.421 195.2744,442.421 Q195.9053,442.421 196.4988,442.1512 Q197.0923,441.8815 197.7231,441.3004 Z " fill="#000000"/><text fill="#000000" font-family="sans-serif" font-size="14" lengthAdjust="spacing" textLength="89.4961" x="209.25" y="443.171">PlayerParams</text><line style="stroke:#181818;stroke-width:0.5;" x1="181.25" x2="300.7461" y1="453.88" y2="453.88"/><line style="stroke:#181818;stroke-width:0.5;" x1="181.25" x2="300.7461" y1="461.88" y2="461.88"/></g><!--reverse link IDamageable to PlayerCore--><g id="link_IDamageable_PlayerCore"><path codeLine="14" d="M241,107.48 C241,122.97 241,126.47 241,148.84 " fill="none" id="IDamageable-backto-PlayerCore" style="stroke:#181818;stroke-width:1.0;"/><polygon fill="none" points="241,89.48,235,107.48,247,107.48,241,89.48" style="stroke:#181818;stroke-width:1.0;"/></g><!--link PlayerCore to PlayerParams--><g id="link_PlayerCore_PlayerParams"><path codeLine="15" d="M241,362.23 C241,384.54 241,399.98 241,415.43 " fill="none" id="PlayerCore-to-PlayerParams" style="stroke:#181818;stroke-width:1.0;"/><polygon fill="#181818" points="241,421.43,245,412.43,241,416.43,237,412.43,241,421.43" style="stroke:#181818;stroke-width:1.0;"/></g><!--SRC=[ZL7B3e8m4BptAth467w0D2H6BfmqFZvWXPKqba9eGuBelxj24sdrO2_DpixiPcOrr6XQA93l5GpOcP4L2ennvRRfa8-CqrixA2zvmgMsN8WARPfwpJrqK1iYUANFtEaCQgYmt9ZTnM3NmqMXkAe6R4hAR-pNeWo1z8Ckn5dBK3T3uTO36hJUpZ-bEM4IbBnZrBe84WfWHSg-aQLZ7T4kJJlgN2JBJg0xmGtdGA9o-fB9Ti2YqCXn5A2JfG_uPFaywMs5YqSSByx85XUDuzIx47k-0000]--></g></svg>