<svg xmlns="http://www.w3.org/2000/svg" xmlns:xlink="http://www.w3.org/1999/xlink" contentStyleType="text/css" height="144px" preserveAspectRatio="none" style="width:189px;height:144px;background:#FFFFFF;" version="1.1" viewBox="0 0 189 144" width="189px" zoomAndPan="magnify"><defs/><g><!--cluster Players--><g id="cluster_Players"><path d="M8.5,6 L61.5146,6 A3.75,3.75 0 0 1 64.0146,8.5 L71.0146,28.4883 L179.5,28.4883 A2.5,2.5 0 0 1 182,30.9883 L182,135.48 A2.5,2.5 0 0 1 179.5,137.98 L8.5,137.98 A2.5,2.5 0 0 1 6,135.48 L6,8.5 A2.5,2.5 0 0 1 8.5,6 " fill="none" style="stroke:#000000;stroke-width:1.5;"/><line style="stroke:#000000;stroke-width:1.5;" x1="6" x2="71.0146" y1="28.4883" y2="28.4883"/><text fill="#000000" font-family="sans-serif" font-size="14" font-weight="bold" lengthAdjust="spacing" textLength="52.0146" x="10" y="21.5352">Players</text></g><!--class PlayerParams--><g id="elem_PlayerParams"><rect codeLine="2" fill="#F1F1F1" height="80.9766" id="PlayerParams" rx="2.5" ry="2.5" style="stroke:#181818;stroke-width:0.5;" width="143.2295" x="22.39" y="41"/><ellipse cx="47.17" cy="57" fill="#ADD1B2" rx="11" ry="11" style="stroke:#181818;stroke-width:1.0;"/><path d="M49.6432,63.1431 Q49.0621,63.4419 48.423,63.5913 Q47.7838,63.7407 47.0782,63.7407 Q44.5714,63.7407 43.2516,62.0889 Q41.9317,60.437 41.9317,57.3159 Q41.9317,54.1865 43.2516,52.5347 Q44.5714,50.8828 47.0782,50.8828 Q47.7838,50.8828 48.4313,51.0322 Q49.0787,51.1816 49.6432,51.4805 L49.6432,54.2031 Q49.0123,53.6221 48.4188,53.3523 Q47.8253,53.0825 47.1944,53.0825 Q45.8497,53.0825 45.1649,54.1492 Q44.4801,55.2158 44.4801,57.3159 Q44.4801,59.4077 45.1649,60.4744 Q45.8497,61.541 47.1944,61.541 Q47.8253,61.541 48.4188,61.2712 Q49.0123,61.0015 49.6432,60.4204 Z " fill="#000000"/><text fill="#000000" font-family="sans-serif" font-size="14" lengthAdjust="spacing" textLength="89.4961" x="63.3434" y="62.291">PlayerParams</text><line style="stroke:#181818;stroke-width:0.5;" x1="23.39" x2="164.6195" y1="73" y2="73"/><ellipse cx="33.39" cy="86.7441" fill="none" rx="3" ry="3" style="stroke:#038048;stroke-width:1.0;"/><text fill="#000000" font-family="sans-serif" font-size="14" lengthAdjust="spacing" textLength="117.2295" x="42.39" y="90.5352">maxHealth : float</text><ellipse cx="33.39" cy="103.2324" fill="none" rx="3" ry="3" style="stroke:#038048;stroke-width:1.0;"/><text fill="#000000" font-family="sans-serif" font-size="14" lengthAdjust="spacing" textLength="84.4102" x="42.39" y="107.0234">speed : float</text><line style="stroke:#181818;stroke-width:0.5;" x1="23.39" x2="164.6195" y1="113.9766" y2="113.9766"/></g><!--SRC=[oqlCJIqkI4nELGZ8IQnCBIgkvahEIImkXd834eiISuiLghaKW41R8JUnmYCrCQSaGy5A8IqdFx44AbvSa9gQ0XUhvQe50000]--></g></svg>