<svg xmlns="http://www.w3.org/2000/svg" xmlns:xlink="http://www.w3.org/1999/xlink" contentStyleType="text/css" height="186px" preserveAspectRatio="none" style="width:488px;height:186px;background:#FFFFFF;" version="1.1" viewBox="0 0 488 186" width="488px" zoomAndPan="magnify"><defs/><g><!--class PlayerPresenter--><g id="elem_PlayerPresenter"><rect codeLine="1" fill="#F1F1F1" height="64.4883" id="PlayerPresenter" rx="2.5" ry="2.5" style="stroke:#181818;stroke-width:0.5;" width="474.9297" x="7" y="115"/><ellipse cx="188.207" cy="131" fill="#ADD1B2" rx="11" ry="11" style="stroke:#181818;stroke-width:1.0;"/><path d="M190.6802,137.1431 Q190.0991,137.4419 189.46,137.5913 Q188.8208,137.7407 188.1152,137.7407 Q185.6084,137.7407 184.2886,136.0889 Q182.9688,134.437 182.9688,131.3159 Q182.9688,128.1865 184.2886,126.5347 Q185.6084,124.8828 188.1152,124.8828 Q188.8208,124.8828 189.4683,125.0322 Q190.1157,125.1816 190.6802,125.4805 L190.6802,128.2031 Q190.0493,127.6221 189.4558,127.3523 Q188.8623,127.0825 188.2314,127.0825 Q186.8867,127.0825 186.2019,128.1492 Q185.5171,129.2158 185.5171,131.3159 Q185.5171,133.4077 186.2019,134.4744 Q186.8867,135.541 188.2314,135.541 Q188.8623,135.541 189.4558,135.2712 Q190.0493,135.0015 190.6802,134.4204 Z " fill="#000000"/><text fill="#000000" font-family="sans-serif" font-size="14" lengthAdjust="spacing" textLength="104.0156" x="208.707" y="136.291">PlayerPresenter</text><line style="stroke:#181818;stroke-width:0.5;" x1="8" x2="480.9297" y1="147" y2="147"/><line style="stroke:#181818;stroke-width:0.5;" x1="8" x2="480.9297" y1="155" y2="155"/><ellipse cx="18" cy="168.7441" fill="#84BE84" rx="3" ry="3" style="stroke:#038048;stroke-width:1.0;"/><text fill="#000000" font-family="sans-serif" font-size="14" lengthAdjust="spacing" textLength="448.9297" x="27" y="172.5352">&#171;async&#187; OnCreatePlayer(player:PlayerCore, view:HealthView) : void</text></g><!--class PlayerCore--><g id="elem_PlayerCore"><rect fill="#F1F1F1" height="48" id="PlayerCore" rx="2.5" ry="2.5" style="stroke:#181818;stroke-width:0.5;" width="104.1738" x="51.38" y="7"/><ellipse cx="66.38" cy="23" fill="#ADD1B2" rx="11" ry="11" style="stroke:#181818;stroke-width:1.0;"/><path d="M68.8531,29.1431 Q68.2721,29.4419 67.6329,29.5913 Q66.9938,29.7407 66.2882,29.7407 Q63.7814,29.7407 62.4615,28.0889 Q61.1417,26.437 61.1417,23.3159 Q61.1417,20.1865 62.4615,18.5347 Q63.7814,16.8828 66.2882,16.8828 Q66.9938,16.8828 67.6412,17.0322 Q68.2887,17.1816 68.8531,17.4805 L68.8531,20.2031 Q68.2223,19.6221 67.6288,19.3523 Q67.0353,19.0825 66.4044,19.0825 Q65.0597,19.0825 64.3749,20.1492 Q63.6901,21.2158 63.6901,23.3159 Q63.6901,25.4077 64.3749,26.4744 Q65.0597,27.541 66.4044,27.541 Q67.0353,27.541 67.6288,27.2712 Q68.2223,27.0015 68.8531,26.4204 Z " fill="#000000"/><text fill="#000000" font-family="sans-serif" font-size="14" lengthAdjust="spacing" textLength="72.1738" x="80.38" y="28.291">PlayerCore</text><line style="stroke:#181818;stroke-width:0.5;" x1="52.38" x2="154.5538" y1="39" y2="39"/><line style="stroke:#181818;stroke-width:0.5;" x1="52.38" x2="154.5538" y1="47" y2="47"/></g><!--class HealthView--><g id="elem_HealthView"><rect fill="#F1F1F1" height="48" id="HealthView" rx="2.5" ry="2.5" style="stroke:#181818;stroke-width:0.5;" width="107.5781" x="190.68" y="7"/><ellipse cx="205.68" cy="23" fill="#ADD1B2" rx="11" ry="11" style="stroke:#181818;stroke-width:1.0;"/><path d="M208.1531,29.1431 Q207.5721,29.4419 206.9329,29.5913 Q206.2938,29.7407 205.5882,29.7407 Q203.0814,29.7407 201.7615,28.0889 Q200.4417,26.437 200.4417,23.3159 Q200.4417,20.1865 201.7615,18.5347 Q203.0814,16.8828 205.5882,16.8828 Q206.2938,16.8828 206.9412,17.0322 Q207.5887,17.1816 208.1531,17.4805 L208.1531,20.2031 Q207.5223,19.6221 206.9288,19.3523 Q206.3353,19.0825 205.7044,19.0825 Q204.3597,19.0825 203.6749,20.1492 Q202.9901,21.2158 202.9901,23.3159 Q202.9901,25.4077 203.6749,26.4744 Q204.3597,27.541 205.7044,27.541 Q206.3353,27.541 206.9288,27.2712 Q207.5223,27.0015 208.1531,26.4204 Z " fill="#000000"/><text fill="#000000" font-family="sans-serif" font-size="14" lengthAdjust="spacing" textLength="75.5781" x="219.68" y="28.291">HealthView</text><line style="stroke:#181818;stroke-width:0.5;" x1="191.68" x2="297.2581" y1="39" y2="39"/><line style="stroke:#181818;stroke-width:0.5;" x1="191.68" x2="297.2581" y1="47" y2="47"/></g><!--class Health--><g id="elem_Health"><rect fill="#F1F1F1" height="48" id="Health" rx="2.5" ry="2.5" style="stroke:#181818;stroke-width:0.5;" width="75.791" x="333.57" y="7"/><ellipse cx="348.57" cy="23" fill="#ADD1B2" rx="11" ry="11" style="stroke:#181818;stroke-width:1.0;"/><path d="M351.0431,29.1431 Q350.4621,29.4419 349.8229,29.5913 Q349.1838,29.7407 348.4782,29.7407 Q345.9714,29.7407 344.6515,28.0889 Q343.3317,26.437 343.3317,23.3159 Q343.3317,20.1865 344.6515,18.5347 Q345.9714,16.8828 348.4782,16.8828 Q349.1838,16.8828 349.8312,17.0322 Q350.4787,17.1816 351.0431,17.4805 L351.0431,20.2031 Q350.4123,19.6221 349.8188,19.3523 Q349.2253,19.0825 348.5944,19.0825 Q347.2497,19.0825 346.5649,20.1492 Q345.8801,21.2158 345.8801,23.3159 Q345.8801,25.4077 346.5649,26.4744 Q347.2497,27.541 348.5944,27.541 Q349.2253,27.541 349.8188,27.2712 Q350.4123,27.0015 351.0431,26.4204 Z " fill="#000000"/><text fill="#000000" font-family="sans-serif" font-size="14" lengthAdjust="spacing" textLength="43.791" x="362.57" y="28.291">Health</text><line style="stroke:#181818;stroke-width:0.5;" x1="334.57" x2="408.361" y1="39" y2="39"/><line style="stroke:#181818;stroke-width:0.5;" x1="334.57" x2="408.361" y1="47" y2="47"/></g><!--reverse link PlayerCore to PlayerPresenter--><g id="link_PlayerCore_PlayerPresenter"><path codeLine="4" d="M137.0023,59.1767 C158.1123,76.2767 182.31,95.89 205.47,114.65 " fill="none" id="PlayerCore-backto-PlayerPresenter" style="stroke:#181818;stroke-width:1.0;stroke-dasharray:7.0,7.0;"/><polygon fill="#181818" points="132.34,55.4,136.8157,64.1732,136.2252,58.5472,141.8512,57.9568,132.34,55.4" style="stroke:#181818;stroke-width:1.0;"/></g><!--reverse link HealthView to PlayerPresenter--><g id="link_HealthView_PlayerPresenter"><path codeLine="5" d="M244.46,61.4 C244.46,78.5 244.46,95.89 244.46,114.65 " fill="none" id="HealthView-backto-PlayerPresenter" style="stroke:#181818;stroke-width:1.0;stroke-dasharray:7.0,7.0;"/><polygon fill="#181818" points="244.46,55.4,240.46,64.4,244.46,60.4,248.46,64.4,244.46,55.4" style="stroke:#181818;stroke-width:1.0;"/></g><!--reverse link Health to PlayerPresenter--><g id="link_Health_PlayerPresenter"><path codeLine="6" d="M340.9981,59.4115 C321.9781,76.5115 300.44,95.89 279.59,114.65 " fill="none" id="Health-backto-PlayerPresenter" style="stroke:#181818;stroke-width:1.0;stroke-dasharray:7.0,7.0;"/><polygon fill="#181818" points="345.46,55.4,336.0929,58.4426,341.7418,58.7429,341.4415,64.3918,345.46,55.4" style="stroke:#181818;stroke-width:1.0;"/></g><!--SRC=[Iyv9B2vM2CX9h4mj2YXABKxDAqajKgZcKW02RGKRcyJYohnaEpi5_ppdejJ4abI8Ieq2C6K5uJdd5wNgA9HbffPRUQGcvfHaX06PcWfM2cNvcIbSjLm8LGesUdhebd4XzE2HnYO50000]--></g></svg>