<svg xmlns="http://www.w3.org/2000/svg" xmlns:xlink="http://www.w3.org/1999/xlink" contentStyleType="text/css" height="144px" preserveAspectRatio="none" style="width:335px;height:144px;background:#FFFFFF;" version="1.1" viewBox="0 0 335 144" width="335px" zoomAndPan="magnify"><defs/><g><!--cluster Players--><g id="cluster_Players"><path d="M8.5,6 L61.5146,6 A3.75,3.75 0 0 1 64.0146,8.5 L71.0146,28.4883 L325.5,28.4883 A2.5,2.5 0 0 1 328,30.9883 L328,135.48 A2.5,2.5 0 0 1 325.5,137.98 L8.5,137.98 A2.5,2.5 0 0 1 6,135.48 L6,8.5 A2.5,2.5 0 0 1 8.5,6 " fill="none" style="stroke:#000000;stroke-width:1.5;"/><line style="stroke:#000000;stroke-width:1.5;" x1="6" x2="71.0146" y1="28.4883" y2="28.4883"/><text fill="#000000" font-family="sans-serif" font-size="14" font-weight="bold" lengthAdjust="spacing" textLength="52.0146" x="10" y="21.5352">Players</text></g><!--class PlayerManager--><g id="elem_PlayerManager"><rect codeLine="2" fill="#F1F1F1" height="80.9766" id="PlayerManager" rx="2.5" ry="2.5" style="stroke:#181818;stroke-width:0.5;" width="290.1406" x="21.93" y="41"/><ellipse cx="113.3367" cy="57" fill="#ADD1B2" rx="11" ry="11" style="stroke:#181818;stroke-width:1.0;"/><path d="M115.8099,63.1431 Q115.2288,63.4419 114.5897,63.5913 Q113.9505,63.7407 113.2449,63.7407 Q110.7381,63.7407 109.4183,62.0889 Q108.0985,60.437 108.0985,57.3159 Q108.0985,54.1865 109.4183,52.5347 Q110.7381,50.8828 113.2449,50.8828 Q113.9505,50.8828 114.598,51.0322 Q115.2454,51.1816 115.8099,51.4805 L115.8099,54.2031 Q115.179,53.6221 114.5855,53.3523 Q113.992,53.0825 113.3612,53.0825 Q112.0164,53.0825 111.3316,54.1492 Q110.6468,55.2158 110.6468,57.3159 Q110.6468,59.4077 111.3316,60.4744 Q112.0164,61.541 113.3612,61.541 Q113.992,61.541 114.5855,61.2712 Q115.179,61.0015 115.8099,60.4204 Z " fill="#000000"/><text fill="#000000" font-family="sans-serif" font-size="14" lengthAdjust="spacing" textLength="98.8271" x="133.8367" y="62.291">PlayerManager</text><line style="stroke:#181818;stroke-width:0.5;" x1="22.93" x2="311.0706" y1="73" y2="73"/><ellipse cx="32.93" cy="86.7441" fill="none" rx="3" ry="3" style="stroke:#038048;stroke-width:1.0;"/><text fill="#000000" font-family="sans-serif" font-size="14" lengthAdjust="spacing" textLength="264.1406" x="41.93" y="90.5352">Players : ObservableList&lt;Player&gt; &#171;get&#187;</text><line style="stroke:#181818;stroke-width:0.5;" x1="22.93" x2="311.0706" y1="97.4883" y2="97.4883"/><ellipse cx="32.93" cy="111.2324" fill="#84BE84" rx="3" ry="3" style="stroke:#038048;stroke-width:1.0;"/><text fill="#000000" font-family="sans-serif" font-size="14" lengthAdjust="spacing" textLength="190.1963" x="41.93" y="115.0234">Initialize(battle:Battle) : void</text></g><!--SRC=[oqlCJIqkI4nELGZ8IQnCBIgkvahEIImkXd9z4_CIqrEB5Agv58106wP8mKh1FwaujQWiCIadrIUpkCG68c6dO6EJdbfYPmTLxfcNMPAPc9DPbQgHb5XIafDgvGIcD846bELdfd3LSjK20000]--></g></svg>