<svg xmlns="http://www.w3.org/2000/svg" xmlns:xlink="http://www.w3.org/1999/xlink" contentStyleType="text/css" height="252px" preserveAspectRatio="none" style="width:422px;height:252px;background:#FFFFFF;" version="1.1" viewBox="0 0 422 252" width="422px" zoomAndPan="magnify"><defs/><g><!--cluster Players--><g id="cluster_Players"><path d="M95.55,6 L148.5646,6 A3.75,3.75 0 0 1 151.0646,8.5 L158.0646,28.4883 L412.55,28.4883 A2.5,2.5 0 0 1 415.05,30.9883 L415.05,243.48 A2.5,2.5 0 0 1 412.55,245.98 L95.55,245.98 A2.5,2.5 0 0 1 93.05,243.48 L93.05,8.5 A2.5,2.5 0 0 1 95.55,6 " fill="none" style="stroke:#000000;stroke-width:1.5;"/><line style="stroke:#000000;stroke-width:1.5;" x1="93.05" x2="158.0646" y1="28.4883" y2="28.4883"/><text fill="#000000" font-family="sans-serif" font-size="14" font-weight="bold" lengthAdjust="spacing" textLength="52.0146" x="97.05" y="21.5352">Players</text></g><!--class PlayerManager--><g id="elem_PlayerManager"><rect codeLine="2" fill="#F1F1F1" height="80.9766" id="PlayerManager" rx="2.5" ry="2.5" style="stroke:#181818;stroke-width:0.5;" width="290.1406" x="108.98" y="149"/><ellipse cx="200.3867" cy="165" fill="#ADD1B2" rx="11" ry="11" style="stroke:#181818;stroke-width:1.0;"/><path d="M202.8599,171.1431 Q202.2788,171.4419 201.6397,171.5913 Q201.0005,171.7407 200.2949,171.7407 Q197.7881,171.7407 196.4683,170.0889 Q195.1485,168.437 195.1485,165.3159 Q195.1485,162.1865 196.4683,160.5347 Q197.7881,158.8828 200.2949,158.8828 Q201.0005,158.8828 201.648,159.0322 Q202.2954,159.1816 202.8599,159.4805 L202.8599,162.2031 Q202.229,161.6221 201.6355,161.3523 Q201.042,161.0825 200.4112,161.0825 Q199.0664,161.0825 198.3816,162.1492 Q197.6968,163.2158 197.6968,165.3159 Q197.6968,167.4077 198.3816,168.4744 Q199.0664,169.541 200.4112,169.541 Q201.042,169.541 201.6355,169.2712 Q202.229,169.0015 202.8599,168.4204 Z " fill="#000000"/><text fill="#000000" font-family="sans-serif" font-size="14" lengthAdjust="spacing" textLength="98.8271" x="220.8867" y="170.291">PlayerManager</text><line style="stroke:#181818;stroke-width:0.5;" x1="109.98" x2="398.1206" y1="181" y2="181"/><ellipse cx="119.98" cy="194.7441" fill="none" rx="3" ry="3" style="stroke:#038048;stroke-width:1.0;"/><text fill="#000000" font-family="sans-serif" font-size="14" lengthAdjust="spacing" textLength="264.1406" x="128.98" y="198.5352">Players : ObservableList&lt;Player&gt; &#171;get&#187;</text><line style="stroke:#181818;stroke-width:0.5;" x1="109.98" x2="398.1206" y1="205.4883" y2="205.4883"/><ellipse cx="119.98" cy="219.2324" fill="#84BE84" rx="3" ry="3" style="stroke:#038048;stroke-width:1.0;"/><text fill="#000000" font-family="sans-serif" font-size="14" lengthAdjust="spacing" textLength="190.1963" x="128.98" y="223.0234">Initialize(battle:Battle) : void</text></g><!--class PlayerCore--><g id="elem_PlayerCore"><rect fill="#F1F1F1" height="48" id="PlayerCore" rx="2.5" ry="2.5" style="stroke:#181818;stroke-width:0.5;" width="104.1738" x="201.96" y="41"/><ellipse cx="216.96" cy="57" fill="#ADD1B2" rx="11" ry="11" style="stroke:#181818;stroke-width:1.0;"/><path d="M219.4331,63.1431 Q218.8521,63.4419 218.2129,63.5913 Q217.5738,63.7407 216.8682,63.7407 Q214.3614,63.7407 213.0415,62.0889 Q211.7217,60.437 211.7217,57.3159 Q211.7217,54.1865 213.0415,52.5347 Q214.3614,50.8828 216.8682,50.8828 Q217.5738,50.8828 218.2212,51.0322 Q218.8687,51.1816 219.4331,51.4805 L219.4331,54.2031 Q218.8023,53.6221 218.2088,53.3523 Q217.6153,53.0825 216.9844,53.0825 Q215.6397,53.0825 214.9549,54.1492 Q214.2701,55.2158 214.2701,57.3159 Q214.2701,59.4077 214.9549,60.4744 Q215.6397,61.541 216.9844,61.541 Q217.6153,61.541 218.2088,61.2712 Q218.8023,61.0015 219.4331,60.4204 Z " fill="#000000"/><text fill="#000000" font-family="sans-serif" font-size="14" lengthAdjust="spacing" textLength="72.1738" x="230.96" y="62.291">PlayerCore</text><line style="stroke:#181818;stroke-width:0.5;" x1="202.96" x2="305.1338" y1="73" y2="73"/><line style="stroke:#181818;stroke-width:0.5;" x1="202.96" x2="305.1338" y1="81" y2="81"/></g><!--class Battle--><g id="elem_Battle"><rect fill="#F1F1F1" height="48" id="Battle" rx="2.5" ry="2.5" style="stroke:#181818;stroke-width:0.5;" width="70.1035" x="7" y="41"/><ellipse cx="22" cy="57" fill="#ADD1B2" rx="11" ry="11" style="stroke:#181818;stroke-width:1.0;"/><path d="M24.4731,63.1431 Q23.8921,63.4419 23.2529,63.5913 Q22.6138,63.7407 21.9082,63.7407 Q19.4014,63.7407 18.0815,62.0889 Q16.7617,60.437 16.7617,57.3159 Q16.7617,54.1865 18.0815,52.5347 Q19.4014,50.8828 21.9082,50.8828 Q22.6138,50.8828 23.2612,51.0322 Q23.9087,51.1816 24.4731,51.4805 L24.4731,54.2031 Q23.8423,53.6221 23.2488,53.3523 Q22.6553,53.0825 22.0244,53.0825 Q20.6797,53.0825 19.9949,54.1492 Q19.3101,55.2158 19.3101,57.3159 Q19.3101,59.4077 19.9949,60.4744 Q20.6797,61.541 22.0244,61.541 Q22.6553,61.541 23.2488,61.2712 Q23.8423,61.0015 24.4731,60.4204 Z " fill="#000000"/><text fill="#000000" font-family="sans-serif" font-size="14" lengthAdjust="spacing" textLength="38.1035" x="36" y="62.291">Battle</text><line style="stroke:#181818;stroke-width:0.5;" x1="8" x2="76.1035" y1="73" y2="73"/><line style="stroke:#181818;stroke-width:0.5;" x1="8" x2="76.1035" y1="81" y2="81"/></g><!--link PlayerCore to PlayerManager--><g id="link_PlayerCore_PlayerManager"><path codeLine="7" d="M254.05,89.33 C254.05,106.13 254.05,117.2 254.05,136.86 " fill="none" id="PlayerCore-to-PlayerManager" style="stroke:#181818;stroke-width:1.0;"/><polygon fill="#181818" points="254.05,148.86,258.05,142.86,254.05,136.86,250.05,142.86,254.05,148.86" style="stroke:#181818;stroke-width:1.0;"/></g><!--link Battle to PlayerManager--><g id="link_Battle_PlayerManager"><path codeLine="8" d="M77.54,86.51 C106.77,103.4 143.9051,124.8478 179.7751,145.5778 " fill="none" id="Battle-to-PlayerManager" style="stroke:#181818;stroke-width:1.0;"/><polygon fill="#181818" points="184.97,148.58,179.1792,140.6134,180.6409,146.0781,175.1762,147.5399,184.97,148.58" style="stroke:#181818;stroke-width:1.0;"/></g><!--SRC=[oqlCJIqkI4nELGZ8IQnCBIgkvahEIImkXd9z4_CIqrEB5Agv58106wP8mKh1FwaujQWiCIadrIUpkCG68c6dO6EJdbfYPmTLxfcNMPAPc9DPbQgHb5XIafDgvGIcD846bELdfd3L0Y7KJ3q8xPnVbAgWgwk5wW0kY3wWX1sg1000]--></g></svg>