<svg xmlns="http://www.w3.org/2000/svg" xmlns:xlink="http://www.w3.org/1999/xlink" contentStyleType="text/css" height="85px" preserveAspectRatio="none" style="width:495px;height:85px;background:#FFFFFF;" version="1.1" viewBox="0 0 495 85" width="495px" zoomAndPan="magnify"><defs/><g><!--class PlayerPresenter--><g id="elem_PlayerPresenter"><rect codeLine="1" fill="#F1F1F1" height="64.4883" id="PlayerPresenter" rx="2.5" ry="2.5" style="stroke:#181818;stroke-width:0.5;" width="474.9297" x="7" y="7"/><ellipse cx="188.207" cy="23" fill="#ADD1B2" rx="11" ry="11" style="stroke:#181818;stroke-width:1.0;"/><path d="M190.6802,29.1431 Q190.0991,29.4419 189.46,29.5913 Q188.8208,29.7407 188.1152,29.7407 Q185.6084,29.7407 184.2886,28.0889 Q182.9688,26.437 182.9688,23.3159 Q182.9688,20.1865 184.2886,18.5347 Q185.6084,16.8828 188.1152,16.8828 Q188.8208,16.8828 189.4683,17.0322 Q190.1157,17.1816 190.6802,17.4805 L190.6802,20.2031 Q190.0493,19.6221 189.4558,19.3523 Q188.8623,19.0825 188.2314,19.0825 Q186.8867,19.0825 186.2019,20.1492 Q185.5171,21.2158 185.5171,23.3159 Q185.5171,25.4077 186.2019,26.4744 Q186.8867,27.541 188.2314,27.541 Q188.8623,27.541 189.4558,27.2712 Q190.0493,27.0015 190.6802,26.4204 Z " fill="#000000"/><text fill="#000000" font-family="sans-serif" font-size="14" lengthAdjust="spacing" textLength="104.0156" x="208.707" y="28.291">PlayerPresenter</text><line style="stroke:#181818;stroke-width:0.5;" x1="8" x2="480.9297" y1="39" y2="39"/><line style="stroke:#181818;stroke-width:0.5;" x1="8" x2="480.9297" y1="47" y2="47"/><ellipse cx="18" cy="60.7441" fill="#84BE84" rx="3" ry="3" style="stroke:#038048;stroke-width:1.0;"/><text fill="#000000" font-family="sans-serif" font-size="14" lengthAdjust="spacing" textLength="448.9297" x="27" y="64.5352">&#171;async&#187; OnCreatePlayer(player:PlayerCore, view:HealthView) : void</text></g><!--SRC=[Iyv9B2vM2CX9h4mj2YXABKxDAqajKgZcKW02RGKRcyJYohnaEpi5_ppdejJ4abI8Ieq2C6K5uJdd5wNgA9HbffPRUQGcvfHaX06PcWfM2cNvcIbSjG00]--></g></svg>