<svg xmlns="http://www.w3.org/2000/svg" xmlns:xlink="http://www.w3.org/1999/xlink" contentStyleType="text/css" height="134px" preserveAspectRatio="none" style="width:366px;height:134px;background:#FFFFFF;" version="1.1" viewBox="0 0 366 134" width="366px" zoomAndPan="magnify"><defs/><g><!--class IDamageable--><g id="elem_IDamageable"><rect codeLine="1" fill="#F1F1F1" height="113.9531" id="IDamageable" rx="2.5" ry="2.5" style="stroke:#181818;stroke-width:0.5;" width="345.0059" x="7" y="7"/><ellipse cx="131.2671" cy="23" fill="#B4A7E5" rx="11" ry="11" style="stroke:#181818;stroke-width:1.0;"/><path d="M127.6948,19.2651 L127.6948,17.1069 L135.0742,17.1069 L135.0742,19.2651 L132.6089,19.2651 L132.6089,27.3418 L135.0742,27.3418 L135.0742,29.5 L127.6948,29.5 L127.6948,27.3418 L130.1602,27.3418 L130.1602,19.2651 Z " fill="#000000"/><text fill="#000000" font-family="sans-serif" font-size="14" font-style="italic" lengthAdjust="spacing" textLength="87.9717" x="151.7671" y="28.291">IDamageable</text><line style="stroke:#181818;stroke-width:0.5;" x1="8" x2="351.0059" y1="39" y2="39"/><ellipse cx="18" cy="52.7441" fill="none" rx="3" ry="3" style="stroke:#038048;stroke-width:1.0;"/><text fill="#000000" font-family="sans-serif" font-size="14" lengthAdjust="spacing" textLength="319.0059" x="27" y="56.5352">OnDamagedAsObservable : Observable&lt;float&gt;</text><ellipse cx="18" cy="69.2324" fill="none" rx="3" ry="3" style="stroke:#038048;stroke-width:1.0;"/><text fill="#000000" font-family="sans-serif" font-size="14" lengthAdjust="spacing" textLength="288.3809" x="27" y="73.0234">OnResetAsObservable : Observable&lt;Unit&gt;</text><line style="stroke:#181818;stroke-width:0.5;" x1="8" x2="351.0059" y1="79.9766" y2="79.9766"/><ellipse cx="18" cy="93.7207" fill="#84BE84" rx="3" ry="3" style="stroke:#038048;stroke-width:1.0;"/><text fill="#000000" font-family="sans-serif" font-size="14" lengthAdjust="spacing" textLength="228.2793" x="27" y="97.5117">TakeDamage(damage:float) : void</text><ellipse cx="18" cy="110.209" fill="#84BE84" rx="3" ry="3" style="stroke:#038048;stroke-width:1.0;"/><text fill="#000000" font-family="sans-serif" font-size="14" lengthAdjust="spacing" textLength="105.4922" x="27" y="114">OnDead() : void</text></g><!--SRC=[oymhIIrAIqnELV1qISnDJ4zDJCf9LQZcKW02RGN_F8XWYcEnVr9nQb4PMDPA0S6nISl9JoonWwiFIYrEBS6jEZGl4wuu934x5MAyHWgOiWARfGdKKPQVcO9mGcfYYWPSj1O0]--></g></svg>