<svg xmlns="http://www.w3.org/2000/svg" xmlns:xlink="http://www.w3.org/1999/xlink" contentStyleType="text/css" height="897px" preserveAspectRatio="none" style="width:6310px;height:897px;background:#FFFFFF;" version="1.1" viewBox="0 0 6310 897" width="6310px" zoomAndPan="magnify"><defs/><g><!--cluster Upgrades--><g id="cluster_Upgrades"><path d="M1232.45,6 L1302.2605,6 A3.75,3.75 0 0 1 1304.7605,8.5 L1311.7605,28.4883 L3665.45,28.4883 A2.5,2.5 0 0 1 3667.95,30.9883 L3667.95,888.17 A2.5,2.5 0 0 1 3665.45,890.67 L1232.45,890.67 A2.5,2.5 0 0 1 1229.95,888.17 L1229.95,8.5 A2.5,2.5 0 0 1 1232.45,6 " fill="none" style="stroke:#000000;stroke-width:1.5;"/><line style="stroke:#000000;stroke-width:1.5;" x1="1229.95" x2="1311.7605" y1="28.4883" y2="28.4883"/><text fill="#000000" font-family="sans-serif" font-size="14" font-weight="bold" lengthAdjust="spacing" textLength="68.8105" x="1233.95" y="21.5352">Upgrades</text></g><!--cluster Weapons--><g id="cluster_Weapons"><path d="M4051.45,20.71 L4116.865,20.71 A3.75,3.75 0 0 1 4119.365,23.21 L4126.365,43.1983 L5961.45,43.1983 A2.5,2.5 0 0 1 5963.95,45.6983 L5963.95,433.09 A2.5,2.5 0 0 1 5961.45,435.59 L4051.45,435.59 A2.5,2.5 0 0 1 4048.95,433.09 L4048.95,23.21 A2.5,2.5 0 0 1 4051.45,20.71 " fill="none" style="stroke:#000000;stroke-width:1.5;"/><line style="stroke:#000000;stroke-width:1.5;" x1="4048.95" x2="4126.365" y1="43.1983" y2="43.1983"/><text fill="#000000" font-family="sans-serif" font-size="14" font-weight="bold" lengthAdjust="spacing" textLength="64.415" x="4052.95" y="36.2452">Weapons</text></g><!--cluster Bullets--><g id="cluster_Bullets"><path d="M4075.45,63.71 L4125.3611,63.71 A3.75,3.75 0 0 1 4127.8611,66.21 L4134.8611,86.1983 L4745.45,86.1983 A2.5,2.5 0 0 1 4747.95,88.6983 L4747.95,408.36 A2.5,2.5 0 0 1 4745.45,410.86 L4075.45,410.86 A2.5,2.5 0 0 1 4072.95,408.36 L4072.95,66.21 A2.5,2.5 0 0 1 4075.45,63.71 " fill="none" style="stroke:#000000;stroke-width:1.5;"/><line style="stroke:#000000;stroke-width:1.5;" x1="4072.95" x2="4134.8611" y1="86.1983" y2="86.1983"/><text fill="#000000" font-family="sans-serif" font-size="14" font-weight="bold" lengthAdjust="spacing" textLength="48.9111" x="4076.95" y="79.2452">Bullets</text></g><!--cluster Players--><g id="cluster_Players"><path d="M3694.45,469.32 L3747.4646,469.32 A3.75,3.75 0 0 1 3749.9646,471.82 L3756.9646,491.8083 L4985.45,491.8083 A2.5,2.5 0 0 1 4987.95,494.3083 L4987.95,879.93 A2.5,2.5 0 0 1 4985.45,882.43 L3694.45,882.43 A2.5,2.5 0 0 1 3691.95,879.93 L3691.95,471.82 A2.5,2.5 0 0 1 3694.45,469.32 " fill="none" style="stroke:#000000;stroke-width:1.5;"/><line style="stroke:#000000;stroke-width:1.5;" x1="3691.95" x2="3756.9646" y1="491.8083" y2="491.8083"/><text fill="#000000" font-family="sans-serif" font-size="14" font-weight="bold" lengthAdjust="spacing" textLength="52.0146" x="3695.95" y="484.8552">Players</text></g><!--class WeaponUpgrade--><g id="elem_WeaponUpgrade"><rect codeLine="2" fill="#F1F1F1" height="80.9766" id="WeaponUpgrade" rx="2.5" ry="2.5" style="stroke:#181818;stroke-width:0.5;" width="315.2148" x="3199.34" y="330.37"/><ellipse cx="3297.2375" cy="346.37" fill="#ADD1B2" rx="11" ry="11" style="stroke:#181818;stroke-width:1.0;"/><path d="M3299.7106,352.5131 Q3299.1296,352.8119 3298.4904,352.9613 Q3297.8512,353.1107 3297.1457,353.1107 Q3294.6388,353.1107 3293.319,351.4589 Q3291.9992,349.807 3291.9992,346.6859 Q3291.9992,343.5565 3293.319,341.9047 Q3294.6388,340.2528 3297.1457,340.2528 Q3297.8512,340.2528 3298.4987,340.4022 Q3299.1462,340.5516 3299.7106,340.8505 L3299.7106,343.5731 Q3299.0797,342.9921 3298.4862,342.7223 Q3297.8927,342.4525 3297.2619,342.4525 Q3295.9171,342.4525 3295.2323,343.5192 Q3294.5475,344.5858 3294.5475,346.6859 Q3294.5475,348.7777 3295.2323,349.8444 Q3295.9171,350.911 3297.2619,350.911 Q3297.8927,350.911 3298.4862,350.6412 Q3299.0797,350.3715 3299.7106,349.7904 Z " fill="#000000"/><text fill="#000000" font-family="sans-serif" font-size="14" lengthAdjust="spacing" textLength="110.9199" x="3317.7375" y="351.661">WeaponUpgrade</text><line style="stroke:#181818;stroke-width:0.5;" x1="3200.34" x2="3513.5548" y1="362.37" y2="362.37"/><ellipse cx="3210.34" cy="376.1141" fill="none" rx="3" ry="3" style="stroke:#038048;stroke-width:1.0;"/><text fill="#000000" font-family="sans-serif" font-size="14" lengthAdjust="spacing" textLength="188.9658" x="3219.34" y="379.9052">upgradeName : string &#171;get&#187;</text><line style="stroke:#181818;stroke-width:0.5;" x1="3200.34" x2="3513.5548" y1="386.8583" y2="386.8583"/><ellipse cx="3210.34" cy="400.6024" fill="#84BE84" rx="3" ry="3" style="stroke:#038048;stroke-width:1.0;"/><text fill="#000000" font-family="sans-serif" font-size="14" lengthAdjust="spacing" textLength="289.2148" x="3219.34" y="404.3934">Initialize(upgradeData:UpgradeData) : void</text></g><!--class IUpgrade--><g id="elem_IUpgrade"><rect codeLine="2" fill="#F1F1F1" height="64.4883" id="IUpgrade" rx="2.5" ry="2.5" style="stroke:#181818;stroke-width:0.5;" width="214.9658" x="3074.47" y="106.95"/><ellipse cx="3147.0301" cy="122.95" fill="#B4A7E5" rx="11" ry="11" style="stroke:#181818;stroke-width:1.0;"/><path d="M3143.4578,119.2151 L3143.4578,117.0569 L3150.8372,117.0569 L3150.8372,119.2151 L3148.3719,119.2151 L3148.3719,127.2918 L3150.8372,127.2918 L3150.8372,129.45 L3143.4578,129.45 L3143.4578,127.2918 L3145.9231,127.2918 L3145.9231,119.2151 Z " fill="#000000"/><text fill="#000000" font-family="sans-serif" font-size="14" font-style="italic" lengthAdjust="spacing" textLength="61.3457" x="3167.5301" y="128.241">IUpgrade</text><line style="stroke:#181818;stroke-width:0.5;" x1="3075.47" x2="3288.4358" y1="138.95" y2="138.95"/><ellipse cx="3085.47" cy="152.6941" fill="none" rx="3" ry="3" style="stroke:#038048;stroke-width:1.0;"/><text fill="#000000" font-family="sans-serif" font-size="14" lengthAdjust="spacing" textLength="188.9658" x="3094.47" y="156.4852">upgradeName : string &#171;get&#187;</text><line style="stroke:#181818;stroke-width:0.5;" x1="3075.47" x2="3288.4358" y1="163.4383" y2="163.4383"/></g><!--class UpgradeSelectorPresenter--><g id="elem_UpgradeSelectorPresenter"><rect codeLine="2" fill="#F1F1F1" height="64.4883" id="UpgradeSelectorPresenter" rx="2.5" ry="2.5" style="stroke:#181818;stroke-width:0.5;" width="478.9834" x="1641.46" y="106.95"/><ellipse cx="1789.2564" cy="122.95" fill="#ADD1B2" rx="11" ry="11" style="stroke:#181818;stroke-width:1.0;"/><path d="M1791.7295,129.0931 Q1791.1485,129.3919 1790.5093,129.5413 Q1789.8702,129.6907 1789.1646,129.6907 Q1786.6578,129.6907 1785.3379,128.0389 Q1784.0181,126.387 1784.0181,123.2659 Q1784.0181,120.1365 1785.3379,118.4847 Q1786.6578,116.8328 1789.1646,116.8328 Q1789.8702,116.8328 1790.5176,116.9822 Q1791.1651,117.1316 1791.7295,117.4305 L1791.7295,120.1531 Q1791.0987,119.5721 1790.5052,119.3023 Q1789.9117,119.0325 1789.2808,119.0325 Q1787.9361,119.0325 1787.2513,120.0992 Q1786.5664,121.1658 1786.5664,123.2659 Q1786.5664,125.3577 1787.2513,126.4244 Q1787.9361,127.491 1789.2808,127.491 Q1789.9117,127.491 1790.5052,127.2212 Q1791.0987,126.9515 1791.7295,126.3704 Z " fill="#000000"/><text fill="#000000" font-family="sans-serif" font-size="14" lengthAdjust="spacing" textLength="174.8906" x="1809.7564" y="128.241">UpgradeSelectorPresenter</text><line style="stroke:#181818;stroke-width:0.5;" x1="1642.46" x2="2119.4434" y1="138.95" y2="138.95"/><line style="stroke:#181818;stroke-width:0.5;" x1="1642.46" x2="2119.4434" y1="146.95" y2="146.95"/><ellipse cx="1652.46" cy="160.6941" fill="#84BE84" rx="3" ry="3" style="stroke:#038048;stroke-width:1.0;"/><text fill="#000000" font-family="sans-serif" font-size="14" lengthAdjust="spacing" textLength="452.9834" x="1661.46" y="164.4852">Initialize(model:UpgradeSelector, view:UpgradeSelectorView) : void</text></g><!--class UpgradeManager--><g id="elem_UpgradeManager"><rect codeLine="2" fill="#F1F1F1" height="80.9766" id="UpgradeManager" rx="2.5" ry="2.5" style="stroke:#181818;stroke-width:0.5;" width="305.4258" x="2253.24" y="98.71"/><ellipse cx="2343.8128" cy="114.71" fill="#ADD1B2" rx="11" ry="11" style="stroke:#181818;stroke-width:1.0;"/><path d="M2346.2859,120.8531 Q2345.7048,121.1519 2345.0657,121.3013 Q2344.4265,121.4507 2343.721,121.4507 Q2341.2141,121.4507 2339.8943,119.7989 Q2338.5745,118.147 2338.5745,115.0259 Q2338.5745,111.8965 2339.8943,110.2447 Q2341.2141,108.5928 2343.721,108.5928 Q2344.4265,108.5928 2345.074,108.7422 Q2345.7214,108.8916 2346.2859,109.1905 L2346.2859,111.9131 Q2345.655,111.3321 2345.0615,111.0623 Q2344.468,110.7925 2343.8372,110.7925 Q2342.4924,110.7925 2341.8076,111.8592 Q2341.1228,112.9258 2341.1228,115.0259 Q2341.1228,117.1177 2341.8076,118.1844 Q2342.4924,119.251 2343.8372,119.251 Q2344.468,119.251 2345.0615,118.9812 Q2345.655,118.7115 2346.2859,118.1304 Z " fill="#000000"/><text fill="#000000" font-family="sans-serif" font-size="14" lengthAdjust="spacing" textLength="115.7803" x="2364.3128" y="120.001">UpgradeManager</text><line style="stroke:#181818;stroke-width:0.5;" x1="2254.24" x2="2557.6658" y1="130.71" y2="130.71"/><line style="stroke:#181818;stroke-width:0.5;" x1="2254.24" x2="2557.6658" y1="138.71" y2="138.71"/><ellipse cx="2264.24" cy="152.4541" fill="#84BE84" rx="3" ry="3" style="stroke:#038048;stroke-width:1.0;"/><text fill="#000000" font-family="sans-serif" font-size="14" lengthAdjust="spacing" textLength="171.9443" x="2273.24" y="156.2452">ApplyAllUpgrades() : void</text><ellipse cx="2264.24" cy="168.9424" fill="#84BE84" rx="3" ry="3" style="stroke:#038048;stroke-width:1.0;"/><text fill="#000000" font-family="sans-serif" font-size="14" lengthAdjust="spacing" textLength="279.4258" x="2273.24" y="172.7334">AddUpgrade(upgradeId:UpgradeId) : void</text></g><!--class UpgradeSelectorView--><g id="elem_UpgradeSelectorView"><rect codeLine="2" fill="#F1F1F1" height="196.3945" id="UpgradeSelectorView" rx="2.5" ry="2.5" style="stroke:#181818;stroke-width:0.5;" width="426.2715" x="2612.81" y="41"/><ellipse cx="2750.185" cy="57" fill="#ADD1B2" rx="11" ry="11" style="stroke:#181818;stroke-width:1.0;"/><path d="M2752.6581,63.1431 Q2752.0771,63.4419 2751.4379,63.5913 Q2750.7988,63.7407 2750.0932,63.7407 Q2747.5864,63.7407 2746.2665,62.0889 Q2744.9467,60.437 2744.9467,57.3159 Q2744.9467,54.1865 2746.2665,52.5347 Q2747.5864,50.8828 2750.0932,50.8828 Q2750.7988,50.8828 2751.4462,51.0322 Q2752.0937,51.1816 2752.6581,51.4805 L2752.6581,54.2031 Q2752.0273,53.6221 2751.4338,53.3523 Q2750.8403,53.0825 2750.2094,53.0825 Q2748.8647,53.0825 2748.1799,54.1492 Q2747.4951,55.2158 2747.4951,57.3159 Q2747.4951,59.4077 2748.1799,60.4744 Q2748.8647,61.541 2750.2094,61.541 Q2750.8403,61.541 2751.4338,61.2712 Q2752.0273,61.0015 2752.6581,60.4204 Z " fill="#000000"/><text fill="#000000" font-family="sans-serif" font-size="14" lengthAdjust="spacing" textLength="143.0215" x="2770.685" y="62.291">UpgradeSelectorView</text><line style="stroke:#181818;stroke-width:0.5;" x1="2613.81" x2="3038.0815" y1="73" y2="73"/><ellipse cx="2623.81" cy="86.7441" fill="none" rx="3" ry="3" style="stroke:#038048;stroke-width:1.0;"/><text fill="#000000" font-family="sans-serif" font-size="14" lengthAdjust="spacing" textLength="223.1592" x="2632.81" y="90.5352">selectedUpgradeIndex : int &#171;get&#187;</text><ellipse cx="2623.81" cy="103.2324" fill="none" rx="3" ry="3" style="stroke:#038048;stroke-width:1.0;"/><text fill="#000000" font-family="sans-serif" font-size="14" lengthAdjust="spacing" textLength="400.2715" x="2632.81" y="107.0234">OnUpgradeSelectedAsObservable : IObservable&lt;int&gt; &#171;get&#187;</text><line style="stroke:#181818;stroke-width:0.5;" x1="2613.81" x2="3038.0815" y1="113.9766" y2="113.9766"/><ellipse cx="2623.81" cy="127.7207" fill="#84BE84" rx="3" ry="3" style="stroke:#038048;stroke-width:1.0;"/><text fill="#000000" font-family="sans-serif" font-size="14" lengthAdjust="spacing" textLength="95.2588" x="2632.81" y="131.5117">Awake() : void</text><ellipse cx="2623.81" cy="144.209" fill="#84BE84" rx="3" ry="3" style="stroke:#038048;stroke-width:1.0;"/><text fill="#000000" font-family="sans-serif" font-size="14" lengthAdjust="spacing" textLength="108.8008" x="2632.81" y="148">Initialize() : void</text><ellipse cx="2623.81" cy="160.6973" fill="#84BE84" rx="3" ry="3" style="stroke:#038048;stroke-width:1.0;"/><text fill="#000000" font-family="sans-serif" font-size="14" lengthAdjust="spacing" textLength="186.5527" x="2632.81" y="164.4883">SetActive(active:bool) : void</text><ellipse cx="2623.81" cy="177.1855" fill="#84BE84" rx="3" ry="3" style="stroke:#038048;stroke-width:1.0;"/><text fill="#000000" font-family="sans-serif" font-size="14" lengthAdjust="spacing" textLength="265.9453" x="2632.81" y="180.9766">OnClickUpgradeButton(index:int) : void</text><ellipse cx="2623.81" cy="193.6738" fill="#84BE84" rx="3" ry="3" style="stroke:#038048;stroke-width:1.0;"/><text fill="#000000" font-family="sans-serif" font-size="14" lengthAdjust="spacing" textLength="311.4795" x="2632.81" y="197.4648">SetUpgrades(upgrades:List&lt;IUpgrade&gt;) : void</text><ellipse cx="2623.81" cy="210.1621" fill="#84BE84" rx="3" ry="3" style="stroke:#038048;stroke-width:1.0;"/><text fill="#000000" font-family="sans-serif" font-size="14" lengthAdjust="spacing" textLength="201.5576" x="2632.81" y="213.9531">SetPlayerId(playerId:int) : void</text><ellipse cx="2623.81" cy="226.6504" fill="#84BE84" rx="3" ry="3" style="stroke:#038048;stroke-width:1.0;"/><text fill="#000000" font-family="sans-serif" font-size="14" lengthAdjust="spacing" textLength="148.8525" x="2632.81" y="230.4414">ResetSelection() : void</text></g><!--class PlayerUpgrade--><g id="elem_PlayerUpgrade"><rect codeLine="2" fill="#F1F1F1" height="80.9766" id="PlayerUpgrade" rx="2.5" ry="2.5" style="stroke:#181818;stroke-width:0.5;" width="315.2148" x="2499.34" y="330.37"/><ellipse cx="2603.8615" cy="346.37" fill="#ADD1B2" rx="11" ry="11" style="stroke:#181818;stroke-width:1.0;"/><path d="M2606.3346,352.5131 Q2605.7536,352.8119 2605.1144,352.9613 Q2604.4753,353.1107 2603.7697,353.1107 Q2601.2629,353.1107 2599.943,351.4589 Q2598.6232,349.807 2598.6232,346.6859 Q2598.6232,343.5565 2599.943,341.9047 Q2601.2629,340.2528 2603.7697,340.2528 Q2604.4753,340.2528 2605.1227,340.4022 Q2605.7702,340.5516 2606.3346,340.8505 L2606.3346,343.5731 Q2605.7038,342.9921 2605.1103,342.7223 Q2604.5168,342.4525 2603.8859,342.4525 Q2602.5412,342.4525 2601.8564,343.5192 Q2601.1715,344.5858 2601.1715,346.6859 Q2601.1715,348.7777 2601.8564,349.8444 Q2602.5412,350.911 2603.8859,350.911 Q2604.5168,350.911 2605.1103,350.6412 Q2605.7038,350.3715 2606.3346,349.7904 Z " fill="#000000"/><text fill="#000000" font-family="sans-serif" font-size="14" lengthAdjust="spacing" textLength="97.6719" x="2624.3615" y="351.661">PlayerUpgrade</text><line style="stroke:#181818;stroke-width:0.5;" x1="2500.34" x2="2813.5548" y1="362.37" y2="362.37"/><ellipse cx="2510.34" cy="376.1141" fill="none" rx="3" ry="3" style="stroke:#038048;stroke-width:1.0;"/><text fill="#000000" font-family="sans-serif" font-size="14" lengthAdjust="spacing" textLength="188.9658" x="2519.34" y="379.9052">upgradeName : string &#171;get&#187;</text><line style="stroke:#181818;stroke-width:0.5;" x1="2500.34" x2="2813.5548" y1="386.8583" y2="386.8583"/><ellipse cx="2510.34" cy="400.6024" fill="#84BE84" rx="3" ry="3" style="stroke:#038048;stroke-width:1.0;"/><text fill="#000000" font-family="sans-serif" font-size="14" lengthAdjust="spacing" textLength="289.2148" x="2519.34" y="404.3934">Initialize(upgradeData:UpgradeData) : void</text></g><!--class UpgradeLoader--><g id="elem_UpgradeLoader"><rect codeLine="2" fill="#F1F1F1" height="80.9766" id="UpgradeLoader" rx="2.5" ry="2.5" style="stroke:#181818;stroke-width:0.5;" width="333.9385" x="1616.98" y="330.37"/><ellipse cx="1727.9751" cy="346.37" fill="#ADD1B2" rx="11" ry="11" style="stroke:#181818;stroke-width:1.0;"/><path d="M1730.4483,352.5131 Q1729.8672,352.8119 1729.228,352.9613 Q1728.5889,353.1107 1727.8833,353.1107 Q1725.3765,353.1107 1724.0567,351.4589 Q1722.7368,349.807 1722.7368,346.6859 Q1722.7368,343.5565 1724.0567,341.9047 Q1725.3765,340.2528 1727.8833,340.2528 Q1728.5889,340.2528 1729.2363,340.4022 Q1729.8838,340.5516 1730.4483,340.8505 L1730.4483,343.5731 Q1729.8174,342.9921 1729.2239,342.7223 Q1728.6304,342.4525 1727.9995,342.4525 Q1726.6548,342.4525 1725.97,343.5192 Q1725.2852,344.5858 1725.2852,346.6859 Q1725.2852,348.7777 1725.97,349.8444 Q1726.6548,350.911 1727.9995,350.911 Q1728.6304,350.911 1729.2239,350.6412 Q1729.8174,350.3715 1730.4483,349.7904 Z " fill="#000000"/><text fill="#000000" font-family="sans-serif" font-size="14" lengthAdjust="spacing" textLength="103.4482" x="1748.4751" y="351.661">UpgradeLoader</text><line style="stroke:#181818;stroke-width:0.5;" x1="1617.98" x2="1949.9185" y1="362.37" y2="362.37"/><line style="stroke:#181818;stroke-width:0.5;" x1="1617.98" x2="1949.9185" y1="370.37" y2="370.37"/><ellipse cx="1627.98" cy="384.1141" fill="#84BE84" rx="3" ry="3" style="stroke:#038048;stroke-width:1.0;"/><text fill="#000000" font-family="sans-serif" font-size="14" lengthAdjust="spacing" textLength="307.9385" x="1636.98" y="387.9052">GetUpgrade(upgradeId:UpgradeId) : IUpgrade</text><ellipse cx="1627.98" cy="400.6024" fill="#84BE84" rx="3" ry="3" style="stroke:#038048;stroke-width:1.0;"/><text fill="#000000" font-family="sans-serif" font-size="14" lengthAdjust="spacing" textLength="161.7314" x="1636.98" y="404.3934">GetUpgradeCount() : int</text></g><!--class UpgradeSelector--><g id="elem_UpgradeSelector"><rect codeLine="2" fill="#F1F1F1" height="130.4414" id="UpgradeSelector" rx="2.5" ry="2.5" style="stroke:#181818;stroke-width:0.5;" width="478.7236" x="1985.59" y="305.64"/><ellipse cx="2165.0846" cy="321.64" fill="#ADD1B2" rx="11" ry="11" style="stroke:#181818;stroke-width:1.0;"/><path d="M2167.5578,327.7831 Q2166.9767,328.0819 2166.3376,328.2313 Q2165.6984,328.3807 2164.9928,328.3807 Q2162.486,328.3807 2161.1662,326.7289 Q2159.8463,325.077 2159.8463,321.9559 Q2159.8463,318.8265 2161.1662,317.1747 Q2162.486,315.5228 2164.9928,315.5228 Q2165.6984,315.5228 2166.3459,315.6722 Q2166.9933,315.8216 2167.5578,316.1205 L2167.5578,318.8431 Q2166.9269,318.2621 2166.3334,317.9923 Q2165.7399,317.7225 2165.109,317.7225 Q2163.7643,317.7225 2163.0795,318.7892 Q2162.3947,319.8558 2162.3947,321.9559 Q2162.3947,324.0477 2163.0795,325.1144 Q2163.7643,326.181 2165.109,326.181 Q2165.7399,326.181 2166.3334,325.9112 Q2166.9269,325.6415 2167.5578,325.0604 Z " fill="#000000"/><text fill="#000000" font-family="sans-serif" font-size="14" lengthAdjust="spacing" textLength="111.2344" x="2185.5846" y="326.931">UpgradeSelector</text><line style="stroke:#181818;stroke-width:0.5;" x1="1986.59" x2="2463.3136" y1="337.64" y2="337.64"/><ellipse cx="1996.59" cy="351.3841" fill="none" rx="3" ry="3" style="stroke:#038048;stroke-width:1.0;"/><text fill="#000000" font-family="sans-serif" font-size="14" lengthAdjust="spacing" textLength="452.7236" x="2005.59" y="355.1752">OnUpgradesUpdatedAsObservable : Observable&lt;List&lt;IUpgrade&gt;&gt;</text><ellipse cx="1996.59" cy="367.8724" fill="none" rx="3" ry="3" style="stroke:#038048;stroke-width:1.0;"/><text fill="#000000" font-family="sans-serif" font-size="14" lengthAdjust="spacing" textLength="294.8955" x="2005.59" y="371.6634">IsActive : ReadOnlyReactiveProperty&lt;bool&gt;</text><line style="stroke:#181818;stroke-width:0.5;" x1="1986.59" x2="2463.3136" y1="378.6166" y2="378.6166"/><ellipse cx="1996.59" cy="392.3607" fill="#84BE84" rx="3" ry="3" style="stroke:#038048;stroke-width:1.0;"/><text fill="#000000" font-family="sans-serif" font-size="14" lengthAdjust="spacing" textLength="108.8008" x="2005.59" y="396.1517">Initialize() : void</text><ellipse cx="1996.59" cy="408.849" fill="#84BE84" rx="3" ry="3" style="stroke:#038048;stroke-width:1.0;"/><text fill="#000000" font-family="sans-serif" font-size="14" lengthAdjust="spacing" textLength="136.124" x="2005.59" y="412.64">SetUpgrades() : void</text><ellipse cx="1996.59" cy="425.3373" fill="#84BE84" rx="3" ry="3" style="stroke:#038048;stroke-width:1.0;"/><text fill="#000000" font-family="sans-serif" font-size="14" lengthAdjust="spacing" textLength="207.3887" x="2005.59" y="429.1283">ApplyUpgrade(index:int) : void</text></g><!--class AddWeaponUpgrade--><g id="elem_AddWeaponUpgrade"><rect codeLine="2" fill="#F1F1F1" height="80.9766" id="AddWeaponUpgrade" rx="2.5" ry="2.5" style="stroke:#181818;stroke-width:0.5;" width="315.2148" x="2849.34" y="330.37"/><ellipse cx="2933.5963" cy="346.37" fill="#ADD1B2" rx="11" ry="11" style="stroke:#181818;stroke-width:1.0;"/><path d="M2936.0695,352.5131 Q2935.4884,352.8119 2934.8493,352.9613 Q2934.2101,353.1107 2933.5046,353.1107 Q2930.9977,353.1107 2929.6779,351.4589 Q2928.3581,349.807 2928.3581,346.6859 Q2928.3581,343.5565 2929.6779,341.9047 Q2930.9977,340.2528 2933.5046,340.2528 Q2934.2101,340.2528 2934.8576,340.4022 Q2935.505,340.5516 2936.0695,340.8505 L2936.0695,343.5731 Q2935.4386,342.9921 2934.8451,342.7223 Q2934.2516,342.4525 2933.6208,342.4525 Q2932.276,342.4525 2931.5912,343.5192 Q2930.9064,344.5858 2930.9064,346.6859 Q2930.9064,348.7777 2931.5912,349.8444 Q2932.276,350.911 2933.6208,350.911 Q2934.2516,350.911 2934.8451,350.6412 Q2935.4386,350.3715 2936.0695,349.7904 Z " fill="#000000"/><text fill="#000000" font-family="sans-serif" font-size="14" lengthAdjust="spacing" textLength="138.2021" x="2954.0963" y="351.661">AddWeaponUpgrade</text><line style="stroke:#181818;stroke-width:0.5;" x1="2850.34" x2="3163.5548" y1="362.37" y2="362.37"/><ellipse cx="2860.34" cy="376.1141" fill="none" rx="3" ry="3" style="stroke:#038048;stroke-width:1.0;"/><text fill="#000000" font-family="sans-serif" font-size="14" lengthAdjust="spacing" textLength="188.9658" x="2869.34" y="379.9052">upgradeName : string &#171;get&#187;</text><line style="stroke:#181818;stroke-width:0.5;" x1="2850.34" x2="3163.5548" y1="386.8583" y2="386.8583"/><ellipse cx="2860.34" cy="400.6024" fill="#84BE84" rx="3" ry="3" style="stroke:#038048;stroke-width:1.0;"/><text fill="#000000" font-family="sans-serif" font-size="14" lengthAdjust="spacing" textLength="289.2148" x="2869.34" y="404.3934">Initialize(upgradeData:UpgradeData) : void</text></g><!--class UpgradeType--><g id="elem_UpgradeType"><rect codeLine="2" fill="#F1F1F1" height="97.4648" id="UpgradeType" rx="2.5" ry="2.5" style="stroke:#181818;stroke-width:0.5;" width="122.0908" x="2157.9" y="777.21"/><ellipse cx="2172.9" cy="793.21" fill="#EB937F" rx="11" ry="11" style="stroke:#181818;stroke-width:1.0;"/><path d="M2176.5143,799.71 L2168.7945,799.71 L2168.7945,787.3169 L2176.5143,787.3169 L2176.5143,789.4751 L2171.2433,789.4751 L2171.2433,792.148 L2176.0162,792.148 L2176.0162,794.3062 L2171.2433,794.3062 L2171.2433,797.5518 L2176.5143,797.5518 Z " fill="#000000"/><text fill="#000000" font-family="sans-serif" font-size="14" lengthAdjust="spacing" textLength="90.0908" x="2186.9" y="798.501">UpgradeType</text><line style="stroke:#181818;stroke-width:0.5;" x1="2158.9" x2="2278.9908" y1="809.21" y2="809.21"/><text fill="#000000" font-family="sans-serif" font-size="14" lengthAdjust="spacing" textLength="44.7891" x="2163.9" y="826.7452">Player,</text><text fill="#000000" font-family="sans-serif" font-size="14" lengthAdjust="spacing" textLength="85.3193" x="2163.9" y="843.2334">AddWeapon,</text><text fill="#000000" font-family="sans-serif" font-size="14" lengthAdjust="spacing" textLength="58.0371" x="2163.9" y="859.7217">Weapon,</text><line style="stroke:#181818;stroke-width:0.5;" x1="2158.9" x2="2278.9908" y1="866.6748" y2="866.6748"/></g><!--class UpgradeData--><g id="elem_UpgradeData"><rect codeLine="7" fill="#F1F1F1" height="146.9297" id="UpgradeData" rx="2.5" ry="2.5" style="stroke:#181818;stroke-width:0.5;" width="304.5508" x="2229.67" y="537.3"/><ellipse cx="2333.4464" cy="553.3" fill="#ADD1B2" rx="11" ry="11" style="stroke:#181818;stroke-width:1.0;"/><path d="M2335.9195,559.4431 Q2335.3385,559.7419 2334.6993,559.8913 Q2334.0601,560.0407 2333.3546,560.0407 Q2330.8477,560.0407 2329.5279,558.3889 Q2328.2081,556.737 2328.2081,553.6159 Q2328.2081,550.4865 2329.5279,548.8347 Q2330.8477,547.1828 2333.3546,547.1828 Q2334.0601,547.1828 2334.7076,547.3322 Q2335.3551,547.4816 2335.9195,547.7805 L2335.9195,550.5031 Q2335.2887,549.9221 2334.6951,549.6523 Q2334.1016,549.3825 2333.4708,549.3825 Q2332.1261,549.3825 2331.4412,550.4492 Q2330.7564,551.5158 2330.7564,553.6159 Q2330.7564,555.7077 2331.4412,556.7744 Q2332.1261,557.841 2333.4708,557.841 Q2334.1016,557.841 2334.6951,557.5712 Q2335.2887,557.3015 2335.9195,556.7204 Z " fill="#000000"/><text fill="#000000" font-family="sans-serif" font-size="14" lengthAdjust="spacing" textLength="88.498" x="2353.9464" y="558.591">UpgradeData</text><line style="stroke:#181818;stroke-width:0.5;" x1="2230.67" x2="2533.2208" y1="569.3" y2="569.3"/><ellipse cx="2240.67" cy="583.0441" fill="none" rx="3" ry="3" style="stroke:#038048;stroke-width:1.0;"/><text fill="#000000" font-family="sans-serif" font-size="14" lengthAdjust="spacing" textLength="65.7139" x="2249.67" y="586.8352">id : string</text><ellipse cx="2240.67" cy="599.5324" fill="none" rx="3" ry="3" style="stroke:#038048;stroke-width:1.0;"/><text fill="#000000" font-family="sans-serif" font-size="14" lengthAdjust="spacing" textLength="148.1006" x="2249.67" y="603.3234">upgradeName : string</text><ellipse cx="2240.67" cy="616.0207" fill="none" rx="3" ry="3" style="stroke:#038048;stroke-width:1.0;"/><text fill="#000000" font-family="sans-serif" font-size="14" lengthAdjust="spacing" textLength="192.459" x="2249.67" y="619.8117">upgradeType : UpgradeType</text><ellipse cx="2240.67" cy="632.509" fill="none" rx="3" ry="3" style="stroke:#038048;stroke-width:1.0;"/><text fill="#000000" font-family="sans-serif" font-size="14" lengthAdjust="spacing" textLength="254.3174" x="2249.67" y="636.3">playerParamsVariation : PlayerParams</text><ellipse cx="2240.67" cy="648.9973" fill="none" rx="3" ry="3" style="stroke:#038048;stroke-width:1.0;"/><text fill="#000000" font-family="sans-serif" font-size="14" lengthAdjust="spacing" textLength="278.5508" x="2249.67" y="652.7883">weaponParamsVariation : WeaponParams</text><ellipse cx="2240.67" cy="665.4855" fill="none" rx="3" ry="3" style="stroke:#038048;stroke-width:1.0;"/><text fill="#000000" font-family="sans-serif" font-size="14" lengthAdjust="spacing" textLength="145.0039" x="2249.67" y="669.2766">weaponId : WeaponId</text><line style="stroke:#181818;stroke-width:0.5;" x1="2230.67" x2="2533.2208" y1="676.2297" y2="676.2297"/></g><!--class UpgradeSetting--><g id="elem_UpgradeSetting"><rect codeLine="15" fill="#F1F1F1" height="97.4648" id="UpgradeSetting" rx="2.5" ry="2.5" style="stroke:#181818;stroke-width:0.5;" width="335.9893" x="1245.95" y="322.13"/><ellipse cx="1357.3997" cy="338.13" fill="#ADD1B2" rx="11" ry="11" style="stroke:#181818;stroke-width:1.0;"/><path d="M1359.8729,344.2731 Q1359.2918,344.5719 1358.6526,344.7213 Q1358.0135,344.8707 1357.3079,344.8707 Q1354.8011,344.8707 1353.4813,343.2189 Q1352.1614,341.567 1352.1614,338.4459 Q1352.1614,335.3165 1353.4813,333.6647 Q1354.8011,332.0128 1357.3079,332.0128 Q1358.0135,332.0128 1358.6609,332.1622 Q1359.3084,332.3116 1359.8729,332.6105 L1359.8729,335.3331 Q1359.242,334.7521 1358.6485,334.4823 Q1358.055,334.2125 1357.4241,334.2125 Q1356.0794,334.2125 1355.3946,335.2792 Q1354.7098,336.3458 1354.7098,338.4459 Q1354.7098,340.5377 1355.3946,341.6044 Q1356.0794,342.671 1357.4241,342.671 Q1358.055,342.671 1358.6485,342.4012 Q1359.242,342.1315 1359.8729,341.5504 Z " fill="#000000"/><text fill="#000000" font-family="sans-serif" font-size="14" lengthAdjust="spacing" textLength="104.5898" x="1377.8997" y="343.421">UpgradeSetting</text><line style="stroke:#181818;stroke-width:0.5;" x1="1246.95" x2="1580.9393" y1="354.13" y2="354.13"/><ellipse cx="1256.95" cy="367.8741" fill="none" rx="3" ry="3" style="stroke:#038048;stroke-width:1.0;"/><text fill="#000000" font-family="sans-serif" font-size="14" lengthAdjust="spacing" textLength="259.3008" x="1265.95" y="371.6652">upgradeDataList : List&lt;UpgradeData&gt;</text><line style="stroke:#181818;stroke-width:0.5;" x1="1246.95" x2="1580.9393" y1="378.6183" y2="378.6183"/><ellipse cx="1256.95" cy="392.3624" fill="#84BE84" rx="3" ry="3" style="stroke:#038048;stroke-width:1.0;"/><text fill="#000000" font-family="sans-serif" font-size="14" lengthAdjust="spacing" textLength="309.9893" x="1265.95" y="396.1534">GetUpgradeData(id:UpgradeId) : UpgradeData</text><ellipse cx="1256.95" cy="408.8507" fill="#84BE84" rx="3" ry="3" style="stroke:#038048;stroke-width:1.0;"/><text fill="#000000" font-family="sans-serif" font-size="14" lengthAdjust="spacing" textLength="156.5156" x="1265.95" y="412.6417">CreateEnumFile() : void</text></g><!--class PlayerParams--><g id="elem_PlayerParams"><rect fill="#F1F1F1" height="48" id="PlayerParams" rx="2.5" ry="2.5" style="stroke:#181818;stroke-width:0.5;" width="121.4961" x="3074.2" y="801.94"/><ellipse cx="3089.2" cy="817.94" fill="#ADD1B2" rx="11" ry="11" style="stroke:#181818;stroke-width:1.0;"/><path d="M3091.6731,824.0831 Q3091.0921,824.3819 3090.4529,824.5313 Q3089.8138,824.6807 3089.1082,824.6807 Q3086.6014,824.6807 3085.2815,823.0289 Q3083.9617,821.377 3083.9617,818.2559 Q3083.9617,815.1265 3085.2815,813.4747 Q3086.6014,811.8228 3089.1082,811.8228 Q3089.8138,811.8228 3090.4612,811.9722 Q3091.1087,812.1216 3091.6731,812.4205 L3091.6731,815.1431 Q3091.0423,814.5621 3090.4488,814.2923 Q3089.8553,814.0225 3089.2244,814.0225 Q3087.8797,814.0225 3087.1949,815.0892 Q3086.5101,816.1558 3086.5101,818.2559 Q3086.5101,820.3477 3087.1949,821.4144 Q3087.8797,822.481 3089.2244,822.481 Q3089.8553,822.481 3090.4488,822.2112 Q3091.0423,821.9415 3091.6731,821.3604 Z " fill="#000000"/><text fill="#000000" font-family="sans-serif" font-size="14" lengthAdjust="spacing" textLength="89.4961" x="3103.2" y="823.231">PlayerParams</text><line style="stroke:#181818;stroke-width:0.5;" x1="3075.2" x2="3194.6961" y1="833.94" y2="833.94"/><line style="stroke:#181818;stroke-width:0.5;" x1="3075.2" x2="3194.6961" y1="841.94" y2="841.94"/></g><!--class WeaponParams--><g id="elem_WeaponParams"><rect fill="#F1F1F1" height="48" id="WeaponParams" rx="2.5" ry="2.5" style="stroke:#181818;stroke-width:0.5;" width="134.7441" x="2314.58" y="801.94"/><ellipse cx="2329.58" cy="817.94" fill="#ADD1B2" rx="11" ry="11" style="stroke:#181818;stroke-width:1.0;"/><path d="M2332.0531,824.0831 Q2331.4721,824.3819 2330.8329,824.5313 Q2330.1938,824.6807 2329.4882,824.6807 Q2326.9814,824.6807 2325.6615,823.0289 Q2324.3417,821.377 2324.3417,818.2559 Q2324.3417,815.1265 2325.6615,813.4747 Q2326.9814,811.8228 2329.4882,811.8228 Q2330.1938,811.8228 2330.8412,811.9722 Q2331.4887,812.1216 2332.0531,812.4205 L2332.0531,815.1431 Q2331.4223,814.5621 2330.8288,814.2923 Q2330.2353,814.0225 2329.6044,814.0225 Q2328.2597,814.0225 2327.5749,815.0892 Q2326.8901,816.1558 2326.8901,818.2559 Q2326.8901,820.3477 2327.5749,821.4144 Q2328.2597,822.481 2329.6044,822.481 Q2330.2353,822.481 2330.8288,822.2112 Q2331.4223,821.9415 2332.0531,821.3604 Z " fill="#000000"/><text fill="#000000" font-family="sans-serif" font-size="14" lengthAdjust="spacing" textLength="102.7441" x="2343.58" y="823.231">WeaponParams</text><line style="stroke:#181818;stroke-width:0.5;" x1="2315.58" x2="2448.3241" y1="833.94" y2="833.94"/><line style="stroke:#181818;stroke-width:0.5;" x1="2315.58" x2="2448.3241" y1="841.94" y2="841.94"/></g><!--class WeaponId--><g id="elem_WeaponId"><rect fill="#F1F1F1" height="48" id="WeaponId" rx="2.5" ry="2.5" style="stroke:#181818;stroke-width:0.5;" width="98.4521" x="2484.72" y="801.94"/><ellipse cx="2499.72" cy="817.94" fill="#ADD1B2" rx="11" ry="11" style="stroke:#181818;stroke-width:1.0;"/><path d="M2502.1931,824.0831 Q2501.6121,824.3819 2500.9729,824.5313 Q2500.3338,824.6807 2499.6282,824.6807 Q2497.1214,824.6807 2495.8015,823.0289 Q2494.4817,821.377 2494.4817,818.2559 Q2494.4817,815.1265 2495.8015,813.4747 Q2497.1214,811.8228 2499.6282,811.8228 Q2500.3338,811.8228 2500.9812,811.9722 Q2501.6287,812.1216 2502.1931,812.4205 L2502.1931,815.1431 Q2501.5623,814.5621 2500.9688,814.2923 Q2500.3753,814.0225 2499.7444,814.0225 Q2498.3997,814.0225 2497.7149,815.0892 Q2497.0301,816.1558 2497.0301,818.2559 Q2497.0301,820.3477 2497.7149,821.4144 Q2498.3997,822.481 2499.7444,822.481 Q2500.3753,822.481 2500.9688,822.2112 Q2501.5623,821.9415 2502.1931,821.3604 Z " fill="#000000"/><text fill="#000000" font-family="sans-serif" font-size="14" lengthAdjust="spacing" textLength="66.4521" x="2513.72" y="823.231">WeaponId</text><line style="stroke:#181818;stroke-width:0.5;" x1="2485.72" x2="2582.1721" y1="833.94" y2="833.94"/><line style="stroke:#181818;stroke-width:0.5;" x1="2485.72" x2="2582.1721" y1="841.94" y2="841.94"/></g><!--class ScriptableObject--><g id="elem_ScriptableObject"><rect fill="#F1F1F1" height="48" id="ScriptableObject" rx="2.5" ry="2.5" style="stroke:#181818;stroke-width:0.5;" width="143.0771" x="1342.41" y="115.2"/><ellipse cx="1357.41" cy="131.2" fill="#ADD1B2" rx="11" ry="11" style="stroke:#181818;stroke-width:1.0;"/><path d="M1359.8831,137.3431 Q1359.3021,137.6419 1358.6629,137.7913 Q1358.0238,137.9407 1357.3182,137.9407 Q1354.8114,137.9407 1353.4915,136.2889 Q1352.1717,134.637 1352.1717,131.5159 Q1352.1717,128.3865 1353.4915,126.7347 Q1354.8114,125.0828 1357.3182,125.0828 Q1358.0238,125.0828 1358.6712,125.2322 Q1359.3187,125.3816 1359.8831,125.6805 L1359.8831,128.4031 Q1359.2523,127.8221 1358.6588,127.5523 Q1358.0653,127.2825 1357.4344,127.2825 Q1356.0897,127.2825 1355.4049,128.3492 Q1354.7201,129.4158 1354.7201,131.5159 Q1354.7201,133.6077 1355.4049,134.6744 Q1356.0897,135.741 1357.4344,135.741 Q1358.0653,135.741 1358.6588,135.4712 Q1359.2523,135.2015 1359.8831,134.6204 Z " fill="#000000"/><text fill="#000000" font-family="sans-serif" font-size="14" lengthAdjust="spacing" textLength="111.0771" x="1371.41" y="136.491">ScriptableObject</text><line style="stroke:#181818;stroke-width:0.5;" x1="1343.41" x2="1484.4871" y1="147.2" y2="147.2"/><line style="stroke:#181818;stroke-width:0.5;" x1="1343.41" x2="1484.4871" y1="155.2" y2="155.2"/></g><!--class UpgradeId--><g id="elem_UpgradeId"><rect codeLine="2" fill="#F1F1F1" height="146.9297" id="UpgradeId" rx="2.5" ry="2.5" style="stroke:#181818;stroke-width:0.5;" width="102.1572" x="3549.87" y="297.39"/><ellipse cx="3564.87" cy="313.39" fill="#EB937F" rx="11" ry="11" style="stroke:#181818;stroke-width:1.0;"/><path d="M3568.4843,319.89 L3560.7645,319.89 L3560.7645,307.4969 L3568.4843,307.4969 L3568.4843,309.6551 L3563.2133,309.6551 L3563.2133,312.328 L3567.9862,312.328 L3567.9862,314.4862 L3563.2133,314.4862 L3563.2133,317.7318 L3568.4843,317.7318 Z " fill="#000000"/><text fill="#000000" font-family="sans-serif" font-size="14" lengthAdjust="spacing" textLength="70.1572" x="3578.87" y="318.681">UpgradeId</text><line style="stroke:#181818;stroke-width:0.5;" x1="3550.87" x2="3651.0272" y1="329.39" y2="329.39"/><text fill="#000000" font-family="sans-serif" font-size="14" lengthAdjust="spacing" textLength="65.9258" x="3555.87" y="346.9252">Health01,</text><text fill="#000000" font-family="sans-serif" font-size="14" lengthAdjust="spacing" textLength="65.9258" x="3555.87" y="363.4134">Health02,</text><text fill="#000000" font-family="sans-serif" font-size="14" lengthAdjust="spacing" textLength="38.5684" x="3555.87" y="379.9017">Basic,</text><text fill="#000000" font-family="sans-serif" font-size="14" lengthAdjust="spacing" textLength="43.7158" x="3555.87" y="396.39">Triple,</text><text fill="#000000" font-family="sans-serif" font-size="14" lengthAdjust="spacing" textLength="61.4209" x="3555.87" y="412.8783">Triple01,</text><text fill="#000000" font-family="sans-serif" font-size="14" lengthAdjust="spacing" textLength="57.8525" x="3555.87" y="429.3666">Homing,</text><line style="stroke:#181818;stroke-width:0.5;" x1="3550.87" x2="3651.0272" y1="436.3197" y2="436.3197"/></g><!--class WeaponParams--><g id="elem_WeaponParams"><rect codeLine="2" fill="#F1F1F1" height="64.4883" id="WeaponParams" rx="2.5" ry="2.5" style="stroke:#181818;stroke-width:0.5;" width="169.6641" x="4767.12" y="106.95"/><ellipse cx="4797.834" cy="122.95" fill="#ADD1B2" rx="11" ry="11" style="stroke:#181818;stroke-width:1.0;"/><path d="M4800.3071,129.0931 Q4799.7261,129.3919 4799.0869,129.5413 Q4798.4477,129.6907 4797.7422,129.6907 Q4795.2353,129.6907 4793.9155,128.0389 Q4792.5957,126.387 4792.5957,123.2659 Q4792.5957,120.1365 4793.9155,118.4847 Q4795.2353,116.8328 4797.7422,116.8328 Q4798.4477,116.8328 4799.0952,116.9822 Q4799.7427,117.1316 4800.3071,117.4305 L4800.3071,120.1531 Q4799.6762,119.5721 4799.0827,119.3023 Q4798.4892,119.0325 4797.8584,119.0325 Q4796.5137,119.0325 4795.8288,120.0992 Q4795.144,121.1658 4795.144,123.2659 Q4795.144,125.3577 4795.8288,126.4244 Q4796.5137,127.491 4797.8584,127.491 Q4798.4892,127.491 4799.0827,127.2212 Q4799.6762,126.9515 4800.3071,126.3704 Z " fill="#000000"/><text fill="#000000" font-family="sans-serif" font-size="14" lengthAdjust="spacing" textLength="102.7441" x="4815.326" y="128.241">WeaponParams</text><line style="stroke:#181818;stroke-width:0.5;" x1="4768.12" x2="4935.7841" y1="138.95" y2="138.95"/><ellipse cx="4778.12" cy="152.6941" fill="none" rx="3" ry="3" style="stroke:#038048;stroke-width:1.0;"/><text fill="#000000" font-family="sans-serif" font-size="14" lengthAdjust="spacing" textLength="143.6641" x="4787.12" y="156.4852">fireRate : float = 0.5f</text><line style="stroke:#181818;stroke-width:0.5;" x1="4768.12" x2="4935.7841" y1="163.4383" y2="163.4383"/></g><!--class BaseWeapon--><g id="elem_BaseWeapon"><rect codeLine="2" fill="#F1F1F1" height="80.9766" id="BaseWeapon" rx="2.5" ry="2.5" style="stroke:#181818;stroke-width:0.5;" width="549.1406" x="5398.38" y="98.71"/><ellipse cx="5626.5363" cy="114.71" fill="#A9DCDF" rx="11" ry="11" style="stroke:#181818;stroke-width:1.0;"/><path d="M5626.3995,110.0581 L5625.2457,115.1299 L5627.5616,115.1299 Z M5624.9054,107.8169 L5627.902,107.8169 L5631.2472,120.21 L5628.7985,120.21 L5628.0348,117.147 L5624.756,117.147 L5624.0089,120.21 L5621.5602,120.21 Z " fill="#000000"/><text fill="#000000" font-family="sans-serif" font-size="14" font-style="italic" lengthAdjust="spacing" textLength="84.3281" x="5647.0363" y="120.001">BaseWeapon</text><line style="stroke:#181818;stroke-width:0.5;" x1="5399.38" x2="5946.5206" y1="130.71" y2="130.71"/><line style="stroke:#181818;stroke-width:0.5;" x1="5399.38" x2="5946.5206" y1="138.71" y2="138.71"/><ellipse cx="5409.38" cy="152.4541" fill="#84BE84" rx="3" ry="3" style="stroke:#038048;stroke-width:1.0;"/><text fill="#000000" font-family="sans-serif" font-size="14" lengthAdjust="spacing" textLength="351.5859" x="5418.38" y="156.2452">Initialize(owner:PlayerCore, input:PlayerInput) : void</text><ellipse cx="5409.38" cy="168.9424" fill="#84BE84" rx="3" ry="3" style="stroke:#038048;stroke-width:1.0;"/><text fill="#000000" font-family="sans-serif" font-size="14" lengthAdjust="spacing" textLength="523.1406" x="5418.38" y="172.7334">ApplyWeaponParamsVariation(weaponParamsVariation:WeaponParams) : void</text></g><!--class WeaponManager--><g id="elem_WeaponManager"><rect codeLine="2" fill="#F1F1F1" height="64.4883" id="WeaponManager" rx="2.5" ry="2.5" style="stroke:#181818;stroke-width:0.5;" width="391.5723" x="4972.16" y="106.95"/><ellipse cx="5107.6585" cy="122.95" fill="#ADD1B2" rx="11" ry="11" style="stroke:#181818;stroke-width:1.0;"/><path d="M5110.1317,129.0931 Q5109.5506,129.3919 5108.9115,129.5413 Q5108.2723,129.6907 5107.5667,129.6907 Q5105.0599,129.6907 5103.7401,128.0389 Q5102.4203,126.387 5102.4203,123.2659 Q5102.4203,120.1365 5103.7401,118.4847 Q5105.0599,116.8328 5107.5667,116.8328 Q5108.2723,116.8328 5108.9198,116.9822 Q5109.5672,117.1316 5110.1317,117.4305 L5110.1317,120.1531 Q5109.5008,119.5721 5108.9073,119.3023 Q5108.3138,119.0325 5107.6829,119.0325 Q5106.3382,119.0325 5105.6534,120.0992 Q5104.9686,121.1658 5104.9686,123.2659 Q5104.9686,125.3577 5105.6534,126.4244 Q5106.3382,127.491 5107.6829,127.491 Q5108.3138,127.491 5108.9073,127.2212 Q5109.5008,126.9515 5110.1317,126.3704 Z " fill="#000000"/><text fill="#000000" font-family="sans-serif" font-size="14" lengthAdjust="spacing" textLength="112.0752" x="5128.1585" y="128.241">WeaponManager</text><line style="stroke:#181818;stroke-width:0.5;" x1="4973.16" x2="5362.7323" y1="138.95" y2="138.95"/><line style="stroke:#181818;stroke-width:0.5;" x1="4973.16" x2="5362.7323" y1="146.95" y2="146.95"/><ellipse cx="4983.16" cy="160.6941" fill="#84BE84" rx="3" ry="3" style="stroke:#038048;stroke-width:1.0;"/><text fill="#000000" font-family="sans-serif" font-size="14" lengthAdjust="spacing" textLength="365.5723" x="4992.16" y="164.4852">CreateWeapons(weaponList:List&lt;GameObject&gt;) : void</text></g><!--class BasicGun--><g id="elem_BasicGun"><rect codeLine="2" fill="#F1F1F1" height="48" id="BasicGun" rx="2.5" ry="2.5" style="stroke:#181818;stroke-width:0.5;" width="93.6328" x="5626.13" y="346.86"/><ellipse cx="5641.13" cy="362.86" fill="#ADD1B2" rx="11" ry="11" style="stroke:#181818;stroke-width:1.0;"/><path d="M5643.6031,369.0031 Q5643.0221,369.3019 5642.3829,369.4513 Q5641.7438,369.6007 5641.0382,369.6007 Q5638.5314,369.6007 5637.2115,367.9489 Q5635.8917,366.297 5635.8917,363.1759 Q5635.8917,360.0465 5637.2115,358.3947 Q5638.5314,356.7428 5641.0382,356.7428 Q5641.7438,356.7428 5642.3912,356.8922 Q5643.0387,357.0416 5643.6031,357.3405 L5643.6031,360.0631 Q5642.9723,359.4821 5642.3788,359.2123 Q5641.7853,358.9425 5641.1544,358.9425 Q5639.8097,358.9425 5639.1249,360.0092 Q5638.4401,361.0758 5638.4401,363.1759 Q5638.4401,365.2677 5639.1249,366.3344 Q5639.8097,367.401 5641.1544,367.401 Q5641.7853,367.401 5642.3788,367.1312 Q5642.9723,366.8615 5643.6031,366.2804 Z " fill="#000000"/><text fill="#000000" font-family="sans-serif" font-size="14" lengthAdjust="spacing" textLength="61.6328" x="5655.13" y="368.151">BasicGun</text><line style="stroke:#181818;stroke-width:0.5;" x1="5627.13" x2="5718.7628" y1="378.86" y2="378.86"/><line style="stroke:#181818;stroke-width:0.5;" x1="5627.13" x2="5718.7628" y1="386.86" y2="386.86"/></g><!--class WeaponId--><g id="elem_WeaponId"><rect codeLine="2" fill="#F1F1F1" height="97.4648" id="WeaponId" rx="2.5" ry="2.5" style="stroke:#181818;stroke-width:0.5;" width="98.4521" x="4802.72" y="322.13"/><ellipse cx="4817.72" cy="338.13" fill="#EB937F" rx="11" ry="11" style="stroke:#181818;stroke-width:1.0;"/><path d="M4821.3343,344.63 L4813.6145,344.63 L4813.6145,332.2369 L4821.3343,332.2369 L4821.3343,334.3951 L4816.0633,334.3951 L4816.0633,337.068 L4820.8362,337.068 L4820.8362,339.2262 L4816.0633,339.2262 L4816.0633,342.4718 L4821.3343,342.4718 Z " fill="#000000"/><text fill="#000000" font-family="sans-serif" font-size="14" lengthAdjust="spacing" textLength="66.4521" x="4831.72" y="343.421">WeaponId</text><line style="stroke:#181818;stroke-width:0.5;" x1="4803.72" x2="4900.1721" y1="354.13" y2="354.13"/><text fill="#000000" font-family="sans-serif" font-size="14" lengthAdjust="spacing" textLength="66.0625" x="4808.72" y="371.6652">BasicGun,</text><text fill="#000000" font-family="sans-serif" font-size="14" lengthAdjust="spacing" textLength="71.21" x="4808.72" y="388.1534">TripleGun,</text><text fill="#000000" font-family="sans-serif" font-size="14" lengthAdjust="spacing" textLength="85.3467" x="4808.72" y="404.6417">HomingGun,</text><line style="stroke:#181818;stroke-width:0.5;" x1="4803.72" x2="4900.1721" y1="411.5948" y2="411.5948"/></g><!--class BaseBullet--><g id="elem_BaseBullet"><rect codeLine="2" fill="#F1F1F1" height="64.4883" id="BaseBullet" rx="2.5" ry="2.5" style="stroke:#181818;stroke-width:0.5;" width="441.0713" x="4089.41" y="106.95"/><ellipse cx="4271.3997" cy="122.95" fill="#ADD1B2" rx="11" ry="11" style="stroke:#181818;stroke-width:1.0;"/><path d="M4273.8729,129.0931 Q4273.2918,129.3919 4272.6527,129.5413 Q4272.0135,129.6907 4271.3079,129.6907 Q4268.8011,129.6907 4267.4813,128.0389 Q4266.1615,126.387 4266.1615,123.2659 Q4266.1615,120.1365 4267.4813,118.4847 Q4268.8011,116.8328 4271.3079,116.8328 Q4272.0135,116.8328 4272.661,116.9822 Q4273.3084,117.1316 4273.8729,117.4305 L4273.8729,120.1531 Q4273.242,119.5721 4272.6485,119.3023 Q4272.055,119.0325 4271.4242,119.0325 Q4270.0794,119.0325 4269.3946,120.0992 Q4268.7098,121.1658 4268.7098,123.2659 Q4268.7098,125.3577 4269.3946,126.4244 Q4270.0794,127.491 4271.4242,127.491 Q4272.055,127.491 4272.6485,127.2212 Q4273.242,126.9515 4273.8729,126.3704 Z " fill="#000000"/><text fill="#000000" font-family="sans-serif" font-size="14" lengthAdjust="spacing" textLength="68.5918" x="4291.8997" y="128.241">BaseBullet</text><line style="stroke:#181818;stroke-width:0.5;" x1="4090.41" x2="4529.4813" y1="138.95" y2="138.95"/><line style="stroke:#181818;stroke-width:0.5;" x1="4090.41" x2="4529.4813" y1="146.95" y2="146.95"/><ellipse cx="4100.41" cy="160.6941" fill="#84BE84" rx="3" ry="3" style="stroke:#038048;stroke-width:1.0;"/><text fill="#000000" font-family="sans-serif" font-size="14" lengthAdjust="spacing" textLength="415.0713" x="4109.41" y="164.4852">Initialize(bulletParams:BulletParams, owner:PlayerCore) : void</text></g><!--class HomingBullet--><g id="elem_HomingBullet"><rect codeLine="2" fill="#F1F1F1" height="48" id="HomingBullet" rx="2.5" ry="2.5" style="stroke:#181818;stroke-width:0.5;" width="123.2939" x="4248.3" y="346.86"/><ellipse cx="4263.3" cy="362.86" fill="#ADD1B2" rx="11" ry="11" style="stroke:#181818;stroke-width:1.0;"/><path d="M4265.7731,369.0031 Q4265.1921,369.3019 4264.5529,369.4513 Q4263.9138,369.6007 4263.2082,369.6007 Q4260.7014,369.6007 4259.3815,367.9489 Q4258.0617,366.297 4258.0617,363.1759 Q4258.0617,360.0465 4259.3815,358.3947 Q4260.7014,356.7428 4263.2082,356.7428 Q4263.9138,356.7428 4264.5612,356.8922 Q4265.2087,357.0416 4265.7731,357.3405 L4265.7731,360.0631 Q4265.1423,359.4821 4264.5488,359.2123 Q4263.9553,358.9425 4263.3244,358.9425 Q4261.9797,358.9425 4261.2949,360.0092 Q4260.6101,361.0758 4260.6101,363.1759 Q4260.6101,365.2677 4261.2949,366.3344 Q4261.9797,367.401 4263.3244,367.401 Q4263.9553,367.401 4264.5488,367.1312 Q4265.1423,366.8615 4265.7731,366.2804 Z " fill="#000000"/><text fill="#000000" font-family="sans-serif" font-size="14" lengthAdjust="spacing" textLength="91.2939" x="4277.3" y="368.151">HomingBullet</text><line style="stroke:#181818;stroke-width:0.5;" x1="4249.3" x2="4370.5939" y1="378.86" y2="378.86"/><line style="stroke:#181818;stroke-width:0.5;" x1="4249.3" x2="4370.5939" y1="386.86" y2="386.86"/></g><!--class BulletParams--><g id="elem_BulletParams"><rect codeLine="2" fill="#F1F1F1" height="80.9766" id="BulletParams" rx="2.5" ry="2.5" style="stroke:#181818;stroke-width:0.5;" width="166.7656" x="4565.57" y="98.71"/><ellipse cx="4602.061" cy="114.71" fill="#ADD1B2" rx="11" ry="11" style="stroke:#181818;stroke-width:1.0;"/><path d="M4604.5342,120.8531 Q4603.9531,121.1519 4603.3139,121.3013 Q4602.6748,121.4507 4601.9692,121.4507 Q4599.4624,121.4507 4598.1426,119.7989 Q4596.8227,118.147 4596.8227,115.0259 Q4596.8227,111.8965 4598.1426,110.2447 Q4599.4624,108.5928 4601.9692,108.5928 Q4602.6748,108.5928 4603.3222,108.7422 Q4603.9697,108.8916 4604.5342,109.1905 L4604.5342,111.9131 Q4603.9033,111.3321 4603.3098,111.0623 Q4602.7163,110.7925 4602.0854,110.7925 Q4600.7407,110.7925 4600.0559,111.8592 Q4599.3711,112.9258 4599.3711,115.0259 Q4599.3711,117.1177 4600.0559,118.1844 Q4600.7407,119.251 4602.0854,119.251 Q4602.7163,119.251 4603.3098,118.9812 Q4603.9033,118.7115 4604.5342,118.1304 Z " fill="#000000"/><text fill="#000000" font-family="sans-serif" font-size="14" lengthAdjust="spacing" textLength="87.0078" x="4620.8368" y="120.001">BulletParams</text><line style="stroke:#181818;stroke-width:0.5;" x1="4566.57" x2="4731.3356" y1="130.71" y2="130.71"/><ellipse cx="4576.57" cy="144.4541" fill="none" rx="3" ry="3" style="stroke:#038048;stroke-width:1.0;"/><text fill="#000000" font-family="sans-serif" font-size="14" lengthAdjust="spacing" textLength="127.251" x="4585.57" y="148.2452">speed : float = 15f</text><ellipse cx="4576.57" cy="160.9424" fill="none" rx="3" ry="3" style="stroke:#038048;stroke-width:1.0;"/><text fill="#000000" font-family="sans-serif" font-size="14" lengthAdjust="spacing" textLength="140.7656" x="4585.57" y="164.7334">damage : float = 10f</text><line style="stroke:#181818;stroke-width:0.5;" x1="4566.57" x2="4731.3356" y1="171.6866" y2="171.6866"/></g><!--class PlayerManager--><g id="elem_PlayerManager"><rect codeLine="2" fill="#F1F1F1" height="80.9766" id="PlayerManager" rx="2.5" ry="2.5" style="stroke:#181818;stroke-width:0.5;" width="290.1406" x="3962.88" y="570.28"/><ellipse cx="4054.2867" cy="586.28" fill="#ADD1B2" rx="11" ry="11" style="stroke:#181818;stroke-width:1.0;"/><path d="M4056.7599,592.4231 Q4056.1788,592.7219 4055.5397,592.8713 Q4054.9005,593.0207 4054.1949,593.0207 Q4051.6881,593.0207 4050.3683,591.3689 Q4049.0485,589.717 4049.0485,586.5959 Q4049.0485,583.4665 4050.3683,581.8147 Q4051.6881,580.1628 4054.1949,580.1628 Q4054.9005,580.1628 4055.548,580.3122 Q4056.1954,580.4616 4056.7599,580.7605 L4056.7599,583.4831 Q4056.129,582.9021 4055.5355,582.6323 Q4054.942,582.3625 4054.3112,582.3625 Q4052.9664,582.3625 4052.2816,583.4292 Q4051.5968,584.4958 4051.5968,586.5959 Q4051.5968,588.6877 4052.2816,589.7544 Q4052.9664,590.821 4054.3112,590.821 Q4054.942,590.821 4055.5355,590.5512 Q4056.129,590.2815 4056.7599,589.7004 Z " fill="#000000"/><text fill="#000000" font-family="sans-serif" font-size="14" lengthAdjust="spacing" textLength="98.8271" x="4074.7867" y="591.571">PlayerManager</text><line style="stroke:#181818;stroke-width:0.5;" x1="3963.88" x2="4252.0206" y1="602.28" y2="602.28"/><ellipse cx="3973.88" cy="616.0241" fill="none" rx="3" ry="3" style="stroke:#038048;stroke-width:1.0;"/><text fill="#000000" font-family="sans-serif" font-size="14" lengthAdjust="spacing" textLength="264.1406" x="3982.88" y="619.8152">Players : ObservableList&lt;Player&gt; &#171;get&#187;</text><line style="stroke:#181818;stroke-width:0.5;" x1="3963.88" x2="4252.0206" y1="626.7683" y2="626.7683"/><ellipse cx="3973.88" cy="640.5124" fill="#84BE84" rx="3" ry="3" style="stroke:#038048;stroke-width:1.0;"/><text fill="#000000" font-family="sans-serif" font-size="14" lengthAdjust="spacing" textLength="190.1963" x="3982.88" y="644.3034">Initialize(battle:Battle) : void</text></g><!--class PlayerMove--><g id="elem_PlayerMove"><rect codeLine="2" fill="#F1F1F1" height="64.4883" id="PlayerMove" rx="2.5" ry="2.5" style="stroke:#181818;stroke-width:0.5;" width="210.3516" x="4287.77" y="578.52"/><ellipse cx="4350.664" cy="594.52" fill="#ADD1B2" rx="11" ry="11" style="stroke:#181818;stroke-width:1.0;"/><path d="M4353.1372,600.6631 Q4352.5561,600.9619 4351.917,601.1113 Q4351.2778,601.2607 4350.5722,601.2607 Q4348.0654,601.2607 4346.7456,599.6089 Q4345.4258,597.957 4345.4258,594.8359 Q4345.4258,591.7065 4346.7456,590.0547 Q4348.0654,588.4028 4350.5722,588.4028 Q4351.2778,588.4028 4351.9253,588.5522 Q4352.5727,588.7016 4353.1372,589.0005 L4353.1372,591.7231 Q4352.5063,591.1421 4351.9128,590.8723 Q4351.3193,590.6025 4350.6885,590.6025 Q4349.3437,590.6025 4348.6589,591.6692 Q4347.9741,592.7358 4347.9741,594.8359 Q4347.9741,596.9277 4348.6589,597.9944 Q4349.3437,599.061 4350.6885,599.061 Q4351.3193,599.061 4351.9128,598.7912 Q4352.5063,598.5215 4353.1372,597.9404 Z " fill="#000000"/><text fill="#000000" font-family="sans-serif" font-size="14" lengthAdjust="spacing" textLength="76.0635" x="4371.164" y="599.811">PlayerMove</text><line style="stroke:#181818;stroke-width:0.5;" x1="4288.77" x2="4497.1216" y1="610.52" y2="610.52"/><line style="stroke:#181818;stroke-width:0.5;" x1="4288.77" x2="4497.1216" y1="618.52" y2="618.52"/><ellipse cx="4298.77" cy="632.2641" fill="#84BE84" rx="3" ry="3" style="stroke:#038048;stroke-width:1.0;"/><text fill="#000000" font-family="sans-serif" font-size="14" lengthAdjust="spacing" textLength="184.3516" x="4307.77" y="636.0552">Initialize(speed:float) : void</text></g><!--class PlayerStatusManager--><g id="elem_PlayerStatusManager"><rect codeLine="2" fill="#F1F1F1" height="64.4883" id="PlayerStatusManager" rx="2.5" ry="2.5" style="stroke:#181818;stroke-width:0.5;" width="511.6592" x="3792.12" y="793.69"/><ellipse cx="3973.5013" cy="809.69" fill="#ADD1B2" rx="11" ry="11" style="stroke:#181818;stroke-width:1.0;"/><path d="M3975.9745,815.8331 Q3975.3934,816.1319 3974.7543,816.2813 Q3974.1151,816.4307 3973.4096,816.4307 Q3970.9027,816.4307 3969.5829,814.7789 Q3968.2631,813.127 3968.2631,810.0059 Q3968.2631,806.8765 3969.5829,805.2247 Q3970.9027,803.5728 3973.4096,803.5728 Q3974.1151,803.5728 3974.7626,803.7222 Q3975.41,803.8716 3975.9745,804.1705 L3975.9745,806.8931 Q3975.3436,806.3121 3974.7501,806.0423 Q3974.1566,805.7725 3973.5258,805.7725 Q3972.181,805.7725 3971.4962,806.8392 Q3970.8114,807.9058 3970.8114,810.0059 Q3970.8114,812.0977 3971.4962,813.1644 Q3972.181,814.231 3973.5258,814.231 Q3974.1566,814.231 3974.7501,813.9612 Q3975.3436,813.6915 3975.9745,813.1104 Z " fill="#000000"/><text fill="#000000" font-family="sans-serif" font-size="14" lengthAdjust="spacing" textLength="140.3965" x="3994.0013" y="814.981">PlayerStatusManager</text><line style="stroke:#181818;stroke-width:0.5;" x1="3793.12" x2="4302.7792" y1="825.69" y2="825.69"/><line style="stroke:#181818;stroke-width:0.5;" x1="3793.12" x2="4302.7792" y1="833.69" y2="833.69"/><ellipse cx="3803.12" cy="847.4341" fill="#84BE84" rx="3" ry="3" style="stroke:#038048;stroke-width:1.0;"/><text fill="#000000" font-family="sans-serif" font-size="14" lengthAdjust="spacing" textLength="485.6592" x="3812.12" y="851.2252">ApplyPlayerParamsVariation(playerParamsVariation:PlayerParams) : void</text></g><!--class PlayerSetting--><g id="elem_PlayerSetting"><rect codeLine="2" fill="#F1F1F1" height="64.4883" id="PlayerSetting" rx="2.5" ry="2.5" style="stroke:#181818;stroke-width:0.5;" width="219.3545" x="3708.27" y="578.52"/><ellipse cx="3769.8789" cy="594.52" fill="#ADD1B2" rx="11" ry="11" style="stroke:#181818;stroke-width:1.0;"/><path d="M3772.352,600.6631 Q3771.771,600.9619 3771.1318,601.1113 Q3770.4927,601.2607 3769.7871,601.2607 Q3767.2803,601.2607 3765.9604,599.6089 Q3764.6406,597.957 3764.6406,594.8359 Q3764.6406,591.7065 3765.9604,590.0547 Q3767.2803,588.4028 3769.7871,588.4028 Q3770.4927,588.4028 3771.1401,588.5522 Q3771.7876,588.7016 3772.352,589.0005 L3772.352,591.7231 Q3771.7212,591.1421 3771.1277,590.8723 Q3770.5342,590.6025 3769.9033,590.6025 Q3768.5586,590.6025 3767.8738,591.6692 Q3767.1889,592.7358 3767.1889,594.8359 Q3767.1889,596.9277 3767.8738,597.9944 Q3768.5586,599.061 3769.9033,599.061 Q3770.5342,599.061 3771.1277,598.7912 Q3771.7212,598.5215 3772.352,597.9404 Z " fill="#000000"/><text fill="#000000" font-family="sans-serif" font-size="14" lengthAdjust="spacing" textLength="87.6367" x="3790.3789" y="599.811">PlayerSetting</text><line style="stroke:#181818;stroke-width:0.5;" x1="3709.27" x2="3926.6245" y1="610.52" y2="610.52"/><ellipse cx="3719.27" cy="624.2641" fill="none" rx="3" ry="3" style="stroke:#038048;stroke-width:1.0;"/><text fill="#000000" font-family="sans-serif" font-size="14" lengthAdjust="spacing" textLength="193.3545" x="3728.27" y="628.0552">playerParams : PlayerParams</text><line style="stroke:#181818;stroke-width:0.5;" x1="3709.27" x2="3926.6245" y1="635.0083" y2="635.0083"/></g><!--class PlayerParams--><g id="elem_PlayerParams"><rect codeLine="2" fill="#F1F1F1" height="80.9766" id="PlayerParams" rx="2.5" ry="2.5" style="stroke:#181818;stroke-width:0.5;" width="143.2295" x="4741.33" y="785.45"/><ellipse cx="4766.11" cy="801.45" fill="#ADD1B2" rx="11" ry="11" style="stroke:#181818;stroke-width:1.0;"/><path d="M4768.5832,807.5931 Q4768.0021,807.8919 4767.363,808.0413 Q4766.7238,808.1907 4766.0182,808.1907 Q4763.5114,808.1907 4762.1916,806.5389 Q4760.8717,804.887 4760.8717,801.7659 Q4760.8717,798.6365 4762.1916,796.9847 Q4763.5114,795.3328 4766.0182,795.3328 Q4766.7238,795.3328 4767.3713,795.4822 Q4768.0187,795.6316 4768.5832,795.9305 L4768.5832,798.6531 Q4767.9523,798.0721 4767.3588,797.8023 Q4766.7653,797.5325 4766.1344,797.5325 Q4764.7897,797.5325 4764.1049,798.5992 Q4763.4201,799.6658 4763.4201,801.7659 Q4763.4201,803.8577 4764.1049,804.9244 Q4764.7897,805.991 4766.1344,805.991 Q4766.7653,805.991 4767.3588,805.7212 Q4767.9523,805.4515 4768.5832,804.8704 Z " fill="#000000"/><text fill="#000000" font-family="sans-serif" font-size="14" lengthAdjust="spacing" textLength="89.4961" x="4782.2834" y="806.741">PlayerParams</text><line style="stroke:#181818;stroke-width:0.5;" x1="4742.33" x2="4883.5595" y1="817.45" y2="817.45"/><ellipse cx="4752.33" cy="831.1941" fill="none" rx="3" ry="3" style="stroke:#038048;stroke-width:1.0;"/><text fill="#000000" font-family="sans-serif" font-size="14" lengthAdjust="spacing" textLength="117.2295" x="4761.33" y="834.9852">maxHealth : float</text><ellipse cx="4752.33" cy="847.6824" fill="none" rx="3" ry="3" style="stroke:#038048;stroke-width:1.0;"/><text fill="#000000" font-family="sans-serif" font-size="14" lengthAdjust="spacing" textLength="84.4102" x="4761.33" y="851.4734">speed : float</text><line style="stroke:#181818;stroke-width:0.5;" x1="4742.33" x2="4883.5595" y1="858.4266" y2="858.4266"/></g><!--class PlayerInput--><g id="elem_PlayerInput"><rect codeLine="2" fill="#F1F1F1" height="80.9766" id="PlayerInput" rx="2.5" ry="2.5" style="stroke:#181818;stroke-width:0.5;" width="367.6191" x="4339.14" y="785.45"/><ellipse cx="4480.7909" cy="801.45" fill="#ADD1B2" rx="11" ry="11" style="stroke:#181818;stroke-width:1.0;"/><path d="M4483.264,807.5931 Q4482.683,807.8919 4482.0438,808.0413 Q4481.4046,808.1907 4480.6991,808.1907 Q4478.1922,808.1907 4476.8724,806.5389 Q4475.5526,804.887 4475.5526,801.7659 Q4475.5526,798.6365 4476.8724,796.9847 Q4478.1922,795.3328 4480.6991,795.3328 Q4481.4046,795.3328 4482.0521,795.4822 Q4482.6996,795.6316 4483.264,795.9305 L4483.264,798.6531 Q4482.6332,798.0721 4482.0397,797.8023 Q4481.4462,797.5325 4480.8153,797.5325 Q4479.4706,797.5325 4478.7858,798.5992 Q4478.1009,799.6658 4478.1009,801.7659 Q4478.1009,803.8577 4478.7858,804.9244 Q4479.4706,805.991 4480.8153,805.991 Q4481.4462,805.991 4482.0397,805.7212 Q4482.6332,805.4515 4483.264,804.8704 Z " fill="#000000"/><text fill="#000000" font-family="sans-serif" font-size="14" lengthAdjust="spacing" textLength="75.8174" x="4501.2909" y="806.741">PlayerInput</text><line style="stroke:#181818;stroke-width:0.5;" x1="4340.14" x2="4705.7591" y1="817.45" y2="817.45"/><ellipse cx="4350.14" cy="831.1941" fill="none" rx="3" ry="3" style="stroke:#038048;stroke-width:1.0;"/><text fill="#000000" font-family="sans-serif" font-size="14" lengthAdjust="spacing" textLength="341.6191" x="4359.14" y="834.9852">Move : ReadOnlyReactiveProperty&lt;Vector2&gt; &#171;get&#187;</text><ellipse cx="4350.14" cy="847.6824" fill="none" rx="3" ry="3" style="stroke:#038048;stroke-width:1.0;"/><text fill="#000000" font-family="sans-serif" font-size="14" lengthAdjust="spacing" textLength="326.6484" x="4359.14" y="851.4734">Attack : ReadOnlyReactiveProperty&lt;bool&gt; &#171;get&#187;</text><line style="stroke:#181818;stroke-width:0.5;" x1="4340.14" x2="4705.7591" y1="858.4266" y2="858.4266"/></g><!--class PlayerCore--><g id="elem_PlayerCore"><rect codeLine="2" fill="#F1F1F1" height="212.8828" id="PlayerCore" rx="2.5" ry="2.5" style="stroke:#181818;stroke-width:0.5;" width="438.8906" x="4533.5" y="504.32"/><ellipse cx="4712.6084" cy="520.32" fill="#ADD1B2" rx="11" ry="11" style="stroke:#181818;stroke-width:1.0;"/><path d="M4715.0815,526.4631 Q4714.5005,526.7619 4713.8613,526.9113 Q4713.2222,527.0607 4712.5166,527.0607 Q4710.0098,527.0607 4708.6899,525.4089 Q4707.3701,523.757 4707.3701,520.6359 Q4707.3701,517.5065 4708.6899,515.8547 Q4710.0098,514.2028 4712.5166,514.2028 Q4713.2222,514.2028 4713.8696,514.3522 Q4714.5171,514.5016 4715.0815,514.8005 L4715.0815,517.5231 Q4714.4507,516.9421 4713.8572,516.6723 Q4713.2637,516.4025 4712.6328,516.4025 Q4711.2881,516.4025 4710.6033,517.4692 Q4709.9185,518.5358 4709.9185,520.6359 Q4709.9185,522.7277 4710.6033,523.7944 Q4711.2881,524.861 4712.6328,524.861 Q4713.2637,524.861 4713.8572,524.5912 Q4714.4507,524.3215 4715.0815,523.7404 Z " fill="#000000"/><text fill="#000000" font-family="sans-serif" font-size="14" lengthAdjust="spacing" textLength="72.1738" x="4733.1084" y="525.611">PlayerCore</text><line style="stroke:#181818;stroke-width:0.5;" x1="4534.5" x2="4971.3906" y1="536.32" y2="536.32"/><ellipse cx="4544.5" cy="550.0641" fill="none" rx="3" ry="3" style="stroke:#038048;stroke-width:1.0;"/><text fill="#000000" font-family="sans-serif" font-size="14" lengthAdjust="spacing" textLength="125.3301" x="4553.5" y="553.8552">PlayerId : int &#171;get&#187;</text><ellipse cx="4544.5" cy="566.5524" fill="none" rx="3" ry="3" style="stroke:#038048;stroke-width:1.0;"/><text fill="#000000" font-family="sans-serif" font-size="14" lengthAdjust="spacing" textLength="233.1465" x="4553.5" y="570.3434">PlayerParams : PlayerParams &#171;get&#187;</text><ellipse cx="4544.5" cy="583.0407" fill="none" rx="3" ry="3" style="stroke:#038048;stroke-width:1.0;"/><text fill="#000000" font-family="sans-serif" font-size="14" lengthAdjust="spacing" textLength="412.8906" x="4553.5" y="586.8317">OnDamagedAsObservable&lt;float&gt; : Observable&lt;float&gt; &#171;get&#187;</text><ellipse cx="4544.5" cy="599.529" fill="none" rx="3" ry="3" style="stroke:#038048;stroke-width:1.0;"/><text fill="#000000" font-family="sans-serif" font-size="14" lengthAdjust="spacing" textLength="345.1602" x="4553.5" y="603.32">PlayerDeadAsync&lt;Unit&gt; : Observable&lt;Unit&gt; &#171;get&#187;</text><ellipse cx="4544.5" cy="616.0173" fill="none" rx="3" ry="3" style="stroke:#038048;stroke-width:1.0;"/><text fill="#000000" font-family="sans-serif" font-size="14" lengthAdjust="spacing" textLength="379.1758" x="4553.5" y="619.8083">OnResetAsObservable&lt;Unit&gt; : Observable&lt;Unit&gt; &#171;get&#187;</text><line style="stroke:#181818;stroke-width:0.5;" x1="4534.5" x2="4971.3906" y1="626.7614" y2="626.7614"/><ellipse cx="4544.5" cy="640.5055" fill="#84BE84" rx="3" ry="3" style="stroke:#038048;stroke-width:1.0;"/><text fill="#000000" font-family="sans-serif" font-size="14" lengthAdjust="spacing" textLength="185.4795" x="4553.5" y="644.2966">Initialize(playerId:int) : void</text><ellipse cx="4544.5" cy="656.9938" fill="#84BE84" rx="3" ry="3" style="stroke:#038048;stroke-width:1.0;"/><text fill="#000000" font-family="sans-serif" font-size="14" lengthAdjust="spacing" textLength="345.666" x="4553.5" y="660.7848">SetPlayerParams(playerParams:PlayerParams) : void</text><ellipse cx="4544.5" cy="673.4821" fill="#84BE84" rx="3" ry="3" style="stroke:#038048;stroke-width:1.0;"/><text fill="#000000" font-family="sans-serif" font-size="14" lengthAdjust="spacing" textLength="228.2793" x="4553.5" y="677.2731">TakeDamage(damage:float) : void</text><ellipse cx="4544.5" cy="689.9704" fill="#84BE84" rx="3" ry="3" style="stroke:#038048;stroke-width:1.0;"/><text fill="#000000" font-family="sans-serif" font-size="14" lengthAdjust="spacing" textLength="105.4922" x="4553.5" y="693.7614">OnDead() : void</text><ellipse cx="4544.5" cy="706.4587" fill="#84BE84" rx="3" ry="3" style="stroke:#038048;stroke-width:1.0;"/><text fill="#000000" font-family="sans-serif" font-size="14" lengthAdjust="spacing" textLength="87.9238" x="4553.5" y="710.2497">Reset() : void</text></g><!--class Utility--><g id="elem_Utility"><rect codeLine="1" fill="#F1F1F1" height="64.4883" id="Utility" rx="2.5" ry="2.5" style="stroke:#181818;stroke-width:0.5;" width="623.8984" x="7" y="106.95"/><ellipse cx="294.8853" cy="122.95" fill="#ADD1B2" rx="11" ry="11" style="stroke:#181818;stroke-width:1.0;"/><path d="M297.3584,129.0931 Q296.7773,129.3919 296.1382,129.5413 Q295.499,129.6907 294.7935,129.6907 Q292.2866,129.6907 290.9668,128.0389 Q289.647,126.387 289.647,123.2659 Q289.647,120.1365 290.9668,118.4847 Q292.2866,116.8328 294.7935,116.8328 Q295.499,116.8328 296.1465,116.9822 Q296.7939,117.1316 297.3584,117.4305 L297.3584,120.1531 Q296.7275,119.5721 296.134,119.3023 Q295.5405,119.0325 294.9097,119.0325 Q293.5649,119.0325 292.8801,120.0992 Q292.1953,121.1658 292.1953,123.2659 Q292.1953,125.3577 292.8801,126.4244 Q293.5649,127.491 294.9097,127.491 Q295.5405,127.491 296.134,127.2212 Q296.7275,126.9515 297.3584,126.3704 Z " fill="#000000"/><text fill="#000000" font-family="sans-serif" font-size="14" lengthAdjust="spacing" textLength="39.6279" x="315.3853" y="128.241">Utility</text><line style="stroke:#181818;stroke-width:0.5;" x1="8" x2="629.8984" y1="138.95" y2="138.95"/><line style="stroke:#181818;stroke-width:0.5;" x1="8" x2="629.8984" y1="146.95" y2="146.95"/><ellipse cx="18" cy="160.6941" fill="#84BE84" rx="3" ry="3" style="stroke:#038048;stroke-width:1.0;"/><text fill="#000000" font-family="sans-serif" font-size="14" lengthAdjust="spacing" text-decoration="underline" textLength="597.8984" x="27" y="164.4852">GetUniqueRandomNumbers(rangeBegin:int, rangeEnd:int, count:int) : IEnumerable&lt;int&gt;</text></g><!--class ManagerDispatcher--><g id="elem_ManagerDispatcher"><rect codeLine="1" fill="#F1F1F1" height="48" id="ManagerDispatcher" rx="2.5" ry="2.5" style="stroke:#181818;stroke-width:0.5;" width="163.3047" x="666.3" y="115.2"/><ellipse cx="681.3" cy="131.2" fill="#ADD1B2" rx="11" ry="11" style="stroke:#181818;stroke-width:1.0;"/><path d="M683.7731,137.3431 Q683.1921,137.6419 682.5529,137.7913 Q681.9138,137.9407 681.2082,137.9407 Q678.7014,137.9407 677.3815,136.2889 Q676.0617,134.637 676.0617,131.5159 Q676.0617,128.3865 677.3815,126.7347 Q678.7014,125.0828 681.2082,125.0828 Q681.9138,125.0828 682.5612,125.2322 Q683.2087,125.3816 683.7731,125.6805 L683.7731,128.4031 Q683.1423,127.8221 682.5488,127.5523 Q681.9553,127.2825 681.3244,127.2825 Q679.9797,127.2825 679.2949,128.3492 Q678.6101,129.4158 678.6101,131.5159 Q678.6101,133.6077 679.2949,134.6744 Q679.9797,135.741 681.3244,135.741 Q681.9553,135.741 682.5488,135.4712 Q683.1423,135.2015 683.7731,134.6204 Z " fill="#000000"/><text fill="#000000" font-family="sans-serif" font-size="14" lengthAdjust="spacing" textLength="131.3047" x="695.3" y="136.491">ManagerDispatcher</text><line style="stroke:#181818;stroke-width:0.5;" x1="667.3" x2="828.6047" y1="147.2" y2="147.2"/><line style="stroke:#181818;stroke-width:0.5;" x1="667.3" x2="828.6047" y1="155.2" y2="155.2"/></g><!--class IDamageable--><g id="elem_IDamageable"><rect codeLine="1" fill="#F1F1F1" height="113.9531" id="IDamageable" rx="2.5" ry="2.5" style="stroke:#181818;stroke-width:0.5;" width="345.0059" x="3687.45" y="313.88"/><ellipse cx="3811.7171" cy="329.88" fill="#B4A7E5" rx="11" ry="11" style="stroke:#181818;stroke-width:1.0;"/><path d="M3808.1448,326.1451 L3808.1448,323.9869 L3815.5242,323.9869 L3815.5242,326.1451 L3813.0589,326.1451 L3813.0589,334.2218 L3815.5242,334.2218 L3815.5242,336.38 L3808.1448,336.38 L3808.1448,334.2218 L3810.6102,334.2218 L3810.6102,326.1451 Z " fill="#000000"/><text fill="#000000" font-family="sans-serif" font-size="14" font-style="italic" lengthAdjust="spacing" textLength="87.9717" x="3832.2171" y="335.171">IDamageable</text><line style="stroke:#181818;stroke-width:0.5;" x1="3688.45" x2="4031.4559" y1="345.88" y2="345.88"/><ellipse cx="3698.45" cy="359.6241" fill="none" rx="3" ry="3" style="stroke:#038048;stroke-width:1.0;"/><text fill="#000000" font-family="sans-serif" font-size="14" lengthAdjust="spacing" textLength="319.0059" x="3707.45" y="363.4152">OnDamagedAsObservable : Observable&lt;float&gt;</text><ellipse cx="3698.45" cy="376.1124" fill="none" rx="3" ry="3" style="stroke:#038048;stroke-width:1.0;"/><text fill="#000000" font-family="sans-serif" font-size="14" lengthAdjust="spacing" textLength="288.3809" x="3707.45" y="379.9034">OnResetAsObservable : Observable&lt;Unit&gt;</text><line style="stroke:#181818;stroke-width:0.5;" x1="3688.45" x2="4031.4559" y1="386.8566" y2="386.8566"/><ellipse cx="3698.45" cy="400.6007" fill="#84BE84" rx="3" ry="3" style="stroke:#038048;stroke-width:1.0;"/><text fill="#000000" font-family="sans-serif" font-size="14" lengthAdjust="spacing" textLength="228.2793" x="3707.45" y="404.3917">TakeDamage(damage:float) : void</text><ellipse cx="3698.45" cy="417.089" fill="#84BE84" rx="3" ry="3" style="stroke:#038048;stroke-width:1.0;"/><text fill="#000000" font-family="sans-serif" font-size="14" lengthAdjust="spacing" textLength="105.4922" x="3707.45" y="420.88">OnDead() : void</text></g><!--class Battle--><g id="elem_Battle"><rect codeLine="1" fill="#F1F1F1" height="113.9531" id="Battle" rx="2.5" ry="2.5" style="stroke:#181818;stroke-width:0.5;" width="320.4443" x="5982.73" y="82.22"/><ellipse cx="6119.6504" cy="98.22" fill="#ADD1B2" rx="11" ry="11" style="stroke:#181818;stroke-width:1.0;"/><path d="M6122.1236,104.3631 Q6121.5425,104.6619 6120.9033,104.8113 Q6120.2642,104.9607 6119.5586,104.9607 Q6117.0518,104.9607 6115.732,103.3089 Q6114.4121,101.657 6114.4121,98.5359 Q6114.4121,95.4065 6115.732,93.7547 Q6117.0518,92.1028 6119.5586,92.1028 Q6120.2642,92.1028 6120.9116,92.2522 Q6121.5591,92.4016 6122.1236,92.7005 L6122.1236,95.4231 Q6121.4927,94.8421 6120.8992,94.5723 Q6120.3057,94.3025 6119.6748,94.3025 Q6118.3301,94.3025 6117.6453,95.3692 Q6116.9605,96.4358 6116.9605,98.5359 Q6116.9605,100.6277 6117.6453,101.6944 Q6118.3301,102.761 6119.6748,102.761 Q6120.3057,102.761 6120.8992,102.4912 Q6121.4927,102.2215 6122.1236,101.6404 Z " fill="#000000"/><text fill="#000000" font-family="sans-serif" font-size="14" lengthAdjust="spacing" textLength="38.1035" x="6140.1504" y="103.511">Battle</text><line style="stroke:#181818;stroke-width:0.5;" x1="5983.73" x2="6302.1743" y1="114.22" y2="114.22"/><ellipse cx="5993.73" cy="127.9641" fill="none" rx="3" ry="3" style="stroke:#038048;stroke-width:1.0;"/><text fill="#000000" font-family="sans-serif" font-size="14" lengthAdjust="spacing" textLength="294.4443" x="6002.73" y="131.7552">State : ReactiveProperty&lt;BattleState&gt; &#171;get&#187;</text><ellipse cx="5993.73" cy="144.4524" fill="none" rx="3" ry="3" style="stroke:#038048;stroke-width:1.0;"/><text fill="#000000" font-family="sans-serif" font-size="14" lengthAdjust="spacing" textLength="203.2324" x="6002.73" y="148.2434">UpgradablePlayerId : int &#171;get&#187;</text><line style="stroke:#181818;stroke-width:0.5;" x1="5983.73" x2="6302.1743" y1="155.1966" y2="155.1966"/><ellipse cx="5993.73" cy="168.9407" fill="#84BE84" rx="3" ry="3" style="stroke:#038048;stroke-width:1.0;"/><text fill="#000000" font-family="sans-serif" font-size="14" lengthAdjust="spacing" textLength="214.4365" x="6002.73" y="172.7317">SetState(state:BattleState) : void</text><ellipse cx="5993.73" cy="185.429" fill="#84BE84" rx="3" ry="3" style="stroke:#038048;stroke-width:1.0;"/><text fill="#000000" font-family="sans-serif" font-size="14" lengthAdjust="spacing" textLength="266.6152" x="6002.73" y="189.22">SetUpgradablePlayer(playerId:int) : void</text></g><!--class BattleState--><g id="elem_BattleState"><rect codeLine="7" fill="#F1F1F1" height="113.9531" id="BattleState" rx="2.5" ry="2.5" style="stroke:#181818;stroke-width:0.5;" width="103.6475" x="6091.13" y="313.88"/><ellipse cx="6106.13" cy="329.88" fill="#EB937F" rx="11" ry="11" style="stroke:#181818;stroke-width:1.0;"/><path d="M6109.7443,336.38 L6102.0245,336.38 L6102.0245,323.9869 L6109.7443,323.9869 L6109.7443,326.1451 L6104.4733,326.1451 L6104.4733,328.818 L6109.2462,328.818 L6109.2462,330.9762 L6104.4733,330.9762 L6104.4733,334.2218 L6109.7443,334.2218 Z " fill="#000000"/><text fill="#000000" font-family="sans-serif" font-size="14" lengthAdjust="spacing" textLength="71.6475" x="6120.13" y="335.171">BattleState</text><line style="stroke:#181818;stroke-width:0.5;" x1="6092.13" x2="6193.7775" y1="345.88" y2="345.88"/><text fill="#000000" font-family="sans-serif" font-size="14" lengthAdjust="spacing" textLength="35.9023" x="6097.13" y="363.4152">Start,</text><text fill="#000000" font-family="sans-serif" font-size="14" lengthAdjust="spacing" textLength="42.5332" x="6097.13" y="379.9034">Battle,</text><text fill="#000000" font-family="sans-serif" font-size="14" lengthAdjust="spacing" textLength="61.7422" x="6097.13" y="396.3917">Upgrade,</text><text fill="#000000" font-family="sans-serif" font-size="14" lengthAdjust="spacing" textLength="29.5176" x="6097.13" y="412.88">End,</text><line style="stroke:#181818;stroke-width:0.5;" x1="6092.13" x2="6193.7775" y1="419.8331" y2="419.8331"/></g><!--class FollowObject--><g id="elem_FollowObject"><rect codeLine="1" fill="#F1F1F1" height="48" id="FollowObject" rx="2.5" ry="2.5" style="stroke:#181818;stroke-width:0.5;" width="119.7393" x="865.08" y="115.2"/><ellipse cx="880.08" cy="131.2" fill="#ADD1B2" rx="11" ry="11" style="stroke:#181818;stroke-width:1.0;"/><path d="M882.5531,137.3431 Q881.9721,137.6419 881.3329,137.7913 Q880.6938,137.9407 879.9882,137.9407 Q877.4814,137.9407 876.1615,136.2889 Q874.8417,134.637 874.8417,131.5159 Q874.8417,128.3865 876.1615,126.7347 Q877.4814,125.0828 879.9882,125.0828 Q880.6938,125.0828 881.3412,125.2322 Q881.9887,125.3816 882.5531,125.6805 L882.5531,128.4031 Q881.9223,127.8221 881.3288,127.5523 Q880.7353,127.2825 880.1044,127.2825 Q878.7597,127.2825 878.0749,128.3492 Q877.3901,129.4158 877.3901,131.5159 Q877.3901,133.6077 878.0749,134.6744 Q878.7597,135.741 880.1044,135.741 Q880.7353,135.741 881.3288,135.4712 Q881.9223,135.2015 882.5531,134.6204 Z " fill="#000000"/><text fill="#000000" font-family="sans-serif" font-size="14" lengthAdjust="spacing" textLength="87.7393" x="894.08" y="136.491">FollowObject</text><line style="stroke:#181818;stroke-width:0.5;" x1="866.08" x2="983.8193" y1="147.2" y2="147.2"/><line style="stroke:#181818;stroke-width:0.5;" x1="866.08" x2="983.8193" y1="155.2" y2="155.2"/></g><!--class Health--><g id="elem_Health"><rect codeLine="1" fill="#F1F1F1" height="130.4414" id="Health" rx="2.5" ry="2.5" style="stroke:#181818;stroke-width:0.5;" width="405.4834" x="116.21" y="305.64"/><ellipse cx="292.8062" cy="321.64" fill="#ADD1B2" rx="11" ry="11" style="stroke:#181818;stroke-width:1.0;"/><path d="M295.2793,327.7831 Q294.6983,328.0819 294.0591,328.2313 Q293.42,328.3807 292.7144,328.3807 Q290.2076,328.3807 288.8877,326.7289 Q287.5679,325.077 287.5679,321.9559 Q287.5679,318.8265 288.8877,317.1747 Q290.2076,315.5228 292.7144,315.5228 Q293.42,315.5228 294.0674,315.6722 Q294.7149,315.8216 295.2793,316.1205 L295.2793,318.8431 Q294.6485,318.2621 294.055,317.9923 Q293.4615,317.7225 292.8306,317.7225 Q291.4859,317.7225 290.8011,318.7892 Q290.1163,319.8558 290.1163,321.9559 Q290.1163,324.0477 290.8011,325.1144 Q291.4859,326.181 292.8306,326.181 Q293.4615,326.181 294.055,325.9112 Q294.6485,325.6415 295.2793,325.0604 Z " fill="#000000"/><text fill="#000000" font-family="sans-serif" font-size="14" lengthAdjust="spacing" textLength="43.791" x="313.3062" y="326.931">Health</text><line style="stroke:#181818;stroke-width:0.5;" x1="117.21" x2="520.6934" y1="337.64" y2="337.64"/><ellipse cx="127.21" cy="351.3841" fill="none" rx="3" ry="3" style="stroke:#038048;stroke-width:1.0;"/><text fill="#000000" font-family="sans-serif" font-size="14" lengthAdjust="spacing" textLength="157.083" x="136.21" y="355.1752">MaxHealth : float &#171;get&#187;</text><ellipse cx="127.21" cy="367.8724" fill="none" rx="3" ry="3" style="stroke:#038048;stroke-width:1.0;"/><text fill="#000000" font-family="sans-serif" font-size="14" lengthAdjust="spacing" textLength="379.4834" x="136.21" y="371.6634">CurrentHealth : ReadOnlyReactiveProperty&lt;float&gt; &#171;get&#187;</text><ellipse cx="127.21" cy="384.3607" fill="none" rx="3" ry="3" style="stroke:#038048;stroke-width:1.0;"/><text fill="#000000" font-family="sans-serif" font-size="14" lengthAdjust="spacing" textLength="214.9766" x="136.21" y="388.1517">InitializedAsync : UniTask &#171;get&#187;</text><line style="stroke:#181818;stroke-width:0.5;" x1="117.21" x2="520.6934" y1="395.1048" y2="395.1048"/><ellipse cx="127.21" cy="408.849" fill="#84BE84" rx="3" ry="3" style="stroke:#038048;stroke-width:1.0;"/><text fill="#000000" font-family="sans-serif" font-size="14" lengthAdjust="spacing" textLength="217.1709" x="136.21" y="412.64">Initialize(maxHealth:float) : void</text><ellipse cx="127.21" cy="425.3373" fill="#84BE84" rx="3" ry="3" style="stroke:#038048;stroke-width:1.0;"/><text fill="#000000" font-family="sans-serif" font-size="14" lengthAdjust="spacing" textLength="240.085" x="136.21" y="429.1283">ResetHealth(maxHealth:float) : void</text></g><!--class PlayerDispatcher--><g id="elem_PlayerDispatcher"><rect codeLine="1" fill="#F1F1F1" height="48" id="PlayerDispatcher" rx="2.5" ry="2.5" style="stroke:#181818;stroke-width:0.5;" width="145.1963" x="556.35" y="346.86"/><ellipse cx="571.35" cy="362.86" fill="#ADD1B2" rx="11" ry="11" style="stroke:#181818;stroke-width:1.0;"/><path d="M573.8231,369.0031 Q573.2421,369.3019 572.6029,369.4513 Q571.9638,369.6007 571.2582,369.6007 Q568.7514,369.6007 567.4315,367.9489 Q566.1117,366.297 566.1117,363.1759 Q566.1117,360.0465 567.4315,358.3947 Q568.7514,356.7428 571.2582,356.7428 Q571.9638,356.7428 572.6112,356.8922 Q573.2587,357.0416 573.8231,357.3405 L573.8231,360.0631 Q573.1923,359.4821 572.5988,359.2123 Q572.0053,358.9425 571.3744,358.9425 Q570.0297,358.9425 569.3449,360.0092 Q568.6601,361.0758 568.6601,363.1759 Q568.6601,365.2677 569.3449,366.3344 Q570.0297,367.401 571.3744,367.401 Q572.0053,367.401 572.5988,367.1312 Q573.1923,366.8615 573.8231,366.2804 Z " fill="#000000"/><text fill="#000000" font-family="sans-serif" font-size="14" lengthAdjust="spacing" textLength="113.1963" x="585.35" y="368.151">PlayerDispatcher</text><line style="stroke:#181818;stroke-width:0.5;" x1="557.35" x2="700.5463" y1="378.86" y2="378.86"/><line style="stroke:#181818;stroke-width:0.5;" x1="557.35" x2="700.5463" y1="386.86" y2="386.86"/></g><!--class PlayerPresenter--><g id="elem_PlayerPresenter"><rect codeLine="1" fill="#F1F1F1" height="64.4883" id="PlayerPresenter" rx="2.5" ry="2.5" style="stroke:#181818;stroke-width:0.5;" width="474.9297" x="736.48" y="338.61"/><ellipse cx="917.687" cy="354.61" fill="#ADD1B2" rx="11" ry="11" style="stroke:#181818;stroke-width:1.0;"/><path d="M920.1602,360.7531 Q919.5791,361.0519 918.94,361.2013 Q918.3008,361.3507 917.5952,361.3507 Q915.0884,361.3507 913.7686,359.6989 Q912.4488,358.047 912.4488,354.9259 Q912.4488,351.7965 913.7686,350.1447 Q915.0884,348.4928 917.5952,348.4928 Q918.3008,348.4928 918.9483,348.6422 Q919.5957,348.7916 920.1602,349.0905 L920.1602,351.8131 Q919.5293,351.2321 918.9358,350.9623 Q918.3423,350.6925 917.7114,350.6925 Q916.3667,350.6925 915.6819,351.7592 Q914.9971,352.8258 914.9971,354.9259 Q914.9971,357.0177 915.6819,358.0844 Q916.3667,359.151 917.7114,359.151 Q918.3423,359.151 918.9358,358.8812 Q919.5293,358.6115 920.1602,358.0304 Z " fill="#000000"/><text fill="#000000" font-family="sans-serif" font-size="14" lengthAdjust="spacing" textLength="104.0156" x="938.187" y="359.901">PlayerPresenter</text><line style="stroke:#181818;stroke-width:0.5;" x1="737.48" x2="1210.4097" y1="370.61" y2="370.61"/><line style="stroke:#181818;stroke-width:0.5;" x1="737.48" x2="1210.4097" y1="378.61" y2="378.61"/><ellipse cx="747.48" cy="392.3541" fill="#84BE84" rx="3" ry="3" style="stroke:#038048;stroke-width:1.0;"/><text fill="#000000" font-family="sans-serif" font-size="14" lengthAdjust="spacing" textLength="448.9297" x="756.48" y="396.1452">&#171;async&#187; OnCreatePlayer(player:PlayerCore, view:HealthView) : void</text></g><!--class HealthView--><g id="elem_HealthView"><rect codeLine="1" fill="#F1F1F1" height="80.9766" id="HealthView" rx="2.5" ry="2.5" style="stroke:#181818;stroke-width:0.5;" width="212.1699" x="212.86" y="570.28"/><ellipse cx="276.9059" cy="586.28" fill="#ADD1B2" rx="11" ry="11" style="stroke:#181818;stroke-width:1.0;"/><path d="M279.379,592.4231 Q278.798,592.7219 278.1588,592.8713 Q277.5197,593.0207 276.8141,593.0207 Q274.3073,593.0207 272.9874,591.3689 Q271.6676,589.717 271.6676,586.5959 Q271.6676,583.4665 272.9874,581.8147 Q274.3073,580.1628 276.8141,580.1628 Q277.5197,580.1628 278.1671,580.3122 Q278.8146,580.4616 279.379,580.7605 L279.379,583.4831 Q278.7482,582.9021 278.1547,582.6323 Q277.5612,582.3625 276.9303,582.3625 Q275.5856,582.3625 274.9008,583.4292 Q274.216,584.4958 274.216,586.5959 Q274.216,588.6877 274.9008,589.7544 Q275.5856,590.821 276.9303,590.821 Q277.5612,590.821 278.1547,590.5512 Q278.7482,590.2815 279.379,589.7004 Z " fill="#000000"/><text fill="#000000" font-family="sans-serif" font-size="14" lengthAdjust="spacing" textLength="75.5781" x="297.4059" y="591.571">HealthView</text><line style="stroke:#181818;stroke-width:0.5;" x1="213.86" x2="424.0299" y1="602.28" y2="602.28"/><line style="stroke:#181818;stroke-width:0.5;" x1="213.86" x2="424.0299" y1="610.28" y2="610.28"/><ellipse cx="223.86" cy="624.0241" fill="#84BE84" rx="3" ry="3" style="stroke:#038048;stroke-width:1.0;"/><text fill="#000000" font-family="sans-serif" font-size="14" lengthAdjust="spacing" textLength="186.1699" x="232.86" y="627.8152">SetHealth(value:float) : void</text><ellipse cx="223.86" cy="640.5124" fill="#84BE84" rx="3" ry="3" style="stroke:#038048;stroke-width:1.0;"/><text fill="#000000" font-family="sans-serif" font-size="14" lengthAdjust="spacing" textLength="179.5049" x="232.86" y="644.3034">Initialize(value:float) : void</text></g><!--reverse link Battle to BattleState--><g id="link_Battle_BattleState"><path codeLine="13" d="M6142.95,212.67 C6142.95,248.27 6142.95,278.05 6142.95,313.6 " fill="none" id="Battle-backto-BattleState" style="stroke:#181818;stroke-width:1.0;"/><ellipse cx="6142.95" cy="204.67" fill="#FFFFFF" rx="8" ry="8" style="stroke:#181818;stroke-width:1.0;"/><line style="stroke:#181818;stroke-width:1.0;" x1="6142.95" x2="6142.95" y1="212.67" y2="196.67"/><line style="stroke:#181818;stroke-width:1.0;" x1="6134.95" x2="6150.95" y1="204.67" y2="204.67"/></g><!--reverse link IUpgrade to WeaponUpgrade--><g id="link_IUpgrade_WeaponUpgrade"><path codeLine="6" d="M3216.8283,185.9682 C3248.1783,227.1182 3292.26,284.96 3326.52,329.93 " fill="none" id="IUpgrade-backto-WeaponUpgrade" style="stroke:#181818;stroke-width:1.0;"/><polygon fill="none" points="3205.92,171.65,3212.0555,189.6043,3221.601,182.3321,3205.92,171.65" style="stroke:#181818;stroke-width:1.0;"/></g><!--reverse link IUpgrade to PlayerUpgrade--><g id="link_IUpgrade_PlayerUpgrade"><path codeLine="6" d="M3135.5099,183.8959 C3111.6699,205.2059 3091.18,220.4 3056.95,237.39 C2964.25,283.41 2929.97,264.19 2831.95,297.39 C2803.92,306.89 2773.97,318.66 2746.91,329.94 " fill="none" id="IUpgrade-backto-PlayerUpgrade" style="stroke:#181818;stroke-width:1.0;"/><polygon fill="none" points="3148.93,171.9,3131.5113,179.4225,3139.5085,188.3693,3148.93,171.9" style="stroke:#181818;stroke-width:1.0;"/></g><!--reverse link IUpgrade to AddWeaponUpgrade--><g id="link_IUpgrade_AddWeaponUpgrade"><path codeLine="6" d="M3147.0695,185.9665 C3115.7095,227.1165 3071.64,284.96 3037.38,329.93 " fill="none" id="IUpgrade-backto-AddWeaponUpgrade" style="stroke:#181818;stroke-width:1.0;"/><polygon fill="none" points="3157.98,171.65,3142.2974,182.3297,3151.8417,189.6033,3157.98,171.65" style="stroke:#181818;stroke-width:1.0;"/></g><!--link UpgradeData to UpgradeType--><g id="link_UpgradeData_UpgradeType"><path codeLine="20" d="M2326.31,684.53 C2302.98,715.05 2280.1346,744.9238 2259.3046,772.1638 " fill="none" id="UpgradeData-to-UpgradeType" style="stroke:#181818;stroke-width:1.0;"/><polygon fill="#181818" points="2255.66,776.93,2264.3044,772.2105,2258.6972,772.9582,2257.9495,767.3509,2255.66,776.93" style="stroke:#181818;stroke-width:1.0;"/></g><!--link UpgradeData to PlayerParams--><g id="link_UpgradeData_PlayerParams"><path codeLine="21" d="M2534.33,654.9 C2700.21,701.86 2951.5769,773.0255 3068.0969,806.0155 " fill="none" id="UpgradeData-to-PlayerParams" style="stroke:#181818;stroke-width:1.0;"/><polygon fill="#181818" points="3073.87,807.65,3066.3001,801.3495,3069.0591,806.2879,3064.1207,809.0469,3073.87,807.65" style="stroke:#181818;stroke-width:1.0;"/></g><!--link UpgradeData to WeaponParams--><g id="link_UpgradeData_WeaponParams"><path codeLine="22" d="M2381.95,684.53 C2381.95,725.54 2381.95,768 2381.95,795.93 " fill="none" id="UpgradeData-to-WeaponParams" style="stroke:#181818;stroke-width:1.0;"/><polygon fill="#181818" points="2381.95,801.93,2385.95,792.93,2381.95,796.93,2377.95,792.93,2381.95,801.93" style="stroke:#181818;stroke-width:1.0;"/></g><!--link UpgradeData to WeaponId--><g id="link_UpgradeData_WeaponId"><path codeLine="23" d="M2433.83,684.53 C2463.07,725.54 2494.1472,769.1143 2514.0572,797.0443 " fill="none" id="UpgradeData-to-WeaponId" style="stroke:#181818;stroke-width:1.0;"/><polygon fill="#181818" points="2517.54,801.93,2515.5729,792.2796,2514.6377,797.8586,2509.0587,796.9233,2517.54,801.93" style="stroke:#181818;stroke-width:1.0;"/></g><!--reverse link ScriptableObject to UpgradeSetting--><g id="link_ScriptableObject_UpgradeSetting"><path codeLine="24" d="M1413.95,181.48 C1413.95,218.43 1413.95,273.26 1413.95,321.76 " fill="none" id="ScriptableObject-backto-UpgradeSetting" style="stroke:#181818;stroke-width:1.0;"/><polygon fill="none" points="1413.95,163.48,1407.95,181.48,1419.95,181.48,1413.95,163.48" style="stroke:#181818;stroke-width:1.0;"/></g><!--link UpgradeSetting to UpgradeData--><g id="link_UpgradeSetting_UpgradeData"><path codeLine="25" d="M1529.02,420.05 C1552.26,428.82 1576.7,437.39 1599.95,444.32 C1815.04,508.51 2064.5976,556.6083 2223.5576,584.0783 " fill="none" id="UpgradeSetting-to-UpgradeData" style="stroke:#181818;stroke-width:1.0;"/><polygon fill="#181818" points="2229.47,585.1,2221.2826,579.6258,2224.543,584.2486,2219.9203,587.509,2229.47,585.1" style="stroke:#181818;stroke-width:1.0;"/></g><!--reverse link BaseWeapon to BasicGun--><g id="link_BaseWeapon_BasicGun"><path codeLine="4" d="M5672.95,197.94 C5672.95,245.95 5672.95,307.16 5672.95,346.37 " fill="none" id="BaseWeapon-backto-BasicGun" style="stroke:#181818;stroke-width:1.0;"/><polygon fill="none" points="5672.95,179.94,5666.95,197.94,5678.95,197.94,5672.95,179.94" style="stroke:#181818;stroke-width:1.0;"/></g><!--link PlayerSetting to PlayerParams--><g id="link_PlayerSetting_PlayerParams"><path codeLine="5" d="M3782.31,643.27 C3753.43,667.13 3710.64,698.85 3667.95,717.21 C3506.42,786.66 3303.7782,811.5691 3202.0982,820.2591 " fill="none" id="PlayerSetting-to-PlayerParams" style="stroke:#181818;stroke-width:1.0;"/><polygon fill="#181818" points="3196.12,820.77,3205.4279,823.9891,3201.1018,820.3442,3204.7467,816.0181,3196.12,820.77" style="stroke:#181818;stroke-width:1.0;"/></g><!--reverse link IDamageable to PlayerCore--><g id="link_IDamageable_PlayerCore"><path codeLine="14" d="M4025.281,433.4584 C4046.801,439.8684 4051.63,440.37 4072.95,444.32 C4169.82,462.26 4421.8,432.31 4515.95,461.32 C4548.08,471.22 4580.17,486.63 4609.89,503.84 " fill="none" id="IDamageable-backto-PlayerCore" style="stroke:#181818;stroke-width:1.0;"/><polygon fill="none" points="4008.03,428.32,4023.5682,439.2088,4026.9938,427.7081,4008.03,428.32" style="stroke:#181818;stroke-width:1.0;"/></g><!--link PlayerCore to PlayerParams--><g id="link_PlayerCore_PlayerParams"><path codeLine="15" d="M4782.69,717.41 C4789.49,741.6 4794.6946,760.0744 4800.1346,779.4044 " fill="none" id="PlayerCore-to-PlayerParams" style="stroke:#181818;stroke-width:1.0;"/><polygon fill="#181818" points="4801.76,785.18,4803.1723,775.4329,4800.4055,780.367,4795.4714,777.6002,4801.76,785.18" style="stroke:#181818;stroke-width:1.0;"/></g><!--reverse link BaseBullet to HomingBullet--><g id="link_BaseBullet_HomingBullet"><path codeLine="4" d="M4309.95,189.65 C4309.95,236.33 4309.95,304.9 4309.95,346.44 " fill="none" id="BaseBullet-backto-HomingBullet" style="stroke:#181818;stroke-width:1.0;"/><polygon fill="none" points="4309.95,171.65,4303.95,189.65,4315.95,189.65,4309.95,171.65" style="stroke:#181818;stroke-width:1.0;"/></g><!--SRC=[ZPDTJiCm3CVVEGMxm7e6nWIh1ABIjF7iDLONv2PHucpQxQb8nGXDshpKQVphtvzTITMI5_YuhWuiIV9jRNnF3wlx_JiewD1kfJF0xHdjXAYtq0y8d0WdlWqm9wvVD96-Vfo-iEM9ys0w2mAhJmIZrVYMfUebOBHxf26Ojer5XueJTVpxO2oyLFSeyPfb6u8Rsi9Ct_JmA8wRvPw4AElWho2pLDqILei94SACfW4BlSin6t0OZlCgkURVPMJxwXT44gc6GLGx1E9ppXjCBeKOqXUS9sP-d8ZBxsM4xHdOkwBSSWEDUf1SspYnz40ZfbR6yppoh2rcn-c9a7-M8nmNm9tkXyAAq63-rF0D]--></g></svg>