<svg xmlns="http://www.w3.org/2000/svg" xmlns:xlink="http://www.w3.org/1999/xlink" contentStyleType="text/css" height="204px" preserveAspectRatio="none" style="width:706px;height:204px;background:#FFFFFF;" version="1.1" viewBox="0 0 706 204" width="706px" zoomAndPan="magnify"><defs/><g><!--cluster Players--><g id="cluster_Players"><path d="M98.55,6 L151.5646,6 A3.75,3.75 0 0 1 154.0646,8.5 L161.0646,28.4883 L255.55,28.4883 A2.5,2.5 0 0 1 258.05,30.9883 L258.05,102.5 A2.5,2.5 0 0 1 255.55,105 L98.55,105 A2.5,2.5 0 0 1 96.05,102.5 L96.05,8.5 A2.5,2.5 0 0 1 98.55,6 " fill="none" style="stroke:#000000;stroke-width:1.5;"/><line style="stroke:#000000;stroke-width:1.5;" x1="96.05" x2="161.0646" y1="28.4883" y2="28.4883"/><text fill="#000000" font-family="sans-serif" font-size="14" font-weight="bold" lengthAdjust="spacing" textLength="52.0146" x="100.05" y="21.5352">Players</text></g><!--cluster Upgrades--><g id="cluster_Upgrades"><path d="M284.55,6 L354.3605,6 A3.75,3.75 0 0 1 356.8605,8.5 L363.8605,28.4883 L696.55,28.4883 A2.5,2.5 0 0 1 699.05,30.9883 L699.05,102.5 A2.5,2.5 0 0 1 696.55,105 L284.55,105 A2.5,2.5 0 0 1 282.05,102.5 L282.05,8.5 A2.5,2.5 0 0 1 284.55,6 " fill="none" style="stroke:#000000;stroke-width:1.5;"/><line style="stroke:#000000;stroke-width:1.5;" x1="282.05" x2="363.8605" y1="28.4883" y2="28.4883"/><text fill="#000000" font-family="sans-serif" font-size="14" font-weight="bold" lengthAdjust="spacing" textLength="68.8105" x="286.05" y="21.5352">Upgrades</text></g><!--class PlayerManager--><g id="elem_PlayerManager"><rect fill="#F1F1F1" height="48" id="PlayerManager" rx="2.5" ry="2.5" style="stroke:#181818;stroke-width:0.5;" width="130.8271" x="111.64" y="41"/><ellipse cx="126.64" cy="57" fill="#ADD1B2" rx="11" ry="11" style="stroke:#181818;stroke-width:1.0;"/><path d="M129.1131,63.1431 Q128.5321,63.4419 127.8929,63.5913 Q127.2538,63.7407 126.5482,63.7407 Q124.0414,63.7407 122.7215,62.0889 Q121.4017,60.437 121.4017,57.3159 Q121.4017,54.1865 122.7215,52.5347 Q124.0414,50.8828 126.5482,50.8828 Q127.2538,50.8828 127.9012,51.0322 Q128.5487,51.1816 129.1131,51.4805 L129.1131,54.2031 Q128.4823,53.6221 127.8888,53.3523 Q127.2953,53.0825 126.6644,53.0825 Q125.3197,53.0825 124.6349,54.1492 Q123.9501,55.2158 123.9501,57.3159 Q123.9501,59.4077 124.6349,60.4744 Q125.3197,61.541 126.6644,61.541 Q127.2953,61.541 127.8888,61.2712 Q128.4823,61.0015 129.1131,60.4204 Z " fill="#000000"/><text fill="#000000" font-family="sans-serif" font-size="14" lengthAdjust="spacing" textLength="98.8271" x="140.64" y="62.291">PlayerManager</text><line style="stroke:#181818;stroke-width:0.5;" x1="112.64" x2="241.4671" y1="73" y2="73"/><line style="stroke:#181818;stroke-width:0.5;" x1="112.64" x2="241.4671" y1="81" y2="81"/></g><!--class UpgradeSelector--><g id="elem_UpgradeSelector"><rect fill="#F1F1F1" height="48" id="UpgradeSelector" rx="2.5" ry="2.5" style="stroke:#181818;stroke-width:0.5;" width="143.2344" x="298.43" y="41"/><ellipse cx="313.43" cy="57" fill="#ADD1B2" rx="11" ry="11" style="stroke:#181818;stroke-width:1.0;"/><path d="M315.9031,63.1431 Q315.3221,63.4419 314.6829,63.5913 Q314.0438,63.7407 313.3382,63.7407 Q310.8314,63.7407 309.5115,62.0889 Q308.1917,60.437 308.1917,57.3159 Q308.1917,54.1865 309.5115,52.5347 Q310.8314,50.8828 313.3382,50.8828 Q314.0438,50.8828 314.6912,51.0322 Q315.3387,51.1816 315.9031,51.4805 L315.9031,54.2031 Q315.2723,53.6221 314.6788,53.3523 Q314.0853,53.0825 313.4544,53.0825 Q312.1097,53.0825 311.4249,54.1492 Q310.7401,55.2158 310.7401,57.3159 Q310.7401,59.4077 311.4249,60.4744 Q312.1097,61.541 313.4544,61.541 Q314.0853,61.541 314.6788,61.2712 Q315.2723,61.0015 315.9031,60.4204 Z " fill="#000000"/><text fill="#000000" font-family="sans-serif" font-size="14" lengthAdjust="spacing" textLength="111.2344" x="327.43" y="62.291">UpgradeSelector</text><line style="stroke:#181818;stroke-width:0.5;" x1="299.43" x2="440.6644" y1="73" y2="73"/><line style="stroke:#181818;stroke-width:0.5;" x1="299.43" x2="440.6644" y1="81" y2="81"/></g><!--class UpgradeSelectorPresenter--><g id="elem_UpgradeSelectorPresenter"><rect fill="#F1F1F1" height="48" id="UpgradeSelectorPresenter" rx="2.5" ry="2.5" style="stroke:#181818;stroke-width:0.5;" width="206.8906" x="476.61" y="41"/><ellipse cx="491.61" cy="57" fill="#ADD1B2" rx="11" ry="11" style="stroke:#181818;stroke-width:1.0;"/><path d="M494.0831,63.1431 Q493.5021,63.4419 492.8629,63.5913 Q492.2238,63.7407 491.5182,63.7407 Q489.0114,63.7407 487.6915,62.0889 Q486.3717,60.437 486.3717,57.3159 Q486.3717,54.1865 487.6915,52.5347 Q489.0114,50.8828 491.5182,50.8828 Q492.2238,50.8828 492.8712,51.0322 Q493.5187,51.1816 494.0831,51.4805 L494.0831,54.2031 Q493.4523,53.6221 492.8588,53.3523 Q492.2653,53.0825 491.6344,53.0825 Q490.2897,53.0825 489.6049,54.1492 Q488.9201,55.2158 488.9201,57.3159 Q488.9201,59.4077 489.6049,60.4744 Q490.2897,61.541 491.6344,61.541 Q492.2653,61.541 492.8588,61.2712 Q493.4523,61.0015 494.0831,60.4204 Z " fill="#000000"/><text fill="#000000" font-family="sans-serif" font-size="14" lengthAdjust="spacing" textLength="174.8906" x="505.61" y="62.291">UpgradeSelectorPresenter</text><line style="stroke:#181818;stroke-width:0.5;" x1="477.61" x2="682.5006" y1="73" y2="73"/><line style="stroke:#181818;stroke-width:0.5;" x1="477.61" x2="682.5006" y1="81" y2="81"/></g><!--class ManagerDispatcher--><g id="elem_ManagerDispatcher"><rect codeLine="1" fill="#F1F1F1" height="48" id="ManagerDispatcher" rx="2.5" ry="2.5" style="stroke:#181818;stroke-width:0.5;" width="163.3047" x="191.4" y="149"/><ellipse cx="206.4" cy="165" fill="#ADD1B2" rx="11" ry="11" style="stroke:#181818;stroke-width:1.0;"/><path d="M208.8731,171.1431 Q208.2921,171.4419 207.6529,171.5913 Q207.0138,171.7407 206.3082,171.7407 Q203.8014,171.7407 202.4815,170.0889 Q201.1617,168.437 201.1617,165.3159 Q201.1617,162.1865 202.4815,160.5347 Q203.8014,158.8828 206.3082,158.8828 Q207.0138,158.8828 207.6612,159.0322 Q208.3087,159.1816 208.8731,159.4805 L208.8731,162.2031 Q208.2423,161.6221 207.6488,161.3523 Q207.0553,161.0825 206.4244,161.0825 Q205.0797,161.0825 204.3949,162.1492 Q203.7101,163.2158 203.7101,165.3159 Q203.7101,167.4077 204.3949,168.4744 Q205.0797,169.541 206.4244,169.541 Q207.0553,169.541 207.6488,169.2712 Q208.2423,169.0015 208.8731,168.4204 Z " fill="#000000"/><text fill="#000000" font-family="sans-serif" font-size="14" lengthAdjust="spacing" textLength="131.3047" x="220.4" y="170.291">ManagerDispatcher</text><line style="stroke:#181818;stroke-width:0.5;" x1="192.4" x2="353.7047" y1="181" y2="181"/><line style="stroke:#181818;stroke-width:0.5;" x1="192.4" x2="353.7047" y1="189" y2="189"/></g><!--class Battle--><g id="elem_Battle"><rect fill="#F1F1F1" height="48" id="Battle" rx="2.5" ry="2.5" style="stroke:#181818;stroke-width:0.5;" width="70.1035" x="7" y="41"/><ellipse cx="22" cy="57" fill="#ADD1B2" rx="11" ry="11" style="stroke:#181818;stroke-width:1.0;"/><path d="M24.4731,63.1431 Q23.8921,63.4419 23.2529,63.5913 Q22.6138,63.7407 21.9082,63.7407 Q19.4014,63.7407 18.0815,62.0889 Q16.7617,60.437 16.7617,57.3159 Q16.7617,54.1865 18.0815,52.5347 Q19.4014,50.8828 21.9082,50.8828 Q22.6138,50.8828 23.2612,51.0322 Q23.9087,51.1816 24.4731,51.4805 L24.4731,54.2031 Q23.8423,53.6221 23.2488,53.3523 Q22.6553,53.0825 22.0244,53.0825 Q20.6797,53.0825 19.9949,54.1492 Q19.3101,55.2158 19.3101,57.3159 Q19.3101,59.4077 19.9949,60.4744 Q20.6797,61.541 22.0244,61.541 Q22.6553,61.541 23.2488,61.2712 Q23.8423,61.0015 24.4731,60.4204 Z " fill="#000000"/><text fill="#000000" font-family="sans-serif" font-size="14" lengthAdjust="spacing" textLength="38.1035" x="36" y="62.291">Battle</text><line style="stroke:#181818;stroke-width:0.5;" x1="8" x2="76.1035" y1="73" y2="73"/><line style="stroke:#181818;stroke-width:0.5;" x1="8" x2="76.1035" y1="81" y2="81"/></g><!--link Battle to ManagerDispatcher--><g id="link_Battle_ManagerDispatcher"><path codeLine="3" d="M64.95,89.49 C74.02,97.8 84.94,106.65 96.05,113 C125.44,129.79 154.5887,140.9572 185.5887,150.3672 " fill="none" id="Battle-to-ManagerDispatcher" style="stroke:#181818;stroke-width:1.0;"/><polygon fill="#181818" points="191.33,152.11,183.8799,145.6683,186.5456,150.6577,181.5562,153.3234,191.33,152.11" style="stroke:#181818;stroke-width:1.0;"/></g><!--link PlayerManager to ManagerDispatcher--><g id="link_PlayerManager_ManagerDispatcher"><path codeLine="4" d="M198.12,89.26 C214.13,106.94 232.0129,126.6823 248.0029,144.3423 " fill="none" id="PlayerManager-to-ManagerDispatcher" style="stroke:#181818;stroke-width:1.0;"/><polygon fill="#181818" points="252.03,148.79,248.9545,139.4337,248.6741,145.0836,243.0242,144.8032,252.03,148.79" style="stroke:#181818;stroke-width:1.0;"/></g><!--link UpgradeSelector to ManagerDispatcher--><g id="link_UpgradeSelector_ManagerDispatcher"><path codeLine="5" d="M348.76,89.26 C332.59,106.94 314.5005,126.7035 298.3405,144.3635 " fill="none" id="UpgradeSelector-to-ManagerDispatcher" style="stroke:#181818;stroke-width:1.0;"/><polygon fill="#181818" points="294.29,148.79,303.3167,144.8506,297.6654,145.1013,297.4148,139.45,294.29,148.79" style="stroke:#181818;stroke-width:1.0;"/></g><!--link UpgradeSelectorPresenter to ManagerDispatcher--><g id="link_UpgradeSelectorPresenter_ManagerDispatcher"><path codeLine="6" d="M521.86,89.46 C502.03,97.23 479.67,105.73 459.05,113 C423.75,125.44 389.9893,136.3581 356.5193,146.7681 " fill="none" id="UpgradeSelectorPresenter-to-ManagerDispatcher" style="stroke:#181818;stroke-width:1.0;"/><polygon fill="#181818" points="350.79,148.55,360.5719,149.6966,355.5644,147.065,358.196,142.0576,350.79,148.55" style="stroke:#181818;stroke-width:1.0;"/></g><!--SRC=[Iyv9B2vMy4tCIqnFBNB9B2v8B4dEI2rIgEQgvN9AB2d9ILNGrRN3LC0La9DOcLfKh0UXeV8ur8OMf1SbfgGMwq4PmQavgSab-QGg3oXABKxDAy5b3G00]--></g></svg>