<svg xmlns="http://www.w3.org/2000/svg" xmlns:xlink="http://www.w3.org/1999/xlink" contentStyleType="text/css" height="85px" preserveAspectRatio="none" style="width:644px;height:85px;background:#FFFFFF;" version="1.1" viewBox="0 0 644 85" width="644px" zoomAndPan="magnify"><defs/><g><!--class Utility--><g id="elem_Utility"><rect codeLine="1" fill="#F1F1F1" height="64.4883" id="Utility" rx="2.5" ry="2.5" style="stroke:#181818;stroke-width:0.5;" width="623.8984" x="7" y="7"/><ellipse cx="294.8853" cy="23" fill="#ADD1B2" rx="11" ry="11" style="stroke:#181818;stroke-width:1.0;"/><path d="M297.3584,29.1431 Q296.7773,29.4419 296.1382,29.5913 Q295.499,29.7407 294.7935,29.7407 Q292.2866,29.7407 290.9668,28.0889 Q289.647,26.437 289.647,23.3159 Q289.647,20.1865 290.9668,18.5347 Q292.2866,16.8828 294.7935,16.8828 Q295.499,16.8828 296.1465,17.0322 Q296.7939,17.1816 297.3584,17.4805 L297.3584,20.2031 Q296.7275,19.6221 296.134,19.3523 Q295.5405,19.0825 294.9097,19.0825 Q293.5649,19.0825 292.8801,20.1492 Q292.1953,21.2158 292.1953,23.3159 Q292.1953,25.4077 292.8801,26.4744 Q293.5649,27.541 294.9097,27.541 Q295.5405,27.541 296.134,27.2712 Q296.7275,27.0015 297.3584,26.4204 Z " fill="#000000"/><text fill="#000000" font-family="sans-serif" font-size="14" lengthAdjust="spacing" textLength="39.6279" x="315.3853" y="28.291">Utility</text><line style="stroke:#181818;stroke-width:0.5;" x1="8" x2="629.8984" y1="39" y2="39"/><line style="stroke:#181818;stroke-width:0.5;" x1="8" x2="629.8984" y1="47" y2="47"/><ellipse cx="18" cy="60.7441" fill="#84BE84" rx="3" ry="3" style="stroke:#038048;stroke-width:1.0;"/><text fill="#000000" font-family="sans-serif" font-size="14" lengthAdjust="spacing" text-decoration="underline" textLength="597.8984" x="27" y="64.5352">GetUniqueRandomNumbers(rangeBegin:int, rangeEnd:int, count:int) : IEnumerable&lt;int&gt;</text></g><!--SRC=[9OWx2e0m341tJv5HqHE8E0WYBWw21uWrIA2DsAQ3Y7VtzwRtdh4O0apAblM0Cu67CoWgcmjow4WduJtIYB9iReXk9XzIZx9IGojBoQ85VDtAyfVPekYh6PJGjn8TUPmjLS-ga-i6]--></g></svg>