<svg xmlns="http://www.w3.org/2000/svg" xmlns:xlink="http://www.w3.org/1999/xlink" contentStyleType="text/css" height="195px" preserveAspectRatio="none" style="width:535px;height:195px;background:#FFFFFF;" version="1.1" viewBox="0 0 535 195" width="535px" zoomAndPan="magnify"><defs/><g><!--cluster Weapons--><g id="cluster_Weapons"><path d="M8.5,6 L73.915,6 A3.75,3.75 0 0 1 76.415,8.5 L83.415,28.4883 L525.5,28.4883 A2.5,2.5 0 0 1 528,30.9883 L528,185.99 A2.5,2.5 0 0 1 525.5,188.49 L8.5,188.49 A2.5,2.5 0 0 1 6,185.99 L6,8.5 A2.5,2.5 0 0 1 8.5,6 " fill="none" style="stroke:#000000;stroke-width:1.5;"/><line style="stroke:#000000;stroke-width:1.5;" x1="6" x2="83.415" y1="28.4883" y2="28.4883"/><text fill="#000000" font-family="sans-serif" font-size="14" font-weight="bold" lengthAdjust="spacing" textLength="64.415" x="10" y="21.5352">Weapons</text></g><!--cluster Bullets--><g id="cluster_Bullets"><path d="M32.5,49 L82.4111,49 A3.75,3.75 0 0 1 84.9111,51.5 L91.9111,71.4883 L501.5,71.4883 A2.5,2.5 0 0 1 504,73.9883 L504,161.99 A2.5,2.5 0 0 1 501.5,164.49 L32.5,164.49 A2.5,2.5 0 0 1 30,161.99 L30,51.5 A2.5,2.5 0 0 1 32.5,49 " fill="none" style="stroke:#000000;stroke-width:1.5;"/><line style="stroke:#000000;stroke-width:1.5;" x1="30" x2="91.9111" y1="71.4883" y2="71.4883"/><text fill="#000000" font-family="sans-serif" font-size="14" font-weight="bold" lengthAdjust="spacing" textLength="48.9111" x="34" y="64.5352">Bullets</text></g><!--class BaseBullet--><g id="elem_BaseBullet"><rect codeLine="2" fill="#F1F1F1" height="64.4883" id="BaseBullet" rx="2.5" ry="2.5" style="stroke:#181818;stroke-width:0.5;" width="441.0713" x="46.46" y="84"/><ellipse cx="228.4497" cy="100" fill="#ADD1B2" rx="11" ry="11" style="stroke:#181818;stroke-width:1.0;"/><path d="M230.9229,106.1431 Q230.3418,106.4419 229.7027,106.5913 Q229.0635,106.7407 228.3579,106.7407 Q225.8511,106.7407 224.5313,105.0889 Q223.2115,103.437 223.2115,100.3159 Q223.2115,97.1865 224.5313,95.5347 Q225.8511,93.8828 228.3579,93.8828 Q229.0635,93.8828 229.711,94.0322 Q230.3584,94.1816 230.9229,94.4805 L230.9229,97.2031 Q230.292,96.6221 229.6985,96.3523 Q229.105,96.0825 228.4742,96.0825 Q227.1294,96.0825 226.4446,97.1492 Q225.7598,98.2158 225.7598,100.3159 Q225.7598,102.4077 226.4446,103.4744 Q227.1294,104.541 228.4742,104.541 Q229.105,104.541 229.6985,104.2712 Q230.292,104.0015 230.9229,103.4204 Z " fill="#000000"/><text fill="#000000" font-family="sans-serif" font-size="14" lengthAdjust="spacing" textLength="68.5918" x="248.9497" y="105.291">BaseBullet</text><line style="stroke:#181818;stroke-width:0.5;" x1="47.46" x2="486.5313" y1="116" y2="116"/><line style="stroke:#181818;stroke-width:0.5;" x1="47.46" x2="486.5313" y1="124" y2="124"/><ellipse cx="57.46" cy="137.7441" fill="#84BE84" rx="3" ry="3" style="stroke:#038048;stroke-width:1.0;"/><text fill="#000000" font-family="sans-serif" font-size="14" lengthAdjust="spacing" textLength="415.0713" x="66.46" y="141.5352">Initialize(bulletParams:BulletParams, owner:PlayerCore) : void</text></g><!--SRC=[JOan3eCm40Hxl-9A414FS6agEhhK6sSBIuUDV2HHWlXxej0mtSnapBG5aN8bbfAj3mzLhhQvg32J0EEHP7FoevCnfpL1quVDxNycLCpcmqakKbwPrK-AD-jGAblnyYpfxdQtVm40]--></g></svg>