<svg xmlns="http://www.w3.org/2000/svg" xmlns:xlink="http://www.w3.org/1999/xlink" contentStyleType="text/css" height="303px" preserveAspectRatio="none" style="width:695px;height:303px;background:#FFFFFF;" version="1.1" viewBox="0 0 695 303" width="695px" zoomAndPan="magnify"><defs/><g><!--cluster Weapons--><g id="cluster_Weapons"><path d="M8.5,6 L73.915,6 A3.75,3.75 0 0 1 76.415,8.5 L83.415,28.4883 L525.5,28.4883 A2.5,2.5 0 0 1 528,30.9883 L528,293.99 A2.5,2.5 0 0 1 525.5,296.49 L8.5,296.49 A2.5,2.5 0 0 1 6,293.99 L6,8.5 A2.5,2.5 0 0 1 8.5,6 " fill="none" style="stroke:#000000;stroke-width:1.5;"/><line style="stroke:#000000;stroke-width:1.5;" x1="6" x2="83.415" y1="28.4883" y2="28.4883"/><text fill="#000000" font-family="sans-serif" font-size="14" font-weight="bold" lengthAdjust="spacing" textLength="64.415" x="10" y="21.5352">Weapons</text></g><!--cluster Bullets--><g id="cluster_Bullets"><path d="M32.5,49 L82.4111,49 A3.75,3.75 0 0 1 84.9111,51.5 L91.9111,71.4883 L501.5,71.4883 A2.5,2.5 0 0 1 504,73.9883 L504,269.99 A2.5,2.5 0 0 1 501.5,272.49 L32.5,272.49 A2.5,2.5 0 0 1 30,269.99 L30,51.5 A2.5,2.5 0 0 1 32.5,49 " fill="none" style="stroke:#000000;stroke-width:1.5;"/><line style="stroke:#000000;stroke-width:1.5;" x1="30" x2="91.9111" y1="71.4883" y2="71.4883"/><text fill="#000000" font-family="sans-serif" font-size="14" font-weight="bold" lengthAdjust="spacing" textLength="48.9111" x="34" y="64.5352">Bullets</text></g><!--cluster Players--><g id="cluster_Players"><path d="M554.5,49 L607.5146,49 A3.75,3.75 0 0 1 610.0146,51.5 L617.0146,71.4883 L685.5,71.4883 A2.5,2.5 0 0 1 688,73.9883 L688,145.5 A2.5,2.5 0 0 1 685.5,148 L554.5,148 A2.5,2.5 0 0 1 552,145.5 L552,51.5 A2.5,2.5 0 0 1 554.5,49 " fill="none" style="stroke:#000000;stroke-width:1.5;"/><line style="stroke:#000000;stroke-width:1.5;" x1="552" x2="617.0146" y1="71.4883" y2="71.4883"/><text fill="#000000" font-family="sans-serif" font-size="14" font-weight="bold" lengthAdjust="spacing" textLength="52.0146" x="556" y="64.5352">Players</text></g><!--class BaseBullet--><g id="elem_BaseBullet"><rect codeLine="2" fill="#F1F1F1" height="64.4883" id="BaseBullet" rx="2.5" ry="2.5" style="stroke:#181818;stroke-width:0.5;" width="441.0713" x="46.46" y="192"/><ellipse cx="228.4497" cy="208" fill="#ADD1B2" rx="11" ry="11" style="stroke:#181818;stroke-width:1.0;"/><path d="M230.9229,214.1431 Q230.3418,214.4419 229.7027,214.5913 Q229.0635,214.7407 228.3579,214.7407 Q225.8511,214.7407 224.5313,213.0889 Q223.2115,211.437 223.2115,208.3159 Q223.2115,205.1865 224.5313,203.5347 Q225.8511,201.8828 228.3579,201.8828 Q229.0635,201.8828 229.711,202.0322 Q230.3584,202.1816 230.9229,202.4805 L230.9229,205.2031 Q230.292,204.6221 229.6985,204.3523 Q229.105,204.0825 228.4742,204.0825 Q227.1294,204.0825 226.4446,205.1492 Q225.7598,206.2158 225.7598,208.3159 Q225.7598,210.4077 226.4446,211.4744 Q227.1294,212.541 228.4742,212.541 Q229.105,212.541 229.6985,212.2712 Q230.292,212.0015 230.9229,211.4204 Z " fill="#000000"/><text fill="#000000" font-family="sans-serif" font-size="14" lengthAdjust="spacing" textLength="68.5918" x="248.9497" y="213.291">BaseBullet</text><line style="stroke:#181818;stroke-width:0.5;" x1="47.46" x2="486.5313" y1="224" y2="224"/><line style="stroke:#181818;stroke-width:0.5;" x1="47.46" x2="486.5313" y1="232" y2="232"/><ellipse cx="57.46" cy="245.7441" fill="#84BE84" rx="3" ry="3" style="stroke:#038048;stroke-width:1.0;"/><text fill="#000000" font-family="sans-serif" font-size="14" lengthAdjust="spacing" textLength="415.0713" x="66.46" y="249.5352">Initialize(bulletParams:BulletParams, owner:PlayerCore) : void</text></g><!--class BulletParams--><g id="elem_BulletParams"><rect fill="#F1F1F1" height="48" id="BulletParams" rx="2.5" ry="2.5" style="stroke:#181818;stroke-width:0.5;" width="119.0078" x="207.5" y="84"/><ellipse cx="222.5" cy="100" fill="#ADD1B2" rx="11" ry="11" style="stroke:#181818;stroke-width:1.0;"/><path d="M224.9731,106.1431 Q224.3921,106.4419 223.7529,106.5913 Q223.1138,106.7407 222.4082,106.7407 Q219.9014,106.7407 218.5815,105.0889 Q217.2617,103.437 217.2617,100.3159 Q217.2617,97.1865 218.5815,95.5347 Q219.9014,93.8828 222.4082,93.8828 Q223.1138,93.8828 223.7612,94.0322 Q224.4087,94.1816 224.9731,94.4805 L224.9731,97.2031 Q224.3423,96.6221 223.7488,96.3523 Q223.1553,96.0825 222.5244,96.0825 Q221.1797,96.0825 220.4949,97.1492 Q219.8101,98.2158 219.8101,100.3159 Q219.8101,102.4077 220.4949,103.4744 Q221.1797,104.541 222.5244,104.541 Q223.1553,104.541 223.7488,104.2712 Q224.3423,104.0015 224.9731,103.4204 Z " fill="#000000"/><text fill="#000000" font-family="sans-serif" font-size="14" lengthAdjust="spacing" textLength="87.0078" x="236.5" y="105.291">BulletParams</text><line style="stroke:#181818;stroke-width:0.5;" x1="208.5" x2="325.5078" y1="116" y2="116"/><line style="stroke:#181818;stroke-width:0.5;" x1="208.5" x2="325.5078" y1="124" y2="124"/></g><!--class PlayerCore--><g id="elem_PlayerCore"><rect fill="#F1F1F1" height="48" id="PlayerCore" rx="2.5" ry="2.5" style="stroke:#181818;stroke-width:0.5;" width="104.1738" x="567.91" y="84"/><ellipse cx="582.91" cy="100" fill="#ADD1B2" rx="11" ry="11" style="stroke:#181818;stroke-width:1.0;"/><path d="M585.3831,106.1431 Q584.8021,106.4419 584.1629,106.5913 Q583.5238,106.7407 582.8182,106.7407 Q580.3114,106.7407 578.9915,105.0889 Q577.6717,103.437 577.6717,100.3159 Q577.6717,97.1865 578.9915,95.5347 Q580.3114,93.8828 582.8182,93.8828 Q583.5238,93.8828 584.1712,94.0322 Q584.8187,94.1816 585.3831,94.4805 L585.3831,97.2031 Q584.7523,96.6221 584.1588,96.3523 Q583.5653,96.0825 582.9344,96.0825 Q581.5897,96.0825 580.9049,97.1492 Q580.2201,98.2158 580.2201,100.3159 Q580.2201,102.4077 580.9049,103.4744 Q581.5897,104.541 582.9344,104.541 Q583.5653,104.541 584.1588,104.2712 Q584.7523,104.0015 585.3831,103.4204 Z " fill="#000000"/><text fill="#000000" font-family="sans-serif" font-size="14" lengthAdjust="spacing" textLength="72.1738" x="596.91" y="105.291">PlayerCore</text><line style="stroke:#181818;stroke-width:0.5;" x1="568.91" x2="671.0838" y1="116" y2="116"/><line style="stroke:#181818;stroke-width:0.5;" x1="568.91" x2="671.0838" y1="124" y2="124"/></g><!--link PlayerCore to BaseBullet--><g id="link_PlayerCore_BaseBullet"><path codeLine="6" d="M567.62,131.63 C547.86,139.79 525.07,148.77 504,156 C466.78,168.78 431.487,179.4395 394.127,189.9195 " fill="none" id="PlayerCore-to-BaseBullet" style="stroke:#181818;stroke-width:1.0;"/><polygon fill="#181818" points="388.35,191.54,398.0959,192.9605,393.1642,190.1896,395.9352,185.2579,388.35,191.54" style="stroke:#181818;stroke-width:1.0;"/></g><!--link BulletParams to BaseBullet--><g id="link_BulletParams_BaseBullet"><path codeLine="7" d="M267,132.4 C267,149.5 267,160.89 267,179.65 " fill="none" id="BulletParams-to-BaseBullet" style="stroke:#181818;stroke-width:1.0;"/><polygon fill="#181818" points="267,191.65,271,185.65,267,179.65,263,185.65,267,191.65" style="stroke:#181818;stroke-width:1.0;"/></g><!--SRC=[NOwz3i8m38JtF8L7_fe7oC0G9hPkp4Vh8PARL74fWeft9se78doJxplP5p6mZkYORemnHRN-8SAJBgOJg9A7ycRHOgZCaQunJ04IthoxhwH5ng3ELyk9qZDoTgtWnVcICk_9qPn2Rpv5cwtsXwbfpjKpyrV7riTBzb1blm00]--></g></svg>