<svg xmlns="http://www.w3.org/2000/svg" xmlns:xlink="http://www.w3.org/1999/xlink" contentStyleType="text/css" height="211px" preserveAspectRatio="none" style="width:259px;height:211px;background:#FFFFFF;" version="1.1" viewBox="0 0 259 211" width="259px" zoomAndPan="magnify"><defs/><g><!--cluster Weapons--><g id="cluster_Weapons"><path d="M8.5,6 L73.915,6 A3.75,3.75 0 0 1 76.415,8.5 L83.415,28.4883 L249.5,28.4883 A2.5,2.5 0 0 1 252,30.9883 L252,202.48 A2.5,2.5 0 0 1 249.5,204.98 L8.5,204.98 A2.5,2.5 0 0 1 6,202.48 L6,8.5 A2.5,2.5 0 0 1 8.5,6 " fill="none" style="stroke:#000000;stroke-width:1.5;"/><line style="stroke:#000000;stroke-width:1.5;" x1="6" x2="83.415" y1="28.4883" y2="28.4883"/><text fill="#000000" font-family="sans-serif" font-size="14" font-weight="bold" lengthAdjust="spacing" textLength="64.415" x="10" y="21.5352">Weapons</text></g><!--cluster Bullets--><g id="cluster_Bullets"><path d="M32.5,49 L82.4111,49 A3.75,3.75 0 0 1 84.9111,51.5 L91.9111,71.4883 L225.5,71.4883 A2.5,2.5 0 0 1 228,73.9883 L228,178.48 A2.5,2.5 0 0 1 225.5,180.98 L32.5,180.98 A2.5,2.5 0 0 1 30,178.48 L30,51.5 A2.5,2.5 0 0 1 32.5,49 " fill="none" style="stroke:#000000;stroke-width:1.5;"/><line style="stroke:#000000;stroke-width:1.5;" x1="30" x2="91.9111" y1="71.4883" y2="71.4883"/><text fill="#000000" font-family="sans-serif" font-size="14" font-weight="bold" lengthAdjust="spacing" textLength="48.9111" x="34" y="64.5352">Bullets</text></g><!--class BulletParams--><g id="elem_BulletParams"><rect codeLine="2" fill="#F1F1F1" height="80.9766" id="BulletParams" rx="2.5" ry="2.5" style="stroke:#181818;stroke-width:0.5;" width="166.7656" x="45.62" y="84"/><ellipse cx="82.111" cy="100" fill="#ADD1B2" rx="11" ry="11" style="stroke:#181818;stroke-width:1.0;"/><path d="M84.5842,106.1431 Q84.0031,106.4419 83.3639,106.5913 Q82.7248,106.7407 82.0192,106.7407 Q79.5124,106.7407 78.1926,105.0889 Q76.8727,103.437 76.8727,100.3159 Q76.8727,97.1865 78.1926,95.5347 Q79.5124,93.8828 82.0192,93.8828 Q82.7248,93.8828 83.3722,94.0322 Q84.0197,94.1816 84.5842,94.4805 L84.5842,97.2031 Q83.9533,96.6221 83.3598,96.3523 Q82.7663,96.0825 82.1354,96.0825 Q80.7907,96.0825 80.1059,97.1492 Q79.4211,98.2158 79.4211,100.3159 Q79.4211,102.4077 80.1059,103.4744 Q80.7907,104.541 82.1354,104.541 Q82.7663,104.541 83.3598,104.2712 Q83.9533,104.0015 84.5842,103.4204 Z " fill="#000000"/><text fill="#000000" font-family="sans-serif" font-size="14" lengthAdjust="spacing" textLength="87.0078" x="100.8868" y="105.291">BulletParams</text><line style="stroke:#181818;stroke-width:0.5;" x1="46.62" x2="211.3856" y1="116" y2="116"/><ellipse cx="56.62" cy="129.7441" fill="none" rx="3" ry="3" style="stroke:#038048;stroke-width:1.0;"/><text fill="#000000" font-family="sans-serif" font-size="14" lengthAdjust="spacing" textLength="127.251" x="65.62" y="133.5352">speed : float = 15f</text><ellipse cx="56.62" cy="146.2324" fill="none" rx="3" ry="3" style="stroke:#038048;stroke-width:1.0;"/><text fill="#000000" font-family="sans-serif" font-size="14" lengthAdjust="spacing" textLength="140.7656" x="65.62" y="150.0234">damage : float = 10f</text><line style="stroke:#181818;stroke-width:0.5;" x1="46.62" x2="211.3856" y1="156.9766" y2="156.9766"/></g><!--SRC=[oqlCJIqkI4nELGXFJIp8polMSohDoKajAQxcIiv9B2vMW7034eiISuiLghaKW41ReRWWDJL5mKeXBIS_iKJ1Li7GD0qgavAOcvYUYYnbaCPLorKB0000]--></g></svg>