<svg xmlns="http://www.w3.org/2000/svg" xmlns:xlink="http://www.w3.org/1999/xlink" contentStyleType="text/css" height="287px" preserveAspectRatio="none" style="width:217px;height:287px;background:#FFFFFF;" version="1.1" viewBox="0 0 217 287" width="217px" zoomAndPan="magnify"><defs/><g><!--cluster Weapons--><g id="cluster_Weapons"><path d="M8.5,6 L73.915,6 A3.75,3.75 0 0 1 76.415,8.5 L83.415,28.4883 L207.5,28.4883 A2.5,2.5 0 0 1 210,30.9883 L210,277.5 A2.5,2.5 0 0 1 207.5,280 L8.5,280 A2.5,2.5 0 0 1 6,277.5 L6,8.5 A2.5,2.5 0 0 1 8.5,6 " fill="none" style="stroke:#000000;stroke-width:1.5;"/><line style="stroke:#000000;stroke-width:1.5;" x1="6" x2="83.415" y1="28.4883" y2="28.4883"/><text fill="#000000" font-family="sans-serif" font-size="14" font-weight="bold" lengthAdjust="spacing" textLength="64.415" x="10" y="21.5352">Weapons</text></g><!--cluster Bullets--><g id="cluster_Bullets"><path d="M32.5,49 L82.4111,49 A3.75,3.75 0 0 1 84.9111,51.5 L91.9111,71.4883 L183.5,71.4883 A2.5,2.5 0 0 1 186,73.9883 L186,253.5 A2.5,2.5 0 0 1 183.5,256 L32.5,256 A2.5,2.5 0 0 1 30,253.5 L30,51.5 A2.5,2.5 0 0 1 32.5,49 " fill="none" style="stroke:#000000;stroke-width:1.5;"/><line style="stroke:#000000;stroke-width:1.5;" x1="30" x2="91.9111" y1="71.4883" y2="71.4883"/><text fill="#000000" font-family="sans-serif" font-size="14" font-weight="bold" lengthAdjust="spacing" textLength="48.9111" x="34" y="64.5352">Bullets</text></g><!--class HomingBullet--><g id="elem_HomingBullet"><rect codeLine="2" fill="#F1F1F1" height="48" id="HomingBullet" rx="2.5" ry="2.5" style="stroke:#181818;stroke-width:0.5;" width="123.2939" x="46.35" y="192"/><ellipse cx="61.35" cy="208" fill="#ADD1B2" rx="11" ry="11" style="stroke:#181818;stroke-width:1.0;"/><path d="M63.8231,214.1431 Q63.2421,214.4419 62.6029,214.5913 Q61.9638,214.7407 61.2582,214.7407 Q58.7514,214.7407 57.4315,213.0889 Q56.1117,211.437 56.1117,208.3159 Q56.1117,205.1865 57.4315,203.5347 Q58.7514,201.8828 61.2582,201.8828 Q61.9638,201.8828 62.6112,202.0322 Q63.2587,202.1816 63.8231,202.4805 L63.8231,205.2031 Q63.1923,204.6221 62.5988,204.3523 Q62.0053,204.0825 61.3744,204.0825 Q60.0297,204.0825 59.3449,205.1492 Q58.6601,206.2158 58.6601,208.3159 Q58.6601,210.4077 59.3449,211.4744 Q60.0297,212.541 61.3744,212.541 Q62.0053,212.541 62.5988,212.2712 Q63.1923,212.0015 63.8231,211.4204 Z " fill="#000000"/><text fill="#000000" font-family="sans-serif" font-size="14" lengthAdjust="spacing" textLength="91.2939" x="75.35" y="213.291">HomingBullet</text><line style="stroke:#181818;stroke-width:0.5;" x1="47.35" x2="168.6439" y1="224" y2="224"/><line style="stroke:#181818;stroke-width:0.5;" x1="47.35" x2="168.6439" y1="232" y2="232"/></g><!--class BaseBullet--><g id="elem_BaseBullet"><rect fill="#F1F1F1" height="48" id="BaseBullet" rx="2.5" ry="2.5" style="stroke:#181818;stroke-width:0.5;" width="100.5918" x="57.7" y="84"/><ellipse cx="72.7" cy="100" fill="#ADD1B2" rx="11" ry="11" style="stroke:#181818;stroke-width:1.0;"/><path d="M75.1731,106.1431 Q74.5921,106.4419 73.9529,106.5913 Q73.3138,106.7407 72.6082,106.7407 Q70.1014,106.7407 68.7815,105.0889 Q67.4617,103.437 67.4617,100.3159 Q67.4617,97.1865 68.7815,95.5347 Q70.1014,93.8828 72.6082,93.8828 Q73.3138,93.8828 73.9612,94.0322 Q74.6087,94.1816 75.1731,94.4805 L75.1731,97.2031 Q74.5423,96.6221 73.9488,96.3523 Q73.3553,96.0825 72.7244,96.0825 Q71.3797,96.0825 70.6949,97.1492 Q70.0101,98.2158 70.0101,100.3159 Q70.0101,102.4077 70.6949,103.4744 Q71.3797,104.541 72.7244,104.541 Q73.3553,104.541 73.9488,104.2712 Q74.5423,104.0015 75.1731,103.4204 Z " fill="#000000"/><text fill="#000000" font-family="sans-serif" font-size="14" lengthAdjust="spacing" textLength="68.5918" x="86.7" y="105.291">BaseBullet</text><line style="stroke:#181818;stroke-width:0.5;" x1="58.7" x2="157.2918" y1="116" y2="116"/><line style="stroke:#181818;stroke-width:0.5;" x1="58.7" x2="157.2918" y1="124" y2="124"/></g><!--reverse link BaseBullet to HomingBullet--><g id="link_BaseBullet_HomingBullet"><path codeLine="4" d="M108,150.26 C108,167.94 108,174.13 108,191.79 " fill="none" id="BaseBullet-backto-HomingBullet" style="stroke:#181818;stroke-width:1.0;"/><polygon fill="none" points="108,132.26,102,150.26,114,150.26,108,132.26" style="stroke:#181818;stroke-width:1.0;"/></g><!--SRC=[oqlCJIqkI4nELGXFJIp8polMSohDoKajAQxcIiv9B2vMyCZFpSnBXmWgL7FLSZab5gT2kJOrkhee2hXg0G00]--></g></svg>