<svg xmlns="http://www.w3.org/2000/svg" xmlns:xlink="http://www.w3.org/1999/xlink" contentStyleType="text/css" height="252px" preserveAspectRatio="none" style="width:898px;height:252px;background:#FFFFFF;" version="1.1" viewBox="0 0 898 252" width="898px" zoomAndPan="magnify"><defs/><g><!--cluster Weapons--><g id="cluster_Weapons"><path d="M8.5,6 L73.915,6 A3.75,3.75 0 0 1 76.415,8.5 L83.415,28.4883 L585.5,28.4883 A2.5,2.5 0 0 1 588,30.9883 L588,243.48 A2.5,2.5 0 0 1 585.5,245.98 L8.5,245.98 A2.5,2.5 0 0 1 6,243.48 L6,8.5 A2.5,2.5 0 0 1 8.5,6 " fill="none" style="stroke:#000000;stroke-width:1.5;"/><line style="stroke:#000000;stroke-width:1.5;" x1="6" x2="83.415" y1="28.4883" y2="28.4883"/><text fill="#000000" font-family="sans-serif" font-size="14" font-weight="bold" lengthAdjust="spacing" textLength="64.415" x="10" y="21.5352">Weapons</text></g><!--cluster Players--><g id="cluster_Players"><path d="M614.5,6 L667.5146,6 A3.75,3.75 0 0 1 670.0146,8.5 L677.0146,28.4883 L888.5,28.4883 A2.5,2.5 0 0 1 891,30.9883 L891,102.5 A2.5,2.5 0 0 1 888.5,105 L614.5,105 A2.5,2.5 0 0 1 612,102.5 L612,8.5 A2.5,2.5 0 0 1 614.5,6 " fill="none" style="stroke:#000000;stroke-width:1.5;"/><line style="stroke:#000000;stroke-width:1.5;" x1="612" x2="677.0146" y1="28.4883" y2="28.4883"/><text fill="#000000" font-family="sans-serif" font-size="14" font-weight="bold" lengthAdjust="spacing" textLength="52.0146" x="616" y="21.5352">Players</text></g><!--class BaseWeapon--><g id="elem_BaseWeapon"><rect codeLine="2" fill="#F1F1F1" height="80.9766" id="BaseWeapon" rx="2.5" ry="2.5" style="stroke:#181818;stroke-width:0.5;" width="549.1406" x="22.43" y="149"/><ellipse cx="250.5863" cy="165" fill="#A9DCDF" rx="11" ry="11" style="stroke:#181818;stroke-width:1.0;"/><path d="M250.4495,160.3481 L249.2957,165.4199 L251.6116,165.4199 Z M248.9554,158.1069 L251.952,158.1069 L255.2972,170.5 L252.8485,170.5 L252.0848,167.437 L248.806,167.437 L248.0589,170.5 L245.6102,170.5 Z " fill="#000000"/><text fill="#000000" font-family="sans-serif" font-size="14" font-style="italic" lengthAdjust="spacing" textLength="84.3281" x="271.0863" y="170.291">BaseWeapon</text><line style="stroke:#181818;stroke-width:0.5;" x1="23.43" x2="570.5706" y1="181" y2="181"/><line style="stroke:#181818;stroke-width:0.5;" x1="23.43" x2="570.5706" y1="189" y2="189"/><ellipse cx="33.43" cy="202.7441" fill="#84BE84" rx="3" ry="3" style="stroke:#038048;stroke-width:1.0;"/><text fill="#000000" font-family="sans-serif" font-size="14" lengthAdjust="spacing" textLength="351.5859" x="42.43" y="206.5352">Initialize(owner:PlayerCore, input:PlayerInput) : void</text><ellipse cx="33.43" cy="219.2324" fill="#84BE84" rx="3" ry="3" style="stroke:#038048;stroke-width:1.0;"/><text fill="#000000" font-family="sans-serif" font-size="14" lengthAdjust="spacing" textLength="523.1406" x="42.43" y="223.0234">ApplyWeaponParamsVariation(weaponParamsVariation:WeaponParams) : void</text></g><!--class WeaponParams--><g id="elem_WeaponParams"><rect fill="#F1F1F1" height="48" id="WeaponParams" rx="2.5" ry="2.5" style="stroke:#181818;stroke-width:0.5;" width="134.7441" x="229.63" y="41"/><ellipse cx="244.63" cy="57" fill="#ADD1B2" rx="11" ry="11" style="stroke:#181818;stroke-width:1.0;"/><path d="M247.1031,63.1431 Q246.5221,63.4419 245.8829,63.5913 Q245.2438,63.7407 244.5382,63.7407 Q242.0314,63.7407 240.7115,62.0889 Q239.3917,60.437 239.3917,57.3159 Q239.3917,54.1865 240.7115,52.5347 Q242.0314,50.8828 244.5382,50.8828 Q245.2438,50.8828 245.8912,51.0322 Q246.5387,51.1816 247.1031,51.4805 L247.1031,54.2031 Q246.4723,53.6221 245.8788,53.3523 Q245.2853,53.0825 244.6544,53.0825 Q243.3097,53.0825 242.6249,54.1492 Q241.9401,55.2158 241.9401,57.3159 Q241.9401,59.4077 242.6249,60.4744 Q243.3097,61.541 244.6544,61.541 Q245.2853,61.541 245.8788,61.2712 Q246.4723,61.0015 247.1031,60.4204 Z " fill="#000000"/><text fill="#000000" font-family="sans-serif" font-size="14" lengthAdjust="spacing" textLength="102.7441" x="258.63" y="62.291">WeaponParams</text><line style="stroke:#181818;stroke-width:0.5;" x1="230.63" x2="363.3741" y1="73" y2="73"/><line style="stroke:#181818;stroke-width:0.5;" x1="230.63" x2="363.3741" y1="81" y2="81"/></g><!--class PlayerCore--><g id="elem_PlayerCore"><rect fill="#F1F1F1" height="48" id="PlayerCore" rx="2.5" ry="2.5" style="stroke:#181818;stroke-width:0.5;" width="104.1738" x="627.91" y="41"/><ellipse cx="642.91" cy="57" fill="#ADD1B2" rx="11" ry="11" style="stroke:#181818;stroke-width:1.0;"/><path d="M645.3831,63.1431 Q644.8021,63.4419 644.1629,63.5913 Q643.5238,63.7407 642.8182,63.7407 Q640.3114,63.7407 638.9915,62.0889 Q637.6717,60.437 637.6717,57.3159 Q637.6717,54.1865 638.9915,52.5347 Q640.3114,50.8828 642.8182,50.8828 Q643.5238,50.8828 644.1712,51.0322 Q644.8187,51.1816 645.3831,51.4805 L645.3831,54.2031 Q644.7523,53.6221 644.1588,53.3523 Q643.5653,53.0825 642.9344,53.0825 Q641.5897,53.0825 640.9049,54.1492 Q640.2201,55.2158 640.2201,57.3159 Q640.2201,59.4077 640.9049,60.4744 Q641.5897,61.541 642.9344,61.541 Q643.5653,61.541 644.1588,61.2712 Q644.7523,61.0015 645.3831,60.4204 Z " fill="#000000"/><text fill="#000000" font-family="sans-serif" font-size="14" lengthAdjust="spacing" textLength="72.1738" x="656.91" y="62.291">PlayerCore</text><line style="stroke:#181818;stroke-width:0.5;" x1="628.91" x2="731.0838" y1="73" y2="73"/><line style="stroke:#181818;stroke-width:0.5;" x1="628.91" x2="731.0838" y1="81" y2="81"/></g><!--class PlayerInput--><g id="elem_PlayerInput"><rect fill="#F1F1F1" height="48" id="PlayerInput" rx="2.5" ry="2.5" style="stroke:#181818;stroke-width:0.5;" width="107.8174" x="767.09" y="41"/><ellipse cx="782.09" cy="57" fill="#ADD1B2" rx="11" ry="11" style="stroke:#181818;stroke-width:1.0;"/><path d="M784.5631,63.1431 Q783.9821,63.4419 783.3429,63.5913 Q782.7038,63.7407 781.9982,63.7407 Q779.4914,63.7407 778.1715,62.0889 Q776.8517,60.437 776.8517,57.3159 Q776.8517,54.1865 778.1715,52.5347 Q779.4914,50.8828 781.9982,50.8828 Q782.7038,50.8828 783.3512,51.0322 Q783.9987,51.1816 784.5631,51.4805 L784.5631,54.2031 Q783.9323,53.6221 783.3388,53.3523 Q782.7453,53.0825 782.1144,53.0825 Q780.7697,53.0825 780.0849,54.1492 Q779.4001,55.2158 779.4001,57.3159 Q779.4001,59.4077 780.0849,60.4744 Q780.7697,61.541 782.1144,61.541 Q782.7453,61.541 783.3388,61.2712 Q783.9323,61.0015 784.5631,60.4204 Z " fill="#000000"/><text fill="#000000" font-family="sans-serif" font-size="14" lengthAdjust="spacing" textLength="75.8174" x="796.09" y="62.291">PlayerInput</text><line style="stroke:#181818;stroke-width:0.5;" x1="768.09" x2="873.9074" y1="73" y2="73"/><line style="stroke:#181818;stroke-width:0.5;" x1="768.09" x2="873.9074" y1="81" y2="81"/></g><!--link PlayerCore to BaseWeapon--><g id="link_PlayerCore_BaseWeapon"><path codeLine="7" d="M639.2,89.27 C623.54,97.55 605.27,106.44 588,113 C552.5,126.49 519.47,136.8267 482.08,146.9867 " fill="none" id="PlayerCore-to-BaseWeapon" style="stroke:#181818;stroke-width:1.0;"/><polygon fill="#181818" points="476.29,148.56,486.024,150.06,481.115,147.2489,483.9262,142.34,476.29,148.56" style="stroke:#181818;stroke-width:1.0;"/></g><!--link PlayerInput to BaseWeapon--><g id="link_PlayerInput_BaseWeapon"><path codeLine="8" d="M791.8,89.35 C779.54,98.05 764.72,107.21 750,113 C694.08,135.01 637.7209,149.5138 577.6909,160.5638 " fill="none" id="PlayerInput-to-BaseWeapon" style="stroke:#181818;stroke-width:1.0;"/><polygon fill="#181818" points="571.79,161.65,581.3654,163.9546,576.7074,160.7448,579.9172,156.0868,571.79,161.65" style="stroke:#181818;stroke-width:1.0;"/></g><!--link WeaponParams to BaseWeapon--><g id="link_WeaponParams_BaseWeapon"><path codeLine="9" d="M297,89.33 C297,106.13 297,117.2 297,136.86 " fill="none" id="WeaponParams-to-BaseWeapon" style="stroke:#181818;stroke-width:1.0;"/><polygon fill="#181818" points="297,148.86,301,142.86,297,136.86,293,142.86,297,148.86" style="stroke:#181818;stroke-width:1.0;"/></g><!--SRC=[ROyz3i8m38Ntdi9Z-MaFa049cBfrWja43vRI98e3LQcuEuL645NOYsL_Vi-ss95ur0HdGk-iZ0LU90RK4RH14JYWq3o3iO0fDj1OZeo67rIwtb9GhS61mj45sW9RVukfqxph5IYuExwcvRttPfW5MmpOoGa3OsHdo_vVL-NiL-ivvUmXzSyTgcgN7RmWFjSiaVHsdRjCp3fZNW00]--></g></svg>