<svg xmlns="http://www.w3.org/2000/svg" xmlns:xlink="http://www.w3.org/1999/xlink" contentStyleType="text/css" height="144px" preserveAspectRatio="none" style="width:595px;height:144px;background:#FFFFFF;" version="1.1" viewBox="0 0 595 144" width="595px" zoomAndPan="magnify"><defs/><g><!--cluster Weapons--><g id="cluster_Weapons"><path d="M8.5,6 L73.915,6 A3.75,3.75 0 0 1 76.415,8.5 L83.415,28.4883 L585.5,28.4883 A2.5,2.5 0 0 1 588,30.9883 L588,135.48 A2.5,2.5 0 0 1 585.5,137.98 L8.5,137.98 A2.5,2.5 0 0 1 6,135.48 L6,8.5 A2.5,2.5 0 0 1 8.5,6 " fill="none" style="stroke:#000000;stroke-width:1.5;"/><line style="stroke:#000000;stroke-width:1.5;" x1="6" x2="83.415" y1="28.4883" y2="28.4883"/><text fill="#000000" font-family="sans-serif" font-size="14" font-weight="bold" lengthAdjust="spacing" textLength="64.415" x="10" y="21.5352">Weapons</text></g><!--class BaseWeapon--><g id="elem_BaseWeapon"><rect codeLine="2" fill="#F1F1F1" height="80.9766" id="BaseWeapon" rx="2.5" ry="2.5" style="stroke:#181818;stroke-width:0.5;" width="549.1406" x="22.43" y="41"/><ellipse cx="250.5863" cy="57" fill="#A9DCDF" rx="11" ry="11" style="stroke:#181818;stroke-width:1.0;"/><path d="M250.4495,52.3481 L249.2957,57.4199 L251.6116,57.4199 Z M248.9554,50.1069 L251.952,50.1069 L255.2972,62.5 L252.8485,62.5 L252.0848,59.437 L248.806,59.437 L248.0589,62.5 L245.6102,62.5 Z " fill="#000000"/><text fill="#000000" font-family="sans-serif" font-size="14" font-style="italic" lengthAdjust="spacing" textLength="84.3281" x="271.0863" y="62.291">BaseWeapon</text><line style="stroke:#181818;stroke-width:0.5;" x1="23.43" x2="570.5706" y1="73" y2="73"/><line style="stroke:#181818;stroke-width:0.5;" x1="23.43" x2="570.5706" y1="81" y2="81"/><ellipse cx="33.43" cy="94.7441" fill="#84BE84" rx="3" ry="3" style="stroke:#038048;stroke-width:1.0;"/><text fill="#000000" font-family="sans-serif" font-size="14" lengthAdjust="spacing" textLength="351.5859" x="42.43" y="98.5352">Initialize(owner:PlayerCore, input:PlayerInput) : void</text><ellipse cx="33.43" cy="111.2324" fill="#84BE84" rx="3" ry="3" style="stroke:#038048;stroke-width:1.0;"/><text fill="#000000" font-family="sans-serif" font-size="14" lengthAdjust="spacing" textLength="523.1406" x="42.43" y="115.0234">ApplyWeaponParamsVariation(weaponParamsVariation:WeaponParams) : void</text></g><!--SRC=[ROmx3i8m44HxdsBB83Y1Ew1AbmhgmMonacDRkuOeYN9tG8aG1LEDtdmIUhQ2m7Hbb9niThXPLOHA8SACJZ1UCveTlRMdDaaLH9cuoKDYzLt4o7hEoWUIL1vr8-t7xyZJCyjz6nzBYUDws47HsmKgg99JC_oZ_hVx_LhSyW80]--></g></svg>