<svg xmlns="http://www.w3.org/2000/svg" xmlns:xlink="http://www.w3.org/1999/xlink" contentStyleType="text/css" height="263px" preserveAspectRatio="none" style="width:320px;height:263px;background:#FFFFFF;" version="1.1" viewBox="0 0 320 263" width="320px" zoomAndPan="magnify"><defs/><g><!--cluster Weapons--><g id="cluster_Weapons"><path d="M8.5,6 L73.915,6 A3.75,3.75 0 0 1 76.415,8.5 L83.415,28.4883 L310.5,28.4883 A2.5,2.5 0 0 1 313,30.9883 L313,253.5 A2.5,2.5 0 0 1 310.5,256 L8.5,256 A2.5,2.5 0 0 1 6,253.5 L6,8.5 A2.5,2.5 0 0 1 8.5,6 " fill="none" style="stroke:#000000;stroke-width:1.5;"/><line style="stroke:#000000;stroke-width:1.5;" x1="6" x2="83.415" y1="28.4883" y2="28.4883"/><text fill="#000000" font-family="sans-serif" font-size="14" font-weight="bold" lengthAdjust="spacing" textLength="64.415" x="10" y="21.5352">Weapons</text></g><!--cluster Bullets--><g id="cluster_Bullets"><path d="M32.5,49 L82.4111,49 A3.75,3.75 0 0 1 84.9111,51.5 L91.9111,71.4883 L159.5,71.4883 A2.5,2.5 0 0 1 162,73.9883 L162,145.5 A2.5,2.5 0 0 1 159.5,148 L32.5,148 A2.5,2.5 0 0 1 30,145.5 L30,51.5 A2.5,2.5 0 0 1 32.5,49 " fill="none" style="stroke:#000000;stroke-width:1.5;"/><line style="stroke:#000000;stroke-width:1.5;" x1="30" x2="91.9111" y1="71.4883" y2="71.4883"/><text fill="#000000" font-family="sans-serif" font-size="14" font-weight="bold" lengthAdjust="spacing" textLength="48.9111" x="34" y="64.5352">Bullets</text></g><!--class BasicGun--><g id="elem_BasicGun"><rect codeLine="2" fill="#F1F1F1" height="48" id="BasicGun" rx="2.5" ry="2.5" style="stroke:#181818;stroke-width:0.5;" width="93.6328" x="120.18" y="192"/><ellipse cx="135.18" cy="208" fill="#ADD1B2" rx="11" ry="11" style="stroke:#181818;stroke-width:1.0;"/><path d="M137.6531,214.1431 Q137.0721,214.4419 136.4329,214.5913 Q135.7938,214.7407 135.0882,214.7407 Q132.5814,214.7407 131.2615,213.0889 Q129.9417,211.437 129.9417,208.3159 Q129.9417,205.1865 131.2615,203.5347 Q132.5814,201.8828 135.0882,201.8828 Q135.7938,201.8828 136.4412,202.0322 Q137.0887,202.1816 137.6531,202.4805 L137.6531,205.2031 Q137.0223,204.6221 136.4288,204.3523 Q135.8353,204.0825 135.2044,204.0825 Q133.8597,204.0825 133.1749,205.1492 Q132.4901,206.2158 132.4901,208.3159 Q132.4901,210.4077 133.1749,211.4744 Q133.8597,212.541 135.2044,212.541 Q135.8353,212.541 136.4288,212.2712 Q137.0223,212.0015 137.6531,211.4204 Z " fill="#000000"/><text fill="#000000" font-family="sans-serif" font-size="14" lengthAdjust="spacing" textLength="61.6328" x="149.18" y="213.291">BasicGun</text><line style="stroke:#181818;stroke-width:0.5;" x1="121.18" x2="212.8128" y1="224" y2="224"/><line style="stroke:#181818;stroke-width:0.5;" x1="121.18" x2="212.8128" y1="232" y2="232"/></g><!--class BaseWeapon--><g id="elem_BaseWeapon"><rect fill="#F1F1F1" height="48" id="BaseWeapon" rx="2.5" ry="2.5" style="stroke:#181818;stroke-width:0.5;" width="116.3281" x="180.84" y="84"/><ellipse cx="195.84" cy="100" fill="#ADD1B2" rx="11" ry="11" style="stroke:#181818;stroke-width:1.0;"/><path d="M198.3131,106.1431 Q197.7321,106.4419 197.0929,106.5913 Q196.4538,106.7407 195.7482,106.7407 Q193.2414,106.7407 191.9215,105.0889 Q190.6017,103.437 190.6017,100.3159 Q190.6017,97.1865 191.9215,95.5347 Q193.2414,93.8828 195.7482,93.8828 Q196.4538,93.8828 197.1012,94.0322 Q197.7487,94.1816 198.3131,94.4805 L198.3131,97.2031 Q197.6823,96.6221 197.0888,96.3523 Q196.4953,96.0825 195.8644,96.0825 Q194.5197,96.0825 193.8349,97.1492 Q193.1501,98.2158 193.1501,100.3159 Q193.1501,102.4077 193.8349,103.4744 Q194.5197,104.541 195.8644,104.541 Q196.4953,104.541 197.0888,104.2712 Q197.6823,104.0015 198.3131,103.4204 Z " fill="#000000"/><text fill="#000000" font-family="sans-serif" font-size="14" lengthAdjust="spacing" textLength="84.3281" x="209.84" y="105.291">BaseWeapon</text><line style="stroke:#181818;stroke-width:0.5;" x1="181.84" x2="296.1681" y1="116" y2="116"/><line style="stroke:#181818;stroke-width:0.5;" x1="181.84" x2="296.1681" y1="124" y2="124"/></g><!--class BaseBullet--><g id="elem_BaseBullet"><rect fill="#F1F1F1" height="48" id="BaseBullet" rx="2.5" ry="2.5" style="stroke:#181818;stroke-width:0.5;" width="100.5918" x="45.7" y="84"/><ellipse cx="60.7" cy="100" fill="#ADD1B2" rx="11" ry="11" style="stroke:#181818;stroke-width:1.0;"/><path d="M63.1731,106.1431 Q62.5921,106.4419 61.9529,106.5913 Q61.3138,106.7407 60.6082,106.7407 Q58.1014,106.7407 56.7815,105.0889 Q55.4617,103.437 55.4617,100.3159 Q55.4617,97.1865 56.7815,95.5347 Q58.1014,93.8828 60.6082,93.8828 Q61.3138,93.8828 61.9612,94.0322 Q62.6087,94.1816 63.1731,94.4805 L63.1731,97.2031 Q62.5423,96.6221 61.9488,96.3523 Q61.3553,96.0825 60.7244,96.0825 Q59.3797,96.0825 58.6949,97.1492 Q58.0101,98.2158 58.0101,100.3159 Q58.0101,102.4077 58.6949,103.4744 Q59.3797,104.541 60.7244,104.541 Q61.3553,104.541 61.9488,104.2712 Q62.5423,104.0015 63.1731,103.4204 Z " fill="#000000"/><text fill="#000000" font-family="sans-serif" font-size="14" lengthAdjust="spacing" textLength="68.5918" x="74.7" y="105.291">BaseBullet</text><line style="stroke:#181818;stroke-width:0.5;" x1="46.7" x2="145.2918" y1="116" y2="116"/><line style="stroke:#181818;stroke-width:0.5;" x1="46.7" x2="145.2918" y1="124" y2="124"/></g><!--reverse link BaseWeapon to BasicGun--><g id="link_BaseWeapon_BasicGun"><path codeLine="5" d="M213.0856,147.1495 C201.0756,164.8295 194.76,174.13 182.76,191.79 " fill="none" id="BaseWeapon-backto-BasicGun" style="stroke:#181818;stroke-width:1.0;"/><polygon fill="none" points="223.2,132.26,208.1224,143.7781,218.0487,150.521,223.2,132.26" style="stroke:#181818;stroke-width:1.0;"/></g><!--link BaseBullet to BasicGun--><g id="link_BaseBullet_BasicGun"><path codeLine="6" d="M111.58,132.26 C123.42,149.94 136.2907,169.1451 148.1207,186.8051 " fill="none" id="BaseBullet-to-BasicGun" style="stroke:#181818;stroke-width:1.0;"/><polygon fill="#181818" points="151.46,191.79,149.7744,182.0865,148.6773,187.6359,143.1278,186.5388,151.46,191.79" style="stroke:#181818;stroke-width:1.0;"/></g><!--SRC=[oqlCJIqkI4nELGXFJIp8pokkvahEIImkLd1ABCvCTY_DKwZcgWL2gAmUK3WLmbQmgT7LXIj3A2ZDoKajWIY4i1LqTUtWwW00]--></g></svg>