<svg xmlns="http://www.w3.org/2000/svg" xmlns:xlink="http://www.w3.org/1999/xlink" contentStyleType="text/css" height="220px" preserveAspectRatio="none" style="width:161px;height:220px;background:#FFFFFF;" version="1.1" viewBox="0 0 161 220" width="161px" zoomAndPan="magnify"><defs/><g><!--cluster Weapons--><g id="cluster_Weapons"><path d="M8.5,6 L73.915,6 A3.75,3.75 0 0 1 76.415,8.5 L83.415,28.4883 L151.5,28.4883 A2.5,2.5 0 0 1 154,30.9883 L154,210.5 A2.5,2.5 0 0 1 151.5,213 L8.5,213 A2.5,2.5 0 0 1 6,210.5 L6,8.5 A2.5,2.5 0 0 1 8.5,6 " fill="none" style="stroke:#000000;stroke-width:1.5;"/><line style="stroke:#000000;stroke-width:1.5;" x1="6" x2="83.415" y1="28.4883" y2="28.4883"/><text fill="#000000" font-family="sans-serif" font-size="14" font-weight="bold" lengthAdjust="spacing" textLength="64.415" x="10" y="21.5352">Weapons</text></g><!--class BasicGun--><g id="elem_BasicGun"><rect codeLine="2" fill="#F1F1F1" height="48" id="BasicGun" rx="2.5" ry="2.5" style="stroke:#181818;stroke-width:0.5;" width="93.6328" x="33.18" y="149"/><ellipse cx="48.18" cy="165" fill="#ADD1B2" rx="11" ry="11" style="stroke:#181818;stroke-width:1.0;"/><path d="M50.6531,171.1431 Q50.0721,171.4419 49.4329,171.5913 Q48.7938,171.7407 48.0882,171.7407 Q45.5814,171.7407 44.2615,170.0889 Q42.9417,168.437 42.9417,165.3159 Q42.9417,162.1865 44.2615,160.5347 Q45.5814,158.8828 48.0882,158.8828 Q48.7938,158.8828 49.4412,159.0322 Q50.0887,159.1816 50.6531,159.4805 L50.6531,162.2031 Q50.0223,161.6221 49.4288,161.3523 Q48.8353,161.0825 48.2044,161.0825 Q46.8597,161.0825 46.1749,162.1492 Q45.4901,163.2158 45.4901,165.3159 Q45.4901,167.4077 46.1749,168.4744 Q46.8597,169.541 48.2044,169.541 Q48.8353,169.541 49.4288,169.2712 Q50.0223,169.0015 50.6531,168.4204 Z " fill="#000000"/><text fill="#000000" font-family="sans-serif" font-size="14" lengthAdjust="spacing" textLength="61.6328" x="62.18" y="170.291">BasicGun</text><line style="stroke:#181818;stroke-width:0.5;" x1="34.18" x2="125.8128" y1="181" y2="181"/><line style="stroke:#181818;stroke-width:0.5;" x1="34.18" x2="125.8128" y1="189" y2="189"/></g><!--class BaseWeapon--><g id="elem_BaseWeapon"><rect fill="#F1F1F1" height="48" id="BaseWeapon" rx="2.5" ry="2.5" style="stroke:#181818;stroke-width:0.5;" width="116.3281" x="21.84" y="41"/><ellipse cx="36.84" cy="57" fill="#ADD1B2" rx="11" ry="11" style="stroke:#181818;stroke-width:1.0;"/><path d="M39.3131,63.1431 Q38.7321,63.4419 38.0929,63.5913 Q37.4538,63.7407 36.7482,63.7407 Q34.2414,63.7407 32.9215,62.0889 Q31.6017,60.437 31.6017,57.3159 Q31.6017,54.1865 32.9215,52.5347 Q34.2414,50.8828 36.7482,50.8828 Q37.4538,50.8828 38.1012,51.0322 Q38.7487,51.1816 39.3131,51.4805 L39.3131,54.2031 Q38.6823,53.6221 38.0888,53.3523 Q37.4953,53.0825 36.8644,53.0825 Q35.5197,53.0825 34.8349,54.1492 Q34.1501,55.2158 34.1501,57.3159 Q34.1501,59.4077 34.8349,60.4744 Q35.5197,61.541 36.8644,61.541 Q37.4953,61.541 38.0888,61.2712 Q38.6823,61.0015 39.3131,60.4204 Z " fill="#000000"/><text fill="#000000" font-family="sans-serif" font-size="14" lengthAdjust="spacing" textLength="84.3281" x="50.84" y="62.291">BaseWeapon</text><line style="stroke:#181818;stroke-width:0.5;" x1="22.84" x2="137.1681" y1="73" y2="73"/><line style="stroke:#181818;stroke-width:0.5;" x1="22.84" x2="137.1681" y1="81" y2="81"/></g><!--reverse link BaseWeapon to BasicGun--><g id="link_BaseWeapon_BasicGun"><path codeLine="4" d="M80,107.26 C80,124.94 80,131.13 80,148.79 " fill="none" id="BaseWeapon-backto-BasicGun" style="stroke:#181818;stroke-width:1.0;"/><polygon fill="none" points="80,89.26,74,107.26,86,107.26,80,89.26" style="stroke:#181818;stroke-width:1.0;"/></g><!--SRC=[oqlCJIqkI4nELGXFJIp8pokkvahEIImkLd1ABCvCTY_DKwZcgkK2Sb8XyWesDRgwS4ckMW00]--></g></svg>