<svg xmlns="http://www.w3.org/2000/svg" xmlns:xlink="http://www.w3.org/1999/xlink" contentStyleType="text/css" height="236px" preserveAspectRatio="none" style="width:740px;height:236px;background:#FFFFFF;" version="1.1" viewBox="0 0 740 236" width="740px" zoomAndPan="magnify"><defs/><g><!--cluster Weapons--><g id="cluster_Weapons"><path d="M8.5,6 L73.915,6 A3.75,3.75 0 0 1 76.415,8.5 L83.415,28.4883 L427.5,28.4883 A2.5,2.5 0 0 1 430,30.9883 L430,226.99 A2.5,2.5 0 0 1 427.5,229.49 L8.5,229.49 A2.5,2.5 0 0 1 6,226.99 L6,8.5 A2.5,2.5 0 0 1 8.5,6 " fill="none" style="stroke:#000000;stroke-width:1.5;"/><line style="stroke:#000000;stroke-width:1.5;" x1="6" x2="83.415" y1="28.4883" y2="28.4883"/><text fill="#000000" font-family="sans-serif" font-size="14" font-weight="bold" lengthAdjust="spacing" textLength="64.415" x="10" y="21.5352">Weapons</text></g><!--cluster Players--><g id="cluster_Players"><path d="M456.5,6 L509.5146,6 A3.75,3.75 0 0 1 512.0146,8.5 L519.0146,28.4883 L730.5,28.4883 A2.5,2.5 0 0 1 733,30.9883 L733,102.5 A2.5,2.5 0 0 1 730.5,105 L456.5,105 A2.5,2.5 0 0 1 454,102.5 L454,8.5 A2.5,2.5 0 0 1 456.5,6 " fill="none" style="stroke:#000000;stroke-width:1.5;"/><line style="stroke:#000000;stroke-width:1.5;" x1="454" x2="519.0146" y1="28.4883" y2="28.4883"/><text fill="#000000" font-family="sans-serif" font-size="14" font-weight="bold" lengthAdjust="spacing" textLength="52.0146" x="458" y="21.5352">Players</text></g><!--class WeaponManager--><g id="elem_WeaponManager"><rect codeLine="2" fill="#F1F1F1" height="64.4883" id="WeaponManager" rx="2.5" ry="2.5" style="stroke:#181818;stroke-width:0.5;" width="391.5723" x="22.21" y="149"/><ellipse cx="157.7085" cy="165" fill="#ADD1B2" rx="11" ry="11" style="stroke:#181818;stroke-width:1.0;"/><path d="M160.1817,171.1431 Q159.6006,171.4419 158.9615,171.5913 Q158.3223,171.7407 157.6167,171.7407 Q155.1099,171.7407 153.7901,170.0889 Q152.4703,168.437 152.4703,165.3159 Q152.4703,162.1865 153.7901,160.5347 Q155.1099,158.8828 157.6167,158.8828 Q158.3223,158.8828 158.9698,159.0322 Q159.6172,159.1816 160.1817,159.4805 L160.1817,162.2031 Q159.5508,161.6221 158.9573,161.3523 Q158.3638,161.0825 157.7329,161.0825 Q156.3882,161.0825 155.7034,162.1492 Q155.0186,163.2158 155.0186,165.3159 Q155.0186,167.4077 155.7034,168.4744 Q156.3882,169.541 157.7329,169.541 Q158.3638,169.541 158.9573,169.2712 Q159.5508,169.0015 160.1817,168.4204 Z " fill="#000000"/><text fill="#000000" font-family="sans-serif" font-size="14" lengthAdjust="spacing" textLength="112.0752" x="178.2085" y="170.291">WeaponManager</text><line style="stroke:#181818;stroke-width:0.5;" x1="23.21" x2="412.7823" y1="181" y2="181"/><line style="stroke:#181818;stroke-width:0.5;" x1="23.21" x2="412.7823" y1="189" y2="189"/><ellipse cx="33.21" cy="202.7441" fill="#84BE84" rx="3" ry="3" style="stroke:#038048;stroke-width:1.0;"/><text fill="#000000" font-family="sans-serif" font-size="14" lengthAdjust="spacing" textLength="365.5723" x="42.21" y="206.5352">CreateWeapons(weaponList:List&lt;GameObject&gt;) : void</text></g><!--class BasicGun--><g id="elem_BasicGun"><rect fill="#F1F1F1" height="48" id="BasicGun" rx="2.5" ry="2.5" style="stroke:#181818;stroke-width:0.5;" width="93.6328" x="171.18" y="41"/><ellipse cx="186.18" cy="57" fill="#ADD1B2" rx="11" ry="11" style="stroke:#181818;stroke-width:1.0;"/><path d="M188.6531,63.1431 Q188.0721,63.4419 187.4329,63.5913 Q186.7938,63.7407 186.0882,63.7407 Q183.5814,63.7407 182.2615,62.0889 Q180.9417,60.437 180.9417,57.3159 Q180.9417,54.1865 182.2615,52.5347 Q183.5814,50.8828 186.0882,50.8828 Q186.7938,50.8828 187.4412,51.0322 Q188.0887,51.1816 188.6531,51.4805 L188.6531,54.2031 Q188.0223,53.6221 187.4288,53.3523 Q186.8353,53.0825 186.2044,53.0825 Q184.8597,53.0825 184.1749,54.1492 Q183.4901,55.2158 183.4901,57.3159 Q183.4901,59.4077 184.1749,60.4744 Q184.8597,61.541 186.2044,61.541 Q186.8353,61.541 187.4288,61.2712 Q188.0223,61.0015 188.6531,60.4204 Z " fill="#000000"/><text fill="#000000" font-family="sans-serif" font-size="14" lengthAdjust="spacing" textLength="61.6328" x="200.18" y="62.291">BasicGun</text><line style="stroke:#181818;stroke-width:0.5;" x1="172.18" x2="263.8128" y1="73" y2="73"/><line style="stroke:#181818;stroke-width:0.5;" x1="172.18" x2="263.8128" y1="81" y2="81"/></g><!--class PlayerCore--><g id="elem_PlayerCore"><rect fill="#F1F1F1" height="48" id="PlayerCore" rx="2.5" ry="2.5" style="stroke:#181818;stroke-width:0.5;" width="104.1738" x="469.91" y="41"/><ellipse cx="484.91" cy="57" fill="#ADD1B2" rx="11" ry="11" style="stroke:#181818;stroke-width:1.0;"/><path d="M487.3831,63.1431 Q486.8021,63.4419 486.1629,63.5913 Q485.5238,63.7407 484.8182,63.7407 Q482.3114,63.7407 480.9915,62.0889 Q479.6717,60.437 479.6717,57.3159 Q479.6717,54.1865 480.9915,52.5347 Q482.3114,50.8828 484.8182,50.8828 Q485.5238,50.8828 486.1712,51.0322 Q486.8187,51.1816 487.3831,51.4805 L487.3831,54.2031 Q486.7523,53.6221 486.1588,53.3523 Q485.5653,53.0825 484.9344,53.0825 Q483.5897,53.0825 482.9049,54.1492 Q482.2201,55.2158 482.2201,57.3159 Q482.2201,59.4077 482.9049,60.4744 Q483.5897,61.541 484.9344,61.541 Q485.5653,61.541 486.1588,61.2712 Q486.7523,61.0015 487.3831,60.4204 Z " fill="#000000"/><text fill="#000000" font-family="sans-serif" font-size="14" lengthAdjust="spacing" textLength="72.1738" x="498.91" y="62.291">PlayerCore</text><line style="stroke:#181818;stroke-width:0.5;" x1="470.91" x2="573.0838" y1="73" y2="73"/><line style="stroke:#181818;stroke-width:0.5;" x1="470.91" x2="573.0838" y1="81" y2="81"/></g><!--class PlayerInput--><g id="elem_PlayerInput"><rect fill="#F1F1F1" height="48" id="PlayerInput" rx="2.5" ry="2.5" style="stroke:#181818;stroke-width:0.5;" width="107.8174" x="609.09" y="41"/><ellipse cx="624.09" cy="57" fill="#ADD1B2" rx="11" ry="11" style="stroke:#181818;stroke-width:1.0;"/><path d="M626.5631,63.1431 Q625.9821,63.4419 625.3429,63.5913 Q624.7038,63.7407 623.9982,63.7407 Q621.4914,63.7407 620.1715,62.0889 Q618.8517,60.437 618.8517,57.3159 Q618.8517,54.1865 620.1715,52.5347 Q621.4914,50.8828 623.9982,50.8828 Q624.7038,50.8828 625.3512,51.0322 Q625.9987,51.1816 626.5631,51.4805 L626.5631,54.2031 Q625.9323,53.6221 625.3388,53.3523 Q624.7453,53.0825 624.1144,53.0825 Q622.7697,53.0825 622.0849,54.1492 Q621.4001,55.2158 621.4001,57.3159 Q621.4001,59.4077 622.0849,60.4744 Q622.7697,61.541 624.1144,61.541 Q624.7453,61.541 625.3388,61.2712 Q625.9323,61.0015 626.5631,60.4204 Z " fill="#000000"/><text fill="#000000" font-family="sans-serif" font-size="14" lengthAdjust="spacing" textLength="75.8174" x="638.09" y="62.291">PlayerInput</text><line style="stroke:#181818;stroke-width:0.5;" x1="610.09" x2="715.9074" y1="73" y2="73"/><line style="stroke:#181818;stroke-width:0.5;" x1="610.09" x2="715.9074" y1="81" y2="81"/></g><!--link PlayerCore to WeaponManager--><g id="link_PlayerCore_WeaponManager"><path codeLine="6" d="M479.63,89.5 C464.26,97.52 446.59,106.19 430,113 C398.03,126.13 368.2342,136.5017 335.5442,146.7717 " fill="none" id="PlayerCore-to-WeaponManager" style="stroke:#181818;stroke-width:1.0;"/><polygon fill="#181818" points="329.82,148.57,339.6051,149.6886,334.5901,147.0714,337.2074,142.0564,329.82,148.57" style="stroke:#181818;stroke-width:1.0;"/></g><!--link PlayerInput to WeaponManager--><g id="link_PlayerInput_WeaponManager"><path codeLine="7" d="M633.42,89.49 C621.22,98.11 606.54,107.17 592,113 C536.12,135.4 478.4747,149.3717 419.8147,159.3717 " fill="none" id="PlayerInput-to-WeaponManager" style="stroke:#181818;stroke-width:1.0;"/><polygon fill="#181818" points="413.9,160.38,423.4442,162.8107,418.8289,159.5398,422.0998,154.9244,413.9,160.38" style="stroke:#181818;stroke-width:1.0;"/></g><!--reverse link BasicGun to WeaponManager--><g id="link_BasicGun_WeaponManager"><path codeLine="8" d="M218,95.4 C218,112.5 218,129.89 218,148.65 " fill="none" id="BasicGun-backto-WeaponManager" style="stroke:#181818;stroke-width:1.0;stroke-dasharray:7.0,7.0;"/><polygon fill="#181818" points="218,89.4,214,98.4,218,94.4,222,98.4,218,89.4" style="stroke:#181818;stroke-width:1.0;"/></g><!--SRC=[oqlCJIqkI4nELGXFJIp8pokkvahEIImkXd9z4_CIqrEB5Agv5810My6vA3Mn91MgLACSJFja5fTOWGWRTw1X_abPgSabTfeALWfb-PafNBL0692JM9bQLAm7ePtpYr8LT7NjKAr0K-IPLr1QWaKLr6ezfyJYp6JtqZm56pqzL2K0]--></g></svg>