<svg xmlns="http://www.w3.org/2000/svg" xmlns:xlink="http://www.w3.org/1999/xlink" contentStyleType="text/css" height="161px" preserveAspectRatio="none" style="width:143px;height:161px;background:#FFFFFF;" version="1.1" viewBox="0 0 143 161" width="143px" zoomAndPan="magnify"><defs/><g><!--cluster Weapons--><g id="cluster_Weapons"><path d="M8.5,6 L73.915,6 A3.75,3.75 0 0 1 76.415,8.5 L83.415,28.4883 L133.5,28.4883 A2.5,2.5 0 0 1 136,30.9883 L136,151.96 A2.5,2.5 0 0 1 133.5,154.46 L8.5,154.46 A2.5,2.5 0 0 1 6,151.96 L6,8.5 A2.5,2.5 0 0 1 8.5,6 " fill="none" style="stroke:#000000;stroke-width:1.5;"/><line style="stroke:#000000;stroke-width:1.5;" x1="6" x2="83.415" y1="28.4883" y2="28.4883"/><text fill="#000000" font-family="sans-serif" font-size="14" font-weight="bold" lengthAdjust="spacing" textLength="64.415" x="10" y="21.5352">Weapons</text></g><!--class WeaponId--><g id="elem_WeaponId"><rect codeLine="2" fill="#F1F1F1" height="97.4648" id="WeaponId" rx="2.5" ry="2.5" style="stroke:#181818;stroke-width:0.5;" width="98.4521" x="21.77" y="41"/><ellipse cx="36.77" cy="57" fill="#EB937F" rx="11" ry="11" style="stroke:#181818;stroke-width:1.0;"/><path d="M40.3843,63.5 L32.6645,63.5 L32.6645,51.1069 L40.3843,51.1069 L40.3843,53.2651 L35.1133,53.2651 L35.1133,55.938 L39.8862,55.938 L39.8862,58.0962 L35.1133,58.0962 L35.1133,61.3418 L40.3843,61.3418 Z " fill="#000000"/><text fill="#000000" font-family="sans-serif" font-size="14" lengthAdjust="spacing" textLength="66.4521" x="50.77" y="62.291">WeaponId</text><line style="stroke:#181818;stroke-width:0.5;" x1="22.77" x2="119.2221" y1="73" y2="73"/><text fill="#000000" font-family="sans-serif" font-size="14" lengthAdjust="spacing" textLength="66.0625" x="27.77" y="90.5352">BasicGun,</text><text fill="#000000" font-family="sans-serif" font-size="14" lengthAdjust="spacing" textLength="71.21" x="27.77" y="107.0234">TripleGun,</text><text fill="#000000" font-family="sans-serif" font-size="14" lengthAdjust="spacing" textLength="85.3467" x="27.77" y="123.5117">HomingGun,</text><line style="stroke:#181818;stroke-width:0.5;" x1="22.77" x2="119.2221" y1="130.4648" y2="130.4648"/></g><!--SRC=[oqlCJIqkI4nELGXFJIp8pokkvahDAys5yZnJ5Agv5830AR4uCzczD4y7p0ifoYp8IOLpFV9pC_FImTnQhbe0]--></g></svg>