<svg xmlns="http://www.w3.org/2000/svg" xmlns:xlink="http://www.w3.org/1999/xlink" contentStyleType="text/css" height="128px" preserveAspectRatio="none" style="width:215px;height:128px;background:#FFFFFF;" version="1.1" viewBox="0 0 215 128" width="215px" zoomAndPan="magnify"><defs/><g><!--cluster Weapons--><g id="cluster_Weapons"><path d="M8.5,6 L73.915,6 A3.75,3.75 0 0 1 76.415,8.5 L83.415,28.4883 L205.5,28.4883 A2.5,2.5 0 0 1 208,30.9883 L208,118.99 A2.5,2.5 0 0 1 205.5,121.49 L8.5,121.49 A2.5,2.5 0 0 1 6,118.99 L6,8.5 A2.5,2.5 0 0 1 8.5,6 " fill="none" style="stroke:#000000;stroke-width:1.5;"/><line style="stroke:#000000;stroke-width:1.5;" x1="6" x2="83.415" y1="28.4883" y2="28.4883"/><text fill="#000000" font-family="sans-serif" font-size="14" font-weight="bold" lengthAdjust="spacing" textLength="64.415" x="10" y="21.5352">Weapons</text></g><!--class WeaponParams--><g id="elem_WeaponParams"><rect codeLine="2" fill="#F1F1F1" height="64.4883" id="WeaponParams" rx="2.5" ry="2.5" style="stroke:#181818;stroke-width:0.5;" width="169.6641" x="22.17" y="41"/><ellipse cx="52.884" cy="57" fill="#ADD1B2" rx="11" ry="11" style="stroke:#181818;stroke-width:1.0;"/><path d="M55.3571,63.1431 Q54.7761,63.4419 54.1369,63.5913 Q53.4977,63.7407 52.7922,63.7407 Q50.2853,63.7407 48.9655,62.0889 Q47.6457,60.437 47.6457,57.3159 Q47.6457,54.1865 48.9655,52.5347 Q50.2853,50.8828 52.7922,50.8828 Q53.4977,50.8828 54.1452,51.0322 Q54.7927,51.1816 55.3571,51.4805 L55.3571,54.2031 Q54.7263,53.6221 54.1327,53.3523 Q53.5392,53.0825 52.9084,53.0825 Q51.5637,53.0825 50.8788,54.1492 Q50.194,55.2158 50.194,57.3159 Q50.194,59.4077 50.8788,60.4744 Q51.5637,61.541 52.9084,61.541 Q53.5392,61.541 54.1327,61.2712 Q54.7263,61.0015 55.3571,60.4204 Z " fill="#000000"/><text fill="#000000" font-family="sans-serif" font-size="14" lengthAdjust="spacing" textLength="102.7441" x="70.376" y="62.291">WeaponParams</text><line style="stroke:#181818;stroke-width:0.5;" x1="23.17" x2="190.8341" y1="73" y2="73"/><ellipse cx="33.17" cy="86.7441" fill="none" rx="3" ry="3" style="stroke:#038048;stroke-width:1.0;"/><text fill="#000000" font-family="sans-serif" font-size="14" lengthAdjust="spacing" textLength="143.6641" x="42.17" y="90.5352">fireRate : float = 0.5f</text><line style="stroke:#181818;stroke-width:0.5;" x1="23.17" x2="190.8341" y1="97.4883" y2="97.4883"/></g><!--SRC=[oqlCJIqkI4nELGXFJIp8pokkvahEIImkXd834eiISuiLghaKW41R8IspA3KeiIHLmKeXBIS_iKJ1Li50ppIDgvQh5W00]--></g></svg>