<svg xmlns="http://www.w3.org/2000/svg" xmlns:xlink="http://www.w3.org/1999/xlink" contentStyleType="text/css" height="279px" preserveAspectRatio="none" style="width:215px;height:279px;background:#FFFFFF;" version="1.1" viewBox="0 0 215 279" width="215px" zoomAndPan="magnify"><defs/><g><!--cluster Weapons--><g id="cluster_Weapons"><path d="M8.5,6 L73.915,6 A3.75,3.75 0 0 1 76.415,8.5 L83.415,28.4883 L205.5,28.4883 A2.5,2.5 0 0 1 208,30.9883 L208,269.99 A2.5,2.5 0 0 1 205.5,272.49 L8.5,272.49 A2.5,2.5 0 0 1 6,269.99 L6,8.5 A2.5,2.5 0 0 1 8.5,6 " fill="none" style="stroke:#000000;stroke-width:1.5;"/><line style="stroke:#000000;stroke-width:1.5;" x1="6" x2="83.415" y1="28.4883" y2="28.4883"/><text fill="#000000" font-family="sans-serif" font-size="14" font-weight="bold" lengthAdjust="spacing" textLength="64.415" x="10" y="21.5352">Weapons</text></g><!--cluster Bullets--><g id="cluster_Bullets"><path d="M33.5,49 L83.4111,49 A3.75,3.75 0 0 1 85.9111,51.5 L92.9111,71.4883 L180.5,71.4883 A2.5,2.5 0 0 1 183,73.9883 L183,145.5 A2.5,2.5 0 0 1 180.5,148 L33.5,148 A2.5,2.5 0 0 1 31,145.5 L31,51.5 A2.5,2.5 0 0 1 33.5,49 " fill="none" style="stroke:#000000;stroke-width:1.5;"/><line style="stroke:#000000;stroke-width:1.5;" x1="31" x2="92.9111" y1="71.4883" y2="71.4883"/><text fill="#000000" font-family="sans-serif" font-size="14" font-weight="bold" lengthAdjust="spacing" textLength="48.9111" x="35" y="64.5352">Bullets</text></g><!--class WeaponParams--><g id="elem_WeaponParams"><rect codeLine="2" fill="#F1F1F1" height="64.4883" id="WeaponParams" rx="2.5" ry="2.5" style="stroke:#181818;stroke-width:0.5;" width="169.6641" x="22.17" y="192"/><ellipse cx="52.884" cy="208" fill="#ADD1B2" rx="11" ry="11" style="stroke:#181818;stroke-width:1.0;"/><path d="M55.3571,214.1431 Q54.7761,214.4419 54.1369,214.5913 Q53.4977,214.7407 52.7922,214.7407 Q50.2853,214.7407 48.9655,213.0889 Q47.6457,211.437 47.6457,208.3159 Q47.6457,205.1865 48.9655,203.5347 Q50.2853,201.8828 52.7922,201.8828 Q53.4977,201.8828 54.1452,202.0322 Q54.7927,202.1816 55.3571,202.4805 L55.3571,205.2031 Q54.7263,204.6221 54.1327,204.3523 Q53.5392,204.0825 52.9084,204.0825 Q51.5637,204.0825 50.8788,205.1492 Q50.194,206.2158 50.194,208.3159 Q50.194,210.4077 50.8788,211.4744 Q51.5637,212.541 52.9084,212.541 Q53.5392,212.541 54.1327,212.2712 Q54.7263,212.0015 55.3571,211.4204 Z " fill="#000000"/><text fill="#000000" font-family="sans-serif" font-size="14" lengthAdjust="spacing" textLength="102.7441" x="70.376" y="213.291">WeaponParams</text><line style="stroke:#181818;stroke-width:0.5;" x1="23.17" x2="190.8341" y1="224" y2="224"/><ellipse cx="33.17" cy="237.7441" fill="none" rx="3" ry="3" style="stroke:#038048;stroke-width:1.0;"/><text fill="#000000" font-family="sans-serif" font-size="14" lengthAdjust="spacing" textLength="143.6641" x="42.17" y="241.5352">fireRate : float = 0.5f</text><line style="stroke:#181818;stroke-width:0.5;" x1="23.17" x2="190.8341" y1="248.4883" y2="248.4883"/></g><!--class BulletParams--><g id="elem_BulletParams"><rect fill="#F1F1F1" height="48" id="BulletParams" rx="2.5" ry="2.5" style="stroke:#181818;stroke-width:0.5;" width="119.0078" x="47.5" y="84"/><ellipse cx="62.5" cy="100" fill="#ADD1B2" rx="11" ry="11" style="stroke:#181818;stroke-width:1.0;"/><path d="M64.9731,106.1431 Q64.3921,106.4419 63.7529,106.5913 Q63.1138,106.7407 62.4082,106.7407 Q59.9014,106.7407 58.5815,105.0889 Q57.2617,103.437 57.2617,100.3159 Q57.2617,97.1865 58.5815,95.5347 Q59.9014,93.8828 62.4082,93.8828 Q63.1138,93.8828 63.7612,94.0322 Q64.4087,94.1816 64.9731,94.4805 L64.9731,97.2031 Q64.3423,96.6221 63.7488,96.3523 Q63.1553,96.0825 62.5244,96.0825 Q61.1797,96.0825 60.4949,97.1492 Q59.8101,98.2158 59.8101,100.3159 Q59.8101,102.4077 60.4949,103.4744 Q61.1797,104.541 62.5244,104.541 Q63.1553,104.541 63.7488,104.2712 Q64.3423,104.0015 64.9731,103.4204 Z " fill="#000000"/><text fill="#000000" font-family="sans-serif" font-size="14" lengthAdjust="spacing" textLength="87.0078" x="76.5" y="105.291">BulletParams</text><line style="stroke:#181818;stroke-width:0.5;" x1="48.5" x2="165.5078" y1="116" y2="116"/><line style="stroke:#181818;stroke-width:0.5;" x1="48.5" x2="165.5078" y1="124" y2="124"/></g><!--link BulletParams to WeaponParams--><g id="link_BulletParams_WeaponParams"><path codeLine="6" d="M107,132.4 C107,149.5 107,160.89 107,179.65 " fill="none" id="BulletParams-to-WeaponParams" style="stroke:#181818;stroke-width:1.0;"/><polygon fill="#181818" points="107,191.65,111,185.65,107,179.65,103,185.65,107,191.65" style="stroke:#181818;stroke-width:1.0;"/></g><!--SRC=[oqlCJIqkI4nELGXFJIp8pokkvahEIImkXd834eiISuiLghaKW41R8IspA3KeiIHLmKeXBIS_iKJ1Li50ppIDgnO8eVhrd4fpSb9BO3JK05rTBPW5UiWc0m00]--></g></svg>