<svg xmlns="http://www.w3.org/2000/svg" xmlns:xlink="http://www.w3.org/1999/xlink" contentStyleType="text/css" height="128px" preserveAspectRatio="none" style="width:437px;height:128px;background:#FFFFFF;" version="1.1" viewBox="0 0 437 128" width="437px" zoomAndPan="magnify"><defs/><g><!--cluster Weapons--><g id="cluster_Weapons"><path d="M8.5,6 L73.915,6 A3.75,3.75 0 0 1 76.415,8.5 L83.415,28.4883 L427.5,28.4883 A2.5,2.5 0 0 1 430,30.9883 L430,118.99 A2.5,2.5 0 0 1 427.5,121.49 L8.5,121.49 A2.5,2.5 0 0 1 6,118.99 L6,8.5 A2.5,2.5 0 0 1 8.5,6 " fill="none" style="stroke:#000000;stroke-width:1.5;"/><line style="stroke:#000000;stroke-width:1.5;" x1="6" x2="83.415" y1="28.4883" y2="28.4883"/><text fill="#000000" font-family="sans-serif" font-size="14" font-weight="bold" lengthAdjust="spacing" textLength="64.415" x="10" y="21.5352">Weapons</text></g><!--class WeaponManager--><g id="elem_WeaponManager"><rect codeLine="2" fill="#F1F1F1" height="64.4883" id="WeaponManager" rx="2.5" ry="2.5" style="stroke:#181818;stroke-width:0.5;" width="391.5723" x="22.21" y="41"/><ellipse cx="157.7085" cy="57" fill="#ADD1B2" rx="11" ry="11" style="stroke:#181818;stroke-width:1.0;"/><path d="M160.1817,63.1431 Q159.6006,63.4419 158.9615,63.5913 Q158.3223,63.7407 157.6167,63.7407 Q155.1099,63.7407 153.7901,62.0889 Q152.4703,60.437 152.4703,57.3159 Q152.4703,54.1865 153.7901,52.5347 Q155.1099,50.8828 157.6167,50.8828 Q158.3223,50.8828 158.9698,51.0322 Q159.6172,51.1816 160.1817,51.4805 L160.1817,54.2031 Q159.5508,53.6221 158.9573,53.3523 Q158.3638,53.0825 157.7329,53.0825 Q156.3882,53.0825 155.7034,54.1492 Q155.0186,55.2158 155.0186,57.3159 Q155.0186,59.4077 155.7034,60.4744 Q156.3882,61.541 157.7329,61.541 Q158.3638,61.541 158.9573,61.2712 Q159.5508,61.0015 160.1817,60.4204 Z " fill="#000000"/><text fill="#000000" font-family="sans-serif" font-size="14" lengthAdjust="spacing" textLength="112.0752" x="178.2085" y="62.291">WeaponManager</text><line style="stroke:#181818;stroke-width:0.5;" x1="23.21" x2="412.7823" y1="73" y2="73"/><line style="stroke:#181818;stroke-width:0.5;" x1="23.21" x2="412.7823" y1="81" y2="81"/><ellipse cx="33.21" cy="94.7441" fill="#84BE84" rx="3" ry="3" style="stroke:#038048;stroke-width:1.0;"/><text fill="#000000" font-family="sans-serif" font-size="14" lengthAdjust="spacing" textLength="365.5723" x="42.21" y="98.5352">CreateWeapons(weaponList:List&lt;GameObject&gt;) : void</text></g><!--SRC=[oqlCJIqkI4nELGXFJIp8pokkvahEIImkXd9z4_CIqrEB5Agv5810My6vA3Mn91MgLACSJFja5fTOWGWRTw1X_abPgSabTfeALWfb-PafNBLSjG00]--></g></svg>