<svg xmlns="http://www.w3.org/2000/svg" xmlns:xlink="http://www.w3.org/1999/xlink" contentStyleType="text/css" height="317px" preserveAspectRatio="none" style="width:476px;height:317px;background:#FFFFFF;" version="1.1" viewBox="0 0 476 317" width="476px" zoomAndPan="magnify"><defs/><g><!--cluster Managers--><g id="cluster_Managers"><path d="M8.5,129 L79.582,129 A3.75,3.75 0 0 1 82.082,131.5 L89.082,151.4883 L466.5,151.4883 A2.5,2.5 0 0 1 469,153.9883 L469,307.94 A2.5,2.5 0 0 1 466.5,310.44 L8.5,310.44 A2.5,2.5 0 0 1 6,307.94 L6,131.5 A2.5,2.5 0 0 1 8.5,129 " fill="none" style="stroke:#000000;stroke-width:1.5;"/><line style="stroke:#000000;stroke-width:1.5;" x1="6" x2="89.082" y1="151.4883" y2="151.4883"/><text fill="#000000" font-family="sans-serif" font-size="14" font-weight="bold" lengthAdjust="spacing" textLength="70.082" x="10" y="144.5352">Managers</text></g><!--cluster Players--><g id="cluster_Players"><path d="M211.5,6 L264.5146,6 A3.75,3.75 0 0 1 267.0146,8.5 L274.0146,28.4883 L402.5,28.4883 A2.5,2.5 0 0 1 405,30.9883 L405,102.5 A2.5,2.5 0 0 1 402.5,105 L211.5,105 A2.5,2.5 0 0 1 209,102.5 L209,8.5 A2.5,2.5 0 0 1 211.5,6 " fill="none" style="stroke:#000000;stroke-width:1.5;"/><line style="stroke:#000000;stroke-width:1.5;" x1="209" x2="274.0146" y1="28.4883" y2="28.4883"/><text fill="#000000" font-family="sans-serif" font-size="14" font-weight="bold" lengthAdjust="spacing" textLength="52.0146" x="213" y="21.5352">Players</text></g><!--class BattleState--><g id="elem_BattleState"><rect codeLine="2" fill="#F1F1F1" height="113.9531" id="BattleState" rx="2.5" ry="2.5" style="stroke:#181818;stroke-width:0.5;" width="103.6475" x="22.18" y="172.24"/><ellipse cx="37.18" cy="188.24" fill="#EB937F" rx="11" ry="11" style="stroke:#181818;stroke-width:1.0;"/><path d="M40.7943,194.74 L33.0745,194.74 L33.0745,182.3469 L40.7943,182.3469 L40.7943,184.5051 L35.5233,184.5051 L35.5233,187.178 L40.2962,187.178 L40.2962,189.3362 L35.5233,189.3362 L35.5233,192.5818 L40.7943,192.5818 Z " fill="#000000"/><text fill="#000000" font-family="sans-serif" font-size="14" lengthAdjust="spacing" textLength="71.6475" x="51.18" y="193.531">BattleState</text><line style="stroke:#181818;stroke-width:0.5;" x1="23.18" x2="124.8275" y1="204.24" y2="204.24"/><text fill="#000000" font-family="sans-serif" font-size="14" lengthAdjust="spacing" textLength="35.9023" x="28.18" y="221.7752">Start,</text><text fill="#000000" font-family="sans-serif" font-size="14" lengthAdjust="spacing" textLength="42.5332" x="28.18" y="238.2634">Battle,</text><text fill="#000000" font-family="sans-serif" font-size="14" lengthAdjust="spacing" textLength="61.7422" x="28.18" y="254.7517">Upgrade,</text><text fill="#000000" font-family="sans-serif" font-size="14" lengthAdjust="spacing" textLength="29.5176" x="28.18" y="271.24">End,</text><line style="stroke:#181818;stroke-width:0.5;" x1="23.18" x2="124.8275" y1="278.1931" y2="278.1931"/></g><!--class Battle--><g id="elem_Battle"><rect codeLine="8" fill="#F1F1F1" height="130.4414" id="Battle" rx="2.5" ry="2.5" style="stroke:#181818;stroke-width:0.5;" width="292.6152" x="160.69" y="164"/><ellipse cx="283.6959" cy="180" fill="#ADD1B2" rx="11" ry="11" style="stroke:#181818;stroke-width:1.0;"/><path d="M286.169,186.1431 Q285.5879,186.4419 284.9488,186.5913 Q284.3096,186.7407 283.6041,186.7407 Q281.0972,186.7407 279.7774,185.0889 Q278.4576,183.437 278.4576,180.3159 Q278.4576,177.1865 279.7774,175.5347 Q281.0972,173.8828 283.6041,173.8828 Q284.3096,173.8828 284.9571,174.0322 Q285.6046,174.1816 286.169,174.4805 L286.169,177.2031 Q285.5381,176.6221 284.9446,176.3523 Q284.3511,176.0825 283.7203,176.0825 Q282.3755,176.0825 281.6907,177.1492 Q281.0059,178.2158 281.0059,180.3159 Q281.0059,182.4077 281.6907,183.4744 Q282.3755,184.541 283.7203,184.541 Q284.3511,184.541 284.9446,184.2712 Q285.5381,184.0015 286.169,183.4204 Z " fill="#000000"/><text fill="#000000" font-family="sans-serif" font-size="14" lengthAdjust="spacing" textLength="38.1035" x="304.1959" y="185.291">Battle</text><line style="stroke:#181818;stroke-width:0.5;" x1="161.69" x2="452.3052" y1="196" y2="196"/><ellipse cx="171.69" cy="209.7441" fill="none" rx="3" ry="3" style="stroke:#038048;stroke-width:1.0;"/><text fill="#000000" font-family="sans-serif" font-size="14" lengthAdjust="spacing" textLength="203.2324" x="180.69" y="213.5352">UpgradablePlayerId : int &#171;get&#187;</text><line style="stroke:#181818;stroke-width:0.5;" x1="161.69" x2="452.3052" y1="220.4883" y2="220.4883"/><ellipse cx="171.69" cy="234.2324" fill="#84BE84" rx="3" ry="3" style="stroke:#038048;stroke-width:1.0;"/><text fill="#000000" font-family="sans-serif" font-size="14" lengthAdjust="spacing" textLength="214.4365" x="180.69" y="238.0234">SetState(state:BattleState) : void</text><ellipse cx="171.69" cy="250.7207" fill="#84BE84" rx="3" ry="3" style="stroke:#038048;stroke-width:1.0;"/><text fill="#000000" font-family="sans-serif" font-size="14" lengthAdjust="spacing" textLength="266.6152" x="180.69" y="254.5117">SetUpgradablePlayer(playerId:int) : void</text><ellipse cx="171.69" cy="267.209" fill="#84BE84" rx="3" ry="3" style="stroke:#038048;stroke-width:1.0;"/><text fill="#000000" font-family="sans-serif" font-size="14" lengthAdjust="spacing" textLength="222.5303" x="180.69" y="271">OnPlayerDead(playerId:int) : void</text><ellipse cx="171.69" cy="283.6973" fill="#84BE84" rx="3" ry="3" style="stroke:#038048;stroke-width:1.0;"/><text fill="#000000" font-family="sans-serif" font-size="14" lengthAdjust="spacing" textLength="117.2705" x="180.69" y="287.4883">Construct() : void</text></g><!--class IBattleStateProvider--><g id="elem_IBattleStateProvider"><rect fill="#F1F1F1" height="48" id="IBattleStateProvider" rx="2.5" ry="2.5" style="stroke:#181818;stroke-width:0.5;" width="163.3799" x="225.31" y="41"/><ellipse cx="240.31" cy="57" fill="#ADD1B2" rx="11" ry="11" style="stroke:#181818;stroke-width:1.0;"/><path d="M242.7831,63.1431 Q242.2021,63.4419 241.5629,63.5913 Q240.9238,63.7407 240.2182,63.7407 Q237.7114,63.7407 236.3915,62.0889 Q235.0717,60.437 235.0717,57.3159 Q235.0717,54.1865 236.3915,52.5347 Q237.7114,50.8828 240.2182,50.8828 Q240.9238,50.8828 241.5712,51.0322 Q242.2187,51.1816 242.7831,51.4805 L242.7831,54.2031 Q242.1523,53.6221 241.5588,53.3523 Q240.9653,53.0825 240.3344,53.0825 Q238.9897,53.0825 238.3049,54.1492 Q237.6201,55.2158 237.6201,57.3159 Q237.6201,59.4077 238.3049,60.4744 Q238.9897,61.541 240.3344,61.541 Q240.9653,61.541 241.5588,61.2712 Q242.1523,61.0015 242.7831,60.4204 Z " fill="#000000"/><text fill="#000000" font-family="sans-serif" font-size="14" lengthAdjust="spacing" textLength="131.3799" x="254.31" y="62.291">IBattleStateProvider</text><line style="stroke:#181818;stroke-width:0.5;" x1="226.31" x2="387.6899" y1="73" y2="73"/><line style="stroke:#181818;stroke-width:0.5;" x1="226.31" x2="387.6899" y1="81" y2="81"/></g><!--reverse link IBattleStateProvider to Battle--><g id="link_IBattleStateProvider_Battle"><path codeLine="16" d="M307,107.24 C307,126.69 307,137.4 307,163.69 " fill="none" id="IBattleStateProvider-backto-Battle" style="stroke:#181818;stroke-width:1.0;"/><polygon fill="none" points="307,89.24,301,107.24,313,107.24,307,89.24" style="stroke:#181818;stroke-width:1.0;"/></g><!--SRC=[VOzD2eCm48NtdcAMbceF8EAYFmiNfOBq05CpY12Z9ADGh7TlQa8hBff0UCDyxyr4OKkcnuhWYWfhqcOAI0qj795PKid815C0zbYjELgaQpfzxskDmXSN9Q9W3Yg9ndZAk_SUn8UaGkAJT2uWWKOnf6bDd6KUAucNgQ7vlCbgZvtbnwuHFt0R6VO-ER6v6_oc77Cc5F-uKwSCww7YyDkOxNLcSyXN2nMw6nj16j9N7FlllW40]--></g></svg>